<svg id="Capa_1" data-name="Capa 1" xmlns="http://www.w3.org/2000/svg" viewBox="0 0 350 350"><defs><style>.cls-1{fill:#fff;}.cls-2{fill:#f4cdb0;}.cls-3{fill:#2d375a;}.cls-4{fill:#008d36;}.cls-5{fill:#d8454f;}.cls-6{fill:#c5d0ef;}.cls-7{fill:#ebc846;}.cls-8{fill:#272c4a;}</style></defs><rect class="cls-1" width="350" height="350"/><path class="cls-2" d="M207.1,142.77c-8.21,16-16.75,32.51-29.5,45.56-5.53-3.53-11.13-7.06-16.7-10.5a17.85,17.85,0,0,0,1.07-5.52,19,19,0,0,0-5.33-13.64c-.41-.43-.84-.84-1.27-1.25a18.11,18.11,0,0,1-2.06-2.17c-.08-.11-.14-.23-.22-.34,7.7-5.27,7.62-11.7,7.56-16V138c0-2.78-1-6.66-3.24-8.62a4.64,4.64,0,0,0-3.66-1.23,13.27,13.27,0,0,0-4.68,1.71l-.54.28a27.61,27.61,0,0,1-10.59,3.16,3.57,3.57,0,0,1-1.83-.21A4.08,4.08,0,0,1,135,132c-.43-.58-.82-1.18-1.23-1.77,4.65-3.72,6-7.35,6.77-12.29a1.31,1.31,0,0,0-.54-1.26,1.33,1.33,0,0,0-1.36-.09l-9.71,5.13c-.55-1.21-1.06-2.44-1.52-3.69h0a1.5,1.5,0,0,0-.25-.4l0,0c-.05-.05-.11-.07-.15-.11a1.16,1.16,0,0,0-.27-.18,0,0,0,0,0,0,0,29.41,29.41,0,0,1-7.53-4.6,16.1,16.1,0,0,0,4.07-10.3,31,31,0,0,0-.51-5.42c-.14-.85-.27-1.7-.36-2.55a28.55,28.55,0,0,1,6.37-21.1c.87-.61,6.8-4.5,12.24-1.81,5.6,9.35,18.67,25.11,19.23,25.78a1.29,1.29,0,0,0,1.48.37,1.31,1.31,0,0,0,1.14-.61,37.76,37.76,0,0,1,5.35-7.3l2.16.58-.23.43-2.48,4.75a2.11,2.11,0,0,0-.28,1.14,2.22,2.22,0,0,0,1.44,1.78,1.41,1.41,0,0,1,.59,1.55,1.86,1.86,0,0,1-1.53,1.21,1.3,1.3,0,0,0,.16,2.6h.15l1.79,1.7a1.29,1.29,0,0,0-.4,1.25,1.31,1.31,0,0,0,1.28,1,1.13,1.13,0,0,0,.3,0,8.91,8.91,0,0,0,3-1.37l.9,3.82c1.69,7.21,3.61,15.4,5.78,21.79,1.28,3.79,2.81,7.68,6.14,10,2.53,1.78,5.93,2.5,10.12,2.14,1.56-.13,3.1-.39,4.6-.64,1.69-.28,3.29-.55,4.92-.66C206.78,142.76,206.94,142.78,207.1,142.77Zm-65.68-42.68a1.08,1.08,0,0,0,.52-1.44,5,5,0,0,0-5.4-2.79,4.75,4.75,0,0,0-1.23.39,5,5,0,0,0-2.4,6.63,1.09,1.09,0,0,0,2-.92,2.81,2.81,0,0,1,1.35-3.74A2.83,2.83,0,0,1,140,99.57,1.07,1.07,0,0,0,141.42,100.09Zm.44-10.61A1.34,1.34,0,0,0,140.73,88a24.63,24.63,0,0,0-6.55-.33c-2.77.31-5.52,1.47-7,4.61a1.3,1.3,0,0,0,.62,1.74,1.24,1.24,0,0,0,.56.13,1.3,1.3,0,0,0,1.18-.75,5.72,5.72,0,0,1,4.9-3.14,23.53,23.53,0,0,1,6,.34A1.29,1.29,0,0,0,141.86,89.48Z"/><path class="cls-3" d="M226.37,184.08a121.16,121.16,0,0,1-4.44,32,1.37,1.37,0,0,1,.13.2A275.36,275.36,0,0,0,237.32,250a1.54,1.54,0,0,1,.05.17,48.11,48.11,0,0,0,14.54-33.07,31.67,31.67,0,0,0-.63-7.45c-1.55-7.12-6-12.46-9.51-15.69A59.69,59.69,0,0,0,226.37,184.08ZM162,95.78s4.6-8.15,9.29-9.67,7,4.73,7,4.73v4.94l2.46-6.2.72-10.7-4.33-10.44-6.67-5.66-6-3.84L142,70.16l17.18,24.3Zm-43.44,23.44c-1.19-2.16-2.56-4.28-3.89-6.34a79.4,79.4,0,0,1-5.1-8.64,41.93,41.93,0,0,1,1.74-38.81,41.36,41.36,0,0,1,16.23-15.14,1.13,1.13,0,0,1,.38-.19,40.57,40.57,0,0,1,16.78-4.54,25.74,25.74,0,0,1,13.53,2.68c8.56-1.15,18.53,1.5,25,6.69a31.43,31.43,0,0,1,11.42,22.12c.11,1.83.07,3.72,0,5.54-.1,4.6-.19,8.94,2,12.47a22.17,22.17,0,0,0,3.22,3.72,30,30,0,0,1,3,3.33,15.47,15.47,0,0,1,3,7.74c.08.83.09,1.67.1,2.52a11.41,11.41,0,0,0,.72,4.78,10.91,10.91,0,0,0,2.16,2.7c.43.45.87.9,1.27,1.37,4.76,5.59,4.73,12.16,4.23,19.55a1.22,1.22,0,0,1-.13.47,44.12,44.12,0,0,1,4.32,1.6,1.3,1.3,0,0,1,1.05.47c1,.46,2.09.95,3.12,1.43s2,.93,3,1.36c35.95,16,54.13,38.32,54,66.26,0,11.78-7.91,42.77-41.21,59.39a34.74,34.74,0,0,0,3.88-3.47,1.37,1.37,0,0,0,.15-1.71C270.23,250.09,277,223,277,212.35c.1-27.19-17.07-48.07-52.48-63.86-1-.44-2-.91-3-1.38l-.8-.37a121.92,121.92,0,0,1,5.59,34.56,1.23,1.23,0,0,1,.53.11c7.14,3.33,12.44,6.7,16.67,10.62,5.39,5,8.95,10.89,10.28,17.05a34.1,34.1,0,0,1,.7,8A51,51,0,0,1,233.38,257l-.4-.45s-.07-.05-.11-.09a1.26,1.26,0,0,0-.15-.34h0a1.38,1.38,0,0,0-1.92-.32,27.42,27.42,0,0,1-4.36,2.44,46.09,46.09,0,0,0,9.23-6.4,1.29,1.29,0,0,1-.65-.55,279,279,0,0,1-15.4-34,1.12,1.12,0,0,1-.06-.35,1.27,1.27,0,0,1-.23-1.13,119.84,119.84,0,0,0-1.78-70.42,29.9,29.9,0,0,0-7.72-2.35,1.12,1.12,0,0,1-.13.53c-8.41,16.4-17.11,33.35-30.36,46.84a1.23,1.23,0,0,1-.18.58,1.31,1.31,0,0,1-1.81.39c-5.79-3.71-11.69-7.43-17.54-11a17.08,17.08,0,0,1-4.31,5.24l-.32.26a4.43,4.43,0,0,0-1.33,1.34,3.36,3.36,0,0,0-.18,1.63,14.33,14.33,0,0,0,1.11,4.72l-.48.23-1.6-3.42v-3.87s9.49-5.89,8.22-14.75-6.15-13.25-6.15-13.25l-3.68-4.07,2.63-1.78,4.34-4.65s1.66-6.33,1.66-6.35-1.66-8.23-1.66-8.23l-2.71-3-2.65-.84-7.23,2.76-6.75,2.48-3.25-1.12-2-3.16.33-.21c.41.59.8,1.19,1.23,1.77a4.08,4.08,0,0,0,1.09,1.13,3.57,3.57,0,0,0,1.83.21,27.61,27.61,0,0,0,10.59-3.16l.54-.28a13.27,13.27,0,0,1,4.68-1.71,4.64,4.64,0,0,1,3.66,1.23c2.2,2,3.22,5.84,3.24,8.62v.91c.06,4.31.14,10.74-7.56,16,.08.11.14.23.22.34a18.11,18.11,0,0,0,2.06,2.17c.43.41.86.82,1.27,1.25A19,19,0,0,1,162,172.31a17.85,17.85,0,0,1-1.07,5.52c5.57,3.44,11.17,7,16.7,10.5,12.75-13.05,21.29-29.55,29.5-45.56-.16,0-.32,0-.48,0-1.63.11-3.23.38-4.92.66-1.5.25-3,.51-4.6.64-4.19.36-7.59-.36-10.12-2.14-3.33-2.34-4.86-6.23-6.14-10-2.17-6.39-4.09-14.58-5.78-21.79l-.9-3.82a8.91,8.91,0,0,1-3,1.37,1.13,1.13,0,0,1-.3,0,1.31,1.31,0,0,1-1.28-1,1.29,1.29,0,0,1,.4-1.25,1.32,1.32,0,0,1,.58-.32c2.6-.6,4.82-3,5.67-6.13.69-2.55.58-5.54-.33-9.42-.44-1.82-1-2.81-1.83-3a2.75,2.75,0,0,0-1.65.24,13.36,13.36,0,0,0-4.21,2.94,37.76,37.76,0,0,0-5.35,7.3,1.31,1.31,0,0,1-1.14.61,1.29,1.29,0,0,1-1.48-.37c-.56-.67-13.63-16.43-19.23-25.78-5.44-2.69-11.37,1.2-12.24,1.81a28.55,28.55,0,0,0-6.37,21.1c.09.85.22,1.7.36,2.55a31,31,0,0,1,.51,5.42,16.1,16.1,0,0,1-4.07,10.3,29.41,29.41,0,0,0,7.53,4.6,0,0,0,0,1,0,0,1.16,1.16,0,0,1,.27.18s.1.06.15.11l0,0a1.5,1.5,0,0,1,.25.4h0c.46,1.25,1,2.48,1.52,3.69l-.74.47-1.86-2.91-8-4.62s10.29,13.79,1.92,27.71-5.92,19.13-3.68,23.91a36.59,36.59,0,0,0,4.87,7l-.45.38c-.32-.39-.65-.77-1-1.14a36.38,36.38,0,0,1-4.52-6.1,19.12,19.12,0,0,1-1.56-14.48,37.33,37.33,0,0,1,4-8.28c1.71-2.86,3.32-5.57,4-8.61,1-4.32,0-9.32-2.89-14.87-.1-.2-.21-.41-.33-.62S118.61,119.31,118.56,119.22Z"/><path class="cls-3" d="M171.29,86.11c-4.69,1.52-9.29,9.67-9.29,9.67l-2.78-1.32L142,70.16l22.42-11.22,6,3.84,6.67,5.66,4.33,10.44-.72,10.7-2.46,6.2V90.84S176,84.59,171.29,86.11Zm.12-1.77A5.12,5.12,0,0,1,174.8,84c2.64.77,3.39,3.92,3.63,4.95.2.84.4,1.81.56,2.85a23.55,23.55,0,0,0-.09-15.44,28,28,0,0,0-14.57-16.18L143.75,71c4.89,7.86,14.61,19.87,17.59,23.51C163.86,90.4,167,86.2,171.41,84.34Z"/><path class="cls-3" d="M160.91,202.61l3.67,9s-2,14.37-3,14.25-9.37,12-23.37,8.13-15.5-14.13-15.5-14.13l4.63,1.5h2.76l2.11-4.24s.71-2.11-8-6.26-5-14-5-14l3.39-4.75s3.63-5,3.88-5.38a13.55,13.55,0,0,0,.5-2.65l-.75-5.59s-2.35-2.36-4.81-5.28a36.59,36.59,0,0,1-4.87-7c-2.24-4.78-4.69-10,3.68-23.91s-1.92-27.71-1.92-27.71l8,4.62,1.86,2.91,5.25,8.25,2,3.16,3.25,1.12,6.75-2.48,7.23-2.76,2.65.84,2.71,3s1.66,8.21,1.66,8.23-1.66,6.35-1.66,6.35l-4.34,4.65-2.63,1.78,3.68,4.07s4.88,4.39,6.15,13.25-8.22,14.75-8.22,14.75v3.87l1.6,3.42,1.38,3Z"/><path class="cls-3" d="M99.84,142.67c1.8-1,3.23-4,3.63-5.13,0,0,0,0,0,0a4.51,4.51,0,0,0-.73-1.07l-.69,0c-1.79,0-5.16.43-5.59,3.62-.14,1-.14,2.26.57,2.74A3.33,3.33,0,0,0,99.84,142.67ZM130.62,218a2.19,2.19,0,0,0,0-1.83c-.7-1.41-2.84-2.34-3.61-2.58a12.75,12.75,0,0,1-8.15-19.18,24.89,24.89,0,0,1,3.06-3.75,14.55,14.55,0,0,0,3.45-4.82,6.66,6.66,0,0,0,.33-1.57,63.08,63.08,0,0,1-10.58,12.47c-5.46,4.7-11.77,7.4-17.76,7.58h-.63c-6.94,0-13.33-3.45-16.42-8.91a21.94,21.94,0,0,1-2.4-11.86,37.18,37.18,0,0,1,2.17-11c2.54-7.05,7.34-13.81,15.11-21.26a33.25,33.25,0,0,1,3.19-2.54c2-1.49,4.16-3,5-4.74a8.45,8.45,0,0,0,.58-1.67,9,9,0,0,1-2.73,2.62c-1,.56-3.64,1.3-5.57,0a3.78,3.78,0,0,1-1.3-1.56L71,157.14a1.35,1.35,0,0,1-.67.18s-.1,0-.16,0c-7.13,10.05-9.34,23.87-9.5,30a45,45,0,0,0,.41,8.11c1.76,11.28,10.5,21.76,22.26,26.7A44.33,44.33,0,0,0,121.28,220c0-.29,0-.57,0-.85a1.29,1.29,0,0,1,.75-1.19,1.32,1.32,0,0,1,1.4.18c.87.73,3.53,2.52,5.36,2A3,3,0,0,0,130.62,218ZM69.24,154.87l.55.91,24.75-14.27.59-6.15,1.22,0,.06,0,.83.43-.28.53,7.06-1.66,1.36-1.39s3.22.5,3.82.71l.15,0,0,.8h-.17a9.75,9.75,0,0,1-2-.2l-1.86,1c1.9,2.86,1.59,6.75.29,9.52-1.07,2.31-3.46,4.06-5.78,5.75A32.08,32.08,0,0,0,97,153.16c-7.47,7.16-12.06,13.6-14.46,20.26a34.23,34.23,0,0,0-2,10.26,19.36,19.36,0,0,0,2.06,10.46c2.66,4.71,8.54,7.75,14.69,7.57,5.4-.16,11.12-2.63,16.13-6.94,4.38-3.78,7.82-8.41,11.64-14.21,0-.07.11-.1.16-.16a17.22,17.22,0,0,0-2.37-4.48c-.57-.79-1.21-1.57-1.85-2.33l.45-.38c2.46,2.92,4.81,5.28,4.81,5.28l.75,5.59a13.55,13.55,0,0,1-.5,2.65c-.25.38-3.88,5.38-3.88,5.38l-3.39,4.75s-3.69,9.85,5,14,8,6.26,8,6.26l-2.11,4.24h-2.76l-4.63-1.5s1.5,10.25,15.5,14.13,22.37-8.25,23.37-8.13,3-14.25,3-14.25l-3.67-9-5.24-6-1.38-3,.48-.23a14.35,14.35,0,0,0,1.4,2.55,29.54,29.54,0,0,0,2.76,3.25c.8.87,1.63,1.76,2.39,2.73a21,21,0,0,1-15.89,34h-.09l-.76,0-1.17,0-.41-.05a1.27,1.27,0,0,1,0,.77,184.45,184.45,0,0,0-8,29.08c-.52-.43-.8-.68-.82-.7l-2,2.07a1.11,1.11,0,0,1,0-.6,186.15,186.15,0,0,1,8.41-30.76.87.87,0,0,1,.11-.18,34.73,34.73,0,0,1-5.42-1.47c-.9-.32-1.73-.65-2.52-1a1.27,1.27,0,0,1-.66-.29,23,23,0,0,1-6.08-3.85,14.9,14.9,0,0,1-4.14-6.29A46.75,46.75,0,0,1,100.05,228a45.81,45.81,0,0,1-17.73-3.51c-12.57-5.28-21.93-16.55-23.83-28.7a47.58,47.58,0,0,1-.43-8.58c.16-6.44,2.53-21.12,10.2-31.73Z"/><path class="cls-2" d="M224.55,148.49C260,164.28,277.13,185.16,277,212.35c0,10.67-6.8,37.74-34.56,54.22a1.37,1.37,0,0,0-.19-.23,1.32,1.32,0,0,0-.51-.3s0-.09-.08-.12c-2.84-2.9-5.64-5.91-8.31-9a51,51,0,0,0,21.15-39.82,34.1,34.1,0,0,0-.7-8c-1.33-6.16-4.89-12.06-10.28-17.05-4.23-3.92-9.53-7.29-16.67-10.62a1.23,1.23,0,0,0-.53-.11,121.92,121.92,0,0,0-5.59-34.56l.8.37C222.57,147.58,223.56,148.05,224.55,148.49Z"/><path class="cls-2" d="M239.39,267.31c-.88.83-1.77,1.59-2.65,2.27a69.76,69.76,0,0,1-7.89-9.51,28.63,28.63,0,0,0,2.53-1.43C234,261.6,236.65,264.5,239.39,267.31Z"/><path class="cls-2" d="M231.66,268c.85,1,1.73,1.93,2.63,2.85-.87.4-1.77.78-2.68,1.15v-.43Z"/><path class="cls-3" d="M234.58,271.12a33.1,33.1,0,0,1-3,1.73c0-.29,0-.59,0-.88.91-.37,1.81-.75,2.68-1.15Z"/><path class="cls-4" d="M228.74,259.91a46.07,46.07,0,0,0,4.64-3c2.67,3.06,5.47,6.07,8.31,9,0,0,.05.08.08.12a1.32,1.32,0,0,1,.51.3,1.37,1.37,0,0,1,.19.23q-2.7,1.62-5.7,3.08l0-.07c.88-.68,1.77-1.44,2.65-2.27-2.74-2.81-5.43-5.71-8-8.67a28.63,28.63,0,0,1-2.53,1.43Z"/><path class="cls-2" d="M229.11,264.89c0,.05,0,.1,0,.15L229,271.5c0,.48,0,1,0,1.5-.88.33-1.77.65-2.68,1l-2.83-11.53c.71-.29,1.43-.6,2.13-.93l.43-.21.35-.13c.14.21.28.43.43.64C227.56,262.85,228.33,263.87,229.11,264.89Z"/><path class="cls-3" d="M229,273a9.2,9.2,0,0,0,.06,1c-1,.42-1.85.71-2.5.91l-.24-1C227.23,273.65,228.12,273.33,229,273Z"/><path class="cls-4" d="M231.61,272c-.85.36-1.72.7-2.61,1,0-.52,0-1,0-1.5l.09-6.46c0-.05,0-.1,0-.15-.78-1-1.55-2-2.28-3.09-.15-.21-.29-.43-.43-.64l-.35.13c.91-.43,1.81-.89,2.69-1.38l.11.16a69.76,69.76,0,0,0,7.89,9.51l0,.07c-.81.4-1.64.79-2.48,1.17-.9-.92-1.78-1.87-2.63-2.85l0,3.57Z"/><path class="cls-4" d="M240.35,278.2a16.2,16.2,0,0,0,13.84,7.49c-.79-1.71-2.7-4.75-7.08-8a18.83,18.83,0,0,0-8.48-3A24.71,24.71,0,0,0,240.35,278.2Zm-8.11,15.53c1.4-2.08,3.22-5,3.63-6.54,1.16-4.45-1.07-9.31-2.32-11.57a14,14,0,0,0-3.87,9C229.55,287,231.06,291,232.24,293.73Zm-2.9-16.82a23.86,23.86,0,0,1-3.52,1.08,1.39,1.39,0,0,1-1.34-.48c.2-.14.4-.26.61-.38a92.17,92.17,0,0,0,13.35-5.38l-.33.26c2.34.21,7,1,10.55,3.58,7.58,5.59,8.6,10.83,8.64,11.05a1.32,1.32,0,0,1-.23,1,1.36,1.36,0,0,1-.89.53,19,19,0,0,1-17.56-7.82q-.26-.37-.51-.78c0-.07-.08-.16-.13-.23a15.8,15.8,0,0,1,.43,8.51c-.78,3-4.88,8.63-5.34,9.26a1.29,1.29,0,0,1-1.16.53,1.33,1.33,0,0,1-1-.56l-.09-.15c-.16-.33-4-8-3.78-12.48A16.94,16.94,0,0,1,229.34,276.91Z"/><path class="cls-3" d="M225.62,261.5c-.7.33-1.42.64-2.13.93l-.09-.38a17.93,17.93,0,0,0,2.65-.76Z"/><path class="cls-4" d="M224.17,274.67c.73-.23,1.45-.47,2.15-.71l.24,1c.65-.2,1.5-.49,2.5-.91a9.2,9.2,0,0,1-.06-1c.89-.33,1.76-.67,2.61-1,0,.29,0,.59,0,.88a33.1,33.1,0,0,0,3-1.73l-.29-.3c.84-.38,1.67-.77,2.48-1.17q3-1.45,5.7-3.08a1.37,1.37,0,0,1-.15,1.71,34.74,34.74,0,0,1-3.88,3.47,92.17,92.17,0,0,1-13.35,5.38c-.21.12-.41.24-.61.38l-.06-.08a1.34,1.34,0,0,1-.22-.52,1.32,1.32,0,0,1,0-.56l-.37-1.52.07,0A1,1,0,0,1,224.17,274.67Z"/><path class="cls-4" d="M223.84,274.83l-2.8-11.4c.81-.32,1.63-.65,2.45-1L226.32,274c-.7.24-1.42.48-2.15.71a1,1,0,0,0-.26.12Z"/><path class="cls-4" d="M221,263.43l-.54-2.2a1.31,1.31,0,0,1,0-.39c1.36-.54,2.73-1.11,4.05-1.72.65-.3,1.28-.61,1.91-.94a27.42,27.42,0,0,0,4.36-2.44,1.38,1.38,0,0,1,1.92.32h0a1.26,1.26,0,0,1,.15.34s.08,0,.11.09l.4.45a46.07,46.07,0,0,1-4.64,3c-.88.49-1.78.95-2.69,1.38a17.93,17.93,0,0,1-2.65.76l.09.38C222.67,262.78,221.85,263.11,221,263.43Z"/><path class="cls-4" d="M221.48,259.64a1.4,1.4,0,0,1,.41-.13,15.39,15.39,0,0,0,4.54-1.33c-.63.33-1.26.64-1.91.94-1.32.61-2.69,1.18-4.05,1.72a1.31,1.31,0,0,1,.88-1.15l.08,0h0Z"/><path class="cls-5" d="M219.89,284.58a10.63,10.63,0,0,1-3.12,3.63l-2.18-1.52c1-.9,2.17-2,3.54-3.39Z"/><path class="cls-3" d="M216.77,288.21a10.63,10.63,0,0,0,3.12-3.63l-1.76-1.28c-1.37,1.38-2.54,2.49-3.54,3.39Zm3.86-2.46-3.39,3.81-4.11-2.28,4.4-5.34,4.4,2.34Z"/><path class="cls-5" d="M200,270.11l-3.13,4.24-5.48-3.81a19.36,19.36,0,0,0,3.09-4.45Z"/><path class="cls-5" d="M193.89,257.57a16.33,16.33,0,0,1-1.18,6.11l-25.5-19.06a16.48,16.48,0,0,1,26.68,12.95Z"/><path class="cls-3" d="M193.71,283.43h-.11a2,2,0,0,1,.08-.26Z"/><path class="cls-2" d="M200.92,277.4l-6.27,7.79a4.91,4.91,0,0,1-1-.79,1,1,0,0,1-.1-1h.11l0-.25c.07-.19.13-.31.13-.31l11.49-15.54a1.31,1.31,0,1,0-2.1-1.56l-1.61,2.17L200,266.37a10,10,0,0,1,6.31-4.23c4.88-.82,9.48,2.68,9.53,2.71a1.29,1.29,0,0,0,1.31.17c1.11-.47,2.24-.92,3.37-1.36l.57-.23,2.8,11.4a21.06,21.06,0,0,0-4.82,3.79c-6.3,6.66-9.7,9.23-10.69,9.42a6.55,6.55,0,0,1-1.15.12l3.44-4.28a1.31,1.31,0,0,0-2-1.64l-5.84,7.26A1.65,1.65,0,0,1,201,289l5.63-7.25a1.31,1.31,0,1,0-2.06-1.61l-6.45,8.3-.11.16a.9.9,0,0,1-1.26.43,2.12,2.12,0,0,1-1.08-1,1.44,1.44,0,0,0,.43-.35L203,279a1.3,1.3,0,0,0-.2-1.84A1.32,1.32,0,0,0,200.92,277.4Z"/><path class="cls-3" d="M217.24,289.56l3.39-3.81,1.3-1.47-4.4-2.34-4.4,5.34Zm-26.32-5.83c.88-.08,1.78-.18,2.68-.29a1,1,0,0,0,.1,1,4.91,4.91,0,0,0,1,.79l6.27-7.79a1.32,1.32,0,0,1,1.84-.2A1.3,1.3,0,0,1,203,279l-6.9,8.56a1.44,1.44,0,0,1-.43.35,2.12,2.12,0,0,0,1.08,1,.9.9,0,0,0,1.26-.43l.11-.16,6.45-8.3a1.31,1.31,0,1,1,2.06,1.61L201,289a1.65,1.65,0,0,0,1.78.55l5.84-7.26a1.31,1.31,0,0,1,2,1.64l-3.44,4.28a6.55,6.55,0,0,0,1.15-.12c1-.19,4.39-2.76,10.69-9.42a21.06,21.06,0,0,1,4.82-3.79l.37,1.52a1.32,1.32,0,0,0,0,.56,1.34,1.34,0,0,0,.22.52l.06.08a18.72,18.72,0,0,0-3.56,2.91l-.94,1,2.28,1.66a1.31,1.31,0,0,1,.47,1.47,13,13,0,0,1-5.31,6.39,1.28,1.28,0,0,1-.66.18,1.26,1.26,0,0,1-.74-.24l-3.49-2.42c-2.39,1.91-3.3,2.08-3.72,2.16a9.12,9.12,0,0,1-1.7.17,3.89,3.89,0,0,1-1.74-.38l-.86,1.07a1.25,1.25,0,0,1-.61.42,5.35,5.35,0,0,1-1.68.29,4.17,4.17,0,0,1-3-1.23,3.36,3.36,0,0,1-2.09.77,3.56,3.56,0,0,1-1.6-.4,4.36,4.36,0,0,1-2.65-3.64,1.14,1.14,0,0,1,.09-.46,8,8,0,0,1-1.2-1A3.26,3.26,0,0,1,190.92,283.73Z"/><path class="cls-3" d="M191.64,281.4l.61-.83,1.1-.12.33,2.73a2,2,0,0,0-.08.26c-.9.11-1.8.21-2.68.29A4.94,4.94,0,0,1,191.64,281.4Z"/><path class="cls-5" d="M167.21,244.62l25.5,19.06a16.41,16.41,0,0,1-4.52,6.34L162,251.67A16.43,16.43,0,0,1,167.21,244.62Z"/><path class="cls-3" d="M194.47,266.09a19.36,19.36,0,0,1-3.09,4.45l5.48,3.81,3.13-4.24Zm-5.82,4.25a16.91,16.91,0,0,0,4.5-6.33l8.31,6.21-4.33,6.06Z"/><path class="cls-3" d="M193.15,264a16.91,16.91,0,0,1-4.5,6.33l-.46-.32a16.41,16.41,0,0,0,4.52-6.34Z"/><path class="cls-5" d="M162,251.67,188.19,270A16.48,16.48,0,0,1,162,251.67Z"/><path class="cls-6" d="M178.43,89c-.24-1-1-4.18-3.63-4.95a5.12,5.12,0,0,0-3.39.33c-4.46,1.86-7.55,6.06-10.07,10.12-3-3.64-12.7-15.65-17.59-23.51l20.58-10.76A28,28,0,0,1,178.9,76.37,23.55,23.55,0,0,1,179,91.81C178.83,90.77,178.63,89.8,178.43,89ZM169.36,76.7a1.31,1.31,0,0,0-1.31-1.31h-.21a1.31,1.31,0,0,0,0,2.62h.21A1.31,1.31,0,0,0,169.36,76.7Zm-3.49-5.23a1.3,1.3,0,0,0-1.31-1.31h-.21a1.31,1.31,0,1,0,0,2.61h.21A1.3,1.3,0,0,0,165.87,71.47Zm-1.74,8.72a1.31,1.31,0,0,0-1.31-1.31h-.22a1.31,1.31,0,0,0,0,2.62h.22A1.31,1.31,0,0,0,164.13,80.19ZM160.64,75a1.31,1.31,0,0,0-1.31-1.31h-.22a1.31,1.31,0,1,0,0,2.61h.22A1.31,1.31,0,0,0,160.64,75Z"/><path class="cls-3" d="M177.4,241.08a16.36,16.36,0,0,0-10.19,3.54l-.45-.34A17,17,0,0,1,193.15,264l-.44-.33a16.33,16.33,0,0,0,1.18-6.11A16.51,16.51,0,0,0,177.4,241.08Z"/><path class="cls-2" d="M168.2,89.7a13.36,13.36,0,0,1,4.21-2.94,2.75,2.75,0,0,1,1.65-.24c.8.24,1.39,1.23,1.83,3,.91,3.88,1,6.87.33,9.42-.85,3.12-3.07,5.53-5.67,6.13a1.32,1.32,0,0,0-.58.32l-1.79-1.7a4.44,4.44,0,0,0,3.73-3.07,4,4,0,0,0-1.68-4.49l2.45-4.69a1.31,1.31,0,0,0-2.32-1.21Z"/><path class="cls-3" d="M168.05,75.39a1.31,1.31,0,0,1,0,2.62h-.21a1.31,1.31,0,0,1,0-2.62Z"/><path class="cls-3" d="M169.4,99.93a1.41,1.41,0,0,0-.59-1.55,2.22,2.22,0,0,1-1.44-1.78,2.11,2.11,0,0,1,.28-1.14l2.48-4.75.23-.43a1.31,1.31,0,0,1,2.32,1.21l-2.45,4.69a4,4,0,0,1,1.68,4.49,4.44,4.44,0,0,1-3.73,3.07H168a1.3,1.3,0,0,1-.16-2.6A1.86,1.86,0,0,0,169.4,99.93Z"/><path class="cls-3" d="M164.56,70.16a1.31,1.31,0,1,1,0,2.61h-.21a1.31,1.31,0,1,1,0-2.61Z"/><path class="cls-5" d="M159.33,240.53,164,244a19,19,0,0,0-3.65,5l-4.7-3.28A5.09,5.09,0,0,1,159.33,240.53Z"/><path class="cls-3" d="M162.82,78.88a1.31,1.31,0,0,1,0,2.62h-.22a1.31,1.31,0,0,1,0-2.62Z"/><path class="cls-3" d="M167.21,244.62a16.43,16.43,0,0,0-5.21,7l-.45-.32a16.86,16.86,0,0,1,5.21-7.07Z"/><path class="cls-3" d="M160.37,257.57a16.87,16.87,0,0,1,1.18-6.22l.45.32A16.48,16.48,0,0,0,188.19,270l.46.32a17,17,0,0,1-28.28-12.77Z"/><path class="cls-3" d="M159.33,73.65a1.31,1.31,0,1,1,0,2.61h-.22a1.31,1.31,0,1,1,0-2.61Z"/><path class="cls-3" d="M159.33,240.53a5.09,5.09,0,0,0-3.66,5.14l4.7,3.28a19,19,0,0,1,3.65-5Zm-4.54,6.08c-.5-5.83,5.05-7.5,5.05-7.5l6.92,5.17a16.86,16.86,0,0,0-5.21,7.07Z"/><path class="cls-3" d="M159.33,251.41l-5.69-4a1.31,1.31,0,0,1-.56-1,7.82,7.82,0,0,1,6.28-8.66,1.3,1.3,0,0,1,1,.22l5.71,4.16a19.07,19.07,0,0,1,30.42,15.36,19.16,19.16,0,0,1-1,6l2.11,1.54a12.61,12.61,0,0,1,8.21-5.59c4.89-.82,9.3,1.7,10.92,2.77.91-.38,1.83-.74,2.75-1.11l1-.38a1.31,1.31,0,0,0,0,.39l.54,2.2-.57.23c-1.13.44-2.26.89-3.37,1.36a1.29,1.29,0,0,1-1.31-.17s-4.65-3.53-9.53-2.71a10,10,0,0,0-6.31,4.23l1.64,1.57,1.61-2.17a1.31,1.31,0,1,1,2.1,1.56l-11.49,15.54s-.06.12-.13.31l-.33-2.73-1.1.12,3.05-4.12-5.86-4.07a19.07,19.07,0,0,1-30.11-21Zm.51-12.3s-5.55,1.67-5.05,7.5l6.76,4.74a17,17,0,0,0,27.1,19l8.48,5.94,4.33-6.06L193.15,264a16.85,16.85,0,0,0,1.27-6.44,17,17,0,0,0-27.66-13.29Z"/><path class="cls-7" d="M144.58,235.93l.76,0h.09a21,21,0,0,0,15.89-34c-.76-1-1.59-1.86-2.39-2.73a29.54,29.54,0,0,1-2.76-3.25,14.36,14.36,0,0,1-2.51-7.27,3.36,3.36,0,0,1,.18-1.63,4.43,4.43,0,0,1,1.33-1.34l.32-.26a17.08,17.08,0,0,0,4.31-5.24c5.85,3.61,11.75,7.33,17.54,11a1.31,1.31,0,0,0,1.81-.39,1.23,1.23,0,0,0,.18-.58c13.25-13.49,21.95-30.44,30.36-46.84a1.12,1.12,0,0,0,.13-.53,29.9,29.9,0,0,1,7.72,2.35,119.84,119.84,0,0,1,1.78,70.42,1.27,1.27,0,0,0,.23,1.13,1.12,1.12,0,0,0,.06.35,279,279,0,0,0,15.4,34,1.29,1.29,0,0,0,.65.55,46.09,46.09,0,0,1-9.23,6.4,15.39,15.39,0,0,1-4.54,1.33,1.4,1.4,0,0,0-.41.13h0l-.08,0a1.31,1.31,0,0,0-.88,1.15l-1,.38c-.92.37-1.84.73-2.75,1.11-1.62-1.07-6-3.59-10.92-2.77a12.61,12.61,0,0,0-8.21,5.59l-2.11-1.54a19.08,19.08,0,0,0-18.11-25.15,18.94,18.94,0,0,0-11.32,3.75l-5.71-4.16a1.3,1.3,0,0,0-1-.22,7.82,7.82,0,0,0-6.28,8.66,1.31,1.31,0,0,0,.56,1l5.69,4a19.08,19.08,0,0,0,30.11,21l5.86,4.07-3.05,4.12c-32.77,3.61-53.11-11.4-57.32-14.87a184.45,184.45,0,0,1,8-29.08,1.27,1.27,0,0,0,0-.77l.41.05Z"/><path class="cls-3" d="M140.4,90.59a23.53,23.53,0,0,0-6-.34l-.24-2.59a24.63,24.63,0,0,1,6.55.33,1.34,1.34,0,0,1,1.13,1.49A1.29,1.29,0,0,1,140.4,90.59Z"/><path class="cls-3" d="M141.94,98.65a1.08,1.08,0,1,1-2,.92,2.82,2.82,0,0,0-5.1,2.39,1.09,1.09,0,0,1-2,.92,5,5,0,0,1,2.4-6.63,4.75,4.75,0,0,1,1.23-.39A5,5,0,0,1,141.94,98.65Z"/><path class="cls-3" d="M133.17,268l.24,0a1.3,1.3,0,0,0,1.28-1.07l.24-1.25c4.21,3.47,24.55,18.48,57.32,14.87l-.61.83a4.94,4.94,0,0,0-.72,2.33c-3.09.29-6.06.42-8.92.42-28.26,0-45.28-13-49.14-16.25A1.12,1.12,0,0,0,133.17,268Z"/><path class="cls-3" d="M132.31,267.42l.55.48A1.29,1.29,0,0,1,132.31,267.42Z"/><path class="cls-3" d="M132.16,267.07a1,1,0,0,0,.15.35l-.26-.24Z"/><path class="cls-3" d="M133.17,268a1.12,1.12,0,0,1-.31-.1l-.55-.48a1,1,0,0,1-.15-.35l2-2.07s.3.27.82.7l-.24,1.25a1.3,1.3,0,0,1-1.28,1.07Z"/><path class="cls-3" d="M130.1,124c.7,1.36,1.44,2.69,2.24,4a13.7,13.7,0,0,0,5.12-7.86Zm10.45-6.12c-.73,4.94-2.12,8.57-6.77,12.29l-.33.21-5.25-8.25.74-.47,9.71-5.13a1.33,1.33,0,0,1,1.36.09A1.31,1.31,0,0,1,140.55,117.89Z"/><path class="cls-3" d="M127.78,94a1.3,1.3,0,0,1-.62-1.74c1.5-3.14,4.25-4.3,7-4.61l.24,2.59a5.72,5.72,0,0,0-4.9,3.14,1.3,1.3,0,0,1-1.18.75A1.24,1.24,0,0,1,127.78,94Z"/><path class="cls-2" d="M95.57,144.94c1.93,1.3,4.58.56,5.57,0a9,9,0,0,0,2.73-2.62,8.45,8.45,0,0,1-.58,1.67c-.79,1.7-2.91,3.25-5,4.74a33.25,33.25,0,0,0-3.19,2.54c-7.77,7.45-12.57,14.21-15.11,21.26a37.18,37.18,0,0,0-2.17,11,21.94,21.94,0,0,0,2.4,11.86c3.09,5.46,9.48,8.91,16.42,8.91h.63c6-.18,12.3-2.88,17.76-7.58a63.08,63.08,0,0,0,10.58-12.47,6.66,6.66,0,0,1-.33,1.57,14.55,14.55,0,0,1-3.45,4.82,24.89,24.89,0,0,0-3.06,3.75A12.75,12.75,0,0,0,127,213.6c.77.24,2.91,1.17,3.61,2.58a2.19,2.19,0,0,1,0,1.83,3,3,0,0,1-1.88,2.13c-1.83.49-4.49-1.3-5.36-2a1.32,1.32,0,0,0-1.4-.18,1.29,1.29,0,0,0-.75,1.19c0,.28,0,.56,0,.85a44.33,44.33,0,0,1-37.94,2.09c-11.76-4.94-20.5-15.42-22.26-26.7a45,45,0,0,1-.41-8.11c.16-6.09,2.37-19.91,9.5-30,.06,0,.11,0,.16,0a1.35,1.35,0,0,0,.67-.18l23.27-13.76A3.78,3.78,0,0,0,95.57,144.94Z"/><circle class="cls-5" cx="109.2" cy="124.86" r="7.33"/><path class="cls-2" d="M103.48,137.5s0,0,0,0c-.4,1.08-1.83,4.11-3.63,5.13a3.33,3.33,0,0,1-2.8.1c-.71-.48-.71-1.75-.57-2.74.43-3.19,3.8-3.62,5.59-3.62l.69,0A4.51,4.51,0,0,1,103.48,137.5Z"/><path class="cls-5" d="M99.85,134a4.84,4.84,0,0,0,1-3.54,1.13,1.13,0,0,0,0-.18,10.07,10.07,0,0,0,3.16,3.07l-.94.49A12.11,12.11,0,0,0,99.85,134Z"/><path class="cls-3" d="M109.2,132.19a7.33,7.33,0,1,0-7.33-7.33A7.34,7.34,0,0,0,109.2,132.19Zm-12,3.61,3.3-6.37h1.09l-1.69-4s1.85-4.16,1.93-4.41.92-2.59,1-2.84a26.34,26.34,0,0,1,3.5-1.68l2.82.52s3.84.75,4.26.91a19.82,19.82,0,0,1,2.29,2.19l2.54,3.93-1.76,6.21-2.82,2.47a25.91,25.91,0,0,1-4.36,1.27l-.15,0c-.6-.21-3.82-.71-3.82-.71L104,134.67,97,136.33Zm5.84-2,.94-.49a10.07,10.07,0,0,1-3.16-3.07,1.13,1.13,0,0,1,0,.18,4.84,4.84,0,0,1-1,3.54A12.11,12.11,0,0,1,103.08,133.83Z"/><path class="cls-2" d="M95.21,128.39a9.73,9.73,0,0,0-1.94-3,1.6,1.6,0,0,1,1.55-.38,4.22,4.22,0,0,1,2.11,1.82,8.9,8.9,0,0,1,1.36,3.87,2.26,2.26,0,0,1-.46,1.61,1.89,1.89,0,0,1-1.25.39A20.17,20.17,0,0,0,95.21,128.39Z"/><path class="cls-2" d="M91.13,130a10.06,10.06,0,0,0-3.27-2.81,1.77,1.77,0,0,1,.79-1,2.8,2.8,0,0,1,2.23.58,5.86,5.86,0,0,1,2,2.63,17.74,17.74,0,0,1,1.29,4.18,3.46,3.46,0,0,1-.41,1.26A14.37,14.37,0,0,0,91.13,130Z"/><path class="cls-2" d="M89.18,131.76a12.57,12.57,0,0,1,2.32,4.8,1.66,1.66,0,0,1-.65,1.05c-.36.18-1,0-1.82-.43a5.83,5.83,0,0,0-.76-1.94,10.42,10.42,0,0,0-4.11-3.7c.64-1.27,1.33-2,1.93-2.11C87.18,129.32,88.48,130.91,89.18,131.76Z"/><path class="cls-5" d="M88.09,140.52a4.1,4.1,0,0,0,.49-.65,5.08,5.08,0,0,0,1.92.43A3.42,3.42,0,0,0,92,140a3.91,3.91,0,0,0,1.84-2.2,3.2,3.2,0,0,0,.68-.23,6.78,6.78,0,0,0-.67,2.15c0,.34-.06.64-.07.94L70.67,154.29,67,149.46l13.67-9.36.75.59A4.74,4.74,0,0,0,88.09,140.52Z"/><path class="cls-2" d="M86,136.59c.56.93.61,1.65.16,2.14-1.32,1.4-2.91.12-3.08,0A16.27,16.27,0,0,0,78.94,136l-.14,0c.25-1.45.7-2.34,1.59-2.58C82,132.93,84.81,134.56,86,136.59Z"/><path class="cls-3" d="M88.09,140.52a4.74,4.74,0,0,1-6.68.17l-.75-.59s3.8.51,4.47,1.16,2.73-1.88,2.73-1.88L92,140a3.42,3.42,0,0,1-1.52.34,5.08,5.08,0,0,1-1.92-.43A4.1,4.1,0,0,1,88.09,140.52Z"/><path class="cls-3" d="M69.79,155.78l-.55-.91-3.45-5.76,14.87-9L67,149.46l3.68,4.83L93.8,140.62c0-.3,0-.6.07-.94a6.78,6.78,0,0,1,.67-2.15,3.2,3.2,0,0,1-.68.23A3.91,3.91,0,0,1,92,140l3.11-4.6-.59,6.15Z"/><path class="cls-3" d="M93.27,125.43a9.73,9.73,0,0,1,1.94,3,20.17,20.17,0,0,1,1.37,4.35,1.89,1.89,0,0,0,1.25-.39,2.26,2.26,0,0,0,.46-1.61,8.9,8.9,0,0,0-1.36-3.87,4.22,4.22,0,0,0-2.11-1.82A1.6,1.6,0,0,0,93.27,125.43Zm-4.62.82a1.77,1.77,0,0,0-.79,1A10.06,10.06,0,0,1,91.13,130a14.37,14.37,0,0,1,2.58,4.89,3.46,3.46,0,0,0,.41-1.26,17.74,17.74,0,0,0-1.29-4.18,5.86,5.86,0,0,0-2-2.63A2.8,2.8,0,0,0,88.65,126.25Zm-2.56,3.18c-.6.08-1.29.84-1.93,2.11a10.42,10.42,0,0,1,4.11,3.7,5.83,5.83,0,0,1,.76,1.94c.8.44,1.46.61,1.82.43a1.66,1.66,0,0,0,.65-1.05,12.57,12.57,0,0,0-2.32-4.8C88.48,130.91,87.18,129.32,86.09,129.43Zm-7.29,6.5.14,0a16.27,16.27,0,0,1,4.17,2.72c.17.15,1.76,1.43,3.08,0,.45-.49.4-1.21-.16-2.14-1.22-2-4.07-3.66-5.64-3.24C79.5,133.59,79.05,134.48,78.8,135.93Zm-3,4.1c.18-4.25.35-8.26,3.86-9.21a5,5,0,0,1,1.94-.07.35.35,0,0,1,0-.11c1-2,2.14-3.27,3.5-3.68a4.61,4.61,0,0,1,2.47-3.13,4.39,4.39,0,0,1,3.41.15,4.17,4.17,0,0,1,4.47-1.45,6.06,6.06,0,0,1,2.88,2l.88-.46a9.94,9.94,0,0,1,18.55-4.1c.11.2.22.4.32.61a10,10,0,0,1-8.79,14.26l0-.8a25.91,25.91,0,0,0,4.36-1.27l2.82-2.47,1.76-6.21-2.54-3.93a19.82,19.82,0,0,0-2.29-2.19c-.42-.16-4.26-.91-4.26-.91l-2.82-.52a26.34,26.34,0,0,0-3.5,1.68c-.09.25-.94,2.59-1,2.84s-1.93,4.41-1.93,4.41l1.69,4h-1.09l-3.3,6.37-.83-.43h0l0,0-1.22,0L92,140l-4.16-.58s-2.07,2.53-2.73,1.88-4.47-1.16-4.47-1.16l-14.87,9,3.45,5.76-1,.59L64.07,150a1.29,1.29,0,0,1-.25-1,1.31,1.31,0,0,1,.55-.87l11.47-7.85Z"/><path class="cls-8" d="M151.84,66.24a1.36,1.36,0,0,1-1.39-.81c-.33-.73-.68-1.54-1-2.39-1.13-2.71-2.42-5.78-4-7.65a17.49,17.49,0,0,0-6.83-5,1.38,1.38,0,1,1,1-2.55,20.29,20.29,0,0,1,7.91,5.76c1.84,2.19,3.21,5.47,4.42,8.36.34.82.67,1.61,1,2.32a1.37,1.37,0,0,1-.68,1.82A1.62,1.62,0,0,1,151.84,66.24Z"/><path class="cls-8" d="M148.15,68.44a1.19,1.19,0,0,1-1.13-.78c-4.26-11.14-17.09-14-17.21-14.07a1.21,1.21,0,0,1,.51-2.37c.57.12,14.22,3.19,19,15.58a1.21,1.21,0,0,1-.7,1.56A1.09,1.09,0,0,1,148.15,68.44Z"/><path class="cls-8" d="M198.45,142.54a1.06,1.06,0,0,1-.35,0,1.31,1.31,0,0,1-.92-1.61,12.52,12.52,0,0,0-2-10.6c-.39-.52-.83-1.05-1.27-1.57-1.78-2.12-3.79-4.52-3.2-7.56a9.41,9.41,0,0,1,1.08-2.62,11.53,11.53,0,0,0,.56-1.11,6.08,6.08,0,0,0-.59-5.75,14.18,14.18,0,0,0-2.09-2.18,14.12,14.12,0,0,1-2.68-2.91c-1.6-2.51-1.57-5.39-1.55-8.19a31.65,31.65,0,0,0-.09-3.41,13.73,13.73,0,0,0-2.83-7,1.31,1.31,0,0,1,2.06-1.63A16.36,16.36,0,0,1,188,94.71a32.91,32.91,0,0,1,.11,3.71c0,2.52,0,4.9,1.14,6.75a12.21,12.21,0,0,0,2.21,2.37,16,16,0,0,1,2.49,2.63,8.75,8.75,0,0,1,.85,8.29,13.63,13.63,0,0,1-.67,1.32,7.21,7.21,0,0,0-.8,1.87c-.36,1.82,1.09,3.54,2.63,5.37.48.57,1,1.13,1.37,1.69a15.25,15.25,0,0,1,2.42,12.87A1.31,1.31,0,0,1,198.45,142.54Z"/><path class="cls-8" d="M132.94,232.56a1.25,1.25,0,0,1-.37-2.45,12,12,0,0,0,6.19-18.31,24.48,24.48,0,0,0-3.22-3.51,21.65,21.65,0,0,1-4.29-5.1,11.79,11.79,0,0,1-.19-10.77,21.29,21.29,0,0,1,2.28-3.43,26.33,26.33,0,0,0,1.65-2.34,12.39,12.39,0,0,0,1.33-9.39c-.77-2.95-2.58-5.48-4.5-8.16s-4-5.6-4.89-9-.64-7.3.84-12.18c.57-1.91,1.38-4,2.23-6.24s1.66-4.32,2.27-6.31a1.26,1.26,0,0,1,2.4.75c-.64,2.06-1.5,4.3-2.33,6.46s-1.62,4.25-2.18,6.07c-1.33,4.41-1.59,7.85-.81,10.82s2.59,5.48,4.51,8.17,4,5.59,4.89,9a14.81,14.81,0,0,1-1.61,11.32,27.34,27.34,0,0,1-1.81,2.57,19.55,19.55,0,0,0-2,3,9.26,9.26,0,0,0,.15,8.45,19.55,19.55,0,0,0,3.83,4.49,27.13,27.13,0,0,1,3.52,3.87,14.45,14.45,0,0,1-7.48,22.15A1.26,1.26,0,0,1,132.94,232.56Z"/><path class="cls-8" d="M144.91,235.25a1.25,1.25,0,0,1-.87-2.15c4.06-4,6-10.54,5.36-18-.23-2.54-.7-5.79-2.38-8.41a23.34,23.34,0,0,0-2.27-2.84,26.57,26.57,0,0,1-2.45-3.05,13.82,13.82,0,0,1-1.51-11.8,25.26,25.26,0,0,1,2.18-4.53,29.8,29.8,0,0,0,1.71-3.38,14.19,14.19,0,0,0-.73-12c-.43-.76-.92-1.48-1.44-2.25a17.83,17.83,0,0,1-2.51-4.61c-1.16-3.62-.11-7.25.91-10.77.21-.73.42-1.47.61-2.2a34.53,34.53,0,0,0,1-10.85,1.25,1.25,0,0,1,2.5-.16A37.11,37.11,0,0,1,144,149.91c-.2.75-.41,1.51-.63,2.27-1,3.3-1.86,6.41-.93,9.31a15.71,15.71,0,0,0,2.19,4c.53.78,1.08,1.58,1.56,2.44A16.57,16.57,0,0,1,147,182a30.76,30.76,0,0,1-1.86,3.67,23.24,23.24,0,0,0-2,4.09,11.42,11.42,0,0,0,1.23,9.64,24.29,24.29,0,0,0,2.23,2.76,25.32,25.32,0,0,1,2.51,3.15,21.11,21.11,0,0,1,2.75,9.53c.73,8.24-1.49,15.55-6.1,20.05A1.25,1.25,0,0,1,144.91,235.25Z"/></svg>