<svg id="Capa_1" data-name="Capa 1" xmlns="http://www.w3.org/2000/svg" viewBox="0 0 350 350"><defs><style>.cls-1{fill:#fff;}.cls-2{fill:#ccbd9e;}.cls-3{fill:#318793;}.cls-4{fill:#449bac;}.cls-5{fill:#f4cdb0;}.cls-6{fill:#c5d0ef;}.cls-7{fill:#2d375a;}.cls-8{fill:#ff8b00;}.cls-9{fill:#ad9c7f;}.cls-10{fill:#008d36;}</style></defs><rect class="cls-1" width="350" height="350"/><path class="cls-2" d="M162.15,121.61s-2.4,5.65,4,9a13,13,0,0,0,11.5.75V135l-5.5,3.94-3.37,1.84.92,6.75-1,8.37-3.24-8.75-3.23-3.7-5.05-1.8-6.1-.87-4.5-3.22-3.31-6.9.69-7,3.3-3.26,1.7-1.64h3.59Z"/><path class="cls-2" d="M169.17,48.78s16,6.84-1.33,18.42-24.65,15.91-24.65,15.91-8.27,8.07-10,22.8,1.48,22.31,6.64,30.17l-2.16,1.44-6.39-3.14L136.5,146a48.77,48.77,0,0,1,2.83,19.23,19.18,19.18,0,0,0,7.5,16.21l1.67,3.17-7.13-2.83-6-4.66,2.34,8.16-8.85-7.17s-5.72-11.46-6.43-14.23a34.48,34.48,0,0,1-.89-4.27s-2.5,7.91-9.33,5.62l5.66-8.12-9.66,2,4.33-4.67,2-4.33.17-5.33L111.5,135l-1.5-2.58-12,.08-7.33,1.92L85,130.62l7.37-2.18,2.8-2-7.5-3.16L85,120.61l8.33-1.9s8.24-2.79,8.5-18.77,7-40,7-40,6.25-19.83,32.54-19.83l8.8,1.62Z"/><path class="cls-3" d="M184.5,276s17.5,3.71,44.33-7.57,32.5-21,32.5-21v-1.48s-40.89,5.57-68.69,23.45Z"/><path class="cls-4" d="M169.61,239.71l13.89,36.36s28.33-25.13,77.83-30.13v-1.31l-13.11-38.35S201.49,209.73,169.61,239.71Z"/><path class="cls-4" d="M77.67,257.94l-.91,28.84,91.13-3.12-1.72-27.25S119.83,244.44,77.67,257.94Z"/><path class="cls-5" d="M253,105.59l.52,5.14c-1,1.06-1.9,1.58-2.51,1.48s-1.05-.85-1.19-1.22a6.63,6.63,0,0,1,0-3.34,3.17,3.17,0,0,1,1.5-2.28,1.6,1.6,0,0,1,.68-.15A1.36,1.36,0,0,1,253,105.59Z"/><path class="cls-5" d="M248.67,102.76a1.74,1.74,0,0,1,1.15.45,5.84,5.84,0,0,0-2.59,3.93,9.78,9.78,0,0,0-.07,4c-.66.53-1.24.8-1.61.7s-.7-.58-.87-.92a13.11,13.11,0,0,1,1.41-5.35C246.58,104.72,247.61,102.83,248.67,102.76Z"/><path class="cls-5" d="M245.48,100.08a1.85,1.85,0,0,1,1,.8,10.21,10.21,0,0,0-2.75,3.54,14.59,14.59,0,0,0-1.57,5.33,3.52,3.52,0,0,1-.66-1.18,18.46,18.46,0,0,1,.46-4.44,6,6,0,0,1,1.42-3A2.91,2.91,0,0,1,245.48,100.08Z"/><path class="cls-5" d="M239.07,100.12a1.62,1.62,0,0,1,1.62.06,10.1,10.1,0,0,0-1.35,3.36,20.44,20.44,0,0,0-.5,4.62,1.94,1.94,0,0,1-1.32-.14,2.31,2.31,0,0,1-.79-1.54,8.93,8.93,0,0,1,.6-4.12A4.18,4.18,0,0,1,239.07,100.12Z"/><path class="cls-6" d="M208.64,87.73l25.84,14.75a12.54,12.54,0,0,0-.3,1.32,4.08,4.08,0,0,0-2-2.09,5.15,5.15,0,0,0-2.74-.42c-.05,0-.08-.08-.13-.11L208.16,88.52a1.27,1.27,0,0,0-.91-.17c-.64.11-2.66.23-3.56-.68a2.33,2.33,0,0,1-.5-2.24l.3-.5a2.34,2.34,0,0,1,2.22-.68c1.22.34,2.11,2.16,2.33,2.76A1.29,1.29,0,0,0,208.64,87.73Z"/><path class="cls-6" d="M142,192.54a2.33,2.33,0,0,1,.92,2.12c-.2,1.25-1.91,2.35-2.49,2.63a1.37,1.37,0,0,0-.65.67l-12.08,27.93h-1.16a8.2,8.2,0,0,0,0-1.21,1.59,1.59,0,0,0,.15-.21L139,197.58a1.35,1.35,0,0,0,.07-.93c-.18-.62-.52-2.62.27-3.6a2.29,2.29,0,0,1,2.18-.75Z"/><path class="cls-6" d="M167.49,250.68l-.38,3.13a.93.93,0,0,0-.2-.1,138,138,0,0,0-26.56-4h0c-17-1.11-41.51-1-63.48,5.7,0-.6,0-1.21-.08-1.82,0-.82-.07-1.63-.09-2.42l3-.64c8.64-1.88,18.44-4,27-4a1.05,1.05,0,0,0,.36-.08l13.12.49,1,0a7.88,7.88,0,0,0,2.59-.37C136.39,246.09,150.72,247.43,167.49,250.68Z"/><path class="cls-6" d="M245.22,200.23l1.28,3.64-9,1.51h0a141.78,141.78,0,0,0-34.91,11.35,0,0,0,0,0,0,0h0l-15.23,7.9h0c-5.8,3.22-11.88,6.78-17.19,11.57-.35-.92-.67-1.85-1-2.79C192.37,209.61,238.72,200.82,245.22,200.23Z"/><path class="cls-6" d="M279.51,176.16l33.67,12.28c-13.47,11-36.25,13.31-53.5,10.62a18.05,18.05,0,0,1-8.63-3.75Z"/><path class="cls-7" d="M317.09,187.7a1.17,1.17,0,0,1,0,.27,1.27,1.27,0,0,1,0,.26,1.62,1.62,0,0,1,0,.2l0,0-.06.11a1.61,1.61,0,0,1-.21.3l-.05.06c-7.73,7.18-18.95,11.21-30.6,12.87v81.25a1.33,1.33,0,0,1-1.22,1.33l-3.78.34H281a1.33,1.33,0,0,1-1.33-1.33v-80.9c-2.19.15-4.38.23-6.54.23a90.14,90.14,0,0,1-13.85-1,20,20,0,0,1-11.33-5.65,1.05,1.05,0,0,1-.07-.11s0,0-.06-.05,0-.1-.06-.15a1.09,1.09,0,0,1-.1-.25.69.69,0,0,1,0-.25,1,1,0,0,1,0-.25,1,1,0,0,1,.06-.25.92.92,0,0,1,.09-.23,1.13,1.13,0,0,1,.15-.21,1.7,1.7,0,0,1,.1-.14l.09-.06s0,0,.07-.07l30.41-20.47.1,0a1.33,1.33,0,0,1,.24-.1,1.83,1.83,0,0,1,.25-.06,1.92,1.92,0,0,1,.24,0l.27,0s.07,0,.1,0l36.48,13.3.05,0a2.39,2.39,0,0,1,.21.13,2,2,0,0,1,.23.17l0,0c.05.05.06.11.1.16a2.07,2.07,0,0,1,.15.25A1.55,1.55,0,0,1,317.09,187.7Zm-3.91.74-33.67-12.28-28.46,19.15a18.05,18.05,0,0,0,8.63,3.75C276.93,201.75,299.71,199.41,313.18,188.44Zm-29.74,93.41V202.51l-1.11.12V282Z"/><path class="cls-7" d="M257.6,124.25c7.95,11.2,11.07,25.25,8.35,37.67-3,13.61-13,24.94-25.52,28.86a46.34,46.34,0,0,1-12.91,1.92l-1.54,0a74,74,0,0,1-44.73-15.24,225,225,0,0,1,.23,42.63c27-17.42,63.74-23.63,65.51-22.25a1.34,1.34,0,0,1,.44.61l16.16,46.16v.06a1.31,1.31,0,0,1,.05.59.32.32,0,0,1,0,.09,1.31,1.31,0,0,1-.15.4c-8.66,14.17-45.23,30.54-71.14,31.85-.68,0-1.39.06-2.1.06a13.54,13.54,0,0,1-6.84-1.5l0,0a1.49,1.49,0,0,1-.36-.31.59.59,0,0,1,0-.08,1.28,1.28,0,0,1-.15-.25L172,248.43l-3.61-9.08h0a60.29,60.29,0,0,1-2.11-5.87.88.88,0,0,1,0-.17,2.28,2.28,0,0,1,0-.26,1.17,1.17,0,0,1,0-.26.9.9,0,0,1,.08-.23,1.28,1.28,0,0,1,.15-.25l.08-.13a78.78,78.78,0,0,1,12-10.16s0-.06,0-.09a221.45,221.45,0,0,0-.39-47.43s0-.05,0-.07a216.9,216.9,0,0,0-5.54-30c-.46-.16-.93-.3-1.39-.44a19.42,19.42,0,0,1,.5,4.43,18.92,18.92,0,0,1-2.37,9.27c0,.05-.05.11-.08.16l-.07.08a1.26,1.26,0,0,1-.35.34.6.6,0,0,1-.13.09,1.18,1.18,0,0,1-.58.16h0a1.25,1.25,0,0,1-.6-.16h-.06c-.05,0-.07-.07-.12-.11l-.21-.18a1.37,1.37,0,0,1-.13-.2,1.27,1.27,0,0,1-.12-.23,1.19,1.19,0,0,1,0-.26.75.75,0,0,1,0-.16,26,26,0,0,0-1.54-8.51c-1.64,5.24-5,10.57-8.56,13.35a23.75,23.75,0,0,1-14.41,4.9c-.45,0-.9,0-1.34-.07,1.27,5.23,4.4,10.51,9.36,15.75l0,.09a1,1,0,0,1,.15.24,2,2,0,0,1,.1.21,2.34,2.34,0,0,1,0,.26,1.13,1.13,0,0,1,0,.26.41.41,0,0,1,0,.11,1,1,0,0,1-.06.16,1.46,1.46,0,0,1-.07.19,1.31,1.31,0,0,1-.19.27s0,.07-.07.1l0,0a1.32,1.32,0,0,1-.29.19l-.12.07a1.45,1.45,0,0,1-.47.08,1.1,1.1,0,0,1-.25,0c-6.09-1.15-9.26-3.09-11.62-5.2a24.67,24.67,0,0,0,3.41,5.37h0l0,0a1.44,1.44,0,0,1,.23.42,2.42,2.42,0,0,1,0,.25,2.3,2.3,0,0,1,0,.26,1.32,1.32,0,0,1-.12.43s0,0,0,.07a1.34,1.34,0,0,1-.33.42l-.12.07-.13.08a1.33,1.33,0,0,1-.61.17h0a1.39,1.39,0,0,1-.56-.13h0a34.67,34.67,0,0,1-18.09-24.9,13.2,13.2,0,0,1-9.55,4.3c-.33,0-.66,0-1-.05a1.32,1.32,0,0,1-.76-2.29,1.26,1.26,0,0,1,.42-.47,16.19,16.19,0,0,0,5-5.42,22.58,22.58,0,0,1-7.76,1.34h-.06a1.56,1.56,0,0,1-.44-.09l-.13-.06a1,1,0,0,1-.28-.18l-.09-.07a1.58,1.58,0,0,1-.26-.36h0a1.19,1.19,0,0,1-.07-.27,2.1,2.1,0,0,1-.06-.24h0a1.69,1.69,0,0,1,.08-.5.92.92,0,0,1,.13-.21,1.09,1.09,0,0,1,.14-.23.9.9,0,0,1,.31-.23.39.39,0,0,1,.1-.08,11.7,11.7,0,0,0,6.51-10.2c0-3.08-1.12-6-2.35-9.12-.41-1-.82-2.08-1.19-3.13-.2-.59-.37-1.19-.55-1.79h-.08a74.38,74.38,0,0,0-10,.69,1.4,1.4,0,0,1,0,.54c-5.63,24.82-7.55,81.22-7.16,88.91a182.14,182.14,0,0,0,18.23,5.73c1.23-2.22,2.52-4.43,3.84-6.58a3.06,3.06,0,0,1,2.76-1.7c.34,0,.71-.06,1.11-.1,2.24-.23,5.24-.51,7.07,1.15l11.19-24.56c-.24-1.12-.58-3.71.88-5.53a4.74,4.74,0,0,1,2.9-1.7,5.33,5.33,0,0,1,2.11.06l.23.08.79.36.17.1a4.93,4.93,0,0,1,2.14,4.81c-.37,2.32-2.52,3.8-3.5,4.37L130.64,225.9h.74a4.89,4.89,0,0,1,2.65.59,5.55,5.55,0,0,1,1.9,4.38,4.06,4.06,0,0,1-2,3.22,3.1,3.1,0,0,1-.51,1.35,4.25,4.25,0,0,1-2.31,1.53,4.14,4.14,0,0,1-.78,3.11,3.53,3.53,0,0,1-2.26,1.2,1.36,1.36,0,0,1-.11.56,16.78,16.78,0,0,1-1,2c12.37-.19,26.25,1.26,42.33,4.44a.58.58,0,0,1,.18.08,1.19,1.19,0,0,1,.26.11,1.3,1.3,0,0,1,.18.15,1.14,1.14,0,0,1,.19.19,1.06,1.06,0,0,1,.11.21l.06.12a.5.5,0,0,1,.05.13,2.11,2.11,0,0,1,0,.25,1.77,1.77,0,0,1,0,.23l-.78,6.6a1.32,1.32,0,0,1-1.32,1.17H168a1.63,1.63,0,0,1-.31-.11c0,8,.17,16.44.4,25.06a.62.62,0,0,1,0,.23.93.93,0,0,1,0,.29.76.76,0,0,1-.12.19,1.94,1.94,0,0,1-.15.24.57.57,0,0,1-.16.11,1,1,0,0,1-.26.19.53.53,0,0,1-.18,0,.94.94,0,0,1-.33.08c-14.9.45-29.94,1-44.48,1.52s-29.6,1.07-44.5,1.52h0a1.57,1.57,0,0,1-.23,0,1.85,1.85,0,0,1-.23,0A1.34,1.34,0,0,1,76,285.56c0-6.14.22-13,.44-19.67q.14-4,.23-7.6l-.71.22a1.4,1.4,0,0,1-.41.06,1.51,1.51,0,0,1-.47-.09l-.13-.07a1.27,1.27,0,0,1-.27-.18.63.63,0,0,1-.11-.12,1,1,0,0,1-.18-.26.71.71,0,0,1-.08-.15s0,0,0-.05a1.49,1.49,0,0,1,0-.21,1.42,1.42,0,0,1,0-.2c0-1.1-.06-2.29-.12-3.49s-.11-2.48-.11-3.61c0,0,0-.08,0-.13a1.84,1.84,0,0,1,0-.25,1.73,1.73,0,0,1,.1-.24c0-.07.09-.14.14-.21l.18-.18.2-.14a1.09,1.09,0,0,1,.25-.1.43.43,0,0,1,.12,0l4.06-.88c5.65-1.23,11.78-2.55,17.78-3.35a92.42,92.42,0,0,1-36.28-18.72c-7.4-6.27-12.4-12.7-15.29-19.65-3.87-9.3-4.25-20.75-1.09-33.11a50,50,0,0,1,4.12-11.21c3.06-5.82,8-11.29,14.59-16.27a77.28,77.28,0,0,1,24.72-12.37,15.08,15.08,0,0,1-4.3-3.36,1.5,1.5,0,0,1,1.33-2.36,11.67,11.67,0,0,0,8-1.66,18.41,18.41,0,0,1-10-6.41,1.34,1.34,0,0,1,1.61-2c4.62,2.06,10.32-1.08,13-5.18,2.82-4.42,3.46-10,3.9-15.79l.25-3.24c.84-11.33,1.71-23,5.8-33.85C111.51,48.15,119.06,42,132.51,39A40.2,40.2,0,0,1,142,38.1c7.13,0,25.87,5.79,33.24,11.82,3.74,3.07,2.73,7.08,1.13,10.28a1.24,1.24,0,0,1,.42.43A21.15,21.15,0,0,1,179.26,70a32.08,32.08,0,0,1-2.09,13.25l4.74,7a2,2,0,0,1-.17,2.79,40.73,40.73,0,0,1-6.19,5.38L173,112.2c-.41,2.18-.93,4.9-2.78,6.88a9.09,9.09,0,0,1-6.66,2.61,7.57,7.57,0,0,0,2.25,6.32,10.85,10.85,0,0,0,7,2.9c1.7.12,4.15-.83,4.33-1.9h0a1.28,1.28,0,0,1,.19-.49s.06,0,.08-.09a1.43,1.43,0,0,1,.27-.28,1.33,1.33,0,0,1,.47-.21h0a1.31,1.31,0,0,1,1.59,1,8.59,8.59,0,0,1-3.26,8.32,16.81,16.81,0,0,1-6.47,3c.1.22.22.43.31.66a.79.79,0,0,1,.22,0c10.22,2.61,18.55,9.43,26.61,16l2.68,2.18C208.24,166,218.35,173,229.38,173a18.72,18.72,0,0,0,11.68-3.58c4.67-3.75,6.56-10.4,7.33-15.32a31.92,31.92,0,0,0-2.27-17.93c-3.26-7.32-8.19-11.59-13.91-16.53a9,9,0,0,1-2.53-3.61c-1-2.53-1.34-4.49-1.13-5.83.13-.82-.54-2.5-1-3.73-.63-1.6-1.08-2.78-.75-3.73L207.19,91c-1.13.12-3.74.17-5.39-1.49a5,5,0,0,1-1.07-5.16.68.68,0,0,1,.1-.21l.45-.75.11-.16a5,5,0,0,1,5-1.59c2.25.62,3.49,2.92,3.94,4L235.53,100a6,6,0,0,1,2.33-2.27,4.25,4.25,0,0,1,4.76.56,4.48,4.48,0,0,1,3.38-.83,4.69,4.69,0,0,1,3.09,2.63c1.32.11,2.64,1,3.91,2.57a3.74,3.74,0,0,1,2.5,1.85,1.56,1.56,0,0,1,.14.48Zm5.74,37.1c2.58-11.8-.45-25.19-8.11-35.84a1.24,1.24,0,0,1-.25-.64L253.87,114a4.49,4.49,0,0,1-3.31.86,3.89,3.89,0,0,1-2.17-1.23,4.7,4.7,0,0,1-2.66,1,3.35,3.35,0,0,1-.89-.12,3.9,3.9,0,0,1-2.26-1.8h0l-.17,0a21.62,21.62,0,0,1,1.52,2.21,1.34,1.34,0,0,1-2.3,1.36c-3.41-5.72-6.44-4.8-6.56-4.76a1.37,1.37,0,0,1-1.1-.11,1.3,1.3,0,0,1-.65-.87s-.59-2.78-1.45-5.35a1.51,1.51,0,0,0-.81-1,2.77,2.77,0,0,0-1.61-.13c.14.45.38,1.06.56,1.52.67,1.68,1.43,3.58,1.19,5.12a10.67,10.67,0,0,0,1,4.47,6.37,6.37,0,0,0,1.79,2.54c6,5.15,11.1,9.6,14.6,17.47A34.64,34.64,0,0,1,251,154.54c-1.22,7.83-4,13.54-8.3,17a21.05,21.05,0,0,1-13.18,4.17h-.18c-11.86-.08-22.45-7.35-31.23-14.46L195.45,159c-6.18-5.06-12.55-10.22-19.7-13.4a221.15,221.15,0,0,1,5.08,28c12.39,10.62,29.73,16.75,46.63,16.35a43.78,43.78,0,0,0,12.17-1.79C251.25,184.59,260.56,174,263.34,161.35Zm-4.3,82-3.42-5-.39,5.38Zm-.83-6L250.6,215.6l-.88.16,6.05,18Zm-4.67-126.62-.52-5.14a1.36,1.36,0,0,0-1-.37,1.6,1.6,0,0,0-.68.15,3.17,3.17,0,0,0-1.5,2.28,6.63,6.63,0,0,0,0,3.34c.14.37.57,1.11,1.19,1.22S252.56,111.79,253.54,110.73Zm-.33,123.82-6.15-18.32-2.65.46a.93.93,0,0,1-.23,0,1.31,1.31,0,0,1-1.27-.93l-.83-2.58-2.11.38a1.35,1.35,0,0,1-1.5-.86l-1.63-4.5a139.31,139.31,0,0,0-32.08,10.42l1.89,5.89a1.33,1.33,0,0,1-.68,1.61l-4.15,2,1.43,3.05a1.34,1.34,0,0,1-.64,1.77l-1.32.62,6.39,15.63,8.56,6.4,0,0c13-5.08,26.73-9.14,36.21-11Zm-3.5-21.5-.41-1.16-4.57.83.37,1.14Zm.11-109.84a1.74,1.74,0,0,0-1.15-.45c-1.06.07-2.09,2-2.58,2.86a13.11,13.11,0,0,0-1.41,5.35c.17.34.49.82.87.92s.95-.17,1.61-.7a9.78,9.78,0,0,1,.07-4A5.84,5.84,0,0,1,249.82,103.21Zm-1.41,106.13-.52-1.48-.5-1.43-7.88,1.32,1.09,3Zm-1.91-5.47-1.28-3.64c-6.5.59-52.85,9.38-76.13,33.22.3.94.62,1.87,1,2.79,5.31-4.79,11.39-8.35,17.19-11.57h0l15.23-7.9h0a0,0,0,0,1,0,0,141.78,141.78,0,0,1,34.91-11.35h0Zm0-103a1.85,1.85,0,0,0-1-.8,2.91,2.91,0,0,0-2.12,1,6,6,0,0,0-1.42,3,18.46,18.46,0,0,0-.46,4.44,3.52,3.52,0,0,0,.66,1.18,14.59,14.59,0,0,1,1.57-5.33A10.21,10.21,0,0,1,246.46,100.88Zm-5.77-.7a1.62,1.62,0,0,0-1.62-.06,4.18,4.18,0,0,0-1.74,2.24,8.93,8.93,0,0,0-.6,4.12,2.31,2.31,0,0,0,.79,1.54,1.94,1.94,0,0,0,1.32.14,20.44,20.44,0,0,1,.5-4.62A10.1,10.1,0,0,1,240.69,100.18Zm-6.21,2.3L208.64,87.73A1.29,1.29,0,0,1,208,87c-.22-.6-1.11-2.42-2.33-2.76a2.34,2.34,0,0,0-2.22.68l-.3.5a2.33,2.33,0,0,0,.5,2.24c.9.91,2.92.79,3.56.68a1.27,1.27,0,0,1,.91.17l21.17,12.66s.08.08.13.11a5.15,5.15,0,0,1,2.74.42,4.08,4.08,0,0,1,2,2.09A12.54,12.54,0,0,1,234.48,102.48ZM192.18,275c24-1.21,57.28-15.5,67.6-28.59-14,.75-58.75,15.3-73.35,28.21A18.52,18.52,0,0,0,192.18,275Zm15.25-16,5.42-2.51-5.07-3.79Zm-2.2-8.63-6.36-15.58-1.2.56a1.24,1.24,0,0,1-.56.13,1.21,1.21,0,0,1-.46-.08,1.34,1.34,0,0,1-.75-.69l-1.37-2.92-3.41,1.66a1.33,1.33,0,0,1-1.82-.69l-2.06-5c-5.52,3.1-11.21,6.55-16.09,11.11l-.06,0,13.46,33.8c4.55-4.06,11.79-8.22,20.11-12.07Zm-1.47-26.06-1.42-4.41-12.74,6.62,1.63,3.91Zm-3.49,6.88-.53-1.12-2.52,1.18.53,1.12ZM179.53,91.5l-4.83-7.16a1.38,1.38,0,0,1-.21-1,1.29,1.29,0,0,1,.06-.7,29.34,29.34,0,0,0,2-12.53,18.9,18.9,0,0,0-1.82-7.45c-2.45,3.09-5.23,4.78-8.67,6.86-.94.57-1.94,1.17-3,1.86-1.85,1.17-3.75,2.29-5.65,3.41-5.73,3.38-11.65,6.88-16.07,11.81C136.51,92,134.93,103.4,134,113.8c-.72,8.26,4.44,17.15,6.65,20.54.57.89,1,1.4,1,1.42a1.22,1.22,0,0,1,.21,1.45,1.34,1.34,0,0,1-1.23.7h-.17a15.7,15.7,0,0,1-7.08-2.48,42.71,42.71,0,0,0,2.88,6,35.13,35.13,0,0,1,3.43,7.61,31.2,31.2,0,0,1,.66,9.06,48.32,48.32,0,0,0,.09,5.65c0,.16.06.31.08.47a21,21,0,0,0,14.62-4.25c3.74-2.89,7.3-9.22,8.3-14.62a8.54,8.54,0,0,0-5.54-3.27l-.78,0a15.64,15.64,0,0,1-13.61-8.34,14.41,14.41,0,0,1-.92-2.22,1.27,1.27,0,0,1,0-.67,1.13,1.13,0,0,1-.08-.24A19.93,19.93,0,0,1,144,119.69a6,6,0,0,1,1.7-2.41,5.56,5.56,0,0,1,3.22-1,22.25,22.25,0,0,1,7.9,1.47c.92.29,1.84.58,2.77.82,1.8.47,6.23,1.27,8.61-1.28a7.28,7.28,0,0,0,1.55-3.12,1.39,1.39,0,0,1-.35-.09,24.61,24.61,0,0,1-5.84-4.09,11.42,11.42,0,0,1-3.45-6.69,1.33,1.33,0,0,1,.45-1.15,1.3,1.3,0,0,1,1.2-.29l10,2.44L173,97.4a1.34,1.34,0,0,1,.07-.18,1.48,1.48,0,0,1,.12-.29,1.52,1.52,0,0,1,.3-.32l0,0,0,0A41,41,0,0,0,179.53,91.5Zm-4.76,43.69a7.37,7.37,0,0,0,1.9-2.41,9.32,9.32,0,0,1-3.65.81h-.38a13.4,13.4,0,0,1-8.75-3.68,10.17,10.17,0,0,1-3-8.39,17.34,17.34,0,0,1-1.9-.39c-1-.25-1.93-.55-2.9-.85a20.06,20.06,0,0,0-7-1.35,3,3,0,0,0-1.72.47,3.56,3.56,0,0,0-.9,1.38,17.65,17.65,0,0,0-1.34,9.46,1.29,1.29,0,0,1,0,.44l0,0a13,13,0,0,0,12.79,8.68l.14,0a.81.81,0,0,1,.16,0,11.39,11.39,0,0,1,7.72,4.82h0a18.62,18.62,0,0,1,2.94,7.06,16.52,16.52,0,0,0-1.79-10.9,1.88,1.88,0,0,1,1-2.35A16.35,16.35,0,0,0,174.77,135.19Zm-1.55-74.86c3-5.09,1.89-7,.27-8.34-6.85-5.61-24.94-11.17-31.56-11.22a36.58,36.58,0,0,0-8.83.81c-12.63,2.87-19.4,8.31-23.36,18.77s-4.81,22-5.64,33.1l-.24,3.25c-.48,6.15-1.16,12.08-4.32,17-2.46,3.84-7,6.88-11.62,7.06,2.41,1.74,5.4,3,8,2.74h0a1.27,1.27,0,0,1,.34,0,1.13,1.13,0,0,1,.18,0,1.86,1.86,0,0,1,.2.1c.08,0,.17.09.25.15l0,0a.75.75,0,0,1,.13.18,1.28,1.28,0,0,1,.17.22,2.8,2.8,0,0,1,.09.31c0,.06,0,.11,0,.17a0,0,0,0,0,0,0,1,1,0,0,1,0,.34.88.88,0,0,1,0,.17.72.72,0,0,1-.11.19.84.84,0,0,1-.15.26v0a14.45,14.45,0,0,1-9.16,4.56,12.36,12.36,0,0,0,4.32,1.8,77,77,0,0,1,16.52-1.94,40.66,40.66,0,0,1,.6-20.17,1.33,1.33,0,0,1,2.56.75,37.92,37.92,0,0,0,.59,23c.36,1,.75,2,1.15,3,1.27,3.21,2.58,6.53,2.54,10.14a14.38,14.38,0,0,1-4,9.56,10.11,10.11,0,0,0,4.92-2.36,1.31,1.31,0,0,1,1.16-.29,2.11,2.11,0,0,1,.26,0,1.33,1.33,0,0,1,.92,1.65,18.77,18.77,0,0,1-4.45,7.74,9.4,9.4,0,0,0,5.89-5.63h0a1.14,1.14,0,0,1,.18-.3.75.75,0,0,1,.09-.15,1.84,1.84,0,0,1,.22-.17,2.14,2.14,0,0,1,.19-.13,1.29,1.29,0,0,1,.21-.05,1,1,0,0,1,.29-.07h.07a1,1,0,0,1,.24.05.64.64,0,0,1,.2,0h0a1.24,1.24,0,0,1,.27.17,1,1,0,0,1,.17.11,1,1,0,0,1,.17.23,1.92,1.92,0,0,1,.13.17,4783458176253.13,4783458176253.13,0,0,1,.12.5v0A32,32,0,0,0,135.4,181.4a26.77,26.77,0,0,1-2.28-6.45s0-.08,0-.12a1.22,1.22,0,0,1,0-.27,1.72,1.72,0,0,1,0-.24,1,1,0,0,1,.1-.24,1.42,1.42,0,0,1,.14-.23.53.53,0,0,1,.06-.1s.08,0,.11-.07a1.37,1.37,0,0,1,.21-.15,1,1,0,0,1,.26-.11l.11,0h.12a.87.87,0,0,1,.28,0l.23,0a1.63,1.63,0,0,1,.25.1l.21.13s.08,0,.11.08c.63.6,1.21,1.2,1.79,1.8a18.22,18.22,0,0,0,8.48,5.71c-4.61-5.7-7.26-11.48-7.83-17.23a47.94,47.94,0,0,1-.1-6,29.86,29.86,0,0,0-.57-8.31,33.56,33.56,0,0,0-3.2-7c-2-3.58-4-7.28-4-11.23h0v-.12a1,1,0,0,1,0-.2,1.1,1.1,0,0,1,.06-.26,1.55,1.55,0,0,1,.12-.22c.05-.07.09-.15.14-.21a1.56,1.56,0,0,1,.2-.16,1.53,1.53,0,0,1,.21-.14l.25-.07a1.66,1.66,0,0,1,.21-.06h.12a.79.79,0,0,1,.22.05l.21,0a1.12,1.12,0,0,1,.24.13l.19.13a1.14,1.14,0,0,1,.15.16,1.2,1.2,0,0,1,.15.24.64.64,0,0,1,.08.19.78.78,0,0,1,.05.14,9.7,9.7,0,0,0,5.08,3.51c-2.67-4.31-7-12.76-6.3-21,.95-10.85,2.64-22.74,8-28.74,4.7-5.23,10.8-8.83,16.71-12.32,1.87-1.11,3.75-2.21,5.58-3.37,1.09-.69,2.11-1.31,3.06-1.88C168.46,65,170.93,63.5,173.22,60.33Zm-2.85,51.19.87-4.63L163.32,105a9.85,9.85,0,0,0,2.16,3.13A21.28,21.28,0,0,0,170.37,111.52Zm-3.26,142.29.38-3.13c-16.77-3.25-31.1-4.59-43.76-4.09a7.88,7.88,0,0,1-2.59.37l-1,0L107,246.45a1.05,1.05,0,0,1-.36.08c-8.51,0-18.31,2.16-26.95,4l-3,.64c0,.79,0,1.6.09,2.42,0,.61.06,1.22.08,1.82,22-6.68,46.53-6.81,63.48-5.7h0a138,138,0,0,1,26.56,4A.93.93,0,0,1,167.11,253.81Zm-1.7,27.42c-.22-8.7-.35-17.18-.38-25.24a142.39,142.39,0,0,0-16.54-2.91v8.09a4.18,4.18,0,0,1,2.67,3.89v6.75a4.18,4.18,0,0,1-2.67,3.89v6.08C154.13,281.58,159.78,281.4,165.41,281.23Zm-16.92-9.42v-6.75a1.52,1.52,0,0,0-3,0v6.75a1.52,1.52,0,0,0,3,0Zm-2.67,10.06v-6.06a4.19,4.19,0,0,1-3-4v-6.75a4.18,4.18,0,0,1,3-4v-8.27c-2-.2-3.93-.33-5.54-.37h-.05c-12.59-.82-29.43-1-46.2,1.82V263a4.18,4.18,0,0,1,2.67,3.89v6.75A4.18,4.18,0,0,1,94,277.48v6.22c9.49-.32,19-.66,28.21-1ZM143,194.66a2.33,2.33,0,0,0-.92-2.12l-.53-.24a2.29,2.29,0,0,0-2.18.75c-.79,1-.45,3-.27,3.6a1.35,1.35,0,0,1-.07.93l-12.25,26.89a1.59,1.59,0,0,1-.15.21,8.2,8.2,0,0,1,0,1.21h1.16L139.82,198a1.37,1.37,0,0,1,.65-.67C141.05,197,142.76,195.91,143,194.66Zm-9.71,36.05a3.17,3.17,0,0,0-.75-2,3.49,3.49,0,0,0-1.13-.1l-7.66,0h-1.37a1.34,1.34,0,0,1,0-2.67h1.55a3.08,3.08,0,0,0-.38-2.35c-.87-1-3.34-.75-5.14-.57-.43,0-.83.09-1.19.11a2.83,2.83,0,0,0-.42.06,3.13,3.13,0,0,0-.25.38c-1.49,2.41-2.93,4.89-4.3,7.37l0,0a1.39,1.39,0,0,1-.43.44l-.12.06a1.21,1.21,0,0,1-.59.16h0a1.17,1.17,0,0,1-.32,0,176.55,176.55,0,0,1-20.26-6.36h0c-1-.37-1.89-.75-2.76-1.12a61,61,0,0,1-9.21-4.54,54,54,0,0,1-6.4-5c-3.83-3.36-8.14-7.36-10.73-12.42-4.6-9-3.12-21.06,3.59-29.43,6.23-7.76,16.4-12.38,27.23-12.38a1.41,1.41,0,0,1,.64.16,246.6,246.6,0,0,1,3.83-26.51,75,75,0,0,0-32.07,13.85c-6.3,4.74-11,9.92-13.83,15.38a47.2,47.2,0,0,0-3.9,10.63c-2.11,8.23-3.64,20.36,1,31.42,2.72,6.55,7.48,12.65,14.55,18.65a88.68,88.68,0,0,0,44.05,19.9l13.82.51a6.32,6.32,0,0,0,3-.35,5,5,0,0,0,1.94-2.49h-.33c-1,0-2.07.08-3.13.08l-1.49,0a1.33,1.33,0,0,1-1.27-1.4,1.38,1.38,0,0,1,1.4-1.27c1.44.07,2.86,0,4.38,0,.82,0,1.63-.07,2.45-.08a1.57,1.57,0,0,0,1.07-.31,1.53,1.53,0,0,0,.18-1c-.44,0-.89.05-1.36.05-1.23,0-2.55-.08-3.9-.18l-1.4-.09a1.33,1.33,0,0,1-1.28-1.39,1.31,1.31,0,0,1,1.39-1.28l1.48.1c1.92.14,7,.51,7.83-.68a.8.8,0,0,0,0-.6l-9.44-.31a1.34,1.34,0,0,1-1.29-1.38,1.36,1.36,0,0,1,1.38-1.29ZM94,273.59v-6.75a1.52,1.52,0,0,0-3,0v6.75a1.52,1.52,0,0,0,3,0ZM92.56,162.88a1.14,1.14,0,0,1-.32.07h-.08c-10,0-19.42,4.25-25.15,11.38-6.07,7.57-7.43,18.49-3.3,26.54,2.38,4.64,6.3,8.29,10.12,11.63a50.3,50.3,0,0,0,6.08,4.75,58.09,58.09,0,0,0,8.81,4.34l.75.3C89.28,213.65,90.28,186.64,92.56,162.88Zm-1.2,120.91h0v-6.19a4.18,4.18,0,0,1-3-4v-6.75a4.19,4.19,0,0,1,3-4V254.7c-4,.74-8,1.66-12,2.79-.07,2.67-.16,5.52-.26,8.48-.2,6.15-.4,12.47-.43,18.22Z"/><path class="cls-5" d="M255.23,125.51c7.66,10.65,10.69,24,8.11,35.84-2.78,12.69-12.09,23.24-23.71,26.89A43.78,43.78,0,0,1,227.46,190c-16.9.4-34.24-5.73-46.63-16.35a221.15,221.15,0,0,0-5.08-28c7.15,3.18,13.52,8.34,19.7,13.4l2.69,2.19c8.78,7.11,19.37,14.38,31.23,14.46h.18a21.05,21.05,0,0,0,13.18-4.17c4.29-3.44,7.08-9.15,8.3-17a34.64,34.64,0,0,0-2.47-19.43c-3.5-7.87-8.64-12.32-14.6-17.47a6.37,6.37,0,0,1-1.79-2.54,10.67,10.67,0,0,1-1-4.47c.24-1.54-.52-3.44-1.19-5.12-.18-.46-.42-1.07-.56-1.52a2.77,2.77,0,0,1,1.61.13,1.51,1.51,0,0,1,.81,1c.86,2.57,1.44,5.32,1.45,5.35a1.3,1.3,0,0,0,.65.87,1.37,1.37,0,0,0,1.1.11c.12,0,3.15-1,6.56,4.76a1.34,1.34,0,0,0,2.3-1.36,21.62,21.62,0,0,0-1.52-2.21l.17,0h0a3.9,3.9,0,0,0,2.26,1.8,3.35,3.35,0,0,0,.89.12,4.7,4.7,0,0,0,2.66-1,3.89,3.89,0,0,0,2.17,1.23,4.49,4.49,0,0,0,3.31-.86L255,124.87A1.24,1.24,0,0,0,255.23,125.51Z"/><path class="cls-5" d="M174.7,84.34l4.83,7.16a41,41,0,0,1-5.93,5l0,0,0,0a1.52,1.52,0,0,0-.3.32,1.48,1.48,0,0,0-.12.29,1.34,1.34,0,0,0-.07.18l-1.29,6.87-10-2.44a1.3,1.3,0,0,0-1.2.29,1.33,1.33,0,0,0-.45,1.15,11.42,11.42,0,0,0,3.45,6.69,24.61,24.61,0,0,0,5.84,4.09,1.39,1.39,0,0,0,.35.09,7.28,7.28,0,0,1-1.55,3.12c-2.38,2.55-6.81,1.75-8.61,1.28-.93-.24-1.85-.53-2.77-.82a22.25,22.25,0,0,0-7.9-1.47,5.56,5.56,0,0,0-3.22,1,6,6,0,0,0-1.7,2.41,19.93,19.93,0,0,0-1.54,10.91,1.13,1.13,0,0,0,.08.24,1.27,1.27,0,0,0,0,.67,14.41,14.41,0,0,0,.92,2.22l-2.83.61c-2.21-3.39-7.37-12.28-6.65-20.54.91-10.4,2.49-21.77,7.34-27.18,4.42-4.93,10.34-8.43,16.07-11.81,1.9-1.12,3.8-2.24,5.65-3.41,1.08-.69,2.08-1.29,3-1.86,3.44-2.08,6.22-3.77,8.67-6.86a18.9,18.9,0,0,1,1.82,7.45,29.34,29.34,0,0,1-2,12.53,1.29,1.29,0,0,0-.06.7A1.38,1.38,0,0,0,174.7,84.34Zm-7,1.32a1.34,1.34,0,1,0-2.06-1.7,3.58,3.58,0,0,1-6.34-2.19,1.34,1.34,0,0,0-1.33-1.3h0a1.34,1.34,0,0,0-1.31,1.36,6.35,6.35,0,0,0,4.21,5.76,5.84,5.84,0,0,0,2,.33A6.35,6.35,0,0,0,167.72,85.66Z"/><path class="cls-8" d="M178.24,174.49a221.45,221.45,0,0,1,.39,47.43s0,.06,0,.09a78.78,78.78,0,0,0-12,10.16l-.08.13a1.28,1.28,0,0,0-.15.25.9.9,0,0,0-.08.23,1.17,1.17,0,0,0,0,.26,2.28,2.28,0,0,0,0,.26.88.88,0,0,0,0,.17,60.29,60.29,0,0,0,2.11,5.87h0l3.61,9.08-1.82.72-.06-.12a1.06,1.06,0,0,0-.11-.21,1.14,1.14,0,0,0-.19-.19,1.3,1.3,0,0,0-.18-.15,1.19,1.19,0,0,0-.26-.11.58.58,0,0,0-.18-.08c-16.08-3.18-30-4.63-42.33-4.44a16.78,16.78,0,0,0,1-2,1.36,1.36,0,0,0,.11-.56,3.53,3.53,0,0,0,2.26-1.2,4.14,4.14,0,0,0,.78-3.11,4.25,4.25,0,0,0,2.31-1.53,3.1,3.1,0,0,0,.51-1.35,4.06,4.06,0,0,0,2-3.22,5.55,5.55,0,0,0-1.9-4.38,4.89,4.89,0,0,0-2.65-.59h-.74l11.45-26.45c1-.57,3.13-2,3.5-4.37a4.93,4.93,0,0,0-2.14-4.81l-.17-.1-.79-.36-.23-.08a5.33,5.33,0,0,0-2.11-.06l-.22-2.43a1.33,1.33,0,0,0,.61-.17l.13-.08.12-.07a1.34,1.34,0,0,0,.33-.42s0-.05,0-.07a1.32,1.32,0,0,0,.12-.43,2.3,2.3,0,0,0,0-.26,2.42,2.42,0,0,0,0-.25,1.44,1.44,0,0,0-.23-.42l0,0h0a24.67,24.67,0,0,1-3.41-5.37c2.36,2.11,5.53,4.05,11.62,5.2a1.1,1.1,0,0,0,.25,0,1.45,1.45,0,0,0,.47-.08l.12-.07a1.32,1.32,0,0,0,.29-.19l0,0s0-.07.07-.1a1.31,1.31,0,0,0,.19-.27,1.46,1.46,0,0,0,.07-.19,1,1,0,0,0,.06-.16.41.41,0,0,0,0-.11,1.13,1.13,0,0,0,0-.26,2.34,2.34,0,0,0,0-.26,2,2,0,0,0-.1-.21,1,1,0,0,0-.15-.24l0-.09c-5-5.24-8.09-10.52-9.36-15.75.44,0,.89.07,1.34.07a23.75,23.75,0,0,0,14.41-4.9c3.6-2.78,6.92-8.11,8.56-13.35a26,26,0,0,1,1.54,8.51.75.75,0,0,0,0,.16,1.19,1.19,0,0,0,0,.26,1.27,1.27,0,0,0,.12.23,1.37,1.37,0,0,0,.13.2l.21.18c.05,0,.07.08.12.11h.06a1.25,1.25,0,0,0,.6.16h0a1.18,1.18,0,0,0,.58-.16.6.6,0,0,0,.13-.09,1.26,1.26,0,0,0,.35-.34l.07-.08s.05-.11.08-.16a18.92,18.92,0,0,0,2.37-9.27,19.42,19.42,0,0,0-.5-4.43c.46.14.93.28,1.39.44a216.9,216.9,0,0,1,5.54,30S178.24,174.47,178.24,174.49Z"/><path class="cls-7" d="M167.54,83.78a1.33,1.33,0,0,1,.18,1.88,6.35,6.35,0,0,1-4.88,2.26,5.84,5.84,0,0,1-2-.33,6.35,6.35,0,0,1-4.21-5.76A1.34,1.34,0,0,1,158,80.47h0a1.34,1.34,0,0,1,1.33,1.3A3.58,3.58,0,0,0,165.66,84,1.33,1.33,0,0,1,167.54,83.78Z"/><path class="cls-9" d="M162.49,60.36a1.34,1.34,0,0,1,0,1.89A131.42,131.42,0,0,1,145.5,77a1.37,1.37,0,0,1-.79.25,1.33,1.33,0,0,1-.78-2.41A127.49,127.49,0,0,0,160.6,60.39,1.34,1.34,0,0,1,162.49,60.36Z"/><path class="cls-5" d="M157.89,142.05a8.54,8.54,0,0,1,5.54,3.27c-1,5.4-4.56,11.73-8.3,14.62a21,21,0,0,1-14.62,4.25c0-.16-.06-.31-.08-.47a48.32,48.32,0,0,1-.09-5.65,31.2,31.2,0,0,0-.66-9.06,35.13,35.13,0,0,0-3.43-7.61,42.71,42.71,0,0,1-2.88-6,15.7,15.7,0,0,0,7.08,2.48h.17a1.34,1.34,0,0,0,1.23-.7,1.22,1.22,0,0,0-.21-1.45s-.4-.53-1-1.42l2.83-.61a15.64,15.64,0,0,0,13.61,8.34Z"/><path class="cls-9" d="M141.11,57.37a1.33,1.33,0,0,1,.12,1.88,108,108,0,0,0-22.15,40.46,1.33,1.33,0,0,1-1.28,1,1.31,1.31,0,0,1-.38-.06,1.32,1.32,0,0,1-.9-1.65,110.69,110.69,0,0,1,22.7-41.46A1.33,1.33,0,0,1,141.11,57.37Z"/><path class="cls-8" d="M139.93,187.24l.22,2.43a4.74,4.74,0,0,0-2.9,1.7c-1.46,1.82-1.12,4.41-.88,5.53l-11.19,24.56c-1.83-1.66-4.83-1.38-7.07-1.15-.4,0-.77.08-1.11.1a3.06,3.06,0,0,0-2.76,1.7c-1.32,2.15-2.61,4.36-3.84,6.58A182.14,182.14,0,0,1,92.17,223c-.39-7.69,1.53-64.09,7.16-88.91a1.4,1.4,0,0,0,0-.54,74.38,74.38,0,0,1,10-.69h.08c.18.6.35,1.2.55,1.79.37,1,.78,2.09,1.19,3.13,1.23,3.1,2.39,6,2.35,9.12a11.7,11.7,0,0,1-6.51,10.2.39.39,0,0,0-.1.08.9.9,0,0,0-.31.23,1.09,1.09,0,0,0-.14.23.92.92,0,0,0-.13.21,1.69,1.69,0,0,0-.08.5h0a2.1,2.1,0,0,0,.06.24,1.19,1.19,0,0,0,.07.27h0a1.58,1.58,0,0,0,.26.36l.09.07a1,1,0,0,0,.28.18l.13.06a1.56,1.56,0,0,0,.44.09h.06a22.58,22.58,0,0,0,7.76-1.34,16.19,16.19,0,0,1-5,5.42,1.26,1.26,0,0,0-.42.47,1.32,1.32,0,0,0,.76,2.29c.31,0,.64.05,1,.05a13.2,13.2,0,0,0,9.55-4.3,34.67,34.67,0,0,0,18.09,24.9h0a1.39,1.39,0,0,0,.56.13Z"/><path class="cls-5" d="M132.5,228.67a3.17,3.17,0,0,1,.75,2l-11.39-.37a1.36,1.36,0,0,0-1.38,1.29,1.34,1.34,0,0,0,1.29,1.38l9.44.31a.8.8,0,0,1,0,.6c-.82,1.19-5.91.82-7.83.68l-1.48-.1a1.31,1.31,0,0,0-1.39,1.28,1.33,1.33,0,0,0,1.28,1.39l1.4.09c1.35.1,2.67.18,3.9.18.47,0,.92,0,1.36-.05a1.53,1.53,0,0,1-.18,1,1.57,1.57,0,0,1-1.07.31c-.82,0-1.63.05-2.45.08-1.52.06-2.94.12-4.38,0a1.38,1.38,0,0,0-1.4,1.27,1.33,1.33,0,0,0,1.27,1.4l1.49,0c1.06,0,2.11,0,3.13-.08h.33a5,5,0,0,1-1.94,2.49,6.32,6.32,0,0,1-3,.35l-13.82-.51a88.68,88.68,0,0,1-44-19.9c-7.07-6-11.83-12.1-14.55-18.65-4.6-11.06-3.07-23.19-1-31.42a47.2,47.2,0,0,1,3.9-10.63c2.87-5.46,7.53-10.64,13.83-15.38a75,75,0,0,1,32.07-13.85,246.6,246.6,0,0,0-3.83,26.51,1.41,1.41,0,0,0-.64-.16c-10.83,0-21,4.62-27.23,12.38-6.71,8.37-8.19,20.47-3.59,29.43,2.59,5.06,6.9,9.06,10.73,12.42a54,54,0,0,0,6.4,5A61,61,0,0,0,87.68,224c.87.37,1.8.75,2.76,1.12h0a176.55,176.55,0,0,0,20.26,6.36,1.17,1.17,0,0,0,.32,0h0a1.21,1.21,0,0,0,.59-.16l.12-.06a1.39,1.39,0,0,0,.43-.44l0,0c1.37-2.48,2.81-5,4.3-7.37a3.13,3.13,0,0,1,.25-.38,2.83,2.83,0,0,1,.42-.06c.36,0,.76-.06,1.19-.11,1.8-.18,4.27-.43,5.14.57a3.08,3.08,0,0,1,.38,2.35h-1.55a1.34,1.34,0,0,0,0,2.67h1.37l7.66,0A3.49,3.49,0,0,1,132.5,228.67Z"/><path class="cls-9" d="M129.42,61.13A1.34,1.34,0,0,1,129.8,63c-1.67,2.55-3.26,5.2-4.72,7.89a1.33,1.33,0,1,1-2.34-1.27c1.49-2.76,3.11-5.48,4.83-8.09A1.34,1.34,0,0,1,129.42,61.13Z"/><path class="cls-10" d="M282.59,142.2a2,2,0,0,0-.29-1.71,25.51,25.51,0,0,0-8.52-7.89,17.92,17.92,0,0,0-5.5-1.87,28.85,28.85,0,0,0,13.52-10.95,2,2,0,0,0,.08-2,2,2,0,0,0-1.75-1,61.65,61.65,0,0,0-8.58.69,17.29,17.29,0,0,0-5.24,1.49c-3.05,1.55-5.42,4.63-7.05,9.12-.27-.62-1.19-.49-1.73-.31-.21.07-12.93,3.34-12.93,3.34a1,1,0,0,0-.67,1.24,1,1,0,0,0,.24.4v.05c1.34,4,2.65,8.09,3.9,12.11a1,1,0,0,0,.25.41l.09.07a.92.92,0,0,0,.14.28l.08.09a1,1,0,0,0,1.31.08,82.07,82.07,0,0,0,10.94-10.39,16.14,16.14,0,0,0,1.66,2.68,16.62,16.62,0,0,0,1.46,1.67,16.35,16.35,0,0,0,17.4,3.73A2,2,0,0,0,282.59,142.2Zm-35.16-7.44a1.11,1.11,0,0,0-.44.2c-.25-.75-.49-1.5-.74-2.25,2.54-.59,8.82-2.09,11.49-2.9l1.51,2.49A109.26,109.26,0,0,1,247.43,134.76Zm4.3,1.28c-1.12,1.11-2.22,2.22-3.3,3.35l-.87-2.67a.92.92,0,0,0,.16,0C249.06,136.53,250.4,136.29,251.73,136Zm15.47-15.39a15.43,15.43,0,0,1,4.64-1.29,55.21,55.21,0,0,1,8.32-.65,26.87,26.87,0,0,1-19.49,11.91h0a7.26,7.26,0,0,1,.31-1.57C262.43,124.84,264.53,122,267.2,120.65Zm-18.09,20.89c1.93-2,3.93-4,6-6a.66.66,0,0,0,.15-.22c1.31-.29,2.61-.6,3.91-.94a79.66,79.66,0,0,1-9.43,9C249.5,142.79,249.3,142.17,249.11,141.54Zm20.83-.09a14.66,14.66,0,0,1-7.58-7.49,4,4,0,0,1,.25-1.11,14.31,14.31,0,0,1,10.24,1.47,23.44,23.44,0,0,1,7.85,7.33A14.55,14.55,0,0,1,269.94,141.45Z"/><rect class="cls-7" x="165.93" y="256.93" width="10.49" height="3" transform="translate(-94.55 98.81) rotate(-25.49)"/><rect class="cls-7" x="87.52" y="241.17" width="3" height="5.28"/><path class="cls-7" d="M178.51,81.59c-1.61-.33-2-.46-3-.73l-1.12-.32a.5.5,0,0,0,0-.13,1.24,1.24,0,0,0-.66-1.34,1.27,1.27,0,0,0-.46-.28c-2.94-1-6-2-9-2.77a88.14,88.14,0,0,0-9-1.92,1.27,1.27,0,0,0-1.46,1.05,1.48,1.48,0,0,0,0,.21.79.79,0,0,0-.22-.06,1.29,1.29,0,0,0-1.37,1.17c-.06.76-.2,1.68-.34,2.67-.51,3.46-1.13,7.76.56,10.21,1.27,1.84,5.36,4.15,11.64,5.16a5.37,5.37,0,0,0,.9.07,7.17,7.17,0,0,0,5.19-2.43,10.5,10.5,0,0,0,2-3.62,50.27,50.27,0,0,0,1.63-5.5l1,.28a31,31,0,0,0,3.19.78l.26,0a1.27,1.27,0,0,0,.25-2.52Zm-8.72,6.06a8.42,8.42,0,0,1-1.47,2.78A4.53,4.53,0,0,1,164.53,92c-5.84-.94-9.2-3-9.95-4.09-1.12-1.62-.55-5.53-.14-8.39.16-1.06.3-2,.36-2.84,0,0,0-.06,0-.09l.11,0a86.3,86.3,0,0,1,8.7,1.86c2.7.73,5.41,1.6,8.08,2.47A50.11,50.11,0,0,1,169.79,87.65Z"/></svg>