<svg id="Capa_1" data-name="Capa 1" xmlns="http://www.w3.org/2000/svg" viewBox="0 0 350 350"><defs><style>.cls-1{fill:#fff;}.cls-2{fill:#2d375a;}.cls-3{fill:#272c4a;}.cls-4{fill:#ebc846;}.cls-5{fill:#f4cdb0;}.cls-6{fill:#e4005d;}.cls-7{fill:#008d36;}</style></defs><rect class="cls-1" width="350" height="350"/><path class="cls-2" d="M135.87,131.42a33,33,0,0,0-5.12,12.23c-1.42,6.78,2.45,15,4.08,18l3.72-2.73c-1.79-3.28-6.73-12.93-5.66-17.38a43.12,43.12,0,0,1,3.72-9.31Zm3.19,41.27,7.32-5.09.82-.66-4.59-7-8.23,6.15,4.33,7A1.16,1.16,0,0,1,139.06,172.69ZM163,211.11l-4.67,2.62L139.79,175h-2l-1-1.89-3.89-7.33,1.47-1.67-4.63-12.33c-1.91-12,5.84-22.21,5.84-22.21l2.84,3.21s-4.74,6.1-4.28,10.82c.3,3.09,3.07,9.17,4.93,13,1,2,1.71,3.37,1.71,3.37l2.54-1.52,5.34,8.08-1.47,2.09L160.5,189l-2.45,1.19-2.2,1.06v2.39l-1,2.11.34.51.68,1,.84,1.37-.17.1a4,4,0,0,1-1.75-.52,3.22,3.22,0,0,1-1.25-1.4,2.61,2.61,0,0,1-.21-1.29,2.93,2.93,0,0,1,1.77-2.32,2.23,2.23,0,0,1-.36-1.33,2.4,2.4,0,0,1,.84-1.64A10.81,10.81,0,0,1,158,188.9l-11.19-18.36-5.16,4.16,10.66,22.7,6.59,14a1.27,1.27,0,0,1,.11.54l2.88-1.8a1.24,1.24,0,0,1,.53-.18,3.41,3.41,0,0,1,3,1.14,2.62,2.62,0,0,1,.43,1,4,4,0,0,1,2.69.2,2.81,2.81,0,0,1,1.42,2.23,4.05,4.05,0,0,1-.85,2.67c.89.9,1.11,1.9.13,3.64a3.81,3.81,0,0,1-.69.84,3,3,0,0,1,.63,1.63c.12,1.71-1.18,3.37-3,5l27.2,56.83-.58.28-27.62-57.89,2.21-2.17v-2.33l-.77-1.33,1.66-2.5-.29-.61-.6-1.23,1.72-2.16-1.35-1.22-.37-.33-2.94-.79-.6-.73Z"/><path class="cls-2" d="M135.37,142.17c-.49,2.05,1.08,6.52,3,10.68.29-.07.59-.13.88-.17,1.63-.28,3.29-.44,4.89-.59,1.79-.17,3.65-.35,5.42-.69,3.79-.73,6.59-2.17,8.34-4.27,2.79-3.35,2.83-8.22,2.42-12.79l-12.63,6.08a7.43,7.43,0,0,1-3.22,1h-.22c-2.84-.14-4.43-2.76-5.49-5L138.1,135A37.83,37.83,0,0,0,135.37,142.17Zm3.71,14.42c-1.86-3.82-4.63-9.9-4.93-13-.46-4.72,4.28-10.82,4.28-10.82l1.21-.57,1.42,3c.76,1.63,1.83,3.51,3.31,3.58a5.33,5.33,0,0,0,2.2-.7l13.86-6.67a1.28,1.28,0,0,1,.61-.11,2,2,0,0,1,.23-.07,1.28,1.28,0,0,1,1.41,1.13c.61,5.54.94,11.83-2.83,16.37-2.14,2.56-5.44,4.29-9.81,5.14-1.89.36-3.81.55-5.67.72-1.55.15-3.16.31-4.71.57l-.17,0,.46.91Z"/><path class="cls-3" d="M161,97.18a26.06,26.06,0,0,0,7-1,24.82,24.82,0,0,1-7.08,1,22.2,22.2,0,0,1-9.55-2.08q-.61-.28-1.2-.63l1,.5A23,23,0,0,0,161,97.18Z"/><path class="cls-4" d="M175.44,242a3.94,3.94,0,1,0,3.94-3.94A3.94,3.94,0,0,0,175.44,242Zm18,43.24-27.2-56.83c1.79-1.68,3.09-3.34,3-5a3,3,0,0,0-.63-1.63,3.81,3.81,0,0,0,.69-.84c1-1.74.76-2.74-.13-3.64a4.05,4.05,0,0,0,.85-2.67,2.81,2.81,0,0,0-1.42-2.23,4,4,0,0,0-2.69-.2,2.62,2.62,0,0,0-.43-1,3.41,3.41,0,0,0-3-1.14,1.24,1.24,0,0,0-.53.18L159,212a1.27,1.27,0,0,0-.11-.54l-6.59-14,1.21-.57a3.22,3.22,0,0,0,1.25,1.4,4,4,0,0,0,1.75.52,2.85,2.85,0,0,0,.58,1.47,3.63,3.63,0,0,0,3.11,1.47c.94,2.3,4.82,2.17,6.07,2.06l1-.13,36.48,59.08s0,0,.06.07l.05.09.1.07a1,1,0,0,0,.26.19.61.61,0,0,0,.18.09.94.94,0,0,0,.29.06.7.7,0,0,0,.14,0h.07l.19,0a1.53,1.53,0,0,0,.26-.08l.07,0,1.26-.66,11.11,16,1.3,1.88a1.44,1.44,0,0,0,.54.44l7.53,3.28c-11.81,14-25,18.49-29.61,19.72l1.06-7.24a1.26,1.26,0,0,0-.11-.74Zm-24.27-55.13a3.94,3.94,0,1,0,3.94-3.94A3.95,3.95,0,0,0,169.16,230.09Zm33.75,45.24a3.94,3.94,0,1,0-3.94,3.94A3.95,3.95,0,0,0,202.91,275.33Zm-6.53-10.64a3.94,3.94,0,1,0-3.94,3.94A3.95,3.95,0,0,0,196.38,264.69Zm-6.53-11.92a3.94,3.94,0,1,0-3.94,3.93A3.94,3.94,0,0,0,189.85,252.77Z"/><path class="cls-2" d="M169.23,193c-.1,0-9.82,1.2-12.86,2.4a1,1,0,0,0-.52.34.08.08,0,0,0,0,0l-.69.47-.34-.51,1-2.11v-2.39l2.2-1.06.57,1.18a8.24,8.24,0,0,0-1.22.67,1.54,1.54,0,0,1,.15.35c4.2-1,11-1.87,11.37-1.91a1.27,1.27,0,1,1,.31,2.53Z"/><path class="cls-2" d="M155.57,74.28q.74,0,1.47-.06l.15,2.48a1,1,0,0,0-.3.11,5,5,0,0,1-5.19-.38,1.22,1.22,0,0,0-.37-.2l.49-2.32A18.85,18.85,0,0,0,155.57,74.28Z"/><path class="cls-2" d="M197.56,303.8c4.65-1.23,17.8-5.76,29.61-19.72l-7.53-3.28a1.44,1.44,0,0,1-.54-.44l-1.3-1.88.49-.34c.06,0,.46-.15,1.07-.39l1.47,2.19,8,4c-12.33,16.5-32.45,21.17-32.45,21.17l1.21-9.67-4.74-9.94.58-.28,5.08,10.6a1.26,1.26,0,0,1,.11.74Z"/><path class="cls-5" d="M134.42,238.23l1.17,11.59-5.3-6-.06-5.43,1.64-.19c.63,0,1.25.06,1.88.06C134,238.25,134.2,238.25,134.42,238.23Z"/><path class="cls-2" d="M176.11,208.6a1.46,1.46,0,0,1-.12-.33c-1.47-1.15-2.94-2.32-4.45-3.49l-1.36-1.33,35,56.63,2.33-2Zm-8.83-5-1,.13c-1.25.11-5.13.24-6.07-2.06a3.63,3.63,0,0,1-3.11-1.47,2.85,2.85,0,0,1-.58-1.47l.17-.1.49.79,2,.68,1.95.66,1.51,1.05.65.45h6.85L178,208l31.33,50.29-1.86,1.8,10.17,15.12-.26.09.91,2.85-.49.34-11.11-16-1.26.66-.07,0a1.53,1.53,0,0,1-.26.08l-.19,0h-.07a.7.7,0,0,1-.14,0,.94.94,0,0,1-.29-.06.61.61,0,0,1-.18-.09,1,1,0,0,1-.26-.19l-.1-.07-.05-.09s0,0-.06-.07Z"/><path class="cls-5" d="M143.21,90.49A14.13,14.13,0,0,0,130,96.3a1.28,1.28,0,0,0,.32,1.78,1.24,1.24,0,0,0,.73.23,1.28,1.28,0,0,0,1.05-.55A11.58,11.58,0,0,1,142.86,93a1.26,1.26,0,0,0,1.44-1.09A1.28,1.28,0,0,0,143.21,90.49Zm32.58,15.59a9.09,9.09,0,0,0,2.77,17.75h.09c.35,5.77,1.77,15.13,7.1,19.15,3.22,2.42,7.3,3.16,11.23,3.59,3.62.4,7.28.62,10.87.82-.46,11.88-8.56,23.21-20.21,28.22-11,4.73-24.37,3.86-35.81-2.31a1.08,1.08,0,0,0-.42-.13l-2.59-4.25.89-.71a1.29,1.29,0,0,0,.26-1.7l-6-9.08a1.28,1.28,0,0,0-1.83-.33L141,158c-.32-.58-.66-1.21-1-1.87l-.46-.91.17,0c1.55-.26,3.16-.42,4.71-.57,1.86-.17,3.78-.36,5.67-.72,4.37-.85,7.67-2.58,9.81-5.14,3.77-4.54,3.44-10.83,2.83-16.37a1.28,1.28,0,0,0-1.41-1.13,2,2,0,0,0-.23.07,1.28,1.28,0,0,0-.61.11l-13.86,6.67a5.33,5.33,0,0,1-2.2.7c-1.48-.07-2.55-1.95-3.31-3.58l-1.42-3L135.29,123s-.08-.09-.11-.14a2.07,2.07,0,0,0-.17-.24l-.21-.13a1.13,1.13,0,0,0-.2-.13,2.84,2.84,0,0,0-.31-.06.76.76,0,0,0-.16,0h-.06c-1.38,0-3,.06-4.67.13-1.13,0-2.25.09-3.31.11a37.25,37.25,0,0,1,1.56-8.89l.08-.26c.66-2.17,1.48-4.86.15-7.19a9.08,9.08,0,0,0-.92-1.24l-.25-.29a28.14,28.14,0,0,1-4.09-6.07c0-2.06,0-4.12.16-6.18a30.59,30.59,0,0,0,2.56,6.22,1.28,1.28,0,0,0,2.33-.53c0-.1,1.12-8.08,2.2-13,1.14,2,2.59,4.26,3.76,4.83a1.3,1.3,0,0,0,.59.12l10.17-.26a20.45,20.45,0,0,0,5.53,4.62l.3.17q.59.34,1.2.63A22.2,22.2,0,0,0,161,97.24a24.82,24.82,0,0,0,7.08-1q.49-.14,1-.3c.31-.1.62-.2.92-.32l.06,0,.34-.12a28.37,28.37,0,0,0,4.14-2l.12.21a1.39,1.39,0,0,0-.48.51l-2.42,4.52a1.29,1.29,0,0,0,.37,1.64,2.08,2.08,0,0,1-1.29,3.76,1.23,1.23,0,0,0-1.31,1.24,1.27,1.27,0,0,0,1.24,1.31h.12a4.73,4.73,0,0,0,3.49-1.59l1.87.19A1.22,1.22,0,0,0,175.79,106.08Zm-15.74.78a1.28,1.28,0,0,0-.93-1.55,25.09,25.09,0,0,0-5.66-.73h0a1.26,1.26,0,0,0-1.27,1.26,1.28,1.28,0,0,0,1.26,1.3,22.38,22.38,0,0,1,5.08.65,1.06,1.06,0,0,0,.31,0A1.27,1.27,0,0,0,160.05,106.86Zm-9.89,21.65a1.27,1.27,0,0,0-1-1.47,8.15,8.15,0,0,1-6.25-11,1.28,1.28,0,1,0-2.39-.92,10.71,10.71,0,0,0,8.21,14.41h.22A1.27,1.27,0,0,0,150.16,128.51ZM141.52,108a5.13,5.13,0,0,0,2.9-6.64,1.12,1.12,0,0,0-2.08.82,2.89,2.89,0,0,1-5.38,2.11,1.12,1.12,0,0,0-2.08.81,5.13,5.13,0,0,0,5.35,3.22A5.53,5.53,0,0,0,141.52,108Z"/><path class="cls-4" d="M152.31,197.4l-10.66-22.7,5.16-4.16L158,188.9a10.81,10.81,0,0,0-2.44,1.35,2.4,2.4,0,0,0-.84,1.64,2.23,2.23,0,0,0,.36,1.33,2.93,2.93,0,0,0-1.77,2.32,2.61,2.61,0,0,0,.21,1.29Z"/><path class="cls-2" d="M142,282.27A125.06,125.06,0,0,0,191,286l1.37,2.85a126.12,126.12,0,0,1-16.74,1.11,119.64,119.64,0,0,1-35.49-5.08,1.23,1.23,0,0,0,.69-.44A7.8,7.8,0,0,0,142,282.27Z"/><path class="cls-2" d="M140.09,284.83l-.42-.14,1-2.83,1.3.41a7.8,7.8,0,0,1-1.18,2.12A1.23,1.23,0,0,1,140.09,284.83Z"/><path class="cls-2" d="M169,95.9c.31-.1.62-.2.92-.32C169.66,95.7,169.35,95.8,169,95.9Z"/><path class="cls-3" d="M176.12,75.4a18.19,18.19,0,0,1-9,2.7h0a1.28,1.28,0,0,1,0-2.56,15.76,15.76,0,0,0,11.57-5.69,1.28,1.28,0,0,1,2.2,1.22,28.85,28.85,0,0,1-2.41,5.31,1.28,1.28,0,0,1-2.34-1Z"/><path class="cls-6" d="M138.48,176.7a.75.75,0,0,0,.21,0,1.3,1.3,0,0,0,.8-.28l.11-.09,17,36.18a1.27,1.27,0,0,0,.59.6L155,214.46a18.41,18.41,0,0,0-3.84,2.92,18.18,18.18,0,0,0-3,5l-5.39,11.9c-.49.15-1,.3-1.47.43A450.25,450.25,0,0,1,138.48,176.7Z"/><path class="cls-7" d="M130.38,252l3.77-.1-3.82-4.33Zm7.29-6.32,1-7.83c.86-.14,1.71-.3,2.56-.5l-1.9,14.56a25.29,25.29,0,0,1-7.49.86c-1.2,0-2.52-.12-4-.25l-.17-14.84a32.06,32.06,0,0,0,4.13.48l-1.64.19.06,5.43,5.3,6-1.17-11.59a22.91,22.91,0,0,0,2.48-.14Z"/><path class="cls-2" d="M138.75,237.42l-.06.46c-.6.09-1.19.16-1.79.21l-.05-.46Z"/><path class="cls-4" d="M199,274a1.39,1.39,0,1,1-1.38,1.38A1.38,1.38,0,0,1,199,274Z"/><path class="cls-2" d="M137,104.25a2.89,2.89,0,0,0,5.38-2.11,1.12,1.12,0,0,1,2.08-.82,5.13,5.13,0,0,1-2.9,6.64,5.53,5.53,0,0,1-1.29.32,5.13,5.13,0,0,1-5.35-3.22,1.12,1.12,0,0,1,2.08-.81Z"/><path class="cls-2" d="M227.59,273.06a27.47,27.47,0,0,1-7.41,4.37l-1.75-2.53a24.43,24.43,0,0,0,7.41-4.31l1,1.88A1.26,1.26,0,0,0,227.59,273.06Z"/><path class="cls-2" d="M219.36,277.75c-.61.24-1,.37-1.07.39l-.91-2.85.26-.09Z"/><path class="cls-2" d="M218.43,274.9l1.75,2.53-.82.32-1.72-2.55Z"/><path class="cls-5" d="M158.62,191.4c3.11-1.41,7.93-1.78,11.29-2l.8-.06a7.87,7.87,0,0,1,5,1.34c1.56,1.07,3.21,2.24,4.86,3.4,2.56,1.81,5.2,3.68,7.52,5.2,3.61,2.37,7.35,4.82,11.07,7.16,4.79,3,9.95,6.12,15.73,8a33.49,33.49,0,0,0,10.6,1.83,25.24,25.24,0,0,0,7.29-1A23.25,23.25,0,0,0,248.92,194a22.87,22.87,0,0,0-15.39-21.76,26.39,26.39,0,0,0-17.43.75l-1.54-25.2c2.86.17,5.73.39,8.55.74,10.16,1.25,18,4,23.84,8.4l.6.43c4.48,3.27,18.09,13.2,18.09,33.89a40.21,40.21,0,0,1-17.79,33.92c-10.72,6.62-25.89,6.86-40.57.63-10.86-4.6-19.37-11.33-28.37-18.46-1.91-1.5-3.83-3-5.69-4.45L171.33,201a1.25,1.25,0,0,0-1.06-.36l-2.53.33-1.74.23a9.26,9.26,0,0,1-2.77-.18,37.17,37.17,0,0,1,7.12-1.54A1.28,1.28,0,1,0,170,197c-3,.39-6.64,1-8.55,2.11l-.24,0a4.8,4.8,0,0,1-1.66,0,1,1,0,0,1-.42-.34c-.1-.13-.11-.2,0-.22a2.28,2.28,0,0,1,.58-.43c3.55-.83,10.19-2.16,10.26-2.17a1.28,1.28,0,0,0-.5-2.51c-.07,0-6.75,1.35-10.34,2.19a3.47,3.47,0,0,0-1.24.63,2.28,2.28,0,0,0-.27,0,3.12,3.12,0,0,1-1.49-.12.81.81,0,0,1-.25-.24.08.08,0,0,1,0,0,1,1,0,0,1,.52-.34c3-1.2,12.76-2.38,12.86-2.4a1.27,1.27,0,1,0-.31-2.53c-.34,0-7.17.87-11.37,1.91a1.54,1.54,0,0,0-.15-.35A8.24,8.24,0,0,1,158.62,191.4Z"/><path class="cls-7" d="M140.58,262.88c-.1-1.61-.22-3.14-.33-4.53a14.51,14.51,0,0,0,2.82,3.5c.07,1.12.14,2.24.2,3.34A17.45,17.45,0,0,1,140.58,262.88Z"/><path class="cls-2" d="M141.17,124.3a10.84,10.84,0,0,1-.69-9.15,1.28,1.28,0,1,1,2.39.92,8.15,8.15,0,0,0,6.25,11,1.27,1.27,0,0,1-.21,2.53h-.22A10.83,10.83,0,0,1,141.17,124.3Z"/><path class="cls-2" d="M134.39,237.91l0,.32c-.22,0-.45,0-.67,0-.63,0-1.25,0-1.88-.06Z"/><path class="cls-2" d="M179.38,243.36A1.39,1.39,0,1,0,178,242,1.38,1.38,0,0,0,179.38,243.36Zm0,2.55a3.94,3.94,0,1,1,3.94-3.93A3.94,3.94,0,0,1,179.38,245.91Z"/><path class="cls-5" d="M129.76,157.33a1.34,1.34,0,0,0,.26-.09,46.43,46.43,0,0,0,3.1,6.63l-1.21.9a1.28,1.28,0,0,0-.32,1.7l4.4,7.07s0,.08,0,.12c0,1.33,0,2.66-.06,4-8.67,2.28-20.48,7.1-27.65,17.15-6.1,8.54-8.28,22.17-.66,31.68a27.9,27.9,0,0,0,6.8,5.93,36.51,36.51,0,0,0,13.34,5.31l.17,14.84c-10.13-1-25.28-4.94-35.57-18.93-6.42-8.72-9.1-19-7.56-29,1.48-9.56,6.39-19.36,14.18-28.34C105.37,168.93,115.92,159.64,129.76,157.33Z"/><path class="cls-7" d="M139.92,254.43a28.42,28.42,0,0,1-7.22.94l-.92,0-1.57-.07a13.1,13.1,0,0,1,1.15-.8l-2.17.06h0a1.21,1.21,0,0,1-.86-.35,1.23,1.23,0,0,1-.38-.87v-.77c1.43.13,2.75.21,4,.25a25.29,25.29,0,0,0,7.49-.86l-.07.51a5.65,5.65,0,0,1,3.42,1.08l-.27.11c.06.85.14,1.83.23,2.91l-.57-.42A5.89,5.89,0,0,0,140,255C140,254.78,139.93,254.6,139.92,254.43Z"/><path class="cls-7" d="M149.16,259.1a11.75,11.75,0,0,1,2.94,7.32,1.49,1.49,0,0,1,0,.18.93.93,0,0,1,0,.24,1.23,1.23,0,0,1-1.23,1.15h-.08a15.07,15.07,0,0,1-7.51-2.8c-.06-1.1-.13-2.22-.2-3.34a14,14,0,0,0,6.45,3.46,10.1,10.1,0,0,0-2.26-4.63,26.69,26.69,0,0,0-4.6-4.13c-.09-1.08-.17-2.06-.23-2.91l.27-.11c.36.23.65.45.88.62A31.09,31.09,0,0,1,149.16,259.1Z"/><path class="cls-6" d="M164.23,230.15,191,286a125.06,125.06,0,0,1-49-3.68c1.53-3.83,1.67-10.12,1.31-17.08a15.07,15.07,0,0,0,7.51,2.8h.08a1.23,1.23,0,0,0,1.23-1.15.93.93,0,0,0,0-.24,1.49,1.49,0,0,0,0-.18,11.75,11.75,0,0,0-2.94-7.32,31.09,31.09,0,0,0-5.58-5c-.23-.17-.52-.39-.88-.62a25.15,25.15,0,0,0,8.41-5.21,26.8,26.8,0,0,0,6.49-9.51c.14-.35.27-.71.4-1.06a16.09,16.09,0,0,1,1.22-2.75,23.15,23.15,0,0,1,4.37-4.3Z"/><path class="cls-2" d="M159.16,198.71a1,1,0,0,0,.42.34l-.36,1.07-2-.68-.49-.79-.84-1.37-.68-1,.69-.47a.81.81,0,0,0,.25.24,3.12,3.12,0,0,0,1.49.12,2.28,2.28,0,0,1,.27,0,3.47,3.47,0,0,1,1.24-.63c3.59-.84,10.27-2.17,10.34-2.19a1.28,1.28,0,0,1,.5,2.51c-.07,0-6.71,1.34-10.26,2.17a2.28,2.28,0,0,0-.58.43C159.05,198.51,159.06,198.58,159.16,198.71Z"/><path class="cls-6" d="M206.28,228.14a60.85,60.85,0,0,0,11.17,3.53,1.28,1.28,0,0,0-.15.61l.91,21.47a15.42,15.42,0,0,0,.34,3.07,15,15,0,0,0,1.64,3.68l5.65,10.09a24.43,24.43,0,0,1-7.41,4.31l-10-14.31,1.49-1.28a1.28,1.28,0,0,0,.25-1.66L181.86,212.9C189.41,218.78,197,224.19,206.28,228.14Z"/><path class="cls-6" d="M147.26,260.68a10.1,10.1,0,0,1,2.26,4.63,14,14,0,0,1-6.45-3.46c-.12-1.74-.26-3.5-.41-5.26v0A26.69,26.69,0,0,1,147.26,260.68Z"/><path class="cls-2" d="M157.09,226.43a96.77,96.77,0,0,0,8.8-5.74l.06-.05a5.93,5.93,0,0,0,1.09-1,3.65,3.65,0,0,0,.28-.6l.72-.35.29.61-1.66,2.5.77,1.33v.47h-.79v-.06a.41.41,0,0,0-.05-.18c-2.57,1.91-6.26,4.15-8.21,5.3a1.29,1.29,0,0,1-1.75-.46A1.29,1.29,0,0,1,157.09,226.43Z"/><path class="cls-7" d="M132.38,235.65l6.41-.73c0,.11,0,.22,0,.33A30.29,30.29,0,0,1,132.38,235.65Z"/><path class="cls-2" d="M139.35,251.94a23.13,23.13,0,0,0,10-5.48,24.12,24.12,0,0,0,5.88-8.59l.38-1a17.65,17.65,0,0,1,1.43-3.19c1-1.62,2.89-3.22,4.9-4.93s4.71-4,4.71-5.16h.79v1.86l-2.21,2.17,27.62,57.89-.61.29L191,286l-26.72-55.8-.64.55a23.15,23.15,0,0,0-4.37,4.3,16.09,16.09,0,0,0-1.22,2.75c-.13.35-.26.71-.4,1.06a26.8,26.8,0,0,1-6.49,9.51,25.15,25.15,0,0,1-8.41,5.21,5.65,5.65,0,0,0-3.42-1.08Z"/><path class="cls-2" d="M173.1,231.47a1.38,1.38,0,1,0-1.39-1.38A1.38,1.38,0,0,0,173.1,231.47Zm-3.94-1.38A3.94,3.94,0,1,1,173.1,234,3.95,3.95,0,0,1,169.16,230.09Z"/><path class="cls-7" d="M133.07,262a17.28,17.28,0,0,0,3-6.84,11.4,11.4,0,0,0-8.82,10A8.22,8.22,0,0,0,133.07,262Zm-.37-6.64a28.42,28.42,0,0,0,7.22-.94c0,.17,0,.35.05.53a1.34,1.34,0,0,0-.82,0,.78.78,0,0,1-.22,0,11.46,11.46,0,0,0,1.32,3.32c.11,1.39.23,2.92.33,4.53a17,17,0,0,1-3-4.16,16.86,16.86,0,0,1-2.63,4.84,10.12,10.12,0,0,1-9.19,4,1.24,1.24,0,0,1-1-1.22,14,14,0,0,1,3.61-9.44,12.61,12.61,0,0,1,1.84-1.66l1.57.07Z"/><path class="cls-4" d="M185.91,251.38a1.39,1.39,0,1,1-1.38,1.39A1.39,1.39,0,0,1,185.91,251.38Z"/><path class="cls-4" d="M173.1,228.71a1.38,1.38,0,1,1-1.39,1.38A1.38,1.38,0,0,1,173.1,228.71Z"/><path class="cls-1" d="M157.25,74.21H157q-.73.06-1.47.06a18.85,18.85,0,0,1-3.75-.37,19.29,19.29,0,0,1-5.8-2.14,1.28,1.28,0,0,1,1.26-2.23A16.82,16.82,0,0,0,157,71.66a1.28,1.28,0,0,1,.23,2.55Z"/><path class="cls-2" d="M196.38,305.11s20.12-4.67,32.45-21.17l-8-4-1.47-2.19.82-.32.82,1.17,8.75,3.82a1.3,1.3,0,0,1,.73.87,1.29,1.29,0,0,1-.25,1.1c-15.46,19.17-33.25,22.21-34,22.33l-.21,0a1.26,1.26,0,0,1-.89-.37,1.28,1.28,0,0,1-.37-1.1l1.28-8.7-3.72-7.77.32,0-.4-3,.61-.29,4.74,9.94Z"/><path class="cls-2" d="M133.12,163.87a46.43,46.43,0,0,1-3.1-6.63,1.34,1.34,0,0,1-.26.09c-13.84,2.31-24.39,11.6-30.8,19-7.79,9-12.7,18.78-14.18,28.34-1.54,10,1.14,20.24,7.56,29,10.29,14,25.44,17.95,35.57,18.93v.77a1.23,1.23,0,0,0,.38.87,1.21,1.21,0,0,0,.86.35h0l2.17-.06a13.1,13.1,0,0,0-1.15.8c-10.46-.59-28.15-4.14-39.93-20.14-6.82-9.28-9.67-20.24-8-30.87,1.55-10,6.66-20.28,14.77-29.62,6.67-7.69,17.66-17.34,32.18-19.81-.29-.94-.54-1.92-.75-2.93l1.29-.13,4.63,12.33-1.47,1.67,3.89,7.33-.81.43-4.4-7.07a1.28,1.28,0,0,1,.32-1.7Z"/><path class="cls-3" d="M185.09,114.74a6.54,6.54,0,1,1-6.53-6.54A6.54,6.54,0,0,1,185.09,114.74Z"/><path class="cls-2" d="M164.93,217.51a10.21,10.21,0,0,1,1.29-.83c.93-.85,1.24-1.54,1.21-1.9a.29.29,0,0,0-.09-.2l.47-.52,1.35,1.22-1.72,2.16.6,1.23-.72.35a1.33,1.33,0,0,1-.21.09c-.26.16-.54.36-.7.48l-.53.36c-1.23.75-2.44,1.45-3.66,2.16-1.67,1-3.41,2-5.16,3.1a1.28,1.28,0,0,1-1.37-2.16c1.8-1.14,3.55-2.16,5.25-3.15,1.2-.7,2.4-1.4,3.62-2.14C164.65,217.71,164.78,217.61,164.93,217.51Z"/><path class="cls-2" d="M200.35,275.33a1.38,1.38,0,1,0-1.38,1.39A1.38,1.38,0,0,0,200.35,275.33ZM199,271.39a3.94,3.94,0,1,1-3.94,3.94A3.95,3.95,0,0,1,199,271.39Z"/><path class="cls-2" d="M159.12,105.31a1.28,1.28,0,0,1-.3,2.52,1.06,1.06,0,0,1-.31,0,22.38,22.38,0,0,0-5.08-.65,1.28,1.28,0,0,1-1.26-1.3,1.26,1.26,0,0,1,1.27-1.26h0A25.09,25.09,0,0,1,159.12,105.31Z"/><path class="cls-2" d="M138.48,176.7a450.25,450.25,0,0,0,2.87,58c.49-.13,1-.28,1.47-.43l5.39-11.9a18.18,18.18,0,0,1,3-5,18.41,18.41,0,0,1,3.84-2.92l2.15-1.33a1.27,1.27,0,0,1-.59-.6l-17-36.18-.11.09a1.3,1.3,0,0,1-.8.28A.75.75,0,0,1,138.48,176.7Zm19.85,37,4.67-2.62.9,1.1-.53.44a.93.93,0,0,0-.43-.1l-6.55,4.08a15.73,15.73,0,0,0-3.33,2.49,16.07,16.07,0,0,0-2.52,4.32l-5.47,12.07a1.18,1.18,0,0,1-.45.53,1.25,1.25,0,0,1-.7.59q-1.32.44-2.67.75l.16-1.21a1.25,1.25,0,0,0-.34-1,1.23,1.23,0,0,0-1-.36l-1.26.14a455.92,455.92,0,0,1-2.91-54.62c-8.19,2.24-19,6.8-25.54,16-6.35,8.91-6.68,21.2-.75,28.6a25.23,25.23,0,0,0,6.19,5.38,33.35,33.35,0,0,0,16.6,5.4l-3.54.4a1.23,1.23,0,0,0-1.1,1.24v.42a36.51,36.51,0,0,1-13.34-5.31,27.9,27.9,0,0,1-6.8-5.93c-7.62-9.51-5.44-23.14.66-31.68,7.17-10,19-14.87,27.65-17.15,0-1.32,0-2.65.06-4,0,0,0-.08,0-.12l.81-.43,1,1.89h2Z"/><path class="cls-4" d="M176.11,208.6l31.36,49.49-2.33,2-35-56.63,1.36,1.33c1.51,1.17,3,2.34,4.45,3.49A1.46,1.46,0,0,0,176.11,208.6Z"/><path class="cls-4" d="M130.75,143.65a33,33,0,0,1,5.12-12.23l.74.84a43.12,43.12,0,0,0-3.72,9.31c-1.07,4.45,3.87,14.1,5.66,17.38l-3.72,2.73C133.2,158.63,129.33,150.43,130.75,143.65Z"/><path class="cls-2" d="M192.32,288.8,191,286l1.29-.16.4,3Z"/><path class="cls-7" d="M141.25,237.38c-.85.2-1.7.36-2.56.5l.06-.46-1.9.21.05.46a22.91,22.91,0,0,1-2.48.14l0-.32-2.52.28a32.06,32.06,0,0,1-4.13-.48v-.42a1.23,1.23,0,0,1,1.1-1.24l3.54-.4a30.29,30.29,0,0,0,6.45-.4c0-.11,0-.22,0-.33l1.26-.14a1.23,1.23,0,0,1,1,.36,1.25,1.25,0,0,1,.34,1Z"/><path class="cls-2" d="M191.06,264.69a1.38,1.38,0,1,0,1.38-1.39A1.38,1.38,0,0,0,191.06,264.69Zm-2.56,0a3.94,3.94,0,1,1,3.94,3.94A3.95,3.95,0,0,1,188.5,264.69Z"/><path class="cls-2" d="M226.12,270.33l2.11,2.13-.64.6a1.26,1.26,0,0,1-.7-.59l-1-1.88A3.45,3.45,0,0,0,226.12,270.33Z"/><path class="cls-2" d="M140.66,281.86l-1,2.83.42.14a1,1,0,0,1-.3,0,1.3,1.3,0,0,1-.81-.29,1.27,1.27,0,0,1-.19-1.79c2.45-3,2.29-12.3,1.79-19.91a17.45,17.45,0,0,0,2.69,2.31c.36,7,.22,13.25-1.31,17.08Z"/><path class="cls-2" d="M146,71.77a19.29,19.29,0,0,0,5.8,2.14l-.49,2.32a1.28,1.28,0,0,0-1.16,2.24,7.44,7.44,0,0,0,4.45,1.46,7.33,7.33,0,0,0,3.48-.87,1.27,1.27,0,0,0-.91-2.36L157,74.22h.21a1.28,1.28,0,0,0-.23-2.55,16.82,16.82,0,0,1-9.74-2.12A1.28,1.28,0,0,0,146,71.77Zm72.45,141.06a25.71,25.71,0,0,0,13.58,0,20,20,0,0,0,.68-38.15,24,24,0,0,0-16.47,1l2.25,36.92A.84.84,0,0,1,218.47,212.83ZM172,114.74a6.54,6.54,0,1,0,6.54-6.54A6.54,6.54,0,0,0,172,114.74Zm4.69-37.89a1.29,1.29,0,0,0,1.75-.46,28.85,28.85,0,0,0,2.41-5.31,1.28,1.28,0,0,0-2.2-1.22,15.76,15.76,0,0,1-11.57,5.69,1.28,1.28,0,0,0,0,2.56h0a18.19,18.19,0,0,0,9-2.7A1.29,1.29,0,0,0,176.71,76.85ZM160.49,188.08a54.36,54.36,0,0,1,9.23-1.25l.79-.06a10.28,10.28,0,0,1,6.67,1.78c1.57,1.07,3.23,2.25,4.89,3.42,2.53,1.79,5.16,3.65,7.37,5.1,3.67,2.4,7.4,4.85,11.1,7.18,4.66,2.93,9.67,5.94,15.18,7.78l.2.07L212,147.61l-1.59-.08c-.51,12.83-9.22,25-21.75,30.43a40.56,40.56,0,0,1-16.06,3.22,46.21,46.21,0,0,1-18.79-4.08ZM135.29,123l4.35,9.25-1.21.57-2.84-3.21s-7.75,10.21-5.84,22.21l-1.29.13a21.65,21.65,0,0,1-.22-8.78c1.93-9.3,6.42-14.35,6.61-14.56a1.24,1.24,0,0,1,.18-.14l-1.71-3.64c-1.2,0-2.5.07-3.82.12-1.59.06-3.19.13-4.59.13a1.42,1.42,0,0,1-1-.39,1.29,1.29,0,0,1-.37-.91,39.81,39.81,0,0,1,1.71-10.9l.08-.27c.58-1.87,1.17-3.8.38-5.16a5.93,5.93,0,0,0-.66-.88l-.26-.32c-.69-.84-1.42-1.74-2.1-2.68a3,3,0,0,1-1,1.81l0,0-.1.09-.18.1-.14.07a1.44,1.44,0,0,1-.45.09,7.89,7.89,0,0,1-5.6-2.67c-2.11-2.23-4.51-6.73-4-15.49.71-12.54,7-20,12.42-24.11A17.32,17.32,0,0,1,129.2,52.7a34.35,34.35,0,0,1,10.73-6.34,40.42,40.42,0,0,1,10.77-2.92c6.94-.76,14.5,1,22.47,5.09a34.09,34.09,0,0,1,8.38,5.81c5.69,5.61,8,13.5,9.71,20.46a235.06,235.06,0,0,1,4.8,25.36c.65,1.24,2.51,4,4.6,4.45a1.27,1.27,0,0,1,.92.79,1.25,1.25,0,0,1-.15,1.2,7.44,7.44,0,0,1-5.82,2.85,5.2,5.2,0,0,0,2.6,1.51,1.29,1.29,0,0,1,.95.87,1.27,1.27,0,0,1-.29,1.26,6.52,6.52,0,0,1-4.48,1.74,4.12,4.12,0,0,0,1.75,1.92,1.28,1.28,0,0,1,.62.94,1.32,1.32,0,0,1-.36,1.07,7.54,7.54,0,0,1-6.11,1.92,10,10,0,0,0,2.88,5,1.27,1.27,0,0,1-.7,2.2,12,12,0,0,1-5.74-.93l-4.3,5.21c.9,3.56,2.39,7,4.86,8.81,2.72,2.05,6.4,2.7,10,3.09,4.1.46,8.31.68,12.38.9,4.52.23,9.2.48,13.79,1,10.6,1.3,18.8,4.21,25,8.88l.57.42c12.71,9.27,19.15,21.36,19.15,35.95a42.82,42.82,0,0,1-19,36.09,39.39,39.39,0,0,1-20.85,5.52,52.82,52.82,0,0,1-8.5-.72.43.43,0,0,1,0,0l.91,21.47a12.63,12.63,0,0,0,.27,2.56,13,13,0,0,0,1.39,3.06l6.7,12a1.29,1.29,0,0,1-.49,1.74,1.32,1.32,0,0,1-.63.17,1.14,1.14,0,0,1-.41-.07l.64-.6-2.11-2.13a3.45,3.45,0,0,1-.28.26l-5.65-10.09a15,15,0,0,1-1.64-3.68,15.42,15.42,0,0,1-.34-3.07l-.91-21.47a1.28,1.28,0,0,1,.15-.61,60.85,60.85,0,0,1-11.17-3.53c-9.32-3.95-16.87-9.36-24.42-15.24l28.36,44.75a1.28,1.28,0,0,1-.25,1.66l-1.49,1.28,10,14.31-.79.3-10.17-15.12,1.86-1.8L178,208l-7.82-5.71h-6.85l-.65-.45.55-.8a9.26,9.26,0,0,0,2.77.18l1.74-.23,2.53-.33a1.25,1.25,0,0,1,1.06.36l1.89,1.86c1.86,1.42,3.78,2.95,5.69,4.45,9,7.13,17.51,13.86,28.37,18.46,14.68,6.23,29.85,6,40.57-.63a40.21,40.21,0,0,0,17.79-33.92c0-20.69-13.61-30.62-18.09-33.89l-.6-.43c-5.88-4.4-13.68-7.15-23.84-8.4-2.82-.35-5.69-.57-8.55-.74L216.1,173a26.39,26.39,0,0,1,17.43-.75A22.87,22.87,0,0,1,248.92,194a23.25,23.25,0,0,1-16.12,21.26,25.24,25.24,0,0,1-7.29,1,33.49,33.49,0,0,1-10.6-1.83c-5.78-1.92-10.94-5-15.73-8-3.72-2.34-7.46-4.79-11.07-7.16-2.32-1.52-5-3.39-7.52-5.2-1.65-1.16-3.3-2.33-4.86-3.4a7.87,7.87,0,0,0-5-1.34l-.8.06c-3.36.25-8.18.62-11.29,2l-.57-1.18L160.5,189l-13.3-20.42,1.47-2.09-5.34-8.08L140.79,160s-.73-1.38-1.71-3.37l.87-.45c.34.66.68,1.29,1,1.87l1.22-.91a1.28,1.28,0,0,1,1.83.33l6,9.08a1.29,1.29,0,0,1-.26,1.7l-.89.71,2.59,4.25a1.08,1.08,0,0,1,.42.13c11.44,6.17,24.83,7,35.81,2.31,11.65-5,19.75-16.34,20.21-28.22-3.59-.2-7.25-.42-10.87-.82-3.93-.43-8-1.17-11.23-3.59-5.33-4-6.75-13.38-7.1-19.15h-.09a9.09,9.09,0,0,1-2.77-17.75,1.22,1.22,0,0,1,.42-.81,10.94,10.94,0,0,0,1.94-14.22,34,34,0,0,1-3.65,2.43,28.37,28.37,0,0,1-4.14,2l-.34.12A33.24,33.24,0,0,0,184.63,84.1a1.22,1.22,0,0,0-.95-2s0-.09,0-.13a1.24,1.24,0,0,0-1.57-.78l-4.72,1.59,1.7-1.63a1.22,1.22,0,0,0,.24-1.48,1.24,1.24,0,0,0-1.37-.62,61.54,61.54,0,0,0-6.52,1.9,1.24,1.24,0,0,0,.83,2.34l1.53-.52-2.17,2.07a1.24,1.24,0,0,0,.85,2.14,1.34,1.34,0,0,0,.4-.07L181.51,84a30.11,30.11,0,0,1-12.37,9.2,21.43,21.43,0,0,1-16.66-.32,16.43,16.43,0,0,1-9.43-13,1.26,1.26,0,0,0-1.34-1.14,1.24,1.24,0,0,0-1.13,1.34,18.8,18.8,0,0,0,9.34,14.25,20.45,20.45,0,0,1-5.53-4.62L134.22,90a1.3,1.3,0,0,1-.59-.12c-1.17-.57-2.62-2.78-3.76-4.83-1.08,4.91-2.19,12.89-2.2,13a1.28,1.28,0,0,1-2.33.53,30.59,30.59,0,0,1-2.56-6.22c-.14,2.06-.18,4.12-.16,6.18a28.14,28.14,0,0,0,4.09,6.07l.25.29a9.08,9.08,0,0,1,.92,1.24c1.33,2.33.51,5-.15,7.19l-.08.26a37.25,37.25,0,0,0-1.56,8.89c1.06,0,2.18-.07,3.31-.11,1.63-.07,3.29-.12,4.67-.13h.06a.76.76,0,0,1,.16,0,2.84,2.84,0,0,1,.31.06,1.13,1.13,0,0,1,.2.13l.21.13a2.07,2.07,0,0,1,.17.24C135.21,122.87,135.26,122.91,135.29,123Z"/><path class="cls-2" d="M164.5,212.94l2.94.79.37.33-.47.52-.06,0a3.37,3.37,0,0,0-.89.09l-11.18,6.72a1.28,1.28,0,0,1-.66.18,1.28,1.28,0,0,1-.65-2.37l9.31-5.6a1.69,1.69,0,0,0,.16-.91l.53-.44Z"/><path class="cls-4" d="M142.61,160l4.59,7-.82.66-7.32,5.09a1.16,1.16,0,0,0-.35.38l-4.33-7Z"/><path class="cls-6" d="M153.8,177.1a46.21,46.21,0,0,0,18.79,4.08A40.56,40.56,0,0,0,188.65,178c12.53-5.39,21.24-17.6,21.75-30.43l1.59.08,3.93,64.49-.2-.07c-5.51-1.84-10.52-4.85-15.18-7.78-3.7-2.33-7.43-4.78-11.1-7.18-2.21-1.45-4.84-3.31-7.37-5.1-1.66-1.17-3.32-2.35-4.89-3.42a10.28,10.28,0,0,0-6.67-1.78l-.79.06a54.36,54.36,0,0,0-9.23,1.25Z"/><path class="cls-2" d="M185.91,256.7a3.94,3.94,0,1,1,3.94-3.93A3.94,3.94,0,0,1,185.91,256.7Zm-1.38-3.93a1.39,1.39,0,1,0,1.38-1.39A1.38,1.38,0,0,0,184.53,252.77Z"/><path class="cls-5" d="M175.25,103.54a4.78,4.78,0,0,0-.83-4.46l2-3.68a1.28,1.28,0,0,0-1.78-1.71l-.12-.21a34,34,0,0,0,3.65-2.43,10.94,10.94,0,0,1-1.94,14.22l-1.87-.19A4.62,4.62,0,0,0,175.25,103.54Z"/><polygon class="cls-5" points="130.33 247.6 134.15 251.93 130.38 252.03 130.33 247.6"/><path class="cls-2" d="M140.12,256.8c-.05-.65-.11-1.27-.15-1.84a5.89,5.89,0,0,1,2.12,1.17l.57.42v0c.15,1.76.29,3.52.41,5.26a14.51,14.51,0,0,1-2.82-3.5C140.2,257.81,140.16,257.29,140.12,256.8Z"/><path class="cls-1" d="M158.1,79.06a7.33,7.33,0,0,1-3.48.87,7.44,7.44,0,0,1-4.45-1.46,1.28,1.28,0,0,1,1.16-2.24,1.22,1.22,0,0,1,.37.2,5,5,0,0,0,5.19.38,1,1,0,0,1,.3-.11,1.27,1.27,0,0,1,.91,2.36Z"/><path class="cls-5" d="M138.69,237.88l-1,7.83-.77-7.62C137.5,238,138.09,238,138.69,237.88Z"/><path class="cls-5" d="M167,219.62a5.93,5.93,0,0,1-1.09,1l-.06.05a96.77,96.77,0,0,1-8.8,5.74,1.28,1.28,0,0,0,.65,2.38,1.26,1.26,0,0,0,.65-.17c2-1.15,5.64-3.39,8.21-5.3a.41.41,0,0,1,.05.18v.06c0,1.19-2.71,3.49-4.71,5.16s-3.92,3.31-4.9,4.93a17.65,17.65,0,0,0-1.43,3.19l-.38,1a24.12,24.12,0,0,1-5.88,8.59,23.13,23.13,0,0,1-10,5.48l1.9-14.56q1.35-.31,2.67-.75a1.25,1.25,0,0,0,.7-.59,1.18,1.18,0,0,0,.45-.53l5.47-12.07a16.07,16.07,0,0,1,2.52-4.32,15.73,15.73,0,0,1,3.33-2.49l6.55-4.08a.93.93,0,0,1,.43.1,1.69,1.69,0,0,1-.16.91l-9.31,5.6a1.28,1.28,0,0,0,.65,2.37,1.28,1.28,0,0,0,.66-.18l11.18-6.72a3.37,3.37,0,0,1,.89-.09l.06,0a.29.29,0,0,1,.09.2c0,.36-.28,1.05-1.21,1.9a10.21,10.21,0,0,0-1.29.83c-.15.1-.28.2-.37.25-1.22.74-2.42,1.44-3.62,2.14-1.7,1-3.45,2-5.25,3.15a1.28,1.28,0,0,0,1.37,2.16c1.75-1.11,3.49-2.12,5.16-3.1,1.22-.71,2.43-1.41,3.66-2.16l.53-.36c.16-.12.44-.32.7-.48a1.33,1.33,0,0,0,.21-.09A3.65,3.65,0,0,1,167,219.62Z"/><path class="cls-3" d="M170,95.58c-.3.12-.61.22-.92.32s-.66.21-1,.3a26.06,26.06,0,0,1-7,1A23,23,0,0,1,151.2,95l-1-.5-.3-.17a18.8,18.8,0,0,1-9.34-14.25,1.24,1.24,0,0,1,1.13-1.34,1.26,1.26,0,0,1,1.34,1.14,16.43,16.43,0,0,0,9.43,13,21.43,21.43,0,0,0,16.66.32A30.11,30.11,0,0,0,181.51,84L172.86,87a1.34,1.34,0,0,1-.4.07,1.24,1.24,0,0,1-.85-2.14l2.17-2.07-1.53.52a1.24,1.24,0,0,1-.83-2.34,61.54,61.54,0,0,1,6.52-1.9,1.24,1.24,0,0,1,1.37.62,1.22,1.22,0,0,1-.24,1.48l-1.7,1.63,4.72-1.59a1.24,1.24,0,0,1,1.57.78s0,.09,0,.13a1.22,1.22,0,0,1,.95,2A33.24,33.24,0,0,1,170,95.56Z"/><path class="cls-4" d="M179.38,240.59A1.39,1.39,0,1,1,178,242,1.39,1.39,0,0,1,179.38,240.59Z"/><path class="cls-2" d="M161.48,199.07C163.39,198,167,197.35,170,197a1.28,1.28,0,1,1,.32,2.53,37.17,37.17,0,0,0-7.12,1.54l-.55.8-1.51-1.05-1.95-.66.36-1.07a4.8,4.8,0,0,0,1.66,0Z"/><path class="cls-2" d="M170.73,106.67a1.27,1.27,0,0,1-1.24-1.31,1.23,1.23,0,0,1,1.31-1.24,2.08,2.08,0,0,0,1.29-3.76,1.29,1.29,0,0,1-.37-1.64l2.42-4.52a1.39,1.39,0,0,1,.48-.51,1.28,1.28,0,0,1,1.78,1.71l-2,3.68a4.78,4.78,0,0,1,.83,4.46,4.62,4.62,0,0,1-.91,1.54,4.73,4.73,0,0,1-3.49,1.59Z"/><path class="cls-4" d="M192.44,263.3a1.39,1.39,0,1,1-1.38,1.39A1.38,1.38,0,0,1,192.44,263.3Z"/><path class="cls-2" d="M142.86,93a11.58,11.58,0,0,0-10.78,4.74,1.28,1.28,0,0,1-1.05.55,1.24,1.24,0,0,1-.73-.23A1.28,1.28,0,0,1,130,96.3a14.13,14.13,0,0,1,13.23-5.81,1.28,1.28,0,0,1,1.09,1.44A1.26,1.26,0,0,1,142.86,93Z"/></svg>