<svg id="Capa_1" data-name="Capa 1" xmlns="http://www.w3.org/2000/svg" viewBox="0 0 350 350"><defs><style>.cls-1{fill:#fff;}.cls-2{fill:#272c4a;}.cls-3{fill:#449bac;}.cls-4{fill:#2d375a;}.cls-5{fill:#c5d0ef;}.cls-6{fill:#12a052;}.cls-7{fill:#f4cdb0;}.cls-8{fill:#008d36;}</style></defs><rect class="cls-1" width="350" height="350"/><path class="cls-2" d="M205.22,63.71a6.86,6.86,0,0,0-1.41-4,4.44,4.44,0,0,0-4.52-1.56,1.42,1.42,0,0,0-.92.82l-1.85,4.62a1.35,1.35,0,0,0,0,1,3.34,3.34,0,0,0-1,1.29L193,70.7s0,.07,0,.1a1,1,0,0,0-.2.12,28.12,28.12,0,0,0-4.44,6.17,2.32,2.32,0,0,0-1.7.91,22.09,22.09,0,0,1-8.82,6.23,1.39,1.39,0,1,0,1,2.6,25.07,25.07,0,0,0,9.07-6.07A15.9,15.9,0,0,1,183,96.12a1.4,1.4,0,0,0-.12,2,1.39,1.39,0,0,0,1,.47,1.34,1.34,0,0,0,.92-.35,18.32,18.32,0,0,0,5.62-9.4,1.36,1.36,0,0,0,1.68-.36c1.66-2,4-4.9,4.7-8.27a1.05,1.05,0,0,0,.35-.08,9.21,9.21,0,0,0,4.43-5.48,11,11,0,0,0,.44-3.55,1.36,1.36,0,0,0,1.06-.54A10.57,10.57,0,0,0,205.22,63.71ZM191,85.45a18.17,18.17,0,0,0-.71-6.31,2.23,2.23,0,0,0,.19-.24,25,25,0,0,1,2.9-4.5,10.1,10.1,0,0,1,.93,3.58C194.4,80.59,192.89,83,191,85.45Zm8-11.65a6.73,6.73,0,0,1-2,3.09,16.85,16.85,0,0,0-1.61-4.83s0,0,.06-.08l2.51-4.88,0,0a3.32,3.32,0,0,1,.88,1.54A8.82,8.82,0,0,1,199,73.8Zm2.54-6s0-.07,0-.1a5.25,5.25,0,0,0-2.37-3.21l1.5-3.74a2,2,0,0,1,1,.66,4.2,4.2,0,0,1,.77,2.39A7.74,7.74,0,0,1,201.52,67.85Z"/><rect class="cls-3" x="74.67" y="171.75" width="23.94" height="6" rx="3"/><rect class="cls-3" x="86.64" y="150.92" width="21.52" height="6" rx="3"/><rect class="cls-3" x="81.94" y="209.56" width="33.35" height="6" rx="3"/><rect class="cls-3" x="71.36" y="184.43" width="19.51" height="6" rx="3"/><rect class="cls-3" x="102.83" y="268.5" width="35.56" height="7.38" rx="3"/><rect class="cls-3" x="102.83" y="256.27" width="33.35" height="7.38" rx="3"/><rect class="cls-3" x="94.55" y="230.68" width="33.35" height="6" rx="3"/><rect class="cls-3" x="88.36" y="220.31" width="38.16" height="6" rx="3"/><path class="cls-4" d="M198.71,57.08s1.29-6.25-16-6.08-29.84,13.72-29.84,13.72l-6.16,15.34v3.61s-9,11-3.66,20.66A20.48,20.48,0,0,0,157.53,115l1.07-2.5s5.9,2.67,7.4,2.5l-1.67-7.17s5,4.5,16,.84l2.34-.84L176,100s9.49,1,11.32.85c0,0-2.92,16.31,8,23S197.17,137,197.17,137s-5.66,8.84,0,16.92-.67,11.89-.67,11.89-2.69,8.93,0,12.9c0,0,4.32-8.46,6.73-9.09l.94,10.85,4.16-7.83,8.34-5.31s4.33-.38,3-8.35,2.33-6.17,2.33-6.17,7.71-1,8.67-10-1.84-12.5-1.84-12.5-1.55-7.53.8-9c0,0,1.86,4.13,9.87,6.3s17.67,10.53,17.67,10.53a13.53,13.53,0,0,0,9.66,8c7.56,1.8,5.1-.17,5.1-.17l-6.1-5.86,9.17.62L270.33,137l-3.83-5.83-2.83-4.4-6.5-3.94s-4.5-4.86-4.5-7.09-.5-8.41-1.17-9.41S246,100,246,100l-7.64-4.61s-6.86-4.67-8.7-12.51-7.8-14.67-7.8-14.67-11.65-8.57-14.74-8.46-2.59-2.65-2.59-2.65l-2.32-1.75Z"/><path class="cls-5" d="M94,145.33l27.65.25a35.37,35.37,0,0,0-1.68,6.25H109.24a3.82,3.82,0,0,0-3.22-1.76H90C91.32,148.46,92.67,146.89,94,145.33Z"/><path class="cls-5" d="M79,166.14l26-.33a53.78,53.78,0,0,0-4,4.53c-.59.75-1.16,1.52-1.72,2.3a3.63,3.63,0,0,0-2.92-1.5H77a1.9,1.9,0,0,0-.25,0Q77.73,168.65,79,166.14Z"/><path class="cls-4" d="M278.94,191.31a200.3,200.3,0,0,1-10.37,81.56l0,.08a1.09,1.09,0,0,1-.08.15,1.39,1.39,0,0,1-.21.27.24.24,0,0,1-.06.08c-7.88,6.92-18.76,10.66-30.11,10.66a52.38,52.38,0,0,1-12.25-1.46c-14.27-3.44-27-13.58-34-27.1l0-.07a.5.5,0,0,1,0-.13s0-.08,0-.13,0-.08,0-.13a.57.57,0,0,1,0-.13v-.13c0-.05,0-.09,0-.14a.53.53,0,0,1,0-.12.74.74,0,0,1,0-.14s0-.05,0-.07a38.57,38.57,0,0,1,2.5-4.43c1.59-2.56,3.23-5.22,3.46-7.5a1.68,1.68,0,0,1,.11-.4c-4.43-.82-9-1.79-13.49-3.05a117.12,117.12,0,0,1,6.76,16.58c.44,1.3.85,2.61,1.25,3.92a1.68,1.68,0,0,1,.09.32c2.16,7.17,3.9,14.46,5.61,21.64.71,3,1.41,5.92,2.14,8.86a45.15,45.15,0,0,0,2.66,8.28,1.37,1.37,0,0,1-.66,1.82,1.33,1.33,0,0,1-.58.13,1.37,1.37,0,0,1-1.24-.79,42.7,42.7,0,0,1-2.57-7.75l-98.15-.84c-.63,2.38-1.29,4.74-2,7.08a1.37,1.37,0,0,1-1.32,1,1.18,1.18,0,0,1-.37-.05,1.36,1.36,0,0,1-1-1.69c.74-2.65,1.49-5.32,2.2-8,2.34-8.9,4.21-18,3.82-27.22C100.63,251.18,96.79,239.69,90,229c-1.83-2.87-3.89-5.72-5.89-8.48-5.11-7.08-10.4-14.4-12.59-23.05-2.56-10.15-.62-22,5.46-33.36,5.38-10.08,13.12-18.6,20.59-26.84a1.37,1.37,0,0,1,2,1.84c-1,1.15-2.09,2.31-3.14,3.47l26.37.23a35.06,35.06,0,0,1,4-6.54A1.38,1.38,0,0,1,129,138a32.2,32.2,0,0,0-4,6.72,1.11,1.11,0,0,1-.07.16,32.52,32.52,0,0,0-2.67,11.76,19.12,19.12,0,0,1,10.58,1.15c4.22,2,10,6,15.06,9.55,1.9,1.33,3.66,2.57,5.14,3.55,6.28,4.16,11.83,5.95,17,5.48a10.34,10.34,0,0,0,5.86-2.21c1.92-1.7,2.86-4.42,3.67-7.06.43-1.39.83-2.79,1.24-4.19a113.25,113.25,0,0,1,4.68-13.76c3-6.84,7-12,11.78-15.25a1.38,1.38,0,0,1,.41-.19,8.51,8.51,0,0,0,.79-2.55l-10.06,9c-2,1.76-4.09,3.34-6.52,3.34a5.67,5.67,0,0,1-1.14-.12,8.85,8.85,0,0,1-4.15-2.55,107.54,107.54,0,0,1-9.28-9.93c-3.26.33-6.58.52-9.86.56h0a1.37,1.37,0,0,1-1.37-1.49c.39-4.6.54-9.25.47-13.87a24.33,24.33,0,0,1-10.23-5.5,18.49,18.49,0,0,1-5.84-10.82,24.3,24.3,0,0,1-.09-5.14,29,29,0,0,1,4.86-13.07c.78-8.66,5.59-17.25,12.93-23.06a44.42,44.42,0,0,1,25.29-9,25.61,25.61,0,0,1,9.47,1,14.15,14.15,0,0,1,6.75,4.56,3.42,3.42,0,0,1,2.4-.74,4.51,4.51,0,0,1,3.72,3.52,6.26,6.26,0,0,1,.17,1,1.35,1.35,0,0,1,1-.13,32,32,0,0,1,22,18.58c.62,1.48,1.13,3,1.63,4.52,1,3.14,2,6.1,3.92,8.51s4.66,4.1,7.54,5.85a33.79,33.79,0,0,1,7.49,5.56,17.3,17.3,0,0,1,4.31,8.46c.2,1,.31,2,.41,3a16.15,16.15,0,0,0,1,4.69c1.1,2.54,3.48,4.26,6,6.07,2.29,1.65,4.66,3.35,6.24,5.82a22.63,22.63,0,0,1,1.4,2.72,15.24,15.24,0,0,0,1.66,3,6.42,6.42,0,0,0,5.23,2.46,3.57,3.57,0,0,1,2.88,1.2,1.91,1.91,0,0,1,.14,1.84,1.37,1.37,0,0,1-.83.75,19.75,19.75,0,0,1-8.25.82,16.44,16.44,0,0,0,5,2.73,1.37,1.37,0,0,1-.25,2.66,18.93,18.93,0,0,1-2.49.16,20.07,20.07,0,0,1-3.27-.29c5.62,9.82,7.71,21.29,9.11,32.26C278.27,184.18,278.66,187.85,278.94,191.31Zm-12.84,80.3a197.57,197.57,0,0,0,10.11-80.07c-.28-3.43-.67-7.06-1.19-11.1-1.41-11.06-3.51-22.61-9.32-32.22a1.36,1.36,0,0,1-.15-1.09l-.62-.22a55.72,55.72,0,0,1,2.94,18.47A99.36,99.36,0,0,1,267,176c-1.44,12-3.55,24.52-9.1,35.5a1.36,1.36,0,0,1-.14.55c-3.1,6.36-6.23,12.53-10.46,18-4.84,6.21-10.62,10.63-16.7,12.78a35.85,35.85,0,0,1-11.95,1.85,91,91,0,0,1-14.54-1.49l-3.67-.62a.74.74,0,0,1,0,.21c-.3,2.91-2.11,5.84-3.86,8.67-.77,1.24-1.49,2.41-2,3.5,6.72,12.53,18.58,21.89,31.88,25.1C240.92,283.47,256.06,280.26,266.1,271.61ZM271.83,140h.1a9.32,9.32,0,0,1-3.64-2.75,16.74,16.74,0,0,1-2-3.55,18.31,18.31,0,0,0-1.23-2.38c-1.29-2-3.35-3.51-5.52-5.07-2.71-1.95-5.52-4-6.91-7.21a18.44,18.44,0,0,1-1.18-5.49c-.1-1-.19-1.84-.37-2.72a14.84,14.84,0,0,0-3.64-7.13,31.29,31.29,0,0,0-6.89-5.08c-3-1.79-6-3.65-8.27-6.49S229,86,227.9,82.74c-.48-1.44-1-2.94-1.55-4.33a29.28,29.28,0,0,0-20.07-17,1.14,1.14,0,0,1-.42-.18c-.05.31-.1.62-.14.91a1.36,1.36,0,0,1-.82,1,8.51,8.51,0,0,1,.11.9,10.36,10.36,0,0,1-2,6.71,1.36,1.36,0,0,1-1,.54,10.57,10.57,0,0,1-.44,3.48,9,9,0,0,1-4.36,5.39,1,1,0,0,1-.32.12c-.71,3.3-3,6.12-4.65,8.1a1.34,1.34,0,0,1-1.06.51,1.37,1.37,0,0,1-.59-.16,18.61,18.61,0,0,1-3.18,6.71,1.42,1.42,0,0,1,.62.68,17.72,17.72,0,0,1,1.32,7.82,31,31,0,0,1-.39,3.14,27.26,27.26,0,0,0-.38,3.39,12.47,12.47,0,0,0,4.07,9.43,31.18,31.18,0,0,0,2.65,2c2.51,1.79,5.11,3.65,5.83,6.87s-1,6.33-2.53,9c-.33.56-.65,1.13-1,1.69-1,1.8-3,6.44-1,10.55a20.1,20.1,0,0,0,1.84,2.89c1.58,2.23,3.37,4.75,2.64,7.78a9.74,9.74,0,0,1-2,3.65c-.32.41-.63.81-.91,1.24-1.7,2.62-1.72,5.84-1,8.92a12.3,12.3,0,0,1,6.72-7.25,1.37,1.37,0,0,1,1.84,1.65,22.47,22.47,0,0,0-.91,7.09,19.3,19.3,0,0,1,6.66-7.15c.57-.35,1.17-.69,1.77-1,2.34-1.33,4.54-2.58,5-4.66a8.22,8.22,0,0,0-.33-3.26l-.08-.36a8.29,8.29,0,0,1,.06-5,4.54,4.54,0,0,1,2.51-2.45,3.66,3.66,0,0,1,1.84-.2h0a14.12,14.12,0,0,0,6.93-17.11c-.25-.64-.55-1.28-.84-1.91a13.57,13.57,0,0,1-1.65-5.48,13.67,13.67,0,0,1,1.81-6.14c.2-.41.4-.83.59-1.25.61-1.38,1.47-3.94.35-5.58a1.37,1.37,0,1,1,2.26-1.55c1.41,2.06,1.38,4.91-.11,8.25l-.07.15a1.28,1.28,0,0,1,.49.31c3.15,3.2,7.6,5,11.91,6.67.83.33,1.67.66,2.49,1,4.62,1.9,11.06,5.13,13.55,11.22a1.46,1.46,0,0,1,.1.45,18.55,18.55,0,0,0,8.32,4,19.2,19.2,0,0,1-4-4,1.37,1.37,0,0,1,1.59-2.09A17,17,0,0,0,271.83,140Zm-6.7,25.39a53.1,53.1,0,0,0-3.22-18.81,1.32,1.32,0,0,1,0-.92,20.54,20.54,0,0,1-5-3.68,1.38,1.38,0,0,1-.35-.69,1.3,1.3,0,0,1-.44.05c-5.49-.38-10.35,3.7-12.73,7.89-2.81,4.94-3.46,10.91-3.73,16.11-.17,3.43-.21,6.95-.24,10.35-.09,8.2-.17,16.69-2.2,24.83-2.57,10.3-10.21,23.2-23.3,25.67-8.75,1.66-17.39-1.78-25.42-5.75l-2.2-1.1c-6.8-3.4-13.82-6.91-21.25-7.19-8.17-.34-16.88,3.55-23.35,10.32-5.5,5.76-9.67,13.65-12.37,23.44a2.61,2.61,0,0,0,0,1.49s0,.07.18.1c.74.19,1.4-1.5,1.54-2.1,0,0,0,0,0,0,.5-4.14,2.39-7.84,4.4-11.24a1.38,1.38,0,0,1,2.37,1.4c-2.34,3.94-3.94,7.35-4.15,11.15a5.14,5.14,0,0,1-.06.55,2.82,2.82,0,0,0,0,.44s.36.25.82.25h.07a1.86,1.86,0,0,0,1.26-.9,3.2,3.2,0,0,1-.16-1.16c.14-2.66,2.63-8.31,4.25-10.83a1.37,1.37,0,1,1,2.3,1.48c-1.54,2.41-3.71,7.54-3.81,9.49a.35.35,0,0,0,.06.21l0,.07.1.09a.45.45,0,0,0,.49,0,1.59,1.59,0,0,0,.49-.52,36.42,36.42,0,0,1,18.08-16.91c.31-.14.66-.27,1-.4a4.86,4.86,0,0,0,2.57-1.59,1.28,1.28,0,0,1,.39-.38l0,0a.93.93,0,0,1,.2-.1l.08,0,.17,0h.09l.17,0h.05a1.38,1.38,0,0,1,.72.24c12.33,8.53,27.89,11.63,41.5,13.86,8.78,1.44,17.3,2.51,25.13-.24,5.58-2,10.93-6.08,15.44-11.88,4-5.08,7-10.91,9.91-16.95a1.32,1.32,0,0,1,.15-.58c5.25-10.13,7.43-21.36,9.08-35.12A95.11,95.11,0,0,0,265.13,165.35Zm-9.67-26.81A20.69,20.69,0,0,0,249,133.6a27.26,27.26,0,0,0-9.54,8c-1,1.24-1.88,2.59-2.76,3.9a47.77,47.77,0,0,1-4.22,5.66c-3,3.32-6.7,5.15-10.2,5.15a9.07,9.07,0,0,1-1.28-.08,1.37,1.37,0,0,1-.78-.38,6.36,6.36,0,0,0,.13,3.16l.08.35a10.48,10.48,0,0,1,.34,4.4c-.64,3.32-3.64,5-6.29,6.51-.57.33-1.13.65-1.67,1a16.55,16.55,0,0,0-7.33,10.61,1.37,1.37,0,0,1-1.3,1.11h0a1.38,1.38,0,0,1-1.33-1,25.21,25.21,0,0,1-.57-10.44,9.74,9.74,0,0,0-3,9.19s0,0,0,0a1.29,1.29,0,0,1,0,.44c-1,9,2.82,13.34,5.89,16.86,1.52,1.74,2.84,3.25,3.23,5,1.61,7.11.14,14.42-1.52,20.65a22.92,22.92,0,0,0,6.51-.24c11.82-2.24,18.78-14.14,21.15-23.64,1.95-7.83,2-16.15,2.11-24.19,0-3.44.07-7,.25-10.47.29-5.52,1-11.89,4.08-17.33C244.28,142.1,249.89,138.54,255.46,138.54ZM246,132.16l-.71-.3c-.81-.34-1.64-.66-2.46-1-4.45-1.76-9-3.59-12.56-7a8.43,8.43,0,0,0-.91,3.56,11.15,11.15,0,0,0,1.38,4.37c.33.69.65,1.39.92,2.09a16.83,16.83,0,0,1-5.33,18.69,15.42,15.42,0,0,0,4.19-3.25,43.61,43.61,0,0,0,4-5.33c.91-1.35,1.85-2.75,2.89-4.07A30.67,30.67,0,0,1,246,132.16Zm-41.72,90.91c1.58-5.92,3-12.86,1.52-19.41-.25-1.09-1.35-2.35-2.63-3.81-2.53-2.9-6.13-7-6.65-14.14-3.55,4.72-8.31,8.29-12.29,11a24.2,24.2,0,0,1-5.38,2.94,17.1,17.1,0,0,1-5.74.91,34.64,34.64,0,0,1-5.42-.5c-1.55-.25-3.08-.57-4.6-.92a43.43,43.43,0,0,1,5.9,10.62c6.56,1.08,12.66,4.12,18.58,7.08l2.2,1.1a58.44,58.44,0,0,0,14.47,5.37A2,2,0,0,1,204.25,223.07Zm-1-163.34a4.26,4.26,0,0,0-.11-1.19,1.84,1.84,0,0,0-1.32-1.46.72.72,0,0,0-.51.23.52.52,0,0,0-.16.27,1.41,1.41,0,0,1,0,1A4.62,4.62,0,0,1,203.23,59.73Zm-1.85,8.46a7.75,7.75,0,0,0,.89-3.94,4.2,4.2,0,0,0-.76-2.36,1.92,1.92,0,0,0-1-.64L199,64.9a5.25,5.25,0,0,1,2.32,3.18ZM198.87,74a8.71,8.71,0,0,0-.13-5.12,3.14,3.14,0,0,0-.87-1.51s0,0,0,0l-2.47,4.81s0,0,0,.08a16.2,16.2,0,0,1,1.6,4.73A6.69,6.69,0,0,0,198.87,74Zm-.16-15.19a1.19,1.19,0,0,1-.13-.25,2.92,2.92,0,0,1-.1-.4,1.89,1.89,0,0,1-.2-.27,10.85,10.85,0,0,0-6.23-4.8,23.1,23.1,0,0,0-8.47-.87,41.72,41.72,0,0,0-23.73,8.41c-6.86,5.43-11.32,13.46-11.94,21.5a.45.45,0,0,1,0,.11,1.05,1.05,0,0,1-.06.24,2.1,2.1,0,0,1-.13.26s0,.07-.05.1a26.42,26.42,0,0,0-4.55,12,21.49,21.49,0,0,0,.08,4.56,15.74,15.74,0,0,0,5,9.19,21.67,21.67,0,0,0,9.18,4.9l1.82.81a1.43,1.43,0,0,1,.09.42c.11,4.63,0,9.32-.35,14,2.74-.08,5.5-.25,8.22-.53a1.34,1.34,0,0,1,1,.33,1.36,1.36,0,0,1,1.1.48c1,1.21,2,2.38,3.06,3.55a8.47,8.47,0,0,0,7.37-6.25,1.39,1.39,0,0,1,1.65-1,1.37,1.37,0,0,1,1,1.65,11.17,11.17,0,0,1-7.83,8c1.28,1.34,2.59,2.66,3.93,3.93a6.62,6.62,0,0,0,2.83,1.87c1.71.36,3.54-1,5.27-2.58l11.1-10a.75.75,0,0,1,.15-.09,14.48,14.48,0,0,0-4.18-3.84,34.09,34.09,0,0,1-2.88-2.23,15.19,15.19,0,0,1-5-11.53,28.31,28.31,0,0,1,.41-3.75,27.62,27.62,0,0,0,.36-2.88,14.43,14.43,0,0,0,0-1.86l-.32-2.17a14.83,14.83,0,0,0-.68-2.27c-.18.17-.35.35-.54.51a1.35,1.35,0,0,1-.9.34,1.37,1.37,0,0,1-.91-2.4,15.64,15.64,0,0,0,4.75-15.11,24.75,24.75,0,0,1-8.93,6,1.37,1.37,0,1,1-1-2.56,21.79,21.79,0,0,0,8.67-6.13,2.31,2.31,0,0,1,1.68-.9,27.12,27.12,0,0,1,4.36-6.06,1.06,1.06,0,0,1,.2-.17l0-.05,2.47-4.8a3.44,3.44,0,0,1,1-1.27,1.38,1.38,0,0,1,0-1l1.83-4.54A1.35,1.35,0,0,1,198.71,58.85Zm-.35,101.29c.44-1.82-.79-3.55-2.21-5.55a22.77,22.77,0,0,1-2.07-3.29c-1.53-3.19-1.44-7.17.19-11.16a37.55,37.55,0,0,0-6.3,10.09,110.51,110.51,0,0,0-4.55,13.43c-.41,1.41-.83,2.82-1.25,4.22-.93,3-2,6.15-4.49,8.32a12.84,12.84,0,0,1-7.41,2.88c-5.79.53-11.92-1.41-18.74-5.92-1.5-1-3.29-2.24-5.21-3.59-4.74-3.32-10.63-7.45-14.64-9.31-4.68-2.18-11.8-1-16.41,1.31a29.84,29.84,0,0,0-5.79,3.87.39.39,0,0,1-.1.08,44.83,44.83,0,0,0-6.2,6.52,126.53,126.53,0,0,0-8,11.84c-1.78,2.88-2.93,9-1.88,11.89-.06-6.1,3-12.27,4.4-14.83a1.37,1.37,0,0,1,2.39,1.33c-1.46,2.64-4.79,9.41-3.92,15.34a2.5,2.5,0,0,0,.47,1.22,1.06,1.06,0,0,0,.32.28c-.06,0,.2-.29.51-.91a4.24,4.24,0,0,1-.22-.74c-.69-4.3,2-11.28,4.08-14.86A1.37,1.37,0,1,1,103.7,184c-1.92,3.26-4.28,9.6-3.73,13,.08.08.54-.05.74-.51.52-1.15,1-2.32,1.4-3.49a30.18,30.18,0,0,1,3.66-7.46,9.3,9.3,0,0,1,5.78-3.55,1.37,1.37,0,0,1,1.34.49,1.35,1.35,0,0,1,.18,1.4c-2.19,5-2.18,6.58-2.1,7l.1,0a1.11,1.11,0,0,0,.2-.22,13.34,13.34,0,0,0,1.52-2.86c.25-.57.49-1.13.77-1.68a32.91,32.91,0,0,1,4-5.7c2.08-2.54,4-4.95,4.56-7.87a1.37,1.37,0,0,1,.45-.79,1.32,1.32,0,0,1,.31-.36,1.37,1.37,0,0,1,1.93.24,69.23,69.23,0,0,0,43.29,25.68c3.06.49,6.63.84,9.8-.28a21.68,21.68,0,0,0,4.76-2.63c4.67-3.17,10.44-7.58,13.71-13.58-2.22-4.88-4-11.48-.58-16.68a17.3,17.3,0,0,1,1-1.43A7.4,7.4,0,0,0,198.36,160.14Zm-98,128.27,96.75.83c-.59-2.38-1.16-4.77-1.73-7.16s-1.17-4.88-1.77-7.34l-53.81-1.1a4.87,4.87,0,0,1-4.64,3.47H106a4.84,4.84,0,0,1-3-1.09C102.35,280.2,101.43,284.33,100.39,288.41ZM191,85.5c1.86-2.39,3.35-4.78,3.26-7.35a9.78,9.78,0,0,0-.92-3.52,25.06,25.06,0,0,0-2.85,4.42,1.27,1.27,0,0,1-.18.27A17.69,17.69,0,0,1,191,85.5ZM139.84,270.9,193,272c-.89-3.54-1.83-7.08-2.87-10.58H137.23a4.35,4.35,0,0,1-4.08,2.9H105.49a4.32,4.32,0,0,1-1.61-.32c0,1.32,0,2.64-.08,3.95a4.74,4.74,0,0,1,2.21-.56h29.18A4.87,4.87,0,0,1,139.84,270.9Zm-2.57-12.24h52c-1-3.19-2.1-6.35-3.32-9.45H141a1.34,1.34,0,0,1-.91-.35,3.16,3.16,0,0,1-1.31.29,3.33,3.33,0,0,1-1.07-.21,4.27,4.27,0,0,1-3.29,1.7h-.2a3.91,3.91,0,0,1-2.55-1.13,3.08,3.08,0,0,1-2.73.64,3,3,0,0,1-1.61-.93H101.88a65.21,65.21,0,0,1,1.4,7,4.37,4.37,0,0,1,2.21-.62h27.66A4.33,4.33,0,0,1,137.27,258.66Zm5-12.19H184.8q-1.86-4.4-4.13-8.59a73,73,0,0,1-18.13-8.41,8.88,8.88,0,0,1-3,1.6,7.2,7.2,0,0,0-.83.32A33.69,33.69,0,0,0,142.27,246.47ZM116.11,210l48.56-3.18a40.3,40.3,0,0,0-4.55-7h0l-82,6.56q1.21,2.22,2.6,4.37a3.93,3.93,0,0,1,3.48-2.13h29A3.91,3.91,0,0,1,116.11,210Zm41.8,0L117,212.73a3.94,3.94,0,0,1-3.92,3.77H84.57c.58.82,1.17,1.63,1.76,2.44l1.61,2.24a3.55,3.55,0,0,1,2.86-1.46h33.13a3.54,3.54,0,0,1,3.32,2.33h10.06a1.33,1.33,0,0,1,.83.29c.53-.62,1.05-1.23,1.6-1.81A36.34,36.34,0,0,1,157.91,210.05Zm-60.64-8,59.43-4.75a72.29,72.29,0,0,1-18-8.92H116.09a1.45,1.45,0,0,1-.51-.1c-.09.2-.19.39-.27.59a16.32,16.32,0,0,1-1.86,3.45,2.71,2.71,0,0,1-3.08,1.19,2.6,2.6,0,0,1-1.84-1.36c-.44-.91-.65-2.4.79-6.33a6.22,6.22,0,0,0-1.34,1.32,27.48,27.48,0,0,0-3.3,6.8c-.45,1.2-.92,2.44-1.47,3.65a3.64,3.64,0,0,1-3.23,2.17h-.24a3.65,3.65,0,0,1-2.49,2l-.36,0a3,3,0,0,1-2.33-1.24,4.74,4.74,0,0,1-.54-.83,4.1,4.1,0,0,1-3-2.33,12.2,12.2,0,0,1-.76-6.47,3.76,3.76,0,0,1-1.5.31H74.4a3.59,3.59,0,0,1-1.14-.2,35,35,0,0,0,.91,5.75,38.44,38.44,0,0,0,2.55,7,1,1,0,0,1,.34-.07Zm40,70.15a2.12,2.12,0,0,0-2.12-2.12H106a2.12,2.12,0,1,0,0,4.24h29.18A2.12,2.12,0,0,0,137.31,272.25Zm-1.12-47.46h-9.07a3.55,3.55,0,0,1-3.19,2H91.81c.16.25.33.49.49.75.7,1.08,1.35,2.18,2,3.29a3.63,3.63,0,0,1,2.58-1.07H125.6a3.67,3.67,0,0,1,3.67,3.67,3.94,3.94,0,0,1-.16,1.09,3.69,3.69,0,0,1-3.51,2.58H97.53a72.59,72.59,0,0,1,3.57,9.35h25.39a6,6,0,0,1,.22-1.35,70.16,70.16,0,0,1,3.57-10.05A53.52,53.52,0,0,1,136.19,224.79ZM117,185.69H135a71.3,71.3,0,0,1-10.77-10.43,25.73,25.73,0,0,1-4.5,6.93C118.73,183.37,117.81,184.5,117,185.69ZM134.75,260a1.6,1.6,0,0,0-1.6-1.6H105.49a1.6,1.6,0,1,0,0,3.2h27.66A1.6,1.6,0,0,0,134.75,260Zm-8.22-26.51a.93.93,0,0,0-.93-.93H96.87a.93.93,0,1,0,0,1.85H125.6A.93.93,0,0,0,126.53,233.45Zm-1.8-10.19a.81.81,0,0,0-.8-.8H90.8a.8.8,0,1,0,0,1.6h33.13A.8.8,0,0,0,124.73,223.26Zm-3-77.68L94,145.33c-1.37,1.56-2.72,3.13-4.05,4.74h16a3.82,3.82,0,0,1,3.22,1.76H120A35.37,35.37,0,0,1,121.69,145.58Zm-2,9H109.8a3.84,3.84,0,0,1-3.78,3.2H89.15a3.83,3.83,0,0,1-3.46-2.2,85.67,85.67,0,0,0-5.16,7.81L108.1,163a32.17,32.17,0,0,1,6-3.9,26.18,26.18,0,0,1,5.45-2Q119.53,155.86,119.65,154.57Zm-5.35,58a1.19,1.19,0,0,0-1.19-1.19h-29a1.19,1.19,0,0,0,0,2.38h29A1.19,1.19,0,0,0,114.3,212.56Zm-7.17-58.64a1.11,1.11,0,0,0-1.11-1.11H89.15a1.11,1.11,0,1,0,0,2.22H106A1.11,1.11,0,0,0,107.13,153.92ZM105,165.81l-26,.33q-1.29,2.51-2.31,5a1.9,1.9,0,0,1,.25,0H96.38a3.63,3.63,0,0,1,2.92,1.5c.56-.78,1.13-1.55,1.72-2.3A53.78,53.78,0,0,1,105,165.81Zm-7.79,8.94a.88.88,0,0,0-.87-.86H77a.86.86,0,1,0,0,1.72H96.38A.88.88,0,0,0,97.25,174.75Zm-1.82,3.6H77a3.63,3.63,0,0,1-2.35-.88,47.14,47.14,0,0,0-1.18,6.24,3.85,3.85,0,0,1,1-.14H88.78a3.83,3.83,0,0,1,2.9,1.35,14.28,14.28,0,0,1,1.17-2.47Q94.11,180.41,95.43,178.35Zm-5.55,9.08a1.1,1.1,0,0,0-1.1-1.11H74.4a1.11,1.11,0,0,0,0,2.21H88.78A1.1,1.1,0,0,0,89.88,187.43Z"/><path class="cls-6" d="M276.21,191.54a197.57,197.57,0,0,1-10.11,80.07c-10,8.65-25.18,11.86-39.64,8.37-13.3-3.21-25.16-12.57-31.88-25.1.54-1.09,1.26-2.26,2-3.5,1.75-2.83,3.56-5.76,3.86-8.67a.74.74,0,0,0,0-.21l3.67.62a91,91,0,0,0,14.54,1.49,35.85,35.85,0,0,0,11.95-1.85c6.08-2.15,11.86-6.57,16.7-12.78,4.23-5.43,7.36-11.6,10.46-18a1.36,1.36,0,0,0,.14-.55c5.55-11,7.66-23.54,9.1-35.5a99.36,99.36,0,0,0,.84-10.59,55.72,55.72,0,0,0-2.94-18.47l.62.22a1.36,1.36,0,0,0,.15,1.09c5.81,9.61,7.91,21.16,9.32,32.22C275.54,184.48,275.93,188.11,276.21,191.54Z"/><path class="cls-7" d="M261.91,146.54a53.1,53.1,0,0,1,3.22,18.81,95.11,95.11,0,0,1-.83,10.29c-1.65,13.76-3.83,25-9.08,35.12a1.32,1.32,0,0,0-.15.58c-2.95,6-6,11.87-9.91,16.95-4.51,5.8-9.86,9.91-15.44,11.88-7.83,2.75-16.35,1.68-25.13.24-13.61-2.23-29.17-5.33-41.5-13.86a1.38,1.38,0,0,0-.72-.24h-.05l-.17,0h-.09l-.17,0-.08,0a.93.93,0,0,0-.2.1l0,0a1.28,1.28,0,0,0-.39.38,4.86,4.86,0,0,1-2.57,1.59c-.37.13-.72.26-1,.4A36.42,36.42,0,0,0,139.5,245.8a1.59,1.59,0,0,1-.49.52.45.45,0,0,1-.49,0l-.1-.09,0-.07a.35.35,0,0,1-.06-.21c.1-1.95,2.27-7.08,3.81-9.49a1.37,1.37,0,1,0-2.3-1.48c-1.62,2.52-4.11,8.17-4.25,10.83a3.2,3.2,0,0,0,.16,1.16,1.86,1.86,0,0,1-1.26.9h-.07c-.46,0-.77-.29-.82-.25a2.82,2.82,0,0,1,0-.44,5.14,5.14,0,0,0,.06-.55c.21-3.8,1.81-7.21,4.15-11.15a1.38,1.38,0,0,0-2.37-1.4c-2,3.4-3.9,7.1-4.4,11.24,0,0,0,0,0,0-.14.6-.8,2.29-1.54,2.1-.13,0-.16-.07-.18-.1a2.61,2.61,0,0,1,0-1.49c2.7-9.79,6.87-17.68,12.37-23.44,6.47-6.77,15.18-10.66,23.35-10.32,7.43.28,14.45,3.79,21.25,7.19l2.2,1.1c8,4,16.67,7.41,25.42,5.75,13.09-2.47,20.73-15.37,23.3-25.67,2-8.14,2.11-16.63,2.2-24.83,0-3.4.07-6.92.24-10.35.27-5.2.92-11.17,3.73-16.11,2.38-4.19,7.24-8.27,12.73-7.89a1.3,1.3,0,0,0,.44-.05,1.38,1.38,0,0,0,.35.69,20.54,20.54,0,0,0,5,3.68A1.32,1.32,0,0,0,261.91,146.54Z"/><path class="cls-6" d="M249,133.6a20.69,20.69,0,0,1,6.43,4.94c-5.57,0-11.18,3.56-14.44,9.29-3.09,5.44-3.79,11.81-4.08,17.33-.18,3.48-.21,7-.25,10.47-.08,8-.16,16.36-2.11,24.19-2.37,9.5-9.33,21.4-21.15,23.64a22.92,22.92,0,0,1-6.51.24c1.66-6.23,3.13-13.54,1.52-20.65-.39-1.76-1.71-3.27-3.23-5-3.07-3.52-6.9-7.9-5.89-16.86a1.29,1.29,0,0,0,0-.44s0,0,0,0a9.74,9.74,0,0,1,3-9.19,25.21,25.21,0,0,0,.57,10.44,1.38,1.38,0,0,0,1.33,1h0a1.37,1.37,0,0,0,1.3-1.11,16.55,16.55,0,0,1,7.33-10.61c.54-.33,1.1-.65,1.67-1,2.65-1.49,5.65-3.19,6.29-6.51a10.48,10.48,0,0,0-.34-4.4l-.08-.35a6.36,6.36,0,0,1-.13-3.16,1.37,1.37,0,0,0,.78.38,9.07,9.07,0,0,0,1.28.08c3.5,0,7.15-1.83,10.2-5.15a47.77,47.77,0,0,0,4.22-5.66c.88-1.31,1.79-2.66,2.76-3.9A27.26,27.26,0,0,1,249,133.6Z"/><path class="cls-7" d="M245.26,131.86l.71.3a30.67,30.67,0,0,0-8.63,7.75c-1,1.32-2,2.72-2.89,4.07a43.61,43.61,0,0,1-4,5.33,15.42,15.42,0,0,1-4.19,3.25,16.83,16.83,0,0,0,5.33-18.69c-.27-.7-.59-1.4-.92-2.09a11.15,11.15,0,0,1-1.38-4.37,8.43,8.43,0,0,1,.91-3.56c3.52,3.43,8.11,5.26,12.56,7C243.62,131.2,244.45,131.52,245.26,131.86Z"/><path class="cls-2" d="M229.45,99.49A9.51,9.51,0,0,1,231.68,110a1.37,1.37,0,0,1-1.26.83,1.31,1.31,0,0,1-.54-.11,1.37,1.37,0,0,1-.72-1.8,6.7,6.7,0,0,0-1.58-7.36,14.19,14.19,0,0,0-1.84-1.37A13.37,13.37,0,0,1,223,97.92c-2.25-2.55-2.41-6-2.55-9.11v-.22c-.13-2.69-.51-5.64-2.44-7.12a1.38,1.38,0,0,1,1.68-2.18c2.81,2.17,3.34,5.85,3.5,9.17v.22c.12,2.75.26,5.6,1.86,7.42a11.87,11.87,0,0,0,2.23,1.76A16.42,16.42,0,0,1,229.45,99.49Z"/><path class="cls-2" d="M217.13,133.44c1.34,2.9.53,5.86-.26,8.73-.58,2.12-1.13,4.13-.8,6a1.37,1.37,0,0,1-1.1,1.6l-.25,0a1.38,1.38,0,0,1-1.35-1.13c-.44-2.48.22-4.88.86-7.21.68-2.5,1.33-4.86.41-6.85a10.22,10.22,0,0,0-1.19-1.81,11.62,11.62,0,0,1-1.63-2.64c-1.12-2.84-.11-5.57.86-8.2a17.84,17.84,0,0,0,1.21-4.24c.33-3.25-1.54-6.44-3.34-9.52l-.49-.84c-1.9-3.3-4.2-8.2-2.18-12.69a1.37,1.37,0,0,1,2.5,1.13c-1.14,2.54-.49,5.78,2.06,10.19l.48.83c1.93,3.3,4.12,7,3.7,11.18a20.54,20.54,0,0,1-1.36,4.91c-.87,2.35-1.63,4.38-.89,6.23a9.31,9.31,0,0,0,1.27,2A12.72,12.72,0,0,1,217.13,133.44Z"/><path class="cls-2" d="M208.2,133.17c1.64,1.9,3.7,4.77,2.55,7.77a8.16,8.16,0,0,1-2.65,3.2,5.5,5.5,0,0,0-1.87,2.14c-.39,1.19.44,2.64,1,3.4.27.38.57.76.86,1.13a13.71,13.71,0,0,1,2,3.23c1.23,3.1.24,7-2.48,9.74a1.37,1.37,0,0,1-1,.41,1.41,1.41,0,0,1-1-.4,1.37,1.37,0,0,1,0-1.94c1.93-1.94,2.7-4.73,1.88-6.8a11,11,0,0,0-1.65-2.55c-.32-.42-.64-.83-.94-1.26-1.44-2.06-1.89-4.08-1.31-5.82a7.7,7.7,0,0,1,2.7-3.38,5.93,5.93,0,0,0,1.86-2.08c.46-1.22-.21-2.85-2.07-5-1.41-1.64-3.78-4.38-3-7.51a8.49,8.49,0,0,1,2-3.43,10.65,10.65,0,0,0,1.07-1.4,5.24,5.24,0,0,0-.47-6,11.42,11.42,0,0,0-2.19-1.81,13.33,13.33,0,0,1-2.89-2.51c-2.14-2.72-1.95-6.08-1.76-9.34.06-1.1.12-2.15.09-3.16a15,15,0,0,0-2.84-8.28,1.37,1.37,0,0,1,2.22-1.61,17.75,17.75,0,0,1,3.37,9.81c0,1.13,0,2.29-.1,3.4-.17,2.87-.32,5.58,1.18,7.48a10.25,10.25,0,0,0,2.31,2,14.22,14.22,0,0,1,2.69,2.26,8,8,0,0,1,.73,9.24,14.66,14.66,0,0,1-1.31,1.72,6.24,6.24,0,0,0-1.47,2.3C205.37,129.73,206.75,131.49,208.2,133.17Z"/><path class="cls-7" d="M196.15,154.59c1.42,2,2.65,3.73,2.21,5.55a7.4,7.4,0,0,1-1.53,2.61,17.3,17.3,0,0,0-1,1.43c-3.37,5.2-1.64,11.8.58,16.68-3.27,6-9,10.41-13.71,13.58a21.68,21.68,0,0,1-4.76,2.63c-3.17,1.12-6.74.77-9.8.28a69.23,69.23,0,0,1-43.29-25.68,1.37,1.37,0,0,0-1.93-.24,1.32,1.32,0,0,0-.31.36,1.37,1.37,0,0,0-.45.79c-.52,2.92-2.48,5.33-4.56,7.87a32.91,32.91,0,0,0-4,5.7c-.28.55-.52,1.11-.77,1.68a13.34,13.34,0,0,1-1.52,2.86,1.11,1.11,0,0,1-.2.22l-.1,0c-.08-.4-.09-2,2.1-7a1.35,1.35,0,0,0-.18-1.4,1.37,1.37,0,0,0-1.34-.49,9.3,9.3,0,0,0-5.78,3.55,30.18,30.18,0,0,0-3.66,7.46c-.44,1.17-.88,2.34-1.4,3.49-.2.46-.66.59-.74.51-.55-3.43,1.81-9.77,3.73-13a1.37,1.37,0,1,0-2.36-1.39c-2.11,3.58-4.77,10.56-4.08,14.86a4.24,4.24,0,0,0,.22.74c-.31.62-.57.88-.51.91a1.06,1.06,0,0,1-.32-.28,2.5,2.5,0,0,1-.47-1.22c-.87-5.93,2.46-12.7,3.92-15.34a1.37,1.37,0,0,0-2.39-1.33c-1.43,2.56-4.46,8.73-4.4,14.83-1-2.88.1-9,1.88-11.89a126.53,126.53,0,0,1,8-11.84,44.83,44.83,0,0,1,6.2-6.52.39.39,0,0,0,.1-.08,29.84,29.84,0,0,1,5.79-3.87c4.61-2.3,11.73-3.49,16.41-1.31,4,1.86,9.9,6,14.64,9.31,1.92,1.35,3.71,2.6,5.21,3.59,6.82,4.51,12.95,6.45,18.74,5.92a12.84,12.84,0,0,0,7.41-2.88c2.46-2.17,3.56-5.3,4.49-8.32.42-1.4.84-2.81,1.25-4.22A110.51,110.51,0,0,1,188,150.23a37.55,37.55,0,0,1,6.3-10.09c-1.63,4-1.72,8-.19,11.16A22.77,22.77,0,0,0,196.15,154.59Z"/><path class="cls-7" d="M197.8,128.08a.75.75,0,0,0-.15.09l-11.1,10c-1.73,1.55-3.56,2.94-5.27,2.58a6.62,6.62,0,0,1-2.83-1.87c-1.34-1.27-2.65-2.59-3.93-3.93a11.17,11.17,0,0,0,7.83-8,1.37,1.37,0,0,0-1-1.65,1.39,1.39,0,0,0-1.65,1,8.47,8.47,0,0,1-7.37,6.25c-1-1.17-2.07-2.34-3.06-3.55a1.36,1.36,0,0,0-1.1-.48,1.34,1.34,0,0,0-1-.33c-2.72.28-5.48.45-8.22.53.34-4.65.46-9.34.35-14a1.43,1.43,0,0,0-.09-.42,17.3,17.3,0,0,0,8.08,2.07h.25a1.35,1.35,0,0,0,1.22-.78,1.39,1.39,0,0,0,.06-1l.48,0a1.06,1.06,0,0,0,.09.25,5.21,5.21,0,0,0,9.73-3.67,15.72,15.72,0,0,0,4.67-2.37,1.37,1.37,0,0,0-.13-2.28,17.53,17.53,0,0,1-5-4.46,35.15,35.15,0,0,0,7,.42,1.32,1.32,0,0,0,.9-.4,14.43,14.43,0,0,1,0,1.86,27.62,27.62,0,0,1-.36,2.88,28.31,28.31,0,0,0-.41,3.75,15.19,15.19,0,0,0,5,11.53,34.09,34.09,0,0,0,2.88,2.23A14.48,14.48,0,0,1,197.8,128.08Z"/><path class="cls-5" d="M197.14,289.24l-96.75-.83c1-4.08,2-8.21,2.59-12.39a4.84,4.84,0,0,0,3,1.09h29.18a4.87,4.87,0,0,0,4.64-3.47l53.81,1.1c.6,2.46,1.19,4.9,1.77,7.34S196.55,286.86,197.14,289.24Z"/><path class="cls-5" d="M189.24,258.66h-52a4.33,4.33,0,0,0-4.12-3H105.49a4.37,4.37,0,0,0-2.21.62,65.21,65.21,0,0,0-1.4-7H127.3a3,3,0,0,0,1.61.93,3.08,3.08,0,0,0,2.73-.64,3.91,3.91,0,0,0,2.55,1.13h.2a4.27,4.27,0,0,0,3.29-1.7,3.33,3.33,0,0,0,1.07.21,3.16,3.16,0,0,0,1.31-.29,1.34,1.34,0,0,0,.91.35h44.95C187.14,252.31,188.24,255.47,189.24,258.66Z"/><path class="cls-4" d="M186.2,99.82l.32,2.17a1.32,1.32,0,0,1-.9.4,35.15,35.15,0,0,1-7-.42,17.53,17.53,0,0,0,5,4.46,1.37,1.37,0,0,1,.13,2.28,15.72,15.72,0,0,1-4.67,2.37,5.21,5.21,0,0,1-9.73,3.67,1.06,1.06,0,0,1-.09-.25,1.12,1.12,0,0,1,.63-1.26,1.14,1.14,0,0,1,1.52.55,3,3,0,0,0,3.92,1.42,3,3,0,0,0,1.55-3.58,17.87,17.87,0,0,1-10.81-1.4,21.19,21.19,0,0,0,2.48,3.91,1.5,1.5,0,0,1,.23.41,1.39,1.39,0,0,1-.06,1,1.35,1.35,0,0,1-1.22.78h-.25a17.3,17.3,0,0,1-8.08-2.07l-1.82-.81a1.92,1.92,0,0,1,.32-.09,17.21,17.21,0,0,1-5.78-6.35,1.37,1.37,0,1,1,2.43-1.27,14.9,14.9,0,0,0,10.36,7.6,23.89,23.89,0,0,1-2.67-6.24,1.37,1.37,0,0,1,2.23-1.38,14.7,14.7,0,0,0,16.17,1.81,20.28,20.28,0,0,1-5.92-7,1.37,1.37,0,0,1,.15-1.48,1.35,1.35,0,0,1,1.42-.47,32,32,0,0,0,9.45,1A1.3,1.3,0,0,1,186.2,99.82Z"/><path class="cls-7" d="M176.87,111.63a2.94,2.94,0,0,1-3.8,3.68,2.91,2.91,0,0,1-1.67-1.52,1.14,1.14,0,0,0-1.52-.55,1.12,1.12,0,0,0-.63,1.26l-.48,0a1.5,1.5,0,0,0-.23-.41,21.19,21.19,0,0,1-2.48-3.91A17.87,17.87,0,0,0,176.87,111.63Z"/><path class="cls-1" d="M172.55,102.66a1.36,1.36,0,0,1,0,1.94,1.35,1.35,0,0,1-1,.4,1.39,1.39,0,0,1-1-.39c-5.54-5.46-10.34-10.51-13-17a1.37,1.37,0,1,1,2.54-1C162.63,92.58,167.23,97.41,172.55,102.66Z"/><path class="cls-1" d="M165.75,101.1a1.37,1.37,0,0,1-.52,2.64,1.39,1.39,0,0,1-.53-.1,11.87,11.87,0,0,1-5.93-5.4,1.37,1.37,0,0,1,.57-1.86,1.36,1.36,0,0,1,1.85.57A9.3,9.3,0,0,0,165.75,101.1Z"/><path class="cls-5" d="M117,212.73l40.88-2.68a36.34,36.34,0,0,0-18.17,10.48c-.55.58-1.07,1.19-1.6,1.81a1.33,1.33,0,0,0-.83-.29H127.25a3.54,3.54,0,0,0-3.32-2.33H90.8a3.55,3.55,0,0,0-2.86,1.46l-1.61-2.24c-.59-.81-1.18-1.62-1.76-2.44h28.54A3.94,3.94,0,0,0,117,212.73Z"/><path class="cls-5" d="M156.7,197.35,97.27,202.1l0-.28a3.65,3.65,0,0,0,2.49-2H100a3.64,3.64,0,0,0,3.23-2.17c.55-1.21,1-2.45,1.47-3.65a27.48,27.48,0,0,1,3.3-6.8,6.22,6.22,0,0,1,1.34-1.32c-1.44,3.93-1.23,5.42-.79,6.33a2.6,2.6,0,0,0,1.84,1.36,2.71,2.71,0,0,0,3.08-1.19,16.32,16.32,0,0,0,1.86-3.45c.08-.2.18-.39.27-.59a1.45,1.45,0,0,0,.51.1h22.64A72.29,72.29,0,0,0,156.7,197.35Z"/><path class="cls-5" d="M97.25,201.82l0,.28-20.21,1.62a1,1,0,0,0-.34.07,38.44,38.44,0,0,1-2.55-7,35,35,0,0,1-.91-5.75,3.59,3.59,0,0,0,1.14.2H88.78a3.76,3.76,0,0,0,1.5-.31,12.2,12.2,0,0,0,.76,6.47,4.1,4.1,0,0,0,3,2.33,4.74,4.74,0,0,0,.54.83,3,3,0,0,0,2.33,1.24Z"/><path class="cls-8" d="M150.51,149.68s0,0,0-.06,0,0,0,0a.17.17,0,0,0,0-.07,1.63,1.63,0,0,0-.09-.19,2,2,0,0,0-.13-.25c0-.06-.11-.11-.16-.16a1.06,1.06,0,0,0-.23-.19,1.21,1.21,0,0,0-.2-.09.92.92,0,0,0-.28-.09.76.76,0,0,0-.26,0,1.7,1.7,0,0,0-.22,0l-.1,0h0a12,12,0,0,0-7,4.17.31.31,0,0,0,0-.1,15.61,15.61,0,0,0-2.11-9.43l0-.05,0,0a1,1,0,0,0-.17-.18c0-.05-.08-.12-.14-.16l0,0a1.43,1.43,0,0,0-.28-.13,1,1,0,0,0-.21-.09,1,1,0,0,0-.25,0,1.22,1.22,0,0,0-.27,0,.86.86,0,0,0-.21.07,1.45,1.45,0,0,0-.29.11l0,0a1.06,1.06,0,0,0-.15.15,1.35,1.35,0,0,0-.19.16.21.21,0,0,1,0,.06h0c-3.77,4.95-3.79,10.78-2.17,15.75l-1.16-.69a1.36,1.36,0,0,0-1.9.51L124,173.36a1.45,1.45,0,0,0-.12.35.14.14,0,0,0,0,.07,1.29,1.29,0,0,0,0,.48l0,.13a1.22,1.22,0,0,0,.14.33s0,.05,0,.07l.06.06s.06.1.11.14l9.59,9.49a1.4,1.4,0,0,0,1,.39,1.49,1.49,0,0,0,.36-.05,1.35,1.35,0,0,0,1-.95l5.46-19.44a11.34,11.34,0,0,0,2.56-1.67,22.7,22.7,0,0,0,4.89-5.89C150.55,154.22,151,151.8,150.51,149.68Zm-12.21-3.06a14.78,14.78,0,0,1,.73,5.85,32.2,32.2,0,0,1-1.11,6.1A14.83,14.83,0,0,1,138.3,146.62Zm-4.52,14.6,3.27,2,.38.66s.06,0,.08.07l-8.36,5.73Zm-6.45,13,5.18-3.54-1.85,6.83Zm6.78,6.69-1.22-1.19L136,168.29l2.07-1.42Zm8.24-20.22a9,9,0,0,1-1.66,1.17c.55-3.14,2.23-8.45,7.28-10.23a8.71,8.71,0,0,1-1.32,3.89A19.8,19.8,0,0,1,142.35,160.68Z"/></svg>