<svg id="Capa_1" data-name="Capa 1" xmlns="http://www.w3.org/2000/svg" viewBox="0 0 350 350"><defs><style>.cls-1{fill:#fff;}.cls-2{fill:#c1ef33;}.cls-3{fill:#74a517;}.cls-4{fill:#2d375a;}.cls-5{fill:#c5d0ef;}.cls-6{fill:#f4cdb0;}.cls-7{fill:#7d56c3;}.cls-8{fill:#008d36;}.cls-9{fill:#272c4a;}</style></defs><rect class="cls-1" width="350" height="350"/><path class="cls-2" d="M148.5,292.39,185,234.06l11.61,6.84,3.81-5-3.81-2.55,6.72-12.49s5.87,8.82,11,6.82,8.17-6.15,11-6.82,8.09-.5,7.5,7.49-7,13.33-8.41,14.67-11.75,8.33-13.42,11.33-4.67,12.67-5.33,17.67-4.56,25.88-13.35,30.83-13.69,3.17-16.15,3.33S148.5,292.39,148.5,292.39Z"/><path class="cls-1" d="M179.44,264.4l8.11,4.66s6.89-11.16,9.59-10,2,6.84,2,6.84l-2.56,7.73a3.22,3.22,0,0,0,3.72,0c1.79-1.39,3.67-13.49,3.67-13.49s3.71-11.64,6.33-12.22,12.84-9,12.84-9,2.6-3.93,2.66-6.62-2.66-4-3.83-3.54-6.33,3.54-6.33,3.54L212.59,235l-4.92-3-6.9-6.25-4.16,7.74,2.56,2.17-2.56,5.34-3.43-2Z"/><path class="cls-3" d="M197.14,203.89s-.81-11.48-11.31-14.4-18.4,1.76-18.77,5.23-5.73,17.17-5.73,17.17-1.61,9.38-4.58,9.67-8.25,5.19-8.25,5.19-13.79,3.15-15.5,7.47a69.23,69.23,0,0,1-5.17,9.71s-8.66,19.21-3.33,29.67,23.67,19.62,23.67,19.62L185,234.06s-8.49-6.08-9.17-5.34,1.54-4.46,1.54-4.46l6,2.49Z"/><path class="cls-4" d="M184.68,101.39l11.44,24.13L187,124.39l-4.75-7.62.75,7-8.83-3.37s4.45-9.87,5-12.75.86-4.12.86-4.12Z"/><path class="cls-4" d="M161.12,70.77s-4.74,60.12-3.74,66.75l-5.87-4-1.89-13.75s-2.81,10.12-2.9,10.5-3.34-2-3.34-2l-29.13-27.35s-1.87-23.75,4-36.62,13.31-27.5,28.47-28.88,27.52,4.5,31.71,8.38S187,53,188.16,56.64s.59,4.25.59,4.25Z"/><path class="cls-1" d="M125.43,244.52S151,254.88,155,255.83s12.06,0,12.06,0,1,0,1.44,1.69-6.88,3.12-6.88,3.12,12.88,2.89,14.38,3.76a1.74,1.74,0,0,1,1,2.12,6.26,6.26,0,0,1,1.25,2.62,2.56,2.56,0,0,1-1.75,2.25,2.49,2.49,0,0,1-1.5,0s-.12,1.91-1.25,2.21a15.4,15.4,0,0,1-3.75,0s.25,3.17-2.94,2.54-26.44-4.62-33.94-7.5A104.62,104.62,0,0,1,121,263.21Z"/><path class="cls-4" d="M185,99.57a2.75,2.75,0,0,1-.15-.56c-1.41-5.24-1.62-9.35-.67-12.56,0,0,0-.06.05-.09a.29.29,0,0,1,0-.1c1.95-3.94,3.77-7.82,4.52-12,.81-4.48.15-8.62-1.84-11.69-4.57,1.82-12.38,4.45-18.41,6.47-3.07,1-5.6,1.89-6.83,2.34h0a294.37,294.37,0,0,0-3.15,33.27c-.21,4.43-.4,9.53-.44,15a1.23,1.23,0,0,1,.61.18,14.89,14.89,0,0,0,8.25,2.51h.16a6.2,6.2,0,0,0,1.68-.27,5.32,5.32,0,0,0,3-2.15,41.3,41.3,0,0,0,3.89-7.2c-2.7-1.11-5.72-2.77-7.48-5.61a1.2,1.2,0,1,1,2-1.26c1.4,2.27,4,3.67,6.31,4.64a40.74,40.74,0,0,0,1.7-6.37,1.23,1.23,0,0,1,.16-.39,1.18,1.18,0,0,1,.63-1.07l5.75-3A1.42,1.42,0,0,0,185,99.57ZM291.18,76.14a7.21,7.21,0,0,1-.48,9.92,12.68,12.68,0,0,1-2.84,1.8,8.29,8.29,0,0,0-2.69,1.83c-.86,1-1.18,2.61-1,4.82.05.53.12,1.06.19,1.59a17.47,17.47,0,0,1,.17,4.64,12.24,12.24,0,0,1-5.35,8,33.93,33.93,0,0,1-8.35,3.86l-6,2.11-9.27,16.23c.41.57.76,1.1,1.14,1.65s.91,1.34,1.5,2.17c5.14,7.23,8,16.51,8.35,26.85a36.26,36.26,0,0,1-2.71,14.79L262,181c-3.87,8.46-8.5,14.23-14.18,17.67a30,30,0,0,1-15.61,4,46.78,46.78,0,0,1-15.85-3l-11.83,20.72a15.26,15.26,0,0,0,4.24,5.29c1.08.85,2.69,1.8,4.23,1.55a7.7,7.7,0,0,0,3.21-1.85l4.33-3.47c1.94-1.56,4.23-3.19,6.89-2.81a6.49,6.49,0,0,1,4.72,3.65,13.58,13.58,0,0,1,1.21,5.37,15.47,15.47,0,0,1-1.65,8.82A26,26,0,0,1,223,246c-.82.59-1.77,1.2-2.72,1.82a38.38,38.38,0,0,0-5.24,3.83c-3.71,3.42-6.27,8.54-7.84,15.66-.56,2.56-1,5.21-1.38,7.77a99.77,99.77,0,0,1-2,10.48,51.07,51.07,0,0,1-4.71,11.6,24.32,24.32,0,0,1-6.8,7.87,18.66,18.66,0,0,1-11.17,3.51,20.31,20.31,0,0,1-5.37-.68c-12-3.84-23.89-9.85-38.56-19.49-7.59-5-16.49-13-16.55-23.06-2.82-1.36-5.6-2.81-8.31-4.36-15.22-8.72-26.16-19.24-32.5-31.28-7.37-14-8.69-30.11-9-45.43a1.13,1.13,0,0,1,0-.18l-3.57-1.84a1.21,1.21,0,0,1-.57-.65L66,179.86a1.15,1.15,0,0,1-.08-.49c.86-14.9,7.43-28.75,20.68-43.57,9.79-11,17.68-11.24,23.45-11.45a18.18,18.18,0,0,0,11.56-3.91,11.61,11.61,0,0,0,3.83-6.87l-12.7-11.83a1.19,1.19,0,0,1-.38-.8c0-.31-.06-.72-.11-1.22-2-21.74,3-40.19,14.91-54.84,6.74-8.3,19.4-12.13,32.28-9.75,5.21,1,10.25,2,14.53,4.73,12.13,7.61,13.88,12.94,15.74,18.59.16.5.33,1,.5,1.52a1,1,0,0,1,0,.17,1.81,1.81,0,0,1,0,.23.93.93,0,0,1,0,.23.8.8,0,0,1,0,.21.82.82,0,0,1-.12.2.83.83,0,0,1-.13.18,1.39,1.39,0,0,1-.19.15l-.13.1-.43.2a18.73,18.73,0,0,1,2,13.06c-.8,4.43-2.67,8.45-4.68,12.51-.79,2.73-.55,6.49.7,11.18a3,3,0,0,1-.29,2.7,2.8,2.8,0,0,1-1,.73l-.48.25c1.95,4.91,4.68,10.21,7.32,15.35,1.4,2.71,2.71,5.28,3.91,7.76a1.2,1.2,0,0,1-1.08,1.72h-.16l-9-1.22a1.21,1.21,0,0,1-.87-.59L183.78,122l.31,1.56a1.2,1.2,0,0,1-1.46,1.39c-2.21-.53-7.51-2.44-9.24-3.07a8.43,8.43,0,0,1-1,1,23.17,23.17,0,0,1,5.63,2.55,102.91,102.91,0,0,1,37.45,37.9,1.11,1.11,0,0,1,.14.58,1.18,1.18,0,0,1-.09,1.15,1.46,1.46,0,0,1-.16.19c-1.4,1.36-2.78,2.76-4.15,4.16a2.08,2.08,0,0,1,.21.21,16.93,16.93,0,0,0,2.28,2.45l3.51-6,36.15-62-2.58-6a1,1,0,0,1,0-.17,1,1,0,0,1-.05-.23,1.64,1.64,0,0,1,0-.23,1.43,1.43,0,0,1,0-.22c0-.08.07-.14.1-.21a2.14,2.14,0,0,1,.13-.19.9.9,0,0,1,.18-.15,1.42,1.42,0,0,1,.13-.12c5.81-3.25,12-6.9,18-10.43s12.2-7.2,18-10.47a3.37,3.37,0,0,1,2-.55A2.94,2.94,0,0,1,291.18,76.14Zm-.66,4.94a4.59,4.59,0,0,0-1.11-3.32c-.25-.28-.37-.31-.37-.31a2.42,2.42,0,0,0-.58.26c-1.18.66-2.37,1.33-3.57,2-4.74,2.71-9.65,5.61-14.42,8.43-5.68,3.34-11.53,6.79-17.09,9.92l2.39,5.6s0,.06,0,.09a1.69,1.69,0,0,1,.05.24.79.79,0,0,1,0,.22.78.78,0,0,1,0,.21,1.13,1.13,0,0,1-.08.24.26.26,0,0,1,0,.08l-15,25.75-56.21,96.36,10.46,5.58,49.44-86.65-2.6-4.3c-.74-1.23-2.72-4.5-.2-6.63a4.54,4.54,0,0,1-.32-3.75,2.12,2.12,0,0,1,.11-.21,2.8,2.8,0,0,1,1.76-1.23,2.85,2.85,0,0,1,1.59-2.87,3.36,3.36,0,0,1,3.44.68,3,3,0,0,1,1.75-1.13,3.39,3.39,0,0,1,2.85.87l1.3,1.61,9-15.71a.74.74,0,0,1,.12-.13,1,1,0,0,1,.16-.19,1.09,1.09,0,0,1,.23-.14c.05,0,.08-.06.14-.08l6.39-2.26a31.87,31.87,0,0,0,7.77-3.56,9.8,9.8,0,0,0,4.35-6.36,15.22,15.22,0,0,0-.17-4c-.07-.56-.14-1.11-.19-1.67-.26-2.87.23-5,1.51-6.57a10.25,10.25,0,0,1,3.44-2.43l.64-.33a8.35,8.35,0,0,0,1.7-1.12A4.61,4.61,0,0,0,290.52,81.08Zm-28.86,94.41a33.77,33.77,0,0,0,2.54-13.81c-.3-9.87-3-18.7-7.91-25.54-.6-.84-1.08-1.55-1.53-2.21s-.95-1.41-1.52-2.19-1.24-1.66-2.17-2.79a1,1,0,0,0-.67-.24c-.08,0-.3.1-.57.54L257.89,140a1.19,1.19,0,0,1-.24,1.67,1.2,1.2,0,0,1-1.68-.23l-8.5-11.3c-.51-.61-1.43-1.26-1.77-1.11s-.18.83-.09,1.17c2.81,3.89,5.72,7.79,8.66,11.59a1.2,1.2,0,0,1-1.89,1.47c-2.87-3.7-5.7-7.49-8.43-11.27-.35.06-.52.16-.55.22-.7,1.45,4,7.45,5.57,9.42.53.68,1,1.27,1.35,1.75a1.2,1.2,0,0,1-.24,1.68,1.22,1.22,0,0,1-.72.24,1.19,1.19,0,0,1-1-.49l-1.31-1.69a69.23,69.23,0,0,1-4.3-5.91c-.17.51,0,1.37,1,3.09l7.36,12.17,1.78,3.95a1.46,1.46,0,0,1,.1.34c.71,5.65-1.1,11.72-5.1,17.09-1.24,1.68-7,8.68-15.8,8.68a18,18,0,0,1-5.45-.89l-9.11,16c11,3.9,21.54,3.56,29-1,5.25-3.18,9.58-8.6,13.22-16.57ZM246,172.39c3.53-4.76,5.22-10.28,4.66-15.19l-1.63-3.66-3.28-5.4-17.87,31.33C238,182.34,244.75,174.12,246,172.39Zm-16.37,63.36a13.21,13.21,0,0,0,1.34-7.49,11.53,11.53,0,0,0-1-4.42,4.16,4.16,0,0,0-2.92-2.37c-1.68-.25-3.43,1-5,2.31l-4.33,3.47a9.67,9.67,0,0,1-4.31,2.34c-1.9.32-4-.38-6.11-2a17.59,17.59,0,0,1-4.16-4.73l-1.3,2.29c3.19,3.42,8.43,8,10.09,8h0c1.44-.05,2.72-1.11,4.08-2.22l.93-.76c2.07-1.61,5.3-2.82,7.59-.92a5.25,5.25,0,0,1,1.72,3.89c.16,3.59-2.06,7.26-6.11,10.06q-.48.33-1,.63c-1,.62-2,1.19-2.94,1.74A31.38,31.38,0,0,0,211,249c-5.17,4.49-6.74,11.76-8.25,18.79-.36,1.68-.72,3.35-1.12,5a5.79,5.79,0,0,1-1.39,2.88,3.2,3.2,0,0,1-2.21.9h0a2.52,2.52,0,0,1-1.33-.38,86.34,86.34,0,0,1-9,17.92c-1.45,2.2-3,3.3-4.71,3.3a4.46,4.46,0,0,1-1.81-.4c-4-1.77-2.54-7-1.92-9.24.09-.3.16-.57.21-.77a70.5,70.5,0,0,1,6.25-16.72l-7-3.29-.55,1a2.51,2.51,0,0,1,.75,1.33,2.63,2.63,0,0,1-.69,2.57,3.57,3.57,0,0,1-2.42.83,3,3,0,0,1-.06.4,3.4,3.4,0,0,1-3.42,2.51h-.3l-1.06-.17a2.37,2.37,0,0,1-.19.86A3.54,3.54,0,0,1,168,278h-.25c-3-.24-6-.59-9-1l-9.37,16.13a134,134,0,0,0,27.07,12.43s7.95,2.28,14.41-2.47A22.11,22.11,0,0,0,197,296,48.43,48.43,0,0,0,201.45,285a97.16,97.16,0,0,0,2-10.23c.41-2.6.83-5.29,1.41-7.92,1.67-7.61,4.47-13.14,8.55-16.91a40.56,40.56,0,0,1,5.56-4.07l1.13-.74c.54-.36,1.08-.72,1.61-1.09A24.28,24.28,0,0,0,229.67,235.75Zm-10.83,5.44c1.58-1.1,5.25-4.08,5.07-8a3,3,0,0,0-.85-2.16c-1.11-.92-3.16-.14-4.59,1l-.88.71c-1.53,1.26-3.26,2.68-5.5,2.76-3,.07-9-5.67-11.45-8.21l-3.59,6.29,2.37,1.27a1.19,1.19,0,0,1,.58.72,1.18,1.18,0,0,1-.1.92L197,241.67a1.19,1.19,0,0,1-.73.57,1.1,1.1,0,0,1-.31,0,1.21,1.21,0,0,1-.61-.16l-1.63-1L181.51,262l-1.71,3,7,3.25c1.27-2.31,2.66-4.6,4.16-6.83a7.92,7.92,0,0,1,3.42-2.87,4,4,0,0,1,1.88-.35c2.2.21,3.33,2.53,3.62,4.45a12.31,12.31,0,0,1-.49,4.93c-.54,2.16-1.18,4.29-1.88,6.4a1.08,1.08,0,0,1,.43.27.69.69,0,0,0,.62-.2,3.67,3.67,0,0,0,.75-1.75c.4-1.61.75-3.25,1.11-4.91,1.59-7.41,3.24-15.07,9-20.09a34.51,34.51,0,0,1,5.72-3.78C216.37,242.73,217.66,242,218.84,241.19ZM202.6,191l9.85-16.88a18.58,18.58,0,0,1-2.93-3c-4.68,4.88-9.18,10-13.46,15.21a1.16,1.16,0,0,1,.67.27,45.33,45.33,0,0,0,5.68,4.24A.86.86,0,0,1,202.6,191Zm-5.32,9.11,4.17-7.13a1.3,1.3,0,0,1-.32-.14,47.58,47.58,0,0,1-6-4.47,1.2,1.2,0,0,1-.33-.55q-1.37,1.71-2.71,3.43c-.09.4-.19.78-.29,1.17A20.06,20.06,0,0,1,197.28,200.14Zm15.82-36.07a100.47,100.47,0,0,0-36.32-36.58L176,127c-1.58,15.91-15.16,23.63-27.45,24.07l-1.2,0c-13.24,0-27.18-7.84-29.75-25.7-.79.29-1.63.56-2.54.82a21.4,21.4,0,0,1-4.84.53c-5.34.19-12.65.46-21.75,10.64C75.62,151.71,69.24,165,68.36,179.26l.4,1.05,19.5,10.08a123.55,123.55,0,0,1,11.1,6.26c1-2.61,3.42-7.86,7.29-16.29,1.62-3.54,3.15-6.88,3.31-7.34a1.22,1.22,0,0,1,1.53-.74,1.2,1.2,0,0,1,.74,1.52c-.19.55-1.3,3-3.4,7.56-2.69,5.84-7.1,15.45-7.65,17.27a1.14,1.14,0,0,1-.19.55h0a1.22,1.22,0,0,1-1,.62l-.22,0a1.22,1.22,0,0,1-.8-.57c-.49-.33-1-.65-1.5-1a63.14,63.14,0,0,0,3.43,16.7,38.11,38.11,0,0,0,3.37,7.35,56.52,56.52,0,0,0,4,5.43,82.9,82.9,0,0,0,8.89,10.11,49,49,0,0,0,9.43,6.66,19.43,19.43,0,0,1,6.9-12.36c3.16-2.55,7-4,10.77-5.44,4.69-1.78,9.12-3.46,12-7.09,2.12-2.67,3.15-6.23,4.05-9.38l2.43-8.41c1-3.59,2.46-8.51,6.23-11.32a13.51,13.51,0,0,1,4.48-2.13,20,20,0,0,1,14.46,1.36,19.56,19.56,0,0,1,1.93,1.14c1.83-7.82.92-16.82-2.7-26.8a1.2,1.2,0,0,1,2.25-.82c3.05,8.39,4.25,16.15,3.59,23.18A259.8,259.8,0,0,1,213.1,164.07ZM197,266.91a10.23,10.23,0,0,0,.44-4c-.17-1.15-.77-2.37-1.48-2.43h0a2.08,2.08,0,0,0-.68.18,5.45,5.45,0,0,0-2.36,2,75,75,0,0,0-11.19,24.84c-.06.23-.14.54-.24.89-.79,2.85-1.26,5.59.58,6.4.89.4,1.93.42,3.55-2A84.1,84.1,0,0,0,197,266.91Zm-1.55-27.48,1.72-3.05L178.12,226.2l-1.29,2.33Zm-13.14-13.69,13.76-23.59a1.19,1.19,0,0,1-.89-.74A17.44,17.44,0,0,0,174,190.67a11.28,11.28,0,0,0-3.72,1.75c-2.89,2.16-4.14,5.84-5.36,10.07l-2.42,8.41c-1,3.35-2.07,7.16-4.48,10.2-3.29,4.15-8.24,6-13,7.84-3.57,1.35-7.25,2.75-10.11,5.07a16.93,16.93,0,0,0-6.14,11.68,119.81,119.81,0,0,0,14.79,6A115.33,115.33,0,0,0,155,255.19l3.25-5.46a1.2,1.2,0,0,1,1.57-.46l20.26,10.33L191.63,240l-17-10a1.19,1.19,0,0,1-.44-1.61L176.6,224a1.19,1.19,0,0,1,1.61-.48Zm5-102.37,6.16.84c-.91-1.83-1.89-3.72-2.9-5.69-2.63-5.12-5.34-10.39-7.33-15.34l-2.66,1.37a43.21,43.21,0,0,1-3,9.78,44.14,44.14,0,0,1-2.88,5.44c1.56.57,4.45,1.6,6.6,2.27L180,115.35a1.5,1.5,0,0,1,0-.42,1.21,1.21,0,0,1,2.23-.41Zm.26-63.65c-.06-.17-.12-.35-.17-.52-1.79-5.45-3.34-10.16-14.74-17.31-3.92-2.46-8.71-3.48-13.69-4.4-12-2.22-23.78,1.27-30,8.9-11.48,14.15-16.32,32-14.38,53.11,0,.3,0,.57.07.8l30.71,28.61,2.93-12.76a1.2,1.2,0,0,1,2.37.18L152,133.4l4.16,2.64a286.14,286.14,0,0,1,0-31.48c.57-12.28,1.68-28.38,5.2-44l.12-.51a1.16,1.16,0,0,1,.19-.81c1.17-5,2.71-10.1,5.64-14.58a1.2,1.2,0,0,1,2,1.31,39.82,39.82,0,0,0-4.82,11.78l2.4-1.07a1.2,1.2,0,0,1,1,2.19l-4.09,1.83-.09.38c-.17.73-.32,1.45-.47,2.18A135.5,135.5,0,0,0,177,56.49a1.2,1.2,0,0,1,1.63.45,1.21,1.21,0,0,1-.46,1.64,137.1,137.1,0,0,1-15.49,7.48c-.17.88-.33,1.76-.49,2.63,1.39-.48,3.35-1.14,5.62-1.9C174.22,64.63,183.63,61.47,187.63,59.72ZM177.05,264.83l1.85-3.15-10.35-5.28a2.45,2.45,0,0,1,.35.74,3.32,3.32,0,0,1-.53,2.62,2.78,2.78,0,0,1-1.23.91,13.23,13.23,0,0,1-1.74.56c2.95.56,6.17,1.22,9.64,2.08a3.53,3.53,0,0,1,2,1.67l0,0S177,264.87,177.05,264.83Zm-.6,5.29a.78.78,0,0,0,0-.37c-.12-.28-.65-.55-1.38-.82a1.06,1.06,0,0,1-.19-.06,54.84,54.84,0,0,0-6.37-1.49c-1.63-.3-3.16-.59-4.37-.92a1.19,1.19,0,0,1-.84-1.47,1.18,1.18,0,0,1,1.47-.84c1.12.3,2.61.58,4.18.88a56.61,56.61,0,0,1,5.88,1.32.7.7,0,0,0,0-.29c0-.2-.37-.41-.53-.47-4.68-1.15-9-1.95-12.87-2.65l-1.76-.32a1.2,1.2,0,0,1-.26-2.28,22,22,0,0,1,3.59-1,22.8,22.8,0,0,0,3.17-.86c.07,0,.22-.1.27-.14a1,1,0,0,0,.12-.57c-.26-.05-2.15.06-3.67.14-1.93.1-4.09.22-5.55.19h-.06l-.2,0H157a1.62,1.62,0,0,1-.38-.09,104,104,0,0,1-13.85-4c-9-3.14-19.37-7.11-27.32-14.37a85.37,85.37,0,0,1-9.16-10.39,60.82,60.82,0,0,1-4.11-5.67,40.52,40.52,0,0,1-3.58-7.81A65.41,65.41,0,0,1,95,197.48a1.15,1.15,0,0,1,.16-.64c-2.62-1.53-5.32-3-8-4.32l-14-7.21c.36,14.69,1.75,30,8.71,43.25,6.13,11.63,16.75,21.83,31.57,30.32a130.75,130.75,0,0,0,54.26,16.77,1.57,1.57,0,0,0,.7-.32,1.46,1.46,0,0,0-.12-.32l-6.49-1a1.2,1.2,0,1,1,.38-2.37l10,1.61a1.06,1.06,0,0,0,1.1-.73,4.92,4.92,0,0,0-1.48-.5c-2.37-.63-3.9-.93-5.38-1.21-1.24-.23-2.52-.48-4.17-.9a1.2,1.2,0,1,1,.59-2.32c1.58.4,2.77.63,4,.87,1.52.29,3.09.59,5.44,1.22a5.92,5.92,0,0,1,1.54.49,1.09,1.09,0,0,1,.36,0A3.52,3.52,0,0,0,176.45,270.12Zm-2.81-144.28a11.45,11.45,0,0,0-3.15-.91,1.2,1.2,0,0,1-.87-.59l-.14,0a9.17,9.17,0,0,1-2.29.36H167a17.38,17.38,0,0,1-8.86-2.47c0,5.14.17,10.54.6,15.95a1.2,1.2,0,0,1-.58,1.12,1.14,1.14,0,0,1-.62.17,1.24,1.24,0,0,1-.64-.18l-6.67-4.24a1.19,1.19,0,0,1-.55-.93l-.74-9.77-1.62,7.07a1.17,1.17,0,0,1-.81.87,1.19,1.19,0,0,1-1.17-.26l-17.79-16.57a14.78,14.78,0,0,1-4.38,6.77,16.52,16.52,0,0,1-3.34,2.15c2.19,17.38,15.93,24.7,28.58,24.25C159.92,148.27,172.64,140.94,173.64,125.84ZM162.78,255.51c2-.11,3.09-.16,3.73-.15l-6.75-3.44-2.24,3.78C158.87,255.72,160.94,255.61,162.78,255.51ZM147.3,291.93l8.89-15.31A134.05,134.05,0,0,1,123,266.46c.71,8.49,8.65,15.46,15.44,19.92C141.54,288.39,144.46,290.23,147.3,291.93Z"/><path class="cls-5" d="M289.41,77.76a4.84,4.84,0,0,1-.31,6.52,8.35,8.35,0,0,1-1.7,1.12L286.25,83a1.1,1.1,0,1,0,0-2.19,1.08,1.08,0,0,0-.61.19l-.75-1.31c1.2-.69,2.39-1.36,3.57-2a2.42,2.42,0,0,1,.58-.26S289.16,77.48,289.41,77.76Z"/><path class="cls-5" d="M286.25,83l1.15,2.36-.64.33a10.25,10.25,0,0,0-3.44,2.43c-1.28,1.55-1.77,3.7-1.51,6.57.05.56.12,1.11.19,1.67a15.22,15.22,0,0,1,.17,4,9.8,9.8,0,0,1-4.35,6.36,31.87,31.87,0,0,1-7.77,3.56l-6.39,2.26c-.06,0-.09.06-.14.08a1.09,1.09,0,0,0-.23.14,1,1,0,0,0-.16.19.74.74,0,0,0-.12.13l-9,15.71-1.3-1.61a3.39,3.39,0,0,0-2.85-.87,3,3,0,0,0-1.75,1.13,3.36,3.36,0,0,0-3.44-.68,2.85,2.85,0,0,0-1.59,2.87,2.8,2.8,0,0,0-1.76,1.23l-.68-.4,15-25.75a.26.26,0,0,0,0-.08,1.13,1.13,0,0,0,.08-.24.78.78,0,0,0,0-.21.79.79,0,0,0,0-.22,1.69,1.69,0,0,0-.05-.24s0-.06,0-.09l-2.39-5.6c5.56-3.13,11.41-6.58,17.09-9.92,4.77-2.82,9.68-5.72,14.42-8.43l.75,1.31a1.09,1.09,0,0,0,.61,2Zm-4.19,2.19a1.1,1.1,0,1,0-1.09,1.1A1.09,1.09,0,0,0,282.06,85.23Zm-5.45,3.17a1.1,1.1,0,1,0-1.1,1.1A1.09,1.09,0,0,0,276.61,88.4Zm-5.37,3.11a1.1,1.1,0,1,0-1.1,1.1A1.09,1.09,0,0,0,271.24,91.51Zm-5.44,3.18a1.1,1.1,0,1,0-1.09,1.1A1.09,1.09,0,0,0,265.8,94.69Zm-5.48,3.15a1.1,1.1,0,1,0-1.09,1.1A1.09,1.09,0,0,0,260.32,97.84Z"/><path class="cls-4" d="M286.25,80.85a1.1,1.1,0,1,1-.61.19A1.08,1.08,0,0,1,286.25,80.85Z"/><path class="cls-4" d="M285.68,74a3.16,3.16,0,0,1-2.81,3.49,2.06,2.06,0,0,1-.35,0,3.16,3.16,0,0,1-3.14-2.83,3.17,3.17,0,0,1,6.3-.68Zm-3,1.43a1.09,1.09,0,0,0,1-1.2,1.08,1.08,0,0,0-.4-.74,1,1,0,0,0-.68-.24h-.12a1.1,1.1,0,0,0-1,1.2A1.09,1.09,0,0,0,282.65,75.45Z"/><path class="cls-4" d="M281,84.14a1.1,1.1,0,1,1-1.1,1.09A1.09,1.09,0,0,1,281,84.14Z"/><path class="cls-4" d="M280.12,77.24a3.16,3.16,0,0,1-2.81,3.49,1.94,1.94,0,0,1-.34,0,3.17,3.17,0,0,1-2.67-1.49l-.14-.21a3,3,0,0,1-.34-1.13,3.17,3.17,0,1,1,6.3-.68Zm-2.3,1a1.13,1.13,0,0,0,.24-.81,1.1,1.1,0,0,0-1.09-1h-.12a1.09,1.09,0,1,0,1,1.77Z"/><path class="cls-4" d="M275.51,87.31a1.1,1.1,0,1,1-1.09,1.09A1.09,1.09,0,0,1,275.51,87.31Z"/><path class="cls-4" d="M274.65,80.41a3.17,3.17,0,0,1-2.81,3.49l-.34,0A3.17,3.17,0,0,1,269,78.76a3.18,3.18,0,0,1,4.46-.48,3.07,3.07,0,0,1,.67.77l.14.21A3,3,0,0,1,274.65,80.41Zm-3,1.43a1.11,1.11,0,0,0,1-1.21,1.09,1.09,0,0,0-1.09-1h-.11a1.11,1.11,0,0,0-.74.41,1,1,0,0,0-.23.8A1.08,1.08,0,0,0,271.62,81.84Z"/><path class="cls-4" d="M270.14,90.42a1.1,1.1,0,1,1-1.09,1.09A1.09,1.09,0,0,1,270.14,90.42Z"/><path class="cls-4" d="M269,83.71a3.17,3.17,0,0,1-.69,2.33,3.12,3.12,0,0,1-2.13,1.16,1.94,1.94,0,0,1-.34,0,3.18,3.18,0,0,1-3.15-2.83,3.17,3.17,0,0,1,6.31-.68Zm-3,1.43A1.09,1.09,0,0,0,265.8,83h-.11a1.1,1.1,0,0,0-.74.4,1.09,1.09,0,0,0-.23.8,1.05,1.05,0,0,0,.4.73A1.15,1.15,0,0,0,265.92,85.14Z"/><path class="cls-4" d="M264.71,93.6a1.1,1.1,0,1,1-1.1,1.09A1.09,1.09,0,0,1,264.71,93.6Z"/><path class="cls-6" d="M264.2,161.68a33.77,33.77,0,0,1-2.54,13.81L259.84,180c-3.64,8-8,13.39-13.22,16.57-7.48,4.53-18,4.87-29,1l9.11-16a18,18,0,0,0,5.45.89c8.83,0,14.56-7,15.8-8.68,4-5.37,5.81-11.44,5.1-17.09a1.46,1.46,0,0,0-.1-.34l-1.78-3.95-7.36-12.17c-1-1.72-1.2-2.58-1-3.09a69.23,69.23,0,0,0,4.3,5.91l1.31,1.69a1.19,1.19,0,0,0,1,.49,1.22,1.22,0,0,0,.72-.24,1.2,1.2,0,0,0,.24-1.68c-.35-.48-.82-1.07-1.35-1.75-1.55-2-6.27-8-5.57-9.42,0-.06.2-.16.55-.22,2.73,3.78,5.56,7.57,8.43,11.27a1.2,1.2,0,1,0,1.89-1.47c-2.94-3.8-5.85-7.7-8.66-11.59-.09-.34-.2-1,.09-1.17s1.26.5,1.77,1.11l8.5,11.3a1.2,1.2,0,0,0,1.68.23,1.19,1.19,0,0,0,.24-1.67l-8.06-10.71c.27-.44.49-.53.57-.54a1,1,0,0,1,.67.24c.93,1.13,1.6,2,2.17,2.79s1,1.46,1.52,2.19.93,1.37,1.53,2.21C261.16,143,263.9,151.81,264.2,161.68Z"/><path class="cls-4" d="M263.34,87a3.19,3.19,0,0,1-2.81,3.49l-.35,0A3.17,3.17,0,1,1,263.34,87Zm-3,1.42a1.09,1.09,0,0,0-.11-2.18h-.12a1.11,1.11,0,0,0-1,1.21A1.07,1.07,0,0,0,260.3,88.39Z"/><path class="cls-4" d="M259.23,96.75a1.1,1.1,0,1,1-1.1,1.09A1.09,1.09,0,0,1,259.23,96.75Z"/><path class="cls-4" d="M254.67,87.34a3.17,3.17,0,1,1-3.17,3.16A3.17,3.17,0,0,1,254.67,87.34Zm1.09,3.16a1.09,1.09,0,1,0-1.09,1.1A1.09,1.09,0,0,0,255.76,90.5Z"/><path class="cls-5" d="M241.77,141.5l2.6,4.3-49.44,86.65-10.46-5.58,56.21-96.36.68.4a2.12,2.12,0,0,0-.11.21,4.54,4.54,0,0,0,.32,3.75C239.05,137,241,140.27,241.77,141.5Z"/><path class="cls-5" d="M223.91,233.21c.18,3.9-3.49,6.88-5.07,8-1.18.81-2.47,1.54-3.72,2.25a34.51,34.51,0,0,0-5.72,3.78c-5.77,5-7.42,12.68-9,20.09-.36,1.66-.71,3.3-1.11,4.91a3.67,3.67,0,0,1-.75,1.75.69.69,0,0,1-.62.2,1.08,1.08,0,0,0-.43-.27c.7-2.11,1.34-4.24,1.88-6.4a12.31,12.31,0,0,0,.49-4.93c-.29-1.92-1.42-4.24-3.62-4.45a4,4,0,0,0-1.88.35,7.92,7.92,0,0,0-3.42,2.87c-1.5,2.23-2.89,4.52-4.16,6.83l-7-3.25,1.71-3,12.19-20.79,1.63,1a1.21,1.21,0,0,0,.61.16,1.1,1.1,0,0,0,.31,0,1.19,1.19,0,0,0,.73-.57l2.92-5.18a1.18,1.18,0,0,0,.1-.92,1.19,1.19,0,0,0-.58-.72l-2.37-1.27,3.59-6.29c2.47,2.54,8.42,8.28,11.45,8.21,2.24-.08,4-1.5,5.5-2.76l.88-.71c1.43-1.12,3.48-1.9,4.59-1A3,3,0,0,1,223.91,233.21Z"/><path class="cls-6" d="M212.45,174.15,202.6,191a.86.86,0,0,0-.19-.19,45.33,45.33,0,0,1-5.68-4.24,1.16,1.16,0,0,0-.67-.27c4.28-5.24,8.78-10.33,13.46-15.21A18.58,18.58,0,0,0,212.45,174.15Z"/><path class="cls-7" d="M176.78,127.49a100.47,100.47,0,0,1,36.32,36.58,259.8,259.8,0,0,0-20.22,22.36c.66-7-.54-14.79-3.59-23.18a1.2,1.2,0,0,0-2.25.82c3.62,10,4.53,19,2.7,26.8a19.56,19.56,0,0,0-1.93-1.14,20,20,0,0,0-14.46-1.36,13.51,13.51,0,0,0-4.48,2.13c-3.77,2.81-5.19,7.73-6.23,11.32l-2.43,8.41c-.9,3.15-1.93,6.71-4.05,9.38-2.88,3.63-7.31,5.31-12,7.09-3.74,1.42-7.61,2.89-10.77,5.44a19.43,19.43,0,0,0-6.9,12.36,49,49,0,0,1-9.43-6.66,82.9,82.9,0,0,1-8.89-10.11,56.52,56.52,0,0,1-4-5.43,38.11,38.11,0,0,1-3.37-7.35,63.14,63.14,0,0,1-3.43-16.7c.51.32,1,.64,1.5,1a1.22,1.22,0,0,0,.8.57l.22,0a1.22,1.22,0,0,0,1-.62h0a1.14,1.14,0,0,0,.19-.55c.55-1.82,5-11.43,7.65-17.27,2.1-4.59,3.21-7,3.4-7.56a1.2,1.2,0,0,0-.74-1.52A1.22,1.22,0,0,0,110,173c-.16.46-1.69,3.8-3.31,7.34-3.87,8.43-6.25,13.68-7.29,16.29a123.55,123.55,0,0,0-11.1-6.26l-19.5-10.08-.4-1.05c.88-14.24,7.26-27.55,20.06-41.87,9.1-10.18,16.41-10.45,21.75-10.64a21.4,21.4,0,0,0,4.84-.53c.91-.26,1.75-.53,2.54-.82,2.57,17.86,16.51,25.7,29.75,25.7l1.2,0c12.29-.44,25.87-8.16,27.45-24.07Z"/><polygon class="cls-5" points="197.21 236.38 195.49 239.43 176.83 228.53 178.12 226.2 197.21 236.38"/><path class="cls-6" d="M187,62.59c2,3.07,2.65,7.21,1.84,11.69-.75,4.16-2.57,8-4.52,12a.29.29,0,0,0,0,.1s0,0-.05.09c-.95,3.21-.74,7.32.67,12.56a2.75,2.75,0,0,0,.15.56,1.42,1.42,0,0,1-.22.13l-5.75,3a1.18,1.18,0,0,0-.63,1.07,1.23,1.23,0,0,0-.16.39,40.74,40.74,0,0,1-1.7,6.37c-2.34-1-4.91-2.37-6.31-4.64a1.2,1.2,0,1,0-2,1.26c1.76,2.84,4.78,4.5,7.48,5.61a41.3,41.3,0,0,1-3.89,7.2,5.32,5.32,0,0,1-3,2.15,6.2,6.2,0,0,1-1.68.27H167a14.89,14.89,0,0,1-8.25-2.51,1.23,1.23,0,0,0-.61-.18c0-5.46.23-10.56.44-15a294.37,294.37,0,0,1,3.15-33.27h0c1.23-.45,3.76-1.3,6.83-2.34C174.6,67,182.41,64.41,187,62.59Z"/><path class="cls-6" d="M176.43,269.75a.78.78,0,0,1,0,.37,3.52,3.52,0,0,1-2.22,0,1.09,1.09,0,0,0-.36,0,5.92,5.92,0,0,0-1.54-.49c-2.35-.63-3.92-.93-5.44-1.22-1.26-.24-2.45-.47-4-.87a1.2,1.2,0,1,0-.59,2.32c1.65.42,2.93.67,4.17.9,1.48.28,3,.58,5.38,1.21a4.92,4.92,0,0,1,1.48.5,1.06,1.06,0,0,1-1.1.73l-10-1.61a1.2,1.2,0,1,0-.38,2.37l6.49,1a1.46,1.46,0,0,1,.12.32,1.57,1.57,0,0,1-.7.32,130.75,130.75,0,0,1-54.26-16.77c-14.82-8.49-25.44-18.69-31.57-30.32-7-13.22-8.35-28.56-8.71-43.25l14,7.21c2.65,1.37,5.35,2.79,8,4.32a1.15,1.15,0,0,0-.16.64,65.41,65.41,0,0,0,3.62,18.26,40.52,40.52,0,0,0,3.58,7.81,60.82,60.82,0,0,0,4.11,5.67,85.37,85.37,0,0,0,9.16,10.39c8,7.26,18.27,11.23,27.32,14.37a104,104,0,0,0,13.85,4,1.62,1.62,0,0,0,.38.09h.11l.2,0h.06c1.46,0,3.62-.09,5.55-.19,1.52-.08,3.41-.19,3.67-.14a1,1,0,0,1-.12.57c-.05,0-.2.1-.27.14a22.8,22.8,0,0,1-3.17.86,22,22,0,0,0-3.59,1,1.2,1.2,0,0,0,.26,2.28l1.76.32c3.84.7,8.19,1.5,12.87,2.65.16.06.48.27.53.47a.7.7,0,0,1,0,.29,56.61,56.61,0,0,0-5.88-1.32c-1.57-.3-3.06-.58-4.18-.88a1.18,1.18,0,0,0-1.47.84,1.19,1.19,0,0,0,.84,1.47c1.21.33,2.74.62,4.37.92a54.84,54.84,0,0,1,6.37,1.49,1.06,1.06,0,0,0,.19.06C175.78,269.2,176.31,269.47,176.43,269.75Z"/><path class="cls-6" d="M170.49,124.93a11.45,11.45,0,0,1,3.15.91c-1,15.1-13.72,22.43-25.23,22.84-12.65.45-26.39-6.87-28.58-24.25a16.52,16.52,0,0,0,3.34-2.15,14.78,14.78,0,0,0,4.38-6.77l17.79,16.57a1.19,1.19,0,0,0,1.17.26,1.17,1.17,0,0,0,.81-.87l1.62-7.07.74,9.77a1.19,1.19,0,0,0,.55.93l6.67,4.24a1.24,1.24,0,0,0,.64.18,1.14,1.14,0,0,0,.62-.17,1.2,1.2,0,0,0,.58-1.12c-.43-5.41-.59-10.81-.6-15.95a17.38,17.38,0,0,0,8.86,2.47h.19a9.17,9.17,0,0,0,2.29-.36l.14,0A1.2,1.2,0,0,0,170.49,124.93Z"/><path class="cls-8" d="M288,157.33a1.19,1.19,0,0,0-.61-.71c-.19-.09-4.57-2.18-12.76.35a20,20,0,0,0-8.32,5.78,33.2,33.2,0,0,0-.45-5.08,1.26,1.26,0,0,0-1.44-1,1.18,1.18,0,0,0-.5.21h-.13c-3.83.55-7.74,1-11.6,1.29-.05,0-.08,0-.12,0a1.28,1.28,0,0,0-.34-.07h0a1.25,1.25,0,0,0-1.27,1.23c0,.05-.1,5.24-2,8.55a1.32,1.32,0,0,0-.13.38h0v0a.24.24,0,0,0,0,.08,1.18,1.18,0,0,0,.66,1.45L262,175.28a1.23,1.23,0,0,0,.4.31,1.46,1.46,0,0,0,.5.12,1.27,1.27,0,0,0,1.17-.72,23.53,23.53,0,0,0,1.1-3.16,15.63,15.63,0,0,0,4.3,5.74c3.15,2.61,10.84,3.92,11.17,4l.16,0A1.2,1.2,0,0,0,282,180c-.22-.68-2.13-6.73-3.9-8.91a14.39,14.39,0,0,0-6.46-4.29l.25,0c.28,0,.56,0,.84,0a17.24,17.24,0,0,0,15.21-8.62A1.24,1.24,0,0,0,288,157.33Zm-36.93,10.81a15.54,15.54,0,0,0,1-2.67l.7,0c1.16,0,2.33,0,3.5,0a.48.48,0,0,0,.09.11l4.68,3.56a18.06,18.06,0,0,0,1.9,1.32c-.24,1-.48,1.74-.69,2.32Zm12.35-.17c-.33-.23-.65-.47-1-.71l-2.59-2c1.3-.1,2.59-.25,3.88-.43A30.32,30.32,0,0,1,263.42,168Zm.37-5.53a62,62,0,0,1-11.22.64c.18-1,.27-2,.32-2.62,3.56-.29,7.14-.69,10.67-1.18A29.58,29.58,0,0,1,263.79,162.44Zm12.42,10.16a27.2,27.2,0,0,1,2.82,6.19c-2.6-.58-6.37-1.67-8.06-3.06a12.77,12.77,0,0,1-4.48-7.68C268.82,168.35,273.58,169.35,276.21,172.6Zm-4.16-8.14a21.34,21.34,0,0,1-3.49-.63,17,17,0,0,1,6.78-4.58,19.78,19.78,0,0,1,9.68-.87A14.75,14.75,0,0,1,272.05,164.46Z"/><path class="cls-9" d="M167.67,52.19a1.19,1.19,0,0,0-1.54.7c-3,7.92-6.94,18.15-9.85,26.12a1.2,1.2,0,0,0,.71,1.54l.25.06a1.21,1.21,0,0,0,1.29-.78c2.91-8,6.87-18.19,9.84-26.1A1.19,1.19,0,0,0,167.67,52.19Z"/><path class="cls-1" d="M142.76,79.76a1.2,1.2,0,0,0-1.4.95c-1.88,9.86-3.35,19.92-4.35,29.91a1.2,1.2,0,0,0,1.07,1.31h.12a1.19,1.19,0,0,0,1.19-1.07c1-9.92,2.45-19.91,4.32-29.7A1.19,1.19,0,0,0,142.76,79.76Z"/><path class="cls-1" d="M145,90a1.21,1.21,0,0,0-1.29,1.11c-.31,4.22-.75,8.49-1.32,12.7a1.19,1.19,0,0,0,1,1.34h.16a1.2,1.2,0,0,0,1.19-1c.57-4.26,1-8.58,1.33-12.85A1.19,1.19,0,0,0,145,90Z"/><path class="cls-1" d="M131.08,66.79a1.2,1.2,0,0,0-1.44.91c-1.87,8.25-3.73,16.65-5.53,25a1.2,1.2,0,0,0,.92,1.42,1.07,1.07,0,0,0,.25,0,1.2,1.2,0,0,0,1.17-.94c1.8-8.3,3.66-16.68,5.53-24.94A1.2,1.2,0,0,0,131.08,66.79Z"/><path class="cls-4" d="M165.06,73.67a1.22,1.22,0,0,0-1,1.38,1.2,1.2,0,0,0,1.37,1A14.37,14.37,0,0,1,176,78.62a1.2,1.2,0,1,0,1.43-1.93A16.6,16.6,0,0,0,165.06,73.67Z"/><path class="cls-4" d="M173.69,84.07a1,1,0,0,0-1.27.76,2.71,2.71,0,0,1-3.29,2,2.65,2.65,0,0,1-1.67-1.24,2.72,2.72,0,0,1-.3-2,1,1,0,1,0-2-.51,4.79,4.79,0,0,0,2.32,5.37,4.46,4.46,0,0,0,1.15.46,4.81,4.81,0,0,0,5.84-3.48A1,1,0,0,0,173.69,84.07Z"/></svg>