<svg id="Capa_1" data-name="Capa 1" xmlns="http://www.w3.org/2000/svg" viewBox="0 0 350 350"><defs><style>.cls-1{fill:#fff;}.cls-2{fill:#ebc846;}.cls-3{fill:#2d375a;}.cls-4{fill:#eab68b;}.cls-5{fill:#c5d0ef;}.cls-6{fill:#d8454f;}.cls-7{fill:#008d36;}</style></defs><rect class="cls-1" width="350" height="350"/><path class="cls-2" d="M188.54,256.2s4.16,23.34,15.8,32.08,24.15,18.36,24.15,18.36,21,4.09,30.71-15.92c0,0-.15-.53,0-7.1S254.42,255,254.42,255l-8.52-23a4,4,0,0,1-6,0s-10.73,14.16-16.33,18.29c0,0-1.13.69-1,.81s.55,6.09-1.81,6.22-4.95-4.45-4.95-4.45l-7.67.29s-6.81,1.51-11.33.36-6-2.42-6-2.42Z"/><path class="cls-2" d="M111.14,236.33a13.87,13.87,0,0,0-5,4.84l-2.69,4.39,1.09.19-1.09,3.92-3.91,7s-19.82,57.07,17.67,62.66c0,0,19,6.21,31.86-16.78l10-16.13,4.34-13.48-.81-10.77,3.43-.95,1.55-5.3L166,252.65l-.48-3s-8.83,6.42-18.09,5.72l-8-1.71s-1.39,5.11-6.27,5.16-3-.42-3-.42l-.19-7.3-1.39-.79-14.23-9.62L113,237a1.32,1.32,0,0,0-1.89-.71Z"/><path class="cls-3" d="M137.64,73l3.23,8.48.9,4.93-5,7.51,5.44,2.45,6.84,12.31,3.75,3.06,8.85-2.52-1.58,5.8,7.53,5.61v3.49l-8.32,3.79v3l3.4,2.87,1.54,4.54s-.91,3-2.51,2.8-7.39,3.59-7.39,3.59L152.8,147l.44,3.61s8.11,3.73,3.59,10.4-8.28,4.21-8.28,4.21-4.76,1-.49,10-10.42,5.88-10.42,5.88l-5.47-4.07a15.91,15.91,0,0,0,7-.64c3.64-1.23,2.59-5.47,2.59-5.47l-4.45-3.64s-6.64-.31-7.45-4.94,2.84-10.91,5.49-10.78,7.69-3.2,5.74-6-7.68-4.45-7.68-4.45-5.11-11.09,1-16.78c0,0-5.34-6.74-3.32-11,0,0,3.21,6.39,7.37,4.07s3.65-5.08,3.65-5.08l-8.66-1.89s-4.72-2.36-6.91-6.57c0,0-8.55-2.68-9.28-7.57S122.48,78,122.48,78s-1.24-7.21.73-12.22a90.85,90.85,0,0,1,6.47-12.09s7.52-9,16.54-14.41,19.7-10.71,31.5-9.76S199.86,53,199.86,53s6.59,24.25-2.73,35.46l-2.08.36s-3.19-2.62-5.9-2.42l1.31-7.33-8.85-9.7-8.8,10.67L152.88,50.85Z"/><path class="cls-1" d="M128.33,78.64a1,1,0,0,1-.94-.71c-.61-2.26-.1-4.81,1.56-7.8a28.81,28.81,0,0,1,7.11-8.46,1,1,0,0,1,1.22,1.52,26.74,26.74,0,0,0-6.64,7.87c-1.4,2.54-1.85,4.62-1.38,6.36a1,1,0,0,1-.68,1.19Z"/><path class="cls-1" d="M132.08,100.11a8,8,0,0,1-4.83-1.62A12.05,12.05,0,0,1,125,96.22c-2.05-2.61-2.79-4.89-2.27-7a1,1,0,1,1,1.88.46c-.37,1.48.26,3.22,1.91,5.32A11.23,11.23,0,0,0,128.42,97a6.21,6.21,0,0,0,3.91,1.22,1,1,0,0,1,.07,1.94Z"/><path class="cls-1" d="M131.74,95.81a.55.55,0,0,1-.18,0,6.11,6.11,0,0,1-4.9-5.65,1,1,0,0,1,1.94-.08,4.19,4.19,0,0,0,3.31,3.83,1,1,0,0,1-.17,1.92Z"/><path class="cls-1" d="M141.26,172.37a.93.93,0,0,1-.45-.11,1,1,0,0,1-.4-1.31c.69-1.32.15-3.07-.42-4.31-.19-.42-.4-.82-.6-1.23a12.67,12.67,0,0,1-1.5-4c-.34-2.33.48-4.86,2.43-7.55.52-.71,1.08-1.4,1.64-2.08a23.79,23.79,0,0,0,2.67-3.74c.93-1.72,1.51-4.22.38-6.08a9.13,9.13,0,0,0-2.52-2.37,10.85,10.85,0,0,1-3-2.91c-1.91-3.11-.5-7,1.28-9.31a28.73,28.73,0,0,1,3.35-3.52,31.31,31.31,0,0,0,2.79-2.87c1.75-2.12,3.76-7.56,2.75-9.74a1,1,0,1,1,1.75-.81c1.5,3.22-1.09,9.46-3,11.78a32.81,32.81,0,0,1-3,3,27.6,27.6,0,0,0-3.13,3.3c-1.53,2-2.48,5-1.18,7.11a9.27,9.27,0,0,0,2.52,2.37,10.75,10.75,0,0,1,3,2.92c1.33,2.17,1.21,5.17-.32,8a26.3,26.3,0,0,1-2.88,4c-.54.66-1.08,1.32-1.57,2-1.64,2.26-2.35,4.33-2.09,6.13a11.25,11.25,0,0,0,1.31,3.4c.22.43.44.86.64,1.29,1.08,2.35,1.21,4.44.37,6A1,1,0,0,1,141.26,172.37Z"/><path class="cls-1" d="M155.49,150a1,1,0,0,1-.7-.3c-1.74-1.84-3.32-4-2-8.06.14-.4.32-.79.5-1.18a4.15,4.15,0,0,0,.53-1.58c0-1.09-.9-1.94-2-2.93a8.69,8.69,0,0,1-2.53-3.22c-.68-1.87-.06-4.19,1.66-6.18a22.47,22.47,0,0,1,1.89-1.89,17.13,17.13,0,0,0,2.06-2.13c.92-1.2,1.52-3,.8-4.23a1,1,0,0,1,.36-1.32,1,1,0,0,1,1.32.36c1.24,2.17.27,4.79-.94,6.37a19.08,19.08,0,0,1-2.29,2.37,23.52,23.52,0,0,0-1.73,1.73c-.47.55-2,2.47-1.31,4.26a7.06,7.06,0,0,0,2,2.45c1.25,1.15,2.66,2.44,2.61,4.41a5.84,5.84,0,0,1-.72,2.36,9.88,9.88,0,0,0-.41,1c-1,3.08,0,4.53,1.53,6.12a1,1,0,0,1-.7,1.63Z"/><path class="cls-3" d="M188.49,268a2.36,2.36,0,0,1,.22.3c1,1.34,2.06,2.64,3.18,3.89-.81-1.72-1.53-3.48-2.2-5.26l-.92.79A2.47,2.47,0,0,0,188.49,268Zm89.37-91.42C278,182.75,277,194,269,200.32a22,22,0,0,1-13.68,4.37,29.65,29.65,0,0,1-8.45-1.26c-6.95-2.05-13.08-6.18-19.25-10.63l-.08,0L224,190.44l-3.39-1.87a.93.93,0,0,1,.26.64l0,16.47a.94.94,0,0,1-.06.29,23.56,23.56,0,0,1,10.46,3.67,26.62,26.62,0,0,1,2.23,1.7.92.92,0,0,1,.29,0c4.36,1.47,7.83,6.17,8.66,9,.29,1,.5,2,.72,2.92a23.36,23.36,0,0,0,1.41,4.79,105.4,105.4,0,0,1,4.88,10.06h0l4.11.64.13.05.18.06.15.11.13.13a.78.78,0,0,1,.1.15.89.89,0,0,1,.08.17l0,.18c0,.05,0,.09,0,.14-.11,3.44-.38,6.8-.68,10.35,3.4,11.36,5.14,22.86,6.65,34.53l.14,2.16a21.2,21.2,0,0,1-9.24,16.1,31.43,31.43,0,0,1-17.77,5.32H233a11.42,11.42,0,0,1-6.95-1.85c-7.66-4.42-15-10.44-23.79-19.49-1.7-1.75-3.11-3.27-4.42-4.91l-37.55,3a115,115,0,0,1-14.82,24.93,27.73,27.73,0,0,1-26.7,10.73c-29.95-4.78-26.73-42.81-20.36-64.4,0,0,0,0,0,0a1.17,1.17,0,0,1-.13-.45,29.45,29.45,0,0,1,2.12-11.55,1,1,0,0,1,1.25-.54,1,1,0,0,1,.62.07,8.76,8.76,0,0,0,.88.4l3.45-5.64c0-2.81.12-5.9,1.49-8.64.14-.27.28-.53.43-.79a10.08,10.08,0,0,0,.63-1.28,10.25,10.25,0,0,0,.36-3.62c0-2.54,0-5.18,1.62-7.18a11.08,11.08,0,0,1,2.69-2.26l2.82-1.87a1,1,0,0,1,1.07,0l.18-.25-2.38-1.25-2.08-1.09c-1.19-.62-2.39-1.21-3.59-1.79a57.24,57.24,0,0,1-8.82-5c-8.3-6.06-14.57-13-18.62-20.69a33.17,33.17,0,0,1-3.94-12c-.85-7.76,1.92-16,7.62-22.64,4.87-5.68,11.64-10.08,20.12-13.1,7.74-2.75,15.83-4,23.43-4.92a.89.89,0,0,1,.54.1,12.65,12.65,0,0,1,3.56-6.43,10.48,10.48,0,0,1-2-2.19,10.88,10.88,0,0,1-1.35-9.24,1,1,0,0,1,1.21-.63.94.94,0,0,1,.58.52,1,1,0,0,1,.29.88c-.27,1.33,1,2.66,2.14,3.39,1.33.84,3.38,1.48,4.77.51a3.81,3.81,0,0,0,1.36-2.33,12.15,12.15,0,0,0,.12-2.84,7.17,7.17,0,0,0-.81-.09c-.59,0-1.19-.07-1.78-.09-2.63-.11-5.34-.23-7.77-1.47a14.6,14.6,0,0,1-4.35-3.71,29.31,29.31,0,0,1-2.17-2.91,1,1,0,0,1-.12-.28,17.54,17.54,0,0,1-2-.7,9.51,9.51,0,0,1-4.85-4c-1.48-2.75-.87-6-.07-8.82a74.16,74.16,0,0,1,4.25-11.35.92.92,0,0,1,.45-.44,14.71,14.71,0,0,1-1.36-6.54c.17-4.54,2.76-8.34,4.9-10.73a9.23,9.23,0,0,0,1.41-2.82c1.34-3.54,3.38-8.88,13.5-16.13,7-5,21.51-10.72,24.86-11.63,5.25-1.42,9.93-1.55,13.93-.37A25.38,25.38,0,0,1,185.45,33a33.66,33.66,0,0,1,9.16,8.55c8.7,12.06,8.59,22.37,8.53,27.33v1c0,10.77-2.19,15.58-6,19.67a10.93,10.93,0,0,1-8.49,17.82,9.23,9.23,0,0,1-1.18-.07l1.59,4c1,2.47,2.1,5.27,4.27,6.93,2.33,1.79,5.67,2.07,8.36,2.29l3.51.29a1,1,0,0,1,.76-.39,4,4,0,0,1,.49,0,72.31,72.31,0,0,0,9.07-.58.94.94,0,0,1,.89.4c7.7-.6,15.33,1.6,21.8,3.84a75.75,75.75,0,0,1,14.24,6.32C267.52,139.37,277.49,157.53,277.86,176.6Zm-10.08,22.2c7.35-5.79,8.26-16.37,8.15-22.16-.36-18.42-10-35.95-24.47-44.67a73.73,73.73,0,0,0-13.88-6.15c-6.1-2.12-13.26-4.19-20.38-3.78a104.83,104.83,0,0,1,4,22.41h0a46.94,46.94,0,0,1,33.82,17.77,20.59,20.59,0,0,1,3,5,18.45,18.45,0,0,1,1.1,6.25,13.1,13.1,0,0,1-.66,5,10.14,10.14,0,0,1-5.66,5.54,17,17,0,0,1-6.61,1.17l-1,0a30.75,30.75,0,0,1-17.75-6.53l0,0-7.37-4.71c-4.53-1.88-8.33-2.37-11.61-1.47a19.74,19.74,0,0,0-6.87,4,52.81,52.81,0,0,0-13.49,16.75,2.43,2.43,0,0,0-.39,1.28.35.35,0,0,0,.17.23.94.94,0,0,1,.7,0,9.72,9.72,0,0,1,.95-1.79l5.78-9.17a1,1,0,1,1,1.64,1l-5.78,9.17a7,7,0,0,0-.83,1.6,2.91,2.91,0,0,0,2.08-1.84,1,1,0,0,1,.92-.64,66.74,66.74,0,0,0,4.66-8,1,1,0,1,1,1.73.86,67,67,0,0,1-5.37,9,.88.88,0,0,1,0,.32.41.41,0,0,0,.09.29.42.42,0,0,0,.26.15c.37,0,.83-.63,1.05-.93l6.37-8.43a1,1,0,0,1,1.35-.19.94.94,0,0,1,.37.62,14.71,14.71,0,0,0,5.51.32,6.69,6.69,0,0,0,4.48-2.65,1,1,0,0,1,.3-.28,1,1,0,0,1,.09-.27.94.94,0,0,1,1.29-.37l9.5,5.25,2.92,1.95a.86.86,0,0,1,.35.16c6.41,4.64,12.27,8.64,19.1,10.65C255.07,203.85,262.69,202.81,267.78,198.8Zm-9.19,88-.12-2c-2.26-17.38-5-34.44-13.16-51.13a2,2,0,0,1-.84.59,2.5,2.5,0,0,1-1.75-.12,9.26,9.26,0,0,1-2.2-1.16l-7.86,9.36c-2.36,2.82-5,6-8.75,7.71a1.82,1.82,0,0,0-.38.2s0,.13,0,.23a30.42,30.42,0,0,1-.54,5.71,3,3,0,0,1-.65,1.45,52.69,52.69,0,0,0,2,5l1.16-.52a.93.93,0,0,1,.79-.46h0a1,1,0,0,1,1,1l0,8.8a1,1,0,0,1-.6.89,1,1,0,0,1-.37.08,1,1,0,0,1-.69-.3c-1.78-1.83-3.49-3.77-5.07-5.76a1.61,1.61,0,0,1-.32-1.09,1,1,0,0,1,.61-1.21c.59-.2,1.18-.44,1.77-.66-.77-1.67-1.45-3.38-2.05-5.11a3.52,3.52,0,0,1-.8-.18c-2.17-.77-3.58-2.67-4.71-4.52a90.72,90.72,0,0,1-12.73,1.26c-3.44.1-8.18-.1-11.41-2.74l-1.26,3.77a2,2,0,0,1-1.09,1.28c.73,2.48,1.51,5,2.38,7.46a.91.91,0,0,1,.22.62,53.93,53.93,0,0,0,8.09,15.36,64.86,64.86,0,0,0,4.43,4.93c8.5,8.76,15.62,14.62,23,18.93a.92.92,0,0,1,.35.19,1.7,1.7,0,0,1,.14.1l.11.06s.06.06.09.08c1.76,1.27,4.22,1.42,6.17,1.39,4.52-.08,11.08-1,16.69-5C255.21,297.76,258.36,292.34,258.59,286.83Zm-1.87-109a11.41,11.41,0,0,0,.54-4.27,17,17,0,0,0-1-5.6,18.6,18.6,0,0,0-2.77-4.56,45,45,0,0,0-32.19-17c.5,8,.41,16.5.28,26.25l7,4.47s.07,0,.1,0l.17.12.23.15.08.07a28.77,28.77,0,0,0,16.14,5.77,15.8,15.8,0,0,0,6.81-1A8.2,8.2,0,0,0,256.72,177.83Zm-4.27,62.73-2.14-.33c.67,1.67,1.3,3.34,1.87,5Q252.36,242.9,252.45,240.56ZM244,232a5.5,5.5,0,0,0-.79-2.36c-.12-.23-.23-.47-.34-.7a25.4,25.4,0,0,1-1.56-5.2c-.2-.92-.41-1.88-.68-2.78a9.64,9.64,0,0,0-1.27-2.57c.09.25.18.5.25.76a13.28,13.28,0,0,1,.06,5.1,24.21,24.21,0,0,1-3.85,10.8,18.75,18.75,0,0,1-1.36,1.7,42.61,42.61,0,0,1-4.72,4.32,51.42,51.42,0,0,1-6.44,4.78,29.66,29.66,0,0,1-15.15,3.86,42.38,42.38,0,0,1-14.29-2.62,1,1,0,0,1-.64-.8,20.82,20.82,0,0,1-7.87-8.05,18.24,18.24,0,0,1-2-6.51c-.92,3.78-.27,8.11.59,12.57.7,3.65,1.5,7.78,4,10.77l1.66-5a1,1,0,0,1,.73-.65,1,1,0,0,1,.93.33c2.58,3,7.26,3.31,11,3.2a90.2,90.2,0,0,0,13.11-1.35,1,1,0,0,1,1,.46c1.07,1.81,2.25,3.62,4,4.25l.26.08a.88.88,0,0,1,.23-.14H221a3.15,3.15,0,0,0,.1-.38,27.33,27.33,0,0,0,.5-5.33,2.35,2.35,0,0,1,.23-1.18,2.41,2.41,0,0,1,1.24-1c3.33-1.52,5.86-4.54,8.1-7.2l3.51-4.19,4.95-5.89a1,1,0,0,1,1.39-.1,7.33,7.33,0,0,0,2.35,1.41c.33.13.43.12.45.11A.9.9,0,0,0,244,232Zm-6.25-8a11.36,11.36,0,0,0,0-4.35c-.58-2.24-2.37-4-4-5.51a29.93,29.93,0,0,0-3.49-2.83c-6.28-4.2-14.09-3.92-19.54-3a40.84,40.84,0,0,0-17.34,7.33c-3.77,2.84-6.27,6-7.42,9.31A15.75,15.75,0,0,0,187,237.29a19.28,19.28,0,0,0,9.43,8.45.92.92,0,0,1,.35.26c9.43,2.84,18.61,2.19,25.48-1.86a49.64,49.64,0,0,0,6.19-4.6,31,31,0,0,0,5.73-5.65A22.22,22.22,0,0,0,237.72,223.94ZM225.33,269l0-4.69c-.34.15-.68.32-1,.46h0c-.64.27-1.29.5-1.94.73C223.3,266.75,224.3,267.91,225.33,269Zm-5.19-80.75-4.76-2.63A8.69,8.69,0,0,1,209.7,189a12.44,12.44,0,0,1-2.09.17,19.77,19.77,0,0,1-4.36-.55,1,1,0,0,1-.31-.13L197.32,196a3.53,3.53,0,0,1-2.5,1.69h-.11a2.31,2.31,0,0,1-1.76-.88,2.39,2.39,0,0,1-.21-.34,4.77,4.77,0,0,1-2.87,1.07h-.05a1.46,1.46,0,0,1-1.15-.47,1.3,1.3,0,0,1-.27-.52,1.83,1.83,0,0,1-.52.09,1.89,1.89,0,0,1-.91-.25,2.24,2.24,0,0,1-1.14-1.61,4,4,0,0,1,.58-2.47,54.66,54.66,0,0,1,14-17.37,21.33,21.33,0,0,1,7.58-4.32c3.42-.94,7.26-.58,11.71,1.09.25-19.54.3-33.95-4.6-50a72.44,72.44,0,0,1-7.66.51c-1.54,7.37-7.58,12.65-12.69,16.42a38.33,38.33,0,0,1-4.46,3,25.17,25.17,0,0,1-12.18,3.09,25.53,25.53,0,0,1-14.36-4.38,7.67,7.67,0,0,1-2.76,2.29,21,21,0,0,1-2.46,1,15.14,15.14,0,0,0-2.86,1.24c-1.32.81-2.37,2.42-1.85,3.7a5,5,0,0,0,1.84,1.84,12.27,12.27,0,0,1,1.46,1.17,7.58,7.58,0,0,1,1.08,8.82,11.39,11.39,0,0,1-7,5.32l-.72.2c-1.43.39-2.92.8-3.43,1.86s.14,2.57.79,4l.09.21c1.39,3.07,1.52,5.61.39,7.55a6.52,6.52,0,0,1-5.4,2.95.61.61,0,0,1,.07.17,184.35,184.35,0,0,0,5.47,24.71c1.46.41,2.93.92,4.46,1.46a50.52,50.52,0,0,1,11.26,5.13c2.79,1.85,6.42,5,7.94,9.77.13.39.23.8.33,1.21a.92.92,0,0,1,.34.41A35.83,35.83,0,0,1,175,238.58a11.74,11.74,0,0,1-.76,4.48,10.85,10.85,0,0,1-.68,1.25,8.34,8.34,0,0,0-.66,1.24,8.5,8.5,0,0,0-.36,1.7l-.09.62a15.54,15.54,0,0,1-3,6.87,4.48,4.48,0,0,1-.52.58l-.93,4.47a1,1,0,0,1,.38,1c-.1.4-.21.8-.31,1.2,6.43-.37,12.91-1,19.28-1.9-.38-1.25-.75-2.49-1.11-3.73a.9.9,0,0,1,0-.28c-2.66-3.37-3.54-7.83-4.24-11.45-1.19-6.21-2-12.19,1-17.2a1,1,0,0,1,.45-.38,16,16,0,0,1,.65-2.75c1.29-3.71,4-7.15,8.1-10.23a42.72,42.72,0,0,1,18.16-7.68,38,38,0,0,1,8.65-.58.79.79,0,0,1,0-.13l0-16.47a1,1,0,0,1,1-1A.73.73,0,0,1,220.14,188.29Zm-14.8-65.61-3.79-.32c-3-.24-6.61-.55-9.39-2.68-2.59-2-3.87-5.19-4.89-7.75l-2.07-5.21a10.93,10.93,0,0,1,2.22-21.23c.05-.07.12-.13.18-.21a8.63,8.63,0,0,0,1.89-6.19,1,1,0,0,1,.22-.76q-3.83-4.1-7.77-8.12a1,1,0,0,1-.21.57l-8.4,10.08a1,1,0,0,1-.74.35h-.06a1,1,0,0,1-.76-.45c-5.91-9.29-12.13-18.57-18.47-27.61-4.46,6.6-9.15,13.11-14,19.45-.05,1.38.75,3.71,1.47,5.79a23.6,23.6,0,0,1,1.37,5c.27,3.3-1.32,5.33-3.33,7.89-.63.79-1.32,1.67-2,2.66a27.56,27.56,0,0,0,3.07,1c.74.2,1.42.39,1.9.57,1.32.48,2.35,2.39,4.07,5.73.36.69.74,1.43,1.14,2.16,3.9-1,7.64-4.19,8.77-7.46a1,1,0,0,1,1.83.63c-1.46,4.22-5.8,7.39-9.63,8.57,1.31,2.23,2.78,4.2,4.37,4.86,2,.83,4.37.23,6.85-.51l7.37-2.2a1,1,0,0,1,1.21.65,1,1,0,0,1,0,.42,27.5,27.5,0,0,1,1.11,8.22,6.57,6.57,0,0,1-1,3.76,3.19,3.19,0,0,1,.42,1.07c.39,2-1.14,3.7-2.74,4.48a13.9,13.9,0,0,1-2.2.8,12.72,12.72,0,0,0-1.92.68,5.83,5.83,0,0,0-2.07,1.72,1.91,1.91,0,0,0-.45,1,2.06,2.06,0,0,0,.71,1.22,19.23,19.23,0,0,0,1.62,1.33c1.49,1.13,3.19,2.41,3.43,4.54a4.13,4.13,0,0,1-.09,1.41,24.08,24.08,0,0,0,24.77,1.37,38.19,38.19,0,0,0,4.25-2.81C198.22,133.69,203.66,129,205.34,122.68Zm-4.13-53.85A40.62,40.62,0,0,0,193,42.66a31.56,31.56,0,0,0-8.62-8.06,23.56,23.56,0,0,0-6.08-2.94c-3.65-1.08-8-.95-12.87.38C162,33,147.7,38.73,141.21,43.37c-9.64,6.92-11.55,11.93-12.81,15.25A10.42,10.42,0,0,1,126.63,62c-1.93,2.15-4.26,5.55-4.41,9.51s1.89,8.24,6.44,13.12A1,1,0,0,1,127.24,86a34.16,34.16,0,0,1-4.6-6,72.51,72.51,0,0,0-3.84,10.37c-.69,2.44-1.24,5.23-.09,7.37a7.68,7.68,0,0,0,3.91,3.16,15.89,15.89,0,0,0,6.7,1.26,1,1,0,0,1,1,.94,1,1,0,0,1-.94,1h-.56a17.64,17.64,0,0,1-2.29-.17c.36.47.72.94,1.1,1.39a12.32,12.32,0,0,0,3.75,3.22c2.06,1.06,4.44,1.16,7,1.26.61,0,1.22,0,1.82.09a4.45,4.45,0,0,1,2.54.78,1,1,0,0,1,.16,1.36l-.07,0a12.34,12.34,0,0,1-.17,3.08,5.62,5.62,0,0,1-2.14,3.52,4.77,4.77,0,0,1-2.78.84,8.28,8.28,0,0,1-5.78-2.69,8.49,8.49,0,0,0,3.58,5.93.94.94,0,0,1,.65.38s0,0,0,.06a8.8,8.8,0,0,0,3.78,1.18,1,1,0,0,1-.06,1.93h-.07A10.72,10.72,0,0,1,135.4,125a10.3,10.3,0,0,0,2.23,17c.25.13.51.25.78.37,2,.94,4.51,2.1,4.53,4.67a4.46,4.46,0,0,1-2.46,3.7,12.36,12.36,0,0,1-2.45,1c-.36.12-.72.23-1.08.36a10.29,10.29,0,0,0-3.88,2.58l0,0A8.52,8.52,0,0,0,130.8,159a7.05,7.05,0,0,0,3.91,7.69,12.75,12.75,0,0,0,2.64.65c.62.11,1.24.22,1.85.37a5.84,5.84,0,0,1,4.3,3.33c.88,2.39-.67,4.88-2.57,6a12.55,12.55,0,0,1-5.48,1.4,14.36,14.36,0,0,0,4.94,2c2.3.43,5.12,0,6.22-1.87.8-1.37.63-3.31-.48-5.77l-.1-.21c-.75-1.65-1.69-3.7-.76-5.63s2.9-2.41,4.67-2.89l.68-.19a9.44,9.44,0,0,0,5.86-4.36,5.73,5.73,0,0,0-.72-6.54,10.68,10.68,0,0,0-1.24-1,6.59,6.59,0,0,1-2.5-2.69c-.94-2.32.65-4.86,2.63-6.08a16.08,16.08,0,0,1,3.23-1.41,19.56,19.56,0,0,0,2.23-.9c1.42-.7,2.79-2.07,2.62-3.52-.14-1.29-1.37-2.22-2.67-3.21a18.36,18.36,0,0,1-1.81-1.49,3.27,3.27,0,0,1-.45-4.79,7.81,7.81,0,0,1,2.77-2.3,15.08,15.08,0,0,1,2.21-.8,11.6,11.6,0,0,0,1.91-.68c1-.48,1.87-1.44,1.69-2.37s-1-1.28-2.33-1.93a8.79,8.79,0,0,1-2.73-1.79,5.57,5.57,0,0,1-1.2-4.68,10.5,10.5,0,0,1,.72-2.37l-1.14.34a18.85,18.85,0,0,1-5.23,1,7.45,7.45,0,0,1-2.93-.56c-3.15-1.32-5.43-5.75-7.45-9.67-1-1.92-2.34-4.55-3-4.8-.44-.16-1.06-.33-1.75-.52A14.78,14.78,0,0,1,134.79,95a1,1,0,0,1-.22-1.29c.93-1.43,1.86-2.62,2.68-3.67,1.89-2.4,3.14-4,2.93-6.53A23.5,23.5,0,0,0,138.91,79a41.68,41.68,0,0,1-1.31-4.26c-1.58,2-3.17,4-4.78,6a1,1,0,0,1-.76.36,1,1,0,0,1-.61-.22,1,1,0,0,1-.14-1.36c7.49-9.22,14.64-18.9,21.25-28.76a1,1,0,0,1,1.35-.26.94.94,0,0,1,.41.67c6.3,9,12.48,18.16,18.37,27.39l7.55-9.07a1,1,0,0,1,.68-.35c-2.93-3-5.9-5.89-8.9-8.76a1,1,0,0,1,0-1.36,1,1,0,0,1,1.37,0c7,6.68,13.86,13.68,20.41,20.81a1,1,0,0,1-.72,1.62,1,1,0,0,1-.71-.31c-.28-.31-.57-.61-.86-.92a10.48,10.48,0,0,1-1.67,5.25,10.94,10.94,0,0,1,6,2.6c2.92-3.13,5.4-7.31,5.4-18.28Zm-4.75,211.33-.5-.72c-11.41,1.16-22.55,1.84-34,2.06h0a1,1,0,0,1-.24-.05c-.18.51-.37,1-.56,1.52Zm-1.69-2.55c-.18-.3-.36-.6-.53-.9a1.23,1.23,0,0,1-.25.05,1,1,0,0,1-.67-.27,54.88,54.88,0,0,1-6.17-7,2.46,2.46,0,0,1-.58-1.75,2,2,0,0,1,.47-1l-5.63.71s0,0,0,.07a56.41,56.41,0,0,0,.85,10.78,1,1,0,0,1,0,.35C186.42,278.37,190.58,278,194.77,277.61Zm-5.94-13.05c-.3-.88-.59-1.76-.88-2.64a1,1,0,0,1-.24.08c-6.65.94-13.41,1.6-20.1,2-.32,1.14-.66,2.27-1,3.39Zm-8.41,14.22a.59.59,0,0,1-.06-.14,59,59,0,0,1-.87-10.95l-4.57.57c.48,3.53.86,7.1,1.13,10.64,0,0,0,.09,0,.13C177.49,279,179,278.88,180.42,278.78Zm-6.28.35a.29.29,0,0,1,0-.09c-.27-3.5-.65-7-1.12-10.53l-7.08.89h0c-.46,1.26-.93,2.51-1.45,3.75a.92.92,0,0,1-.43.46c-.46,2-1,4-1.68,5.94C166.29,279.47,170.22,279.32,174.14,279.13Zm-1.09-40.61a32.92,32.92,0,0,0-.54-6.73,25.09,25.09,0,0,1-2.75,7.62c-2.94,5.37-7.13,9.15-11.8,10.66a27.16,27.16,0,0,1-8.27,1h-.63a49.35,49.35,0,0,1-6.67-.38,34.89,34.89,0,0,1-21.8-12,25.88,25.88,0,0,1-6.06-12.66,18.29,18.29,0,0,1,1.5-10.46l-1.12.75a9.42,9.42,0,0,0-2.24,1.83c-1.18,1.51-1.24,3.68-1.2,6a11.64,11.64,0,0,1-.49,4.33,11,11,0,0,1-.75,1.54c-.13.24-.26.47-.38.71a15.71,15.71,0,0,0-1.28,6.73,16.29,16.29,0,0,0,2.32-2.15,1,1,0,0,1,.89-.3,1,1,0,0,1,.73.58,17,17,0,0,0,6.26,7.21,55.17,55.17,0,0,0,8.5,4.49l.4.18a9.19,9.19,0,0,1,1.59.88,4.22,4.22,0,0,1,.87.87,5.42,5.42,0,0,1,.8,2,31,31,0,0,1,.63,4.07l0,.31a7.86,7.86,0,0,0,.36,2.09,1.76,1.76,0,0,0,1.17,1.13,2.86,2.86,0,0,0,1.88-.91,23.11,23.11,0,0,0,3.16-3.25,2.82,2.82,0,0,1,1.23-1,2.76,2.76,0,0,1,1.73.08,25.67,25.67,0,0,0,24-5.69,1,1,0,0,1,1.08-.16,1,1,0,0,1,.54.94c-.1,1.56-.23,3.33.48,4.71a1,1,0,0,0,.33.43,2.26,2.26,0,0,0,.39-.42,13.62,13.62,0,0,0,2.58-6l.09-.58a9.67,9.67,0,0,1,.47-2.11,9.53,9.53,0,0,1,.81-1.56,8.78,8.78,0,0,0,.57-1A9.88,9.88,0,0,0,173.05,238.52Zm-5,0c1.58-2.9,4-8.6,2.18-14.2-1.35-4.2-4.64-7.07-7.17-8.74a48.76,48.76,0,0,0-10.83-4.92,41.17,41.17,0,0,0-7.81-2.19,1.09,1.09,0,0,1,.33.44l1.73,1a73.82,73.82,0,0,1,7.46,4.87.86.86,0,0,1,.26.31,1.09,1.09,0,0,1,.21.26c2.3,4.29,6,11.79,4.56,13.73a1.45,1.45,0,0,1-1.15.6.25.25,0,0,0,0,.07l.32,1.45a1,1,0,0,1,0,.38,2.4,2.4,0,0,1-1.43,1.79,2.81,2.81,0,0,1-1.09.23,2.29,2.29,0,0,1-1.2-.32,3.19,3.19,0,0,1-.44-.37,2.48,2.48,0,0,1-1.69.63,3.12,3.12,0,0,1-1.6-.44,4.44,4.44,0,0,1-1.23-1.17,8.12,8.12,0,0,1-1.34.14,3.28,3.28,0,0,1-2-.57,4.2,4.2,0,0,1-1-1.2L140,222.53a9.62,9.62,0,0,1-1.71.16,12.66,12.66,0,0,1-4.73-1,26.24,26.24,0,0,1-5.62-3.41l-1.65-1c-2.48-1.51-4.57-2.68-6.71-3.83a1,1,0,0,1-.1.17,15.57,15.57,0,0,0-3.07,12.1,23.93,23.93,0,0,0,5.62,11.69,33,33,0,0,0,20.58,11.33,49.19,49.19,0,0,0,7,.36,25,25,0,0,0,7.7-.92C161.56,246.87,165.36,243.41,168.06,238.48Zm-1.15-122a25.23,25.23,0,0,0-.88-7.08l-2.72.81a12.33,12.33,0,0,0-1.27,3.42,3.67,3.67,0,0,0,.71,3.06A7,7,0,0,0,164.9,118a16.49,16.49,0,0,1,1.54.84A5.42,5.42,0,0,0,166.91,116.48ZM166,260l.88-4.23a2.73,2.73,0,0,1-1.39-1.36,7.93,7.93,0,0,1-.76-3.5,27.72,27.72,0,0,1-24.15,4.68,2.47,2.47,0,0,0-.56-.11c-.08,0-.24.25-.35.37a24.82,24.82,0,0,1-3.42,3.53,5.19,5.19,0,0,1-2.62,1.35l-1.55,5.39.92.17a1,1,0,0,1,.07,1.89l-3.27,5.84a7.08,7.08,0,0,1-2.23,2.72,1,1,0,0,1-.52.15,1,1,0,0,1-.45-.11,1,1,0,0,1-.51-.84,48,48,0,0,1,.83-9.71.94.94,0,0,1-.1-1,1,1,0,0,1,1.29-.46,17.24,17.24,0,0,0,2.1.82l1.52-5.3a3.94,3.94,0,0,1-1.59-1.93,8.89,8.89,0,0,1-.49-2.64l0-.31a29,29,0,0,0-.59-3.81,3.82,3.82,0,0,0-.48-1.33,4.11,4.11,0,0,0-1.69-1.11l-.41-.19a55.3,55.3,0,0,1-8.79-4.66,19.66,19.66,0,0,1-6.33-6.76,18.67,18.67,0,0,1-3.24,2.5,1,1,0,0,1-.27.11l-2.76,4.52.67.14a1,1,0,0,1,.79,1.12.92.92,0,0,1-.28.51.76.76,0,0,1-.16.37,60.73,60.73,0,0,0-4.92,8.16,3.59,3.59,0,0,1-.89,1.23.87.87,0,0,1,0,.48c-6.08,20.63-9.73,58.34,19.69,62.08,12.45,1.59,20.9-5.23,27.36-15.08,6.28-9.59,12.23-19.43,14.82-30.72a.81.81,0,0,1,.4-.56.88.88,0,0,1-.16-.5V261.53a1,1,0,0,1,1-1,1,1,0,0,1,.5.16Zm.1,2-1.77.57V268C165,266,165.59,264,166.1,262Zm-8.7-34.29c0-1.21-1.33-5.23-4.68-11.49a73.78,73.78,0,0,0-7.23-4.69l-2.8-1.67a1,1,0,0,1-.4-.51l-7.07-4.2L133.13,204c-9.62-5.62-29.63-17.33-31.87-30.24-.74-4.23.46-8.26,3.57-12C112,153.22,128,152.91,132,153a12.12,12.12,0,0,1,4.26-2.71c.38-.15.78-.27,1.17-.4a10.47,10.47,0,0,0,2.08-.81,2.59,2.59,0,0,0,1.47-2c0-1.24-1.42-2-3.41-2.92l-.81-.39a12.47,12.47,0,0,1-6.83-9.86,11.18,11.18,0,0,1,0-1.83l-.05,0c-7.49.92-15.46,2.14-23,4.82-8.16,2.91-14.65,7.12-19.3,12.54-5.35,6.22-8,13.94-7.16,21.17a31.38,31.38,0,0,0,3.72,11.27c3.92,7.4,10,14.14,18.05,20a55.61,55.61,0,0,0,8.53,4.82c1.21.59,2.43,1.18,3.64,1.82l2.07,1.08c3.84,2,6.87,3.58,10.9,6l1.73,1a24.24,24.24,0,0,0,5.28,3.22,10,10,0,0,0,4.93.79.92.92,0,0,1,.38-.52,1,1,0,0,1,1.34.27l5.8,8.79a2.7,2.7,0,0,0,.56.69,1.63,1.63,0,0,0,1,.19L143.72,222a1,1,0,0,1,1.68-1l5.07,8.77a4.48,4.48,0,0,0,1.27,1.61c.35.21.87.21,1,0a1.22,1.22,0,0,1,.17-.15l-.13-.28a70.29,70.29,0,0,0-5.23-9.51,1,1,0,1,1,1.62-1.06,72.41,72.41,0,0,1,5.37,9.77,3.26,3.26,0,0,0,.93,1.42.72.72,0,0,0,.5,0,.44.44,0,0,0,.23-.21l-.25-1.13c-.47-1.11-.77-1.92-1.08-2.74s-.61-1.62-1.09-2.75c-.61-1.42-1.22-2.85-1.81-4.28a1,1,0,1,1,1.79-.74c.59,1.43,1.2,2.84,1.8,4.26.5,1.16.81,2,1.12,2.83.13.34.26.69.41,1.06A1,1,0,0,1,157.4,227.75ZM142.07,206.3a21.69,21.69,0,0,1,4.18.49A187.56,187.56,0,0,1,141,182.91a1,1,0,0,1,.06-.47c-.36,0-.72-.08-1.06-.15a16,16,0,0,1-7.79-3.86,1,1,0,0,1-.24-.36,2.68,2.68,0,0,1-.56-.39,1,1,0,1,1,1.3-1.44,3,3,0,0,0,2.06.3,11.94,11.94,0,0,0,5.13-1.17c1.25-.75,2.25-2.33,1.75-3.69s-2.24-1.93-3-2.12c-.55-.14-1.12-.24-1.69-.34a15.28,15.28,0,0,1-3-.76,9,9,0,0,1-5.1-9.84,10.11,10.11,0,0,1,1.52-3.7c-5.41.08-18.21,1-24.09,8.06-2.77,3.31-3.8,6.71-3.16,10.4,2.1,12,21.58,23.43,31,28.91.77.45,1.48.86,2.1,1.24l5.17,3.07A1,1,0,0,1,142.07,206.3Zm-14,66.8,2.92-5.21a18.16,18.16,0,0,1-2.31-.71,45.05,45.05,0,0,0-.66,6A.47.47,0,0,1,128.11,273.1ZM104,246.47a14,14,0,0,1-2.08-.77,27.21,27.21,0,0,0-1.56,6.67A60.28,60.28,0,0,1,104,246.47Z"/><path class="cls-4" d="M275.93,176.64c.11,5.79-.8,16.37-8.15,22.16-5.09,4-12.71,5-20.38,2.77-6.83-2-12.69-6-19.1-10.65a.86.86,0,0,0-.35-.16L225,188.81l-9.5-5.25a.94.94,0,0,0-1.29.37,1,1,0,0,0-.09.27,1,1,0,0,0-.3.28,6.69,6.69,0,0,1-4.48,2.65,14.71,14.71,0,0,1-5.51-.32.94.94,0,0,0-.37-.62,1,1,0,0,0-1.35.19l-6.37,8.43c-.22.3-.68.91-1.05.93a.42.42,0,0,1-.26-.15.41.41,0,0,1-.09-.29.88.88,0,0,0,0-.32,67,67,0,0,0,5.37-9,1,1,0,1,0-1.73-.86,66.74,66.74,0,0,1-4.66,8,1,1,0,0,0-.92.64,2.91,2.91,0,0,1-2.08,1.84,7,7,0,0,1,.83-1.6l5.78-9.17a1,1,0,1,0-1.64-1l-5.78,9.17a9.72,9.72,0,0,0-.95,1.79.94.94,0,0,0-.7,0,.35.35,0,0,1-.17-.23,2.43,2.43,0,0,1,.39-1.28,52.81,52.81,0,0,1,13.49-16.75,19.74,19.74,0,0,1,6.87-4c3.28-.9,7.08-.41,11.61,1.47l7.37,4.71,0,0a30.75,30.75,0,0,0,17.75,6.53l1,0a17,17,0,0,0,6.61-1.17,10.14,10.14,0,0,0,5.66-5.54,13.1,13.1,0,0,0,.66-5,18.45,18.45,0,0,0-1.1-6.25,20.59,20.59,0,0,0-3-5,46.94,46.94,0,0,0-33.82-17.77h0a104.83,104.83,0,0,0-4-22.41c7.12-.41,14.28,1.66,20.38,3.78A73.73,73.73,0,0,1,251.46,132C266,140.69,275.57,158.22,275.93,176.64Z"/><path class="cls-5" d="M250.31,240.23l2.14.33q-.09,2.34-.27,4.68C251.61,243.57,251,241.9,250.31,240.23Z"/><path class="cls-5" d="M243.18,229.6A5.5,5.5,0,0,1,244,232a.9.9,0,0,1-.14.5s-.12,0-.45-.11a7.33,7.33,0,0,1-2.35-1.41,1,1,0,0,0-1.39.1l-4.95,5.89-.26-.22a18.75,18.75,0,0,0,1.36-1.7,24.21,24.21,0,0,0,3.85-10.8,13.28,13.28,0,0,0-.06-5.1c-.07-.26-.16-.51-.25-.76a9.64,9.64,0,0,1,1.27,2.57c.27.9.48,1.86.68,2.78a25.4,25.4,0,0,0,1.56,5.2C243,229.13,243.06,229.37,243.18,229.6Z"/><path class="cls-5" d="M237.7,219.59a11.36,11.36,0,0,1,0,4.35,22.22,22.22,0,0,1-3.51,9.95,31,31,0,0,1-5.73,5.65,49.64,49.64,0,0,1-6.19,4.6c-6.87,4.05-16,4.7-25.48,1.86a.92.92,0,0,0-.35-.26,19.28,19.28,0,0,1-9.43-8.45,15.75,15.75,0,0,1-1.13-12.36c1.15-3.34,3.65-6.47,7.42-9.31a40.84,40.84,0,0,1,17.34-7.33c5.45-1,13.26-1.24,19.54,3a29.93,29.93,0,0,1,3.49,2.83C235.33,215.57,237.12,217.35,237.7,219.59Z"/><path class="cls-5" d="M234.69,236.93l-3.51,4.19c-2.24,2.66-4.77,5.68-8.1,7.2a2.41,2.41,0,0,0-1.24,1,2.35,2.35,0,0,0-.23,1.18,27.33,27.33,0,0,1-.5,5.33,3.15,3.15,0,0,1-.1.38h-.14a.88.88,0,0,0-.23.14l-.26-.08c-1.79-.63-3-2.44-4-4.25a1,1,0,0,0-1-.46,90.2,90.2,0,0,1-13.11,1.35c-3.78.11-8.46-.16-11-3.2a1,1,0,0,0-.93-.33,1,1,0,0,0-.73.65l-1.66,5c-2.46-3-3.26-7.12-4-10.77-.86-4.46-1.51-8.79-.59-12.57a18.24,18.24,0,0,0,2,6.51,20.82,20.82,0,0,0,7.87,8.05,1,1,0,0,0,.64.8,42.38,42.38,0,0,0,14.29,2.62,29.66,29.66,0,0,0,15.15-3.86,51.42,51.42,0,0,0,6.44-4.78,42.61,42.61,0,0,0,4.72-4.32Z"/><path class="cls-5" d="M225.35,264.35l0,4.69c-1-1.13-2-2.29-3-3.48.65-.23,1.3-.46,1.94-.73h0C224.67,264.67,225,264.5,225.35,264.35Z"/><path class="cls-6" d="M215.38,185.66l4.76,2.63a.73.73,0,0,0-.2,0,1,1,0,0,0-1,1l0,16.47a.79.79,0,0,0,0,.13,38,38,0,0,0-8.65.58,42.72,42.72,0,0,0-18.16,7.68c-4.08,3.08-6.81,6.52-8.1,10.23a16,16,0,0,0-.65,2.75,1,1,0,0,0-.45.38c-3,5-2.14,11-1,17.2.7,3.62,1.58,8.08,4.24,11.45a.9.9,0,0,0,0,.28c.36,1.24.73,2.48,1.11,3.73-6.37.9-12.85,1.53-19.28,1.9.1-.4.21-.8.31-1.2a1,1,0,0,0-.38-1l.93-4.47a4.48,4.48,0,0,0,.52-.58,15.54,15.54,0,0,0,3-6.87l.09-.62a8.5,8.5,0,0,1,.36-1.7,8.34,8.34,0,0,1,.66-1.24,10.85,10.85,0,0,0,.68-1.25,11.74,11.74,0,0,0,.76-4.48,35.83,35.83,0,0,0-2.24-13.27.92.92,0,0,0-.34-.41c-.1-.41-.2-.82-.33-1.21-1.52-4.73-5.15-7.92-7.94-9.77a50.52,50.52,0,0,0-11.26-5.13c-1.53-.54-3-1-4.46-1.46A184.35,184.35,0,0,1,143,182.62a.61.61,0,0,0-.07-.17,6.52,6.52,0,0,0,5.4-2.95c1.13-1.94,1-4.48-.39-7.55l-.09-.21c-.65-1.42-1.32-2.88-.79-4s2-1.47,3.43-1.86l.72-.2a11.39,11.39,0,0,0,7-5.32,7.58,7.58,0,0,0-1.08-8.82,12.27,12.27,0,0,0-1.46-1.17,5,5,0,0,1-1.84-1.84c-.52-1.28.53-2.89,1.85-3.7a15.14,15.14,0,0,1,2.86-1.24,21,21,0,0,0,2.46-1,7.67,7.67,0,0,0,2.76-2.29,25.53,25.53,0,0,0,14.36,4.38,25.17,25.17,0,0,0,12.18-3.09,38.33,38.33,0,0,0,4.46-3c5.11-3.77,11.15-9,12.69-16.42a72.44,72.44,0,0,0,7.66-.51c4.9,16,4.85,30.42,4.6,50-4.45-1.67-8.29-2-11.71-1.09a21.33,21.33,0,0,0-7.58,4.32,54.66,54.66,0,0,0-14,17.37,4,4,0,0,0-.58,2.47,2.24,2.24,0,0,0,1.14,1.61,1.89,1.89,0,0,0,.91.25,1.83,1.83,0,0,0,.52-.09,1.3,1.3,0,0,0,.27.52,1.46,1.46,0,0,0,1.15.47h.05a4.77,4.77,0,0,0,2.87-1.07,2.39,2.39,0,0,0,.21.34,2.31,2.31,0,0,0,1.76.88h.11a3.53,3.53,0,0,0,2.5-1.69l5.62-7.45a1,1,0,0,0,.31.13,19.77,19.77,0,0,0,4.36.55,12.44,12.44,0,0,0,2.09-.17A8.69,8.69,0,0,0,215.38,185.66Z"/><path class="cls-4" d="M201.55,122.36l3.79.32c-1.68,6.31-7.12,11-11.75,14.44a38.19,38.19,0,0,1-4.25,2.81,24.08,24.08,0,0,1-24.77-1.37,4.13,4.13,0,0,0,.09-1.41c-.24-2.13-1.94-3.41-3.43-4.54a19.23,19.23,0,0,1-1.62-1.33,2.06,2.06,0,0,1-.71-1.22,1.91,1.91,0,0,1,.45-1,5.83,5.83,0,0,1,2.07-1.72,12.72,12.72,0,0,1,1.92-.68,13.9,13.9,0,0,0,2.2-.8c1.6-.78,3.13-2.51,2.74-4.48a3.19,3.19,0,0,0-.42-1.07,6.57,6.57,0,0,0,1-3.76,27.5,27.5,0,0,0-1.11-8.22,1,1,0,0,0,0-.42,1,1,0,0,0-1.21-.65l-7.37,2.2c-2.48.74-4.86,1.34-6.85.51-1.59-.66-3.06-2.63-4.37-4.86,3.83-1.18,8.17-4.35,9.63-8.57a1,1,0,0,0-1.83-.63c-1.13,3.27-4.87,6.43-8.77,7.46-.4-.73-.78-1.47-1.14-2.16-1.72-3.34-2.75-5.25-4.07-5.73-.48-.18-1.16-.37-1.9-.57a27.56,27.56,0,0,1-3.07-1c.69-1,1.38-1.87,2-2.66,2-2.56,3.6-4.59,3.33-7.89a23.6,23.6,0,0,0-1.37-5c-.72-2.08-1.52-4.41-1.47-5.79,4.88-6.34,9.57-12.85,14-19.45,6.34,9,12.56,18.32,18.47,27.61a1,1,0,0,0,.76.45h.06a1,1,0,0,0,.74-.35l8.4-10.08a1,1,0,0,0,.21-.57q3.94,4,7.77,8.12a1,1,0,0,0-.22.76,8.63,8.63,0,0,1-1.89,6.19c-.06.08-.13.14-.18.21a10.93,10.93,0,0,0-2.22,21.23l2.07,5.21c1,2.56,2.3,5.76,4.89,7.75C194.94,121.81,198.6,122.12,201.55,122.36Z"/><path class="cls-5" d="M196,279.44l.5.72L161.1,283c.19-.51.38-1,.56-1.52a1,1,0,0,0,.24.05h0C173.41,281.28,184.55,280.6,196,279.44Z"/><path class="cls-5" d="M189.69,267c.67,1.78,1.39,3.54,2.2,5.26-1.12-1.25-2.19-2.55-3.18-3.89a2.36,2.36,0,0,0-.22-.3,2.47,2.47,0,0,1,.28-.28Z"/><path class="cls-5" d="M188,261.92c.29.88.58,1.76.88,2.64l-22.25,2.8c.37-1.12.71-2.25,1-3.39,6.69-.37,13.45-1,20.1-2A1,1,0,0,0,188,261.92Z"/><path class="cls-5" d="M180.36,278.64a.59.59,0,0,0,.06.14c-1.46.1-2.93.17-4.39.25,0,0,0-.09,0-.13-.27-3.54-.65-7.11-1.13-10.64l4.57-.57A59,59,0,0,0,180.36,278.64Z"/><path class="cls-5" d="M172.51,231.79a32.92,32.92,0,0,1,.54,6.73,9.88,9.88,0,0,1-.59,3.75,8.78,8.78,0,0,1-.57,1,9.53,9.53,0,0,0-.81,1.56,9.67,9.67,0,0,0-.47,2.11l-.09.58a13.62,13.62,0,0,1-2.58,6,2.26,2.26,0,0,1-.39.42,1,1,0,0,1-.33-.43c-.71-1.38-.58-3.15-.48-4.71a1,1,0,0,0-.54-.94,1,1,0,0,0-1.08.16,25.67,25.67,0,0,1-24,5.69,2.76,2.76,0,0,0-1.73-.08,2.82,2.82,0,0,0-1.23,1,23.11,23.11,0,0,1-3.16,3.25,2.86,2.86,0,0,1-1.88.91,1.76,1.76,0,0,1-1.17-1.13,7.86,7.86,0,0,1-.36-2.09l0-.31a31,31,0,0,0-.63-4.07,5.42,5.42,0,0,0-.8-2,4.22,4.22,0,0,0-.87-.87l1-1.69a34.77,34.77,0,0,0,12.15,4.07,49.35,49.35,0,0,0,6.67.38h.63a27.16,27.16,0,0,0,8.27-1c4.67-1.51,8.86-5.29,11.8-10.66A25.09,25.09,0,0,0,172.51,231.79Z"/><path class="cls-5" d="M170.24,224.28c1.8,5.6-.6,11.3-2.18,14.2-2.7,4.93-6.5,8.39-10.69,9.75a25,25,0,0,1-7.7.92,49.19,49.19,0,0,1-7-.36,33,33,0,0,1-20.58-11.33,23.93,23.93,0,0,1-5.62-11.69,15.57,15.57,0,0,1,3.07-12.1,1,1,0,0,0,.1-.17c2.14,1.15,4.23,2.32,6.71,3.83l1.65,1a26.24,26.24,0,0,0,5.62,3.41,12.66,12.66,0,0,0,4.73,1,9.62,9.62,0,0,0,1.71-.16l5.12,7.76a4.2,4.2,0,0,0,1,1.2,3.28,3.28,0,0,0,2,.57,8.12,8.12,0,0,0,1.34-.14,4.44,4.44,0,0,0,1.23,1.17,3.12,3.12,0,0,0,1.6.44,2.48,2.48,0,0,0,1.69-.63,3.19,3.19,0,0,0,.44.37,2.29,2.29,0,0,0,1.2.32,2.81,2.81,0,0,0,1.09-.23,2.4,2.4,0,0,0,1.43-1.79,1,1,0,0,0,0-.38l-.32-1.45a.25.25,0,0,1,0-.07,1.45,1.45,0,0,0,1.15-.6c1.39-1.94-2.26-9.44-4.56-13.73a1.09,1.09,0,0,0-.21-.26.86.86,0,0,0-.26-.31,73.82,73.82,0,0,0-7.46-4.87l-1.73-1a1.09,1.09,0,0,0-.33-.44,41.17,41.17,0,0,1,7.81,2.19,48.76,48.76,0,0,1,10.83,4.92C165.6,217.21,168.89,220.08,170.24,224.28Z"/><path class="cls-5" d="M164.33,262.61l1.77-.57c-.51,2-1.1,4-1.77,5.92Z"/><path class="cls-4" d="M152.72,216.26c3.35,6.26,4.69,10.28,4.68,11.49a1,1,0,0,0-.29.13c-.15-.37-.28-.72-.41-1.06-.31-.83-.62-1.67-1.12-2.83-.6-1.42-1.21-2.83-1.8-4.26a1,1,0,1,0-1.79.74c.59,1.43,1.2,2.86,1.81,4.28.48,1.13.79,1.94,1.09,2.75s.61,1.63,1.08,2.74l.25,1.13a.44.44,0,0,1-.23.21.72.72,0,0,1-.5,0,3.26,3.26,0,0,1-.93-1.42,72.41,72.41,0,0,0-5.37-9.77,1,1,0,1,0-1.62,1.06A70.29,70.29,0,0,1,152.8,231l.13.28a1.22,1.22,0,0,0-.17.15c-.15.21-.67.21-1,0a4.48,4.48,0,0,1-1.27-1.61l-5.07-8.77a1,1,0,0,0-1.68,1l4.67,8.08a1.63,1.63,0,0,1-1-.19,2.7,2.7,0,0,1-.56-.69l-5.8-8.79a1,1,0,0,0-1.34-.27.92.92,0,0,0-.38.52,10,10,0,0,1-4.93-.79,24.24,24.24,0,0,1-5.28-3.22l-1.73-1c-4-2.45-7.06-4-10.9-6l-2.07-1.08c-1.21-.64-2.43-1.23-3.64-1.82a55.61,55.61,0,0,1-8.53-4.82c-8.06-5.89-14.13-12.63-18.05-20a31.38,31.38,0,0,1-3.72-11.27c-.8-7.23,1.81-15,7.16-21.17,4.65-5.42,11.14-9.63,19.3-12.54,7.56-2.68,15.53-3.9,23-4.82l.05,0a11.18,11.18,0,0,0,0,1.83,12.47,12.47,0,0,0,6.83,9.86l.81.39c2,.92,3.4,1.68,3.41,2.92a2.59,2.59,0,0,1-1.47,2,10.47,10.47,0,0,1-2.08.81c-.39.13-.79.25-1.17.4A12.12,12.12,0,0,0,132,153c-4.07-.07-20.06.24-27.19,8.76-3.11,3.72-4.31,7.75-3.57,12,2.24,12.91,22.25,24.62,31.87,30.24l2.09,1.23,7.07,4.2a1,1,0,0,0,.4.51l2.8,1.67A73.78,73.78,0,0,1,152.72,216.26Z"/><path class="cls-5" d="M131,267.89l-2.92,5.21a.47.47,0,0,0-.05.1,45.05,45.05,0,0,1,.66-6A18.16,18.16,0,0,0,131,267.89Z"/><path class="cls-5" d="M130.24,246.64l-1,1.69a9.19,9.19,0,0,0-1.59-.88l-.4-.18a55.17,55.17,0,0,1-8.5-4.49,17,17,0,0,1-6.26-7.21,1,1,0,0,0-.73-.58,1,1,0,0,0-.89.3,16.29,16.29,0,0,1-2.32,2.15,15.71,15.71,0,0,1,1.28-6.73c.12-.24.25-.47.38-.71a11,11,0,0,0,.75-1.54,11.64,11.64,0,0,0,.49-4.33c0-2.28,0-4.45,1.2-6a9.42,9.42,0,0,1,2.24-1.83l1.12-.75a18.29,18.29,0,0,0-1.5,10.46,25.88,25.88,0,0,0,6.06,12.66A34.64,34.64,0,0,0,130.24,246.64Z"/><path class="cls-5" d="M101.94,245.7a14,14,0,0,0,2.08.77,60.28,60.28,0,0,0-3.64,5.9A27.21,27.21,0,0,1,101.94,245.7Z"/><path class="cls-3" d="M211.36,236.48a1,1,0,0,0,.73.33.94.94,0,0,0,.63-.23l8.92-7.71a1,1,0,1,0-1.27-1.46l-8.91,7.7A1,1,0,0,0,211.36,236.48Z"/><path class="cls-3" d="M217.19,234.63a1,1,0,0,0,.58,1.74,1,1,0,0,0,.59-.2,26.64,26.64,0,0,0,4.52-4.36,1,1,0,0,0-1.49-1.23A25.15,25.15,0,0,1,217.19,234.63Z"/><path class="cls-3" d="M206.65,216.13a1,1,0,0,0-1.36-.08l-7.58,6.79a1,1,0,0,0-.08,1.36.94.94,0,0,0,.72.33,1,1,0,0,0,.65-.25l7.58-6.79A1,1,0,0,0,206.65,216.13Z"/><path class="cls-3" d="M205.31,219.44l-3.21,2.76a1,1,0,0,0-.1,1.36.94.94,0,0,0,.73.34,1,1,0,0,0,.63-.23l3.21-2.77a1,1,0,0,0,.11-1.36A1,1,0,0,0,205.31,219.44Z"/><path class="cls-3" d="M130.88,237.28a.93.93,0,0,0,.57-.19l6.33-4.64a1,1,0,0,0-1.14-1.56l-6.33,4.64a1,1,0,0,0,.57,1.75Z"/><path class="cls-3" d="M134.64,238a1,1,0,0,0,.81.43.94.94,0,0,0,.53-.16,55,55,0,0,0,5.9-4.46,1,1,0,0,0,.09-1.37,1,1,0,0,0-1.36-.09,53.82,53.82,0,0,1-5.69,4.31A1,1,0,0,0,134.64,238Z"/><circle class="cls-1" cx="188.67" cy="96.3" r="9.22"/><path class="cls-7" d="M250.6,167.82a1.94,1.94,0,0,0-1.37-1,25,25,0,0,0-11.31.44,17.64,17.64,0,0,0-5.07,2.5,28,28,0,0,0,1.76-16.85,1.92,1.92,0,0,0-3.25-.95,60,60,0,0,0-5.43,6.38,16.8,16.8,0,0,0-2.58,4.63c-1,3.18-.55,6.93,1.43,11.15-.62-.25-1.17.48-1.41,1-.09.2-6.61,11.21-6.61,11.21a1,1,0,0,0,.83,1.43l0,0c3.68,1.84,7.39,3.75,11,5.66a1,1,0,0,0,.44.11l.11,0a.82.82,0,0,0,.3.1h.12a1,1,0,0,0,1-.86,80.1,80.1,0,0,0,.37-14.69,16.06,16.06,0,0,0,3,.71,17.41,17.41,0,0,0,2.16.14,15.89,15.89,0,0,0,14.55-9.42A1.93,1.93,0,0,0,250.6,167.82Zm-29.34,19.1a.89.89,0,0,0-.17.43l-2.05-1c1.33-2.15,4.63-7.52,5.91-9.92l2.76.68A109,109,0,0,1,221.26,186.92Zm3.84-2.09c0,1.53,0,3.06,0,4.58l-2.43-1.24s.09-.06.12-.1C223.6,187,224.36,185.92,225.1,184.83Zm.06-21.26a15,15,0,0,1,2.31-4.09,54.26,54.26,0,0,1,5.28-6.17,26.19,26.19,0,0,1-5.22,21.63h0a8.14,8.14,0,0,1-.86-1.3C224.76,169.74,224.25,166.35,225.16,163.57Zm1.93,26.86c-.07-2.73-.08-5.5,0-8.25a1,1,0,0,0-.05-.25c.7-1.1,1.39-2.21,2.05-3.34a78.3,78.3,0,0,1-.28,12.72ZM241.37,176a14.14,14.14,0,0,1-10.38.06,3.68,3.68,0,0,1-.59-.93,13.94,13.94,0,0,1,8.07-6,22.86,22.86,0,0,1,10.45-.37A14.18,14.18,0,0,1,241.37,176Z"/><path class="cls-3" d="M179.68,81.71a6.06,6.06,0,0,0,1.06-.2,4.61,4.61,0,0,1,.62-.14.78.78,0,0,1,.62.09c.09.11,0,.61-.62,1.3l-1.5,1.83a1,1,0,0,0,.75,1.58,1,1,0,0,0,.74-.35L182.86,84c1.6-1.94,1.08-3.17.63-3.74a2.35,2.35,0,0,0-1.89-.83c.87-1.32,1.79-2.62,2.75-3.87a1,1,0,0,0-.18-1.36,1,1,0,0,0-1.36.18,68.55,68.55,0,0,0-4,5.87,1,1,0,0,0,0,1A1,1,0,0,0,179.68,81.71Z"/><path class="cls-3" d="M155.5,79.15a1,1,0,0,0-.69,1.18A2.5,2.5,0,0,1,153,83.4a2.47,2.47,0,0,1-1.9-.25A2.5,2.5,0,0,1,150,81.62a1,1,0,1,0-1.87.5,4.45,4.45,0,0,0,4.3,3.3,4.11,4.11,0,0,0,1.14-.15,4.45,4.45,0,0,0,3.15-5.44A1,1,0,0,0,155.5,79.15Z"/><path class="cls-3" d="M156.19,66.89a13.12,13.12,0,0,0-10.59,1.76c-1.53,1-2.22,2.34-1.89,3.61a1,1,0,0,0,1.88-.49c-.12-.46.46-1.09,1.09-1.52a11.22,11.22,0,0,1,9-1.49,1,1,0,0,0,.51-1.87Z"/></svg>