<svg id="Capa_1" data-name="Capa 1" xmlns="http://www.w3.org/2000/svg" viewBox="0 0 350 350"><defs><style>.cls-1{fill:#fff;}.cls-2{fill:#313133;}.cls-3{fill:#2d375a;}.cls-4{fill:#c5d0ef;}.cls-5{fill:#f4cdb0;}.cls-6{fill:#ebc846;}.cls-7{fill:#008d36;}.cls-8{fill:#272c4a;}</style></defs><rect class="cls-1" width="350" height="350"/><path class="cls-1" d="M337,344l.75-.79,3.32-3.33c.09-.1.19-.25.29-.26s.48,0,.59.08.08.39.05.59-.15.17-.23.26l-6.26,6.28c-.1.1-.2.18-.33.29l.68.58,9.16-9.16a4.49,4.49,0,0,0-.52-.44c-.08-.06-.23,0-.34,0s-.44-.08-.52-.21a.62.62,0,0,1,0-.56c1.2-1.46,2.41-2.92,3.65-4.35a2.36,2.36,0,0,1,2-.86,1.62,1.62,0,0,1,1.19,2.57.94.94,0,0,1-.27.29,3.46,3.46,0,0,0-1.41,1.92,2.84,2.84,0,0,1-1.63,1.61,6.36,6.36,0,0,0-2.09,1.51c-1.95,2-3.92,3.94-5.89,5.91a3.58,3.58,0,0,1-.39.29l0,.15a3.78,3.78,0,0,0,.57.1,2.55,2.55,0,0,0,.6-.12c.76-.21,1.28-.07,1.6.46a1.44,1.44,0,0,1-.33,1.82,4.09,4.09,0,0,1-.91.53c-.41.18-.85.32-1.28.48a2.55,2.55,0,0,0-1.5,1.43,1.87,1.87,0,0,1-.15.32.48.48,0,0,1-.87-.42,3.55,3.55,0,0,1,1.94-2.13c.53-.22,1.08-.4,1.61-.63a1.76,1.76,0,0,0,.62-.47c.08-.08,0-.31,0-.44s-.25-.07-.35,0a2.42,2.42,0,0,1-2.31-.24l-1.76,1.78c-.37.36-.57.36-.94,0l-1.19-1.19a.53.53,0,0,1,0-.85c.56-.55,1.12-1.1,1.66-1.66a.51.51,0,0,0,.15-.4,4.26,4.26,0,0,1,.1-2.45c0-.11.11-.25.08-.34a1,1,0,0,0-.32-.5c-.1,0-.39.12-.47.25-.22.39-.36.81-.55,1.21a5.41,5.41,0,0,1-2.37,2.83,9.38,9.38,0,0,1-1.54.54,5.87,5.87,0,0,0-2.92,1.68,3.94,3.94,0,0,0-.87,4.05,5.41,5.41,0,0,0,4,3.89,3.62,3.62,0,0,0,4.13-1.66c.16-.31.4-.47.72-.29s.3.47.12.77a4.13,4.13,0,0,1-3.73,2.21,6.34,6.34,0,0,1-6.36-5.41,5.3,5.3,0,0,1,3.23-5.65,10,10,0,0,1,1.67-.57,4,4,0,0,0,2.76-2.24c.29-.6.54-1.21.83-1.81a1.38,1.38,0,0,1,2.54.07,2.56,2.56,0,0,1,0,1.07c-.07.54-.2,1.06-.31,1.59Zm8.9-6a3.4,3.4,0,0,0,2.42-2.29,4.09,4.09,0,0,1,.9-1.16c.11-.14.28-.22.4-.35s.37-.52.15-.78a.92.92,0,0,0-.68-.34,2,2,0,0,0-1,.54c-1,1.17-2,2.39-3,3.61Z"/><path class="cls-1" d="M332.38,348.69a3.51,3.51,0,0,1,.4.26L334,350.2c.24.24.34.51.07.77s-.51.16-.74-.06c-.44-.44-.89-.87-1.29-1.34A.65.65,0,0,1,332,349C332,348.89,332.24,348.81,332.38,348.69Z"/><path class="cls-1" d="M342.49,339.59c-.13-.18-.34-.34-.37-.54s.17-.5.48-.5a.42.42,0,0,1,.45.48c0,.2-.23.37-.35.56Z"/><path class="cls-2" d="M189.54,201.89c-.53-1.95-.75-3.87,0-4.84,1.86-2.38,6.74-14.72,6.74-14.72l-1.58-6.5-3.39-2.91h-2.26l-.95,4.89-5.23,3.62L179,180.16,173.69,193l-2.08,14.58-3.23,9.2L164,220.52l-8.11,5.26-11.09,3.57L134,234.19s-6.22,7.67-6.77,8.78-1.43,9.93-1.43,9.93l1.43,4.69s17.39,5.93,18.85,5.81,19,.67,21.23,1,1.48,3.3,1.48,3.3h-3.44l10.34,1.68.93,2.14,1.46,1.1v4.22l-1.46,2-2.11,2.41s-13.81,1.85-22.28,0l-10.75-1.05-13.36-2.61A40.46,40.46,0,0,0,139.67,295c8.63,7.42,18.66,11.76,37,11.58s23.89-8,23.89-8,12.37-9.6,13.3-29L213,257.59s-.27-9.71,2.79-12,14.24-7.18,18.19-20.94-3-14-3-14-3.81-1.72-5.9,2.61a15.82,15.82,0,0,0-1.88,7.25l-6.58,4.42-5.68-2.46L206.35,219l-2.53,7.25S209.73,233.7,219,228s5.08,3.92,5.08,3.92l-4.23,6.24s-10.07,3.84-11.5,7.44,1.74,17.8,1.74,17.8L207,280.14s-5.81,19.84-21.41,21.62-11.92-8.63-11.92-8.63l11.92-8.77s3.63-4.81,2.5-8.43-6.17-7.58-6.17-7.58l-13.56-10.76-13.69-4.69s-4.84-2.84-1.62-6.74,12-12,12-12,7.3-2.09,10.51-14.2,5.61-16.73,5.61-16.73l2.94-2.66h3Z"/><path class="cls-3" d="M268.16,52.81c.67-.58,1.34-1.18,2-1.79.31,1,.16,1.73-.46,2.08h0a1.21,1.21,0,0,1-.55.14A1.54,1.54,0,0,1,268.16,52.81Z"/><path class="cls-3" d="M265.18,49.31c.15.69,1.8.67,2.38.58l.25,0,.14-.26c.31-.58.59-1.59.31-2a4,4,0,0,0-1.72-.71.66.66,0,0,0-.21,0,.82.82,0,0,0-.56.25A2.49,2.49,0,0,0,265.18,49.31Zm-1.77.39a4.3,4.3,0,0,1,1.12-3.88,2.51,2.51,0,0,1,2.48-.66,10.34,10.34,0,0,1,1.6.53,2.66,2.66,0,0,1,1.12.87c.82,1.13.35,2.69,0,3.45a8.07,8.07,0,0,1,.4,1c-.66.61-1.33,1.21-2,1.79a4.61,4.61,0,0,1-.93-1.06,4.74,4.74,0,0,1-2.93-.68A2.25,2.25,0,0,1,263.41,49.7Z"/><path class="cls-3" d="M258.18,54.67c.15.69,1.79.67,2.38.58l.25,0L261,55c.31-.59.59-1.6.31-2a4,4,0,0,0-1.72-.72,1.18,1.18,0,0,0-.21,0,.84.84,0,0,0-.56.26A2.49,2.49,0,0,0,258.18,54.67Zm-1.77.39a4.3,4.3,0,0,1,1.12-3.88,2.54,2.54,0,0,1,2.48-.67,8.13,8.13,0,0,1,1.93.71,2.54,2.54,0,0,1,.79.7c.82,1.13.35,2.68,0,3.45a5.93,5.93,0,0,1,.49,1.38c-.69.49-1.38,1-2.09,1.43a5.25,5.25,0,0,1-.93-1.08C258.79,57.17,256.79,56.83,256.41,55.06Z"/><path class="cls-3" d="M261.16,58.18c.71-.46,1.4-.94,2.09-1.43.17.83,0,1.4-.56,1.7a1.11,1.11,0,0,1-.55.15A1.58,1.58,0,0,1,261.16,58.18Z"/><path class="cls-3" d="M237.49,149.32l3.66-7.83-10.67-4.55-4.11,7.87ZM103.13,241.17c-1.39-18.38-4-51.81-4.68-61a37.85,37.85,0,0,0-6.73,10.36,48.3,48.3,0,0,0-4.61,13.9C85,219.32,93.63,232.82,103.13,241.17Zm154.63-121c-.56,0-1.5,2.18-1.87,4.75.43.65.82,1.3,1.21,2a27.83,27.83,0,0,1,1.1-4.27,3.9,3.9,0,0,0-.14-2.32S258,120.14,257.76,120.13ZM232.34,160.3l-11.6-4.7-3.23,6.18,11.88,4.82ZM208,212.24l2.86-6.12-13.35-6.05-2.83,5.42Zm-68.1-68.15a1.67,1.67,0,1,0-1.67,1.67A1.67,1.67,0,0,0,139.92,144.09Zm32.26,49.78a9.23,9.23,0,0,1-5.48,4.6c-.3.09-.6.16-.9.23a4.35,4.35,0,0,0-2,.78c-.69.68-.55,2-.13,3a14.25,14.25,0,0,0,1.06,1.87,16.53,16.53,0,0,1,1.2,2.11A9.31,9.31,0,0,1,158,219c-.73,0-1.51,0-2.3-.08-2.48-.17-4-.19-4.63,1a1.64,1.64,0,0,0-.05,1.28,3.13,3.13,0,0,0,1.54,1.74,7.59,7.59,0,0,0,3.66.52,1.33,1.33,0,0,1,.43-.35c5.11-2.26,9.87-4.64,12-8.94a19.11,19.11,0,0,0,1.58-5.76c.32-2,.55-4.12.77-6.14.31-2.81.64-5.72,1.19-8.57C172.23,193.74,172.22,193.81,172.18,193.87Zm-28.73-73.78a4.87,4.87,0,1,0-4.87,4.86A4.88,4.88,0,0,0,143.45,120.09Zm-2-13.21a2.14,2.14,0,1,0-2.13,2.14A2.14,2.14,0,0,0,141.44,106.88Zm1.7,27.43s-.63-.29-2.6.68a11.24,11.24,0,0,0,1.9,2.1,4.15,4.15,0,0,0,.82-2.35A.66.66,0,0,0,143.14,134.31Zm-9.26.7c.42.34,1.5.29,3.3-.79h0a8,8,0,0,0-3.39-1.88l-.12,0C133.28,133.45,133.38,134.62,133.88,135Zm39.42,54.38a25.78,25.78,0,0,1,5.51-10.28A.75.75,0,0,1,179,179h0l-5.78-10.14a17.63,17.63,0,0,1-1.48,2.46c-.32.44-.67.87-1,1.3a9.12,9.12,0,0,0-2.27,4c-.31,2,.9,3.81,2.17,5.77a19.19,19.19,0,0,1,2.35,4.43A8.57,8.57,0,0,1,173.3,189.39Zm60-31.23,3.13-6.7-11.21-4.55-3.43,6.59ZM189.55,260.8c-1.71-1.28-8.21-4.84-13.91-7.83a.7.7,0,0,0-.31-.07.5.5,0,0,0-.38.15,2.43,2.43,0,0,0-.39.77.89.89,0,0,0,.43,1l13,7.44A3.5,3.5,0,0,0,189.55,260.8Zm46.84-135.19-4.82,9.24,10.58,4.51,1.31-2.79-1.52-2a67.81,67.81,0,0,1-4.91-6.84A5.22,5.22,0,0,1,236.39,125.61Zm8.67,13.1-20,42.77c5.77,1,14.79,1.82,19.79-2,2.52-1.92,4.39-5,5.72-9.34,2.49-8.18-.28-20.69-2.6-26.65A25.08,25.08,0,0,0,245.06,138.71ZM132.4,261.07a108.82,108.82,0,0,1-27.53-15.47,28.17,28.17,0,0,0-9.28,12.06c2.86,2.27,5.66,4.33,8.22,6.14a98.47,98.47,0,0,0,12.78,7.95c14.22,7.1,31.08,8.27,45.95,9.3,1.35.1,2.66.14,3.9.14,4.7,0,8.31-.63,8.72-1.37-.24,0-.44.05-.7.05-2.06,0-3.81.08-5.68.14l-2.41.07h0a1.18,1.18,0,0,1,0-2.36l2.4-.07c1.89,0,3.65-.11,5.72-.13s2.81-.72,2.86-1-.09-.18-.16-.22a.54.54,0,0,1-.12-.09,6.29,6.29,0,0,1-2.62.59l-3.69.05-1.87,0-2.23,0a1.18,1.18,0,0,1-1.16-1.2,1.15,1.15,0,0,1,1.21-1.16c2,0,2.73,0,4,0l3.72,0a3.53,3.53,0,0,0,2.62-1.1.94.94,0,0,0,.26-.49,1.07,1.07,0,0,0-.4-.22,3.39,3.39,0,0,1-2.18,1.06H172.1l-1.74,0c-.64,0-1.46,0-3.46,0a1.18,1.18,0,0,1,0-2.36c2,0,2.86,0,3.5,0,.89,0,1.4,0,4.25,0a1.85,1.85,0,0,0,.85-.74c-1.83-.24-11.22-1-11.93-1a1.12,1.12,0,0,1-.59-.19c-.57,0-1.13.05-1.68.05s-1.37,0-2,0l-1,0a1.18,1.18,0,0,1,0-2.36l1.06,0c5.05.11,7.72-.35,8-1.39l0-.14a3.43,3.43,0,0,0-1.08,0c-4.37.68-8.78.22-13-.22-1.44-.15-2.88-.29-4.32-.4C146.83,264.82,134.17,261.71,132.4,261.07Zm71.93-40.95-13.69-6.85-2.39,4.57,13.95,6.82ZM198.62,198l13.26,6,3.76-8-12.91-5.85Zm45.74-82.19a3.68,3.68,0,0,1,2.47-.52c2,.31,3.85,2.25,5.25,4.1l18.57-40.77.09-.12a1.33,1.33,0,0,1,.14-.19.75.75,0,0,1,.17-.14.76.76,0,0,1,.19-.12l.23-.07a.74.74,0,0,1,.14,0c4.12-.41,11.25-1.73,12.82-5.93a12.71,12.71,0,0,0,.35-5.09c0-.41,0-.82-.07-1.23a31.19,31.19,0,0,1,1.36-10.56c.57-1.85,1.59-4.44,3.92-5.72a10.42,10.42,0,0,1,3.71-1,6.9,6.9,0,0,0,3.21-1c2.42-1.84.66-6.4.06-7.75-.4-.91-2.53-5.41-5.37-4.74a5.93,5.93,0,0,0-2,1.19,135.9,135.9,0,0,0-11.47,10.52c-6.1,6-12.4,12.28-20.27,16.17a2.57,2.57,0,0,0-.37.21s.09.14.23.44c.87,1.89,1.66,3.78,2.43,5.61s1.53,3.68,2.38,5.53c0,0,0,.05,0,.08a1.28,1.28,0,0,1,.08.45,1.38,1.38,0,0,1,0,.2,1.68,1.68,0,0,1-.07.24.64.64,0,0,1,0,.07l-20.19,38.68A4.69,4.69,0,0,1,244.36,115.78Zm-52.63,95.4,13.6,6.8,1.69-3.6-13.41-6.8Zm33.34-35.35,3.32-7.09-12-4.86L213,170.52ZM97.41,102.1A8.69,8.69,0,0,0,107,99.7a1.19,1.19,0,0,1,1.66-.14,1.18,1.18,0,0,1,.14,1.66,11.09,11.09,0,0,1-8.43,3.8,10.56,10.56,0,0,1-3.25-.51c-.69,5.13-1.47,10.68-1.47,10.68a1.17,1.17,0,0,0,.21,1c.79,1,3.09,1.47,3.92,1.5l11.1.38c1.19,0,4.55.75,5.75,3.47.73,1.63,0,8-.39,10.62-1.23,5.14-4.92,8.82-9.06,11.89a1.2,1.2,0,0,1,.75.43,35.34,35.34,0,0,0,24.32,13.58c-.09-.22-.19-.44-.29-.65-1.46-3.13-3.87-8.34,2.35-13.93a4,4,0,0,1,3.05-3.35l.19-3.47c-2.63,1.32-4.22.85-5.11.14-1.52-1.21-1.58-3.56-1-5.22a2.32,2.32,0,0,1,1.63-1.56c1.24-.33,2.8.37,4,1.14l.3-4a7.2,7.2,0,0,1,.76-14.28v-2.19s0,0,0-.08a3.94,3.94,0,0,1,.73-7.68,3.15,3.15,0,0,1,.44,0,3.86,3.86,0,0,1,1.9.52,1.24,1.24,0,0,1,.3-.35,11.07,11.07,0,0,0,3.85-10.69,1.79,1.79,0,0,0-.8-1.18,2.05,2.05,0,0,0-1.59-.3c-.63.13-1.26.28-1.88.44a46.58,46.58,0,0,0-7.5,2.53A1.19,1.19,0,0,1,132,92.43a96.29,96.29,0,0,0,2.83-10.64L135,81c-.09-.18-.19-.35-.27-.53a26,26,0,0,1-2.31-8.37,7.41,7.41,0,0,1-3.3-2.07A76,76,0,0,1,116.61,54.3a1.18,1.18,0,0,1-1,1.25c-3.92.61-7,3.44-8.92,5.71a13,13,0,0,0-2.49,4.08,18.38,18.38,0,0,0-.59,6c0,2.59,0,5.26-1.13,7.73a17.84,17.84,0,0,1-3.26,4.29l-4.92,5.2c-.09,1.29.65,2.54,1.54,4a11.73,11.73,0,0,1,2,4.47,10.63,10.63,0,0,1-.11,2.9C97.62,100.55,97.52,101.31,97.41,102.1ZM184,250.85a3.5,3.5,0,0,0,1.57-1.48c-1.7-1.28-8.2-4.83-13.91-7.82a.56.56,0,0,0-.69.08,2.38,2.38,0,0,0-.39.76.89.89,0,0,0,.43,1Zm57.59-132.5s0,.07.07.1c2.59,1.77,6.16,6.65,8.31,9.81a1.18,1.18,0,0,1-.31,1.64,1.16,1.16,0,0,1-.66.2,1.19,1.19,0,0,1-1-.51c-3-4.35-6.91-9.19-8.07-9.46-.06,0-.31,0-.5.44a2.86,2.86,0,0,0,.19,2.32c2.48.79,5.86,5.27,7.3,7.32a1.18,1.18,0,0,1-.29,1.64,1.17,1.17,0,0,1-1.64-.28c-2.35-3.34-5.18-6.36-6.07-6.45a.59.59,0,0,0-.24,0,2.57,2.57,0,0,0,.34,1.44,64.09,64.09,0,0,0,4.72,6.56c2.6,3.34,5.29,6.8,6.33,9.47,2.54,6.5,5.34,19.37,2.66,28.19-1.47,4.85-3.61,8.29-6.54,10.53-3.32,2.53-8,3.33-12.57,3.33a52.81,52.81,0,0,1-9.68-1l-8.25,17.61a52.55,52.55,0,0,0,17.1,1.85c11.37-1,19.93-5.23,25.43-12.46,9.68-12.72,7.6-31.35,6.25-38.77-1.77-9.75-6.08-19.52-12.82-29l-.25-.35a.91.91,0,0,1-.11-.16c-1.12-1.6-3.17-4.52-4.87-4.78a1.42,1.42,0,0,0-.29,0,91.44,91.44,0,0,1,6.61,8.69,1.16,1.16,0,0,1-.31,1.63,1.16,1.16,0,0,1-1.63-.31c-1.33-1.93-5.09-7.26-6.61-8.61-.58-.51-1-1-1.43-1.42-.89-1-1.07-1.07-1.38-1a1.78,1.78,0,0,0-.2,1A1.09,1.09,0,0,0,241.63,118.35Zm-29.77,54.26-3.51,6.73,12.5,5.51,3.22-6.89Zm-23.39,27.13a16.7,16.7,0,0,1,1-6.61,33,33,0,0,1,2.46-4.9,36.33,36.33,0,0,0,2-3.89c1-2.51,1.49-5.93-.43-8.05a6,6,0,0,0-3.05-1.85,2.17,2.17,0,0,1-.07.24,1.2,1.2,0,0,1-.13.9,26.16,26.16,0,0,1-3.79,4.91,4.9,4.9,0,0,1-3.26,1.74h-.08a3.85,3.85,0,0,1-2.76-1.31c-2.74,3.1-4.62,7.3-5.72,12.85-.57,2.86-.9,5.85-1.22,8.73-.22,2.05-.46,4.16-.78,6.24a21.12,21.12,0,0,1-1.81,6.46c-2.34,4.65-7,7.22-12.05,9.53a1.21,1.21,0,0,1-.28.58c-1.74,1.91-3.82,4-6.61,4.8a6.84,6.84,0,0,1-1.86.25,7.42,7.42,0,0,1-2.9-.6,11.66,11.66,0,0,1-5,5.64,21.43,21.43,0,0,1-7.38,2.1h-.18a1.17,1.17,0,0,1-1.08-.73.35.35,0,0,1,0-.11,18.19,18.19,0,0,0-3.31,5,33.14,33.14,0,0,0-2.9,14.76c2,.92,4,1.75,5.92,2.45,1.77.64,14.17,3.65,15.89,3.78,1.47.11,2.93.26,4.39.41,4.3.44,8.37.86,12.44.23,1.54-.24,2.6,0,3.25.68a2.31,2.31,0,0,1,.47,2.22,3,3,0,0,1-.84,1.48,75,75,0,0,1,7.79.84,2.27,2.27,0,0,1,1.28,2.07,2.5,2.5,0,0,1,1.72,2.58,3.2,3.2,0,0,1-.69,1.62,2.5,2.5,0,0,1,.68,2.34,3.42,3.42,0,0,1-2.16,2.22,2.21,2.21,0,0,1-.16,1.55c-1.12,2.24-6.63,2.68-10.71,2.68-1.9,0-3.49-.1-4.18-.14-10.36-.72-21.67-1.51-32.48-4.3a45.1,45.1,0,0,0,18.75,20.82c6.78,3.74,14.78,4.54,21.75,5,8.89.57,18.11.48,25.39-4,7-4.36,12.52-12.59,15.48-23.17,2.06-7.35,1.41-12.92.83-17.83l-.09-.73c-.42-3.71-.71-7,.58-10,1.58-3.71,4.77-6.13,7.89-8.45l.19-.14a48.25,48.25,0,0,0,4.21-3.38c3.66-3.45,6.35-8.43,8.23-15.2.73-2.61,1.32-5.6.2-8a4.84,4.84,0,0,0-3.18-2.54,2.74,2.74,0,0,0-2.41.47c-.95.79-1.3,2.19-1.66,3.67-.16.65-.32,1.29-.52,1.91a11.37,11.37,0,0,1-6.7,6.88,9.87,9.87,0,0,1-2.27.6,11.39,11.39,0,0,1-10.09-3.85l-1.78,3.79c2.57,3.76,5.47,5.18,9.1,4.42a10.49,10.49,0,0,0,5.25-3.15l.4-.38c1.23-1.11,2.42-1.48,3.52-1.11,2,.69,2.45,3.52,2.45,3.55.62,4.93-2.36,8.87-5.85,11.28a17.85,17.85,0,0,1-1.79,1.09,26.48,26.48,0,0,1-2.64,1.16,11.48,11.48,0,0,0-4,2.21c-2.73,2.7-1.81,7.49-1,11.71l.11.56c.21,1.08.37,2.13.5,3.15,1.11,9-.81,15.92-4.61,25a34.94,34.94,0,0,1-9.36,13.53A21.2,21.2,0,0,1,183.32,303a16.5,16.5,0,0,1-5.59-.95,7.64,7.64,0,0,1-5.13-6.3c-.42-4.47,3.38-7,6.73-9.26.5-.33,1-.66,1.46-1l1.69-1.16c4-2.7,5.89-4.15,4.41-7.66-.06-.14-6.34-14.35-33.09-22.81a4.47,4.47,0,0,1-2.65-2.19,3.84,3.84,0,0,1-.25-3c1.17-3.62,3.95-7.2,8.25-10.66,1.06-.85,2.16-1.67,3.25-2.48,3.3-2.46,6.41-4.79,8.64-7.95,2.79-4,3.85-8.71,5-13.74.56-2.49,1.13-5.08,1.94-7.55.7-2.13,1.79-4.77,4.1-6.31a6.45,6.45,0,0,1,4.8-.89A6.38,6.38,0,0,1,188.47,199.74ZM192.79,152a13.66,13.66,0,0,1-6,13.4,38.44,38.44,0,0,1,2.91,6.4,9.58,9.58,0,0,1,5.53,2.9c2.66,2.93,2.18,7.37.85,10.54a38,38,0,0,1-2.16,4.16,28.85,28.85,0,0,0-2.29,4.54,14.47,14.47,0,0,0,.58,11.18l16.83-32.24a100.91,100.91,0,0,0-15.48-23.09,43.8,43.8,0,0,0-8.66-7.47,13.87,13.87,0,0,1-.51,3.07,26.63,26.63,0,0,1-1.35,3.33,20.82,20.82,0,0,0-1.37,3.56c-.49,2-.13,4.4,1.51,5.29,1.39.75,3.27.09,4.41-1a13.61,13.61,0,0,0,2.94-4.88,1.16,1.16,0,0,1,1.08-.72h.14A1.15,1.15,0,0,1,192.79,152Zm20.75,126.34c-3.11,11.15-9,19.86-16.51,24.54-5.9,3.66-12.84,4.63-19.87,4.63-2.31,0-4.62-.1-6.91-.25-7.23-.47-15.53-1.3-22.74-5.28-9.16-5.06-17.12-14.31-20.43-23.66a69.72,69.72,0,0,1-11.54-4.47,101.05,101.05,0,0,1-13.09-8.13c-8-5.65-18.12-13.42-26-23.52-5.59-7.15-12.39-18.6-13-32.49a58.35,58.35,0,0,1,2.93-20.09,79.73,79.73,0,0,1,31.75-42.28c.79-.53,1.59-1,2.41-1.58,5.84-3.78,11.88-7.7,13.4-14,.5-3.73.86-8.4.54-9.25-.71-1.61-3.12-2-3.67-2l-11.1-.39c-1,0-4.22-.54-5.68-2.38a3.45,3.45,0,0,1-.7-2.91s1.36-9.66,2.08-15.24a8.86,8.86,0,0,0,.1-2.28,9.68,9.68,0,0,0-1.62-3.55c-1-1.66-2.2-3.55-1.86-5.78a1.06,1.06,0,0,1,.19-.48,1.08,1.08,0,0,1,.21-.33l5.13-5.43A15.41,15.41,0,0,0,100.37,78c.94-2,.92-4.26.9-6.69a20.41,20.41,0,0,1,.72-6.75,14.41,14.41,0,0,1,2.33-4.1c1.64-5,4-10.2,8.92-11.58.35-.1.72-.18,1.08-.25a6.1,6.1,0,0,0,3.48-1.76l.47-.36a25.46,25.46,0,0,1,13.39-5.23,15.28,15.28,0,0,1,7.64,1.05C142,43.57,144,45.73,146,47.82a23,23,0,0,0,5,4.51,23.16,23.16,0,0,0,6.2,2.14,21.55,21.55,0,0,1,7.68,3c4.89,3.49,6.13,9.83,6.65,16.27A13.67,13.67,0,0,1,175.68,94l-.15.19c-1.35,1.75-2.5,3.39-1.77,4.28a2.12,2.12,0,0,0,1.11.58,14,14,0,0,0,5.62-.11c1.89-.29,3.27-.5,4,.4a1.85,1.85,0,0,1,.3,1.85,8.37,8.37,0,0,1-4.45,5.24,20.08,20.08,0,0,1,2.75,6.69,10.79,10.79,0,0,1-2.06,8.88,20.73,20.73,0,0,1-1.69,1.69c-1.56,1.44-2.5,2.4-2.34,3.59.13,1,1.17,1.86,2.26,2.74l.74.6a14.28,14.28,0,0,1,4.78,8.94c10.56,5.83,20.75,21,25.59,30.73l49.7-95.22c-.78-1.71-1.5-3.42-2.19-5.08-.75-1.81-1.53-3.68-2.39-5.53a2.89,2.89,0,0,1-.2-2.5,2.85,2.85,0,0,1,1.43-1.25,42.28,42.28,0,0,0,4.39-2.52,1.58,1.58,0,0,0,1,.42,1.11,1.11,0,0,0,.55-.15c.55-.3.73-.87.56-1.7,1.69-1.23,3.32-2.55,4.91-3.94a1.54,1.54,0,0,0,1,.43,1.21,1.21,0,0,0,.55-.14h0c.62-.35.77-1,.46-2.08,1.71-1.57,3.37-3.19,5-4.81a1.59,1.59,0,0,0,1,.41,1.17,1.17,0,0,0,.54-.14h0c.64-.35.79-1.09.42-2.19,1.57-1.56,3.17-3.13,4.81-4.66a1.77,1.77,0,0,0,1.22.64,1.14,1.14,0,0,0,.55-.15c.68-.38.8-1.2.34-2.42,1.32-1.19,2.68-2.34,4.07-3.43a7.89,7.89,0,0,1,2.94-1.62c3-.73,6.08,1.54,8.08,6.08,2.09,4.74,1.81,8.6-.79,10.58A8.87,8.87,0,0,1,294,50.71a8.57,8.57,0,0,0-2.9.74c-1.21.66-2.1,2-2.81,4.34a29.12,29.12,0,0,0-1.26,9.77c0,.39,0,.79.07,1.19a14.5,14.5,0,0,1-.49,6c-1.84,4.93-8.54,6.74-14.12,7.38l-18.86,41.39c.14.19.25.38.38.56.58-2.08,1.67-4.36,3.71-4.36h.09a2.68,2.68,0,0,1,2.09,1c1.13,1.48.64,3.94.53,4.42-.86,2.45-1.68,6.35-1,7.75,0,0,0,.06,0,.09a70.09,70.09,0,0,1,7.32,20.43c1.4,7.73,3.55,27.15-6.69,40.61-5.92,7.79-15,12.29-27.1,13.39-.95.09-2,.13-3.07.13a58.08,58.08,0,0,1-15.25-2.16l-5.12,10.91h0l-2.05,4.39a1.19,1.19,0,0,1,.2.19,8.79,8.79,0,0,0,15.53-2.25c.19-.56.33-1.14.47-1.72.42-1.71.89-3.64,2.45-4.93a5,5,0,0,1,4.44-.95,7.2,7.2,0,0,1,4.79,3.85c1.44,3.12.77,6.63-.06,9.65-2,7.2-4.91,12.53-8.9,16.28a46.82,46.82,0,0,1-4.42,3.56c-3.06,2.27-5.95,4.42-7.31,7.62-1.13,2.66-.77,5.69-.32,9.53C215,264.48,215.73,270.55,213.54,278.35Zm-82-68.06a7.26,7.26,0,0,0-4.27-2.16l-.55-.11a8.94,8.94,0,0,1-2.6-.75,5.26,5.26,0,0,1-2.71-4.14,6.76,6.76,0,0,1,2.11-5.78,14.83,14.83,0,0,1,2.54-1.67c1.4-.79,2.62-1.48,3-2.64s-.49-2.62-1.41-3.5a17.77,17.77,0,0,0-1.92-1.55,20,20,0,0,1-2.16-1.73,9.4,9.4,0,0,1-3-7.51,7.48,7.48,0,0,1,5.06-6.44l.61-.16a3.12,3.12,0,0,0,1-.35c.66-.46.51-1.41-.11-3.51s-1.29-4.42.44-6.11a5.59,5.59,0,0,1,3.24-1.27,5.21,5.21,0,0,0,1.66-.44A37.63,37.63,0,0,1,106,146a1.15,1.15,0,0,1-.22-.92c-1.34.94-2.71,1.83-4,2.69-.81.52-1.6,1-2.38,1.56a77.39,77.39,0,0,0-30.81,41,55.86,55.86,0,0,0-2.82,19.27c.62,13.27,7.16,24.26,12.54,31.15a98.93,98.93,0,0,0,15.38,15.38,30.51,30.51,0,0,1,9.28-12c-10.5-8.65-20.57-23.47-18.19-40a51.51,51.51,0,0,1,4.82-14.57c2.06-4.34,4.77-9.24,9.1-12.76a1.18,1.18,0,0,1,1.21-.17,1.21,1.21,0,0,1,.71,1s3.48,45.07,5,65.68a111.94,111.94,0,0,0,19.23,12,36,36,0,0,1,3.15-14.6c2.34-5.12,6.14-8.62,10.73-10,0,0,.07-.09.09-.14.95-1.67,1.22-4.13-.1-5.6a8.06,8.06,0,0,0-3.2-1.79,19.57,19.57,0,0,1-1.83-.76,6.56,6.56,0,0,1-3.34-3.54,3.68,3.68,0,0,1,.16-2.88,5.72,5.72,0,0,1,1-1.31,6.41,6.41,0,0,0,.48-.58A3.33,3.33,0,0,0,131.53,210.29ZM191,207.5a1.12,1.12,0,0,1-.44-.45,15.87,15.87,0,0,1-1.5-3.7,4.27,4.27,0,0,0-2.68-1.88,4.11,4.11,0,0,0-3,.54c-1.71,1.14-2.59,3.32-3.17,5.09-.77,2.36-1.33,4.89-1.88,7.33-1.12,5-2.28,10.24-5.35,14.58-2.44,3.47-5.85,6-9.14,8.47-1.08.81-2.15,1.61-3.19,2.44-3.94,3.16-6.46,6.37-7.49,9.55a1.5,1.5,0,0,0,.1,1.16,2.12,2.12,0,0,0,1.27,1,83.29,83.29,0,0,1,17.91,7.88c12.88,7.73,16.44,15.8,16.64,16.26,2.31,5.45-1.54,8-5.26,10.54l-1.66,1.13c-.48.34-1,.68-1.49,1-3,2-6,4-5.7,7.08a5.27,5.27,0,0,0,3.58,4.3c5.25,1.89,11.65.44,16.7-3.79,3.5-2.93,6.43-7.18,8.71-12.63,4.05-9.67,5.88-16.8,4-26.77l-.1-.56c-.89-4.57-2-10.25,1.64-13.84a13.74,13.74,0,0,1,4.84-2.73,24.06,24.06,0,0,0,2.4-1c3.47-1.84,7-5.43,6.4-10-.07-.49-.47-1.48-.87-1.61-.17-.06-.67.08-1.47.9a12.85,12.85,0,0,1-6.46,3.8c-4.23.89-7.75-.52-10.72-4.27l-14.28,30.48a19,19,0,0,1,2,1.36,2.11,2.11,0,0,1,.4,2.62c-.58,1.27-2.27,2.86-3.84,2.86a1.83,1.83,0,0,1-.33,0,1.23,1.23,0,0,1-.42-.14l-13.18-7.56-.09-.05a3.27,3.27,0,0,1-1.52-3.75,4.92,4.92,0,0,1,.8-1.54,2.9,2.9,0,0,1,3.64-.7c1.37.72,3.43,1.81,5.59,3,1.67.91,3.41,1.86,4.91,2.73l14-29.8-14-6.87-11.09,21.26c4.51,2.41,9.91,5.39,11.27,6.55a2.13,2.13,0,0,1,.4,2.62c-.58,1.27-2.27,2.87-3.84,2.87a1.76,1.76,0,0,1-.33,0,1.23,1.23,0,0,1-.42-.14l-.27-.15-13-7.45a3.28,3.28,0,0,1-1.52-3.75,4.62,4.62,0,0,1,.8-1.54,2.89,2.89,0,0,1,3.64-.71l1.19.62Zm-9.05-95.83c-.89-1.78-2.67-5.47-2.67-5.47l2.22-2.1,2-2.85-.09-1.43-5,.8-5-.62s-1.78-1.49-1.43-2.53a69.57,69.57,0,0,1,3.74-6s1.79-3.25,1.61-5.55a45.87,45.87,0,0,0-1.43-6.59L171,74.52l-1.16-8.1-3.29-4.72-2.05-3.1-6.86-2.36L151,53.52,144.83,48l-4.9-4.4-4-1.39-7.22.8-5.25,1.16L117,49l-4.69,1.85L110.05,52l-2.94,6.33h.36l6.2-3.5,4.13-1.3S124.68,67.13,131.4,70l2.32,1.78s2.3,10.06,2.54,10.38l-3.14,10.47,9.87-3s4.3-.09,3.94,4.72-5,9.44-5,9.44l.67,3.14L141.9,109l-2,1.13-.62,3.66s5,1.51,5,4.72-1.11,6-3.81,7.48l-2,.45-.33,8.74,3.65-2s1.83-.62,2.09-.17a17.15,17.15,0,0,1,.8,2.15l-.71,1.89L143,138.71l-3.33-2.28-.75.51-.33,1.77v2.18a5,5,0,0,1,2,2.24c.42,1.32.2,3.67-.62,3.78a14.2,14.2,0,0,1-3.34-.59l-2-1.26-2.32,3.58-.89,3.47,2.38,8.41-1.4,1.39-3.29.62-1.52,1.35,1.25,5.42-.36,2.76-1.15,1.16-2.5,1.22-2.49,2.34S121.19,183,125,186.4s5.43,3.21,5,5.7-4.46,5-4.46,5-3.94,3.66-2.69,6.94a4.72,4.72,0,0,0,4.39,3.17s7.59,1.36,6.5,5.62l-1,2.24s-3.2,3.4,0,5.86a11.67,11.67,0,0,0,6,2.57l2.22,2.68-.17,2.67-4.35,6.95h3.22l2.82-2.22,4.1-4.9s3,.44,3.29.44,3.73-1,4-1.07a27.09,27.09,0,0,0,2-2.22l.36-1.12-2.9-.49-3.25-1.51-.09-2.94,1.43-1.74,3.74-.58s5.52,1.16,6.86-.62,3.83-4.54,3.74-5.52-1-5.11-1-5.11-2.88-3.65-2.29-5.55a4.86,4.86,0,0,1,2.11-2.71l2.05-.84s4.81-1.38,5.16-4.41a26.35,26.35,0,0,0,0-5.79l-2.22-4.52s-2.59-3.16-2.59-3.6.72-4.29.72-4.29l3-3.89,3-6.15s7,4.46,11.82.45,6-7.4,6-7.4l-.53-3-3.3,3.68-3.3.95-3.2-1.43-1.07-3.29,1.07-4.55s3.65-6,2.58-9.71a45.15,45.15,0,0,0-3.13-7.59s-4.89-3-4.89-4.08,1.61-4.93,1.61-4.93l2.58-2.46,2.05-3.38S182.83,113.45,181.94,111.67ZM203.82,188l12.82,5.82,3.21-6.84-12.59-5.56Zm-24.26-20.34a8.69,8.69,0,0,1-5.28-1.69c0,.15-.07.3-.11.45a1.2,1.2,0,0,1,.69.55L181,177.81c.51.88,1.27,2.06,2.1,2.06h0a2.91,2.91,0,0,0,1.63-1,23.21,23.21,0,0,0,3.33-4.3,35.73,35.73,0,0,0-3.38-8c-.4.16-.8.31-1.21.43A11.07,11.07,0,0,1,179.56,167.67Z"/><path class="cls-4" d="M297,39.67c.6,1.35,2.36,5.91-.06,7.75a6.9,6.9,0,0,1-3.21,1,10.42,10.42,0,0,0-3.71,1c-2.33,1.28-3.35,3.87-3.92,5.72a31.19,31.19,0,0,0-1.36,10.56c0,.41,0,.82.07,1.23a12.71,12.71,0,0,1-.35,5.09c-1.57,4.2-8.7,5.52-12.82,5.93a.74.74,0,0,0-.14,0l-.23.07a.76.76,0,0,0-.19.12.75.75,0,0,0-.17.14,1.33,1.33,0,0,0-.14.19l-.09.12-18.57,40.77c-1.4-1.85-3.2-3.79-5.25-4.1a3.68,3.68,0,0,0-2.47.52,4.69,4.69,0,0,0-2.08-1.46l20.19-38.68a.64.64,0,0,0,0-.07,1.68,1.68,0,0,0,.07-.24,1.38,1.38,0,0,0,0-.2,1.28,1.28,0,0,0-.08-.45s0-.05,0-.08c-.85-1.85-1.63-3.72-2.38-5.53s-1.56-3.72-2.43-5.61c-.14-.3-.2-.44-.23-.44a2.57,2.57,0,0,1,.37-.21c7.87-3.89,14.17-10.13,20.27-16.17a135.9,135.9,0,0,1,11.47-10.52,5.93,5.93,0,0,1,2-1.19C294.44,34.26,296.57,38.76,297,39.67Zm-8.06,3.66a1.64,1.64,0,1,0-1.9,1.34A1.65,1.65,0,0,0,288.91,43.33Zm-7.57,6.53a1.65,1.65,0,1,0-1.9,1.34A1.65,1.65,0,0,0,281.34,49.86ZM275,56.66a1.63,1.63,0,0,0-1.34-1.9,1.64,1.64,0,1,0-.56,3.24A1.64,1.64,0,0,0,275,56.66Zm-7.49,6A1.64,1.64,0,1,0,265.6,64,1.64,1.64,0,0,0,267.5,62.66Z"/><path class="cls-3" d="M287.57,41.43a1.64,1.64,0,1,1-1.9,1.34A1.65,1.65,0,0,1,287.57,41.43Z"/><path class="cls-3" d="M284,37.69c.46,1.22.34,2-.34,2.42a1.14,1.14,0,0,1-.55.15,1.77,1.77,0,0,1-1.22-.64C282.62,39,283.33,38.32,284,37.69Z"/><path class="cls-3" d="M283.76,37a6.93,6.93,0,0,1,.28.67c-.71.63-1.42,1.28-2.11,1.93a6,6,0,0,1-.7-.86c-1.44.07-3.44-.28-3.82-2a4.31,4.31,0,0,1,1.12-3.88,2.51,2.51,0,0,1,2.48-.66,4.63,4.63,0,0,1,2.73,1.4C284.56,34.71,284.08,36.26,283.76,37ZM282,36.61c.31-.58.59-1.59.32-2a4.13,4.13,0,0,0-1.73-.71.66.66,0,0,0-.21,0,.78.78,0,0,0-.55.25,2.52,2.52,0,0,0-.6,2.19c.15.68,1.8.66,2.38.58l.26,0Z"/><path class="cls-3" d="M280,48a1.64,1.64,0,1,1-1.9,1.34A1.65,1.65,0,0,1,280,48Z"/><path class="cls-3" d="M277.12,44.28c.37,1.1.22,1.84-.42,2.19h0a1.17,1.17,0,0,1-.54.14,1.59,1.59,0,0,1-1-.41L276.43,45Z"/><path class="cls-3" d="M277.12,44.28l-.69.68-1.26,1.25a5.58,5.58,0,0,1-.94-1.08,4.74,4.74,0,0,1-2.93-.68,2.25,2.25,0,0,1-.89-1.37,4.3,4.3,0,0,1,1.12-3.88,2.51,2.51,0,0,1,2.48-.66,4.63,4.63,0,0,1,2.73,1.4c.82,1.13.34,2.69,0,3.45A8.32,8.32,0,0,1,277.12,44.28ZM275,43c.31-.58.59-1.59.32-2a4.26,4.26,0,0,0-1.73-.72l-.21,0a.78.78,0,0,0-.55.25,2.47,2.47,0,0,0-.6,2.18c.15.69,1.8.67,2.38.58l.26,0Z"/><path class="cls-3" d="M273.65,54.76a1.64,1.64,0,1,1-1.9,1.34A1.66,1.66,0,0,1,273.65,54.76Z"/><path class="cls-3" d="M266.16,60.76a1.65,1.65,0,1,1-1.9,1.35A1.64,1.64,0,0,1,266.16,60.76Z"/><path class="cls-5" d="M264.53,151.91c1.35,7.42,3.43,26.05-6.25,38.77-5.5,7.23-14.06,11.43-25.43,12.46a52.55,52.55,0,0,1-17.1-1.85L224,183.68a52.81,52.81,0,0,0,9.68,1c4.56,0,9.25-.8,12.57-3.33,2.93-2.24,5.07-5.68,6.54-10.53,2.68-8.82-.12-21.69-2.66-28.19-1-2.67-3.73-6.13-6.33-9.47a64.09,64.09,0,0,1-4.72-6.56,2.57,2.57,0,0,1-.34-1.44.59.59,0,0,1,.24,0c.89.09,3.72,3.11,6.07,6.45a1.17,1.17,0,0,0,1.64.28,1.18,1.18,0,0,0,.29-1.64c-1.44-2.05-4.82-6.53-7.3-7.32a2.86,2.86,0,0,1-.19-2.32c.19-.44.44-.44.5-.44,1.16.27,5.11,5.11,8.07,9.46a1.19,1.19,0,0,0,1,.51,1.16,1.16,0,0,0,.66-.2,1.18,1.18,0,0,0,.31-1.64c-2.15-3.16-5.72-8-8.31-9.81,0,0,0-.07-.07-.1a1.09,1.09,0,0,1-.39-.78,1.78,1.78,0,0,1,.2-1c.31-.09.49,0,1.38,1,.4.42.85.91,1.43,1.42,1.52,1.35,5.28,6.68,6.61,8.61a1.16,1.16,0,0,0,1.63.31,1.16,1.16,0,0,0,.31-1.63,91.44,91.44,0,0,0-6.61-8.69,1.42,1.42,0,0,1,.29,0c1.7.26,3.75,3.18,4.87,4.78a.91.91,0,0,0,.11.16l.25.35C258.45,132.39,262.76,142.16,264.53,151.91Z"/><path class="cls-5" d="M258.06,120.24a3.9,3.9,0,0,1,.14,2.32,27.83,27.83,0,0,0-1.1,4.27c-.39-.65-.78-1.3-1.21-2,.37-2.57,1.31-4.75,1.87-4.75C258,120.14,258,120.2,258.06,120.24Z"/><path class="cls-4" d="M241.94,134.61l1.52,2-1.31,2.79-10.58-4.51,4.82-9.24a5.22,5.22,0,0,0,.64,2.16A67.81,67.81,0,0,0,241.94,134.61Z"/><polygon class="cls-4" points="241.15 141.49 237.49 149.32 226.37 144.81 230.48 136.94 241.15 141.49"/><polygon class="cls-4" points="236.48 151.46 233.35 158.16 221.84 153.5 225.27 146.91 236.48 151.46"/><polygon class="cls-4" points="232.34 160.3 229.39 166.6 217.51 161.78 220.74 155.6 232.34 160.3"/><polygon class="cls-4" points="228.39 168.74 225.07 175.83 212.95 170.52 216.42 163.88 228.39 168.74"/><polygon class="cls-4" points="224.07 177.96 220.85 184.85 208.35 179.34 211.86 172.61 224.07 177.96"/><path class="cls-4" d="M223.08,228.51c.58,4.56-2.93,8.15-6.4,10a24.06,24.06,0,0,1-2.4,1,13.74,13.74,0,0,0-4.84,2.73c-3.63,3.59-2.53,9.27-1.64,13.84l.1.56c1.92,10,.09,17.1-4,26.77-2.28,5.45-5.21,9.7-8.71,12.63-5,4.23-11.45,5.68-16.7,3.79a5.27,5.27,0,0,1-3.58-4.3c-.29-3.07,2.75-5.11,5.7-7.08.51-.34,1-.68,1.49-1l1.66-1.13c3.72-2.5,7.57-5.09,5.26-10.54-.2-.46-3.76-8.53-16.64-16.26l1.49-2.6,13.18,7.56a1.23,1.23,0,0,0,.42.14,1.83,1.83,0,0,0,.33,0c1.57,0,3.26-1.59,3.84-2.86a2.11,2.11,0,0,0-.4-2.62,19,19,0,0,0-2-1.36l14.28-30.48c3,3.75,6.49,5.16,10.72,4.27a12.85,12.85,0,0,0,6.46-3.8c.8-.82,1.3-1,1.47-.9C222.61,227,223,228,223.08,228.51Zm-18.33,44.06a4.22,4.22,0,1,0-4.22,4.22A4.23,4.23,0,0,0,204.75,272.57Zm-4.67,11.79a4.22,4.22,0,1,0-4.22,4.22A4.22,4.22,0,0,0,200.08,284.36Zm-8.76,8.77a4.22,4.22,0,1,0-4.22,4.22A4.22,4.22,0,0,0,191.32,293.13Z"/><polygon class="cls-4" points="219.85 186.99 216.64 193.83 203.82 188.01 207.26 181.43 219.85 186.99"/><polygon class="cls-4" points="215.64 195.96 211.88 203.99 198.62 197.97 202.73 190.11 215.64 195.96"/><polygon class="cls-4" points="210.88 206.12 208.02 212.24 194.7 205.49 197.53 200.07 210.88 206.12"/><path class="cls-6" d="M209.06,172.89l-16.83,32.24a14.47,14.47,0,0,1-.58-11.18,28.85,28.85,0,0,1,2.29-4.54,38,38,0,0,0,2.16-4.16c1.33-3.17,1.81-7.61-.85-10.54a9.58,9.58,0,0,0-5.53-2.9,38.44,38.44,0,0,0-2.91-6.4,13.66,13.66,0,0,0,6-13.4,1.15,1.15,0,0,0-1-1h-.14l2-1.23A100.91,100.91,0,0,1,209.06,172.89Z"/><polygon class="cls-4" points="207.02 214.38 205.33 217.98 191.73 211.18 193.61 207.58 207.02 214.38"/><polygon class="cls-4" points="204.33 220.12 202.2 224.66 188.25 217.84 190.64 213.27 204.33 220.12"/><path class="cls-3" d="M200.53,268.35a4.22,4.22,0,1,1-4.22,4.22A4.23,4.23,0,0,1,200.53,268.35Zm1.86,4.22a1.86,1.86,0,1,0-1.86,1.87A1.86,1.86,0,0,0,202.39,272.57Z"/><path class="cls-4" d="M201.2,226.8l-14,29.8c-1.5-.87-3.24-1.82-4.91-2.73l.55-1,.27.15a1.23,1.23,0,0,0,.42.14,1.76,1.76,0,0,0,.33,0c1.57,0,3.26-1.6,3.84-2.87a2.13,2.13,0,0,0-.4-2.62c-1.36-1.16-6.76-4.14-11.27-6.55l11.09-21.26Z"/><path class="cls-3" d="M195.86,280.14a4.22,4.22,0,1,1-4.22,4.22A4.22,4.22,0,0,1,195.86,280.14Zm1.86,4.22a1.86,1.86,0,1,0-1.86,1.86A1.86,1.86,0,0,0,197.72,284.36Z"/><path class="cls-6" d="M193.58,149.8l-2,1.23a1.16,1.16,0,0,0-1.08.72,13.61,13.61,0,0,1-2.94,4.88c-1.14,1-3,1.7-4.41,1-1.64-.89-2-3.33-1.51-5.29a20.82,20.82,0,0,1,1.37-3.56,26.63,26.63,0,0,0,1.35-3.33,13.87,13.87,0,0,0,.51-3.07A43.8,43.8,0,0,1,193.58,149.8Z"/><path class="cls-3" d="M190.94,154.43l.53,3s-1.16,3.39-6,7.4-11.82-.45-11.82-.45l-3,6.15-3,3.89s-.72,3.86-.72,4.29,2.59,3.6,2.59,3.6l2.22,4.52a26.35,26.35,0,0,1,0,5.79c-.35,3-5.16,4.41-5.16,4.41l-2.05.84a4.86,4.86,0,0,0-2.11,2.71c-.59,1.9,2.29,5.55,2.29,5.55s.89,4.13,1,5.11-2.41,3.74-3.74,5.52-6.86.62-6.86.62l-3.74.58L150,219.72l.09,2.94,3.25,1.51,2.9.49-.36,1.12a27.09,27.09,0,0,1-2,2.22c-.23.09-3.69,1.07-4,1.07s-3.29-.44-3.29-.44l-4.1,4.9-2.82,2.22h-3.22l4.35-6.95.17-2.67-2.22-2.68a11.67,11.67,0,0,1-6-2.57c-3.2-2.46,0-5.86,0-5.86l1-2.24c1.09-4.26-6.5-5.62-6.5-5.62a4.72,4.72,0,0,1-4.39-3.17c-1.25-3.28,2.69-6.94,2.69-6.94s4-2.45,4.46-5-1.16-2.31-5-5.7-2.76-9.62-2.76-9.62l2.49-2.34,2.5-1.22,1.15-1.16.36-2.76-1.25-5.42,1.52-1.35,3.29-.62,1.4-1.39-2.38-8.41.89-3.47,2.32-3.58,2,1.26a14.2,14.2,0,0,0,3.34.59c.82-.11,1-2.46.62-3.78a5,5,0,0,0-2-2.24v-2.18l.33-1.77.75-.51,3.33,2.28,1.09-1.62.71-1.89a17.15,17.15,0,0,0-.8-2.15c-.26-.45-2.09.17-2.09.17l-3.65,2,.33-8.74,2-.45c2.7-1.51,3.81-4.28,3.81-7.48s-5-4.72-5-4.72l.62-3.66,2-1.13.67-2.14-.67-3.14s4.68-4.63,5-9.44S143,89.58,143,89.58l-9.87,3,3.14-10.47c-.24-.32-2.54-10.38-2.54-10.38L131.4,70c-6.72-2.85-13.6-16.46-13.6-16.46l-4.13,1.3-6.2,3.5h-.36L110.05,52l2.26-1.18L117,49l6.42-4.81L128.67,43l7.22-.8,4,1.39,4.9,4.4,6.2,5.54,6.59,2.72,6.86,2.36,2.05,3.1,3.29,4.72,1.16,8.1,4.9,4.79a45.87,45.87,0,0,1,1.43,6.59c.18,2.3-1.61,5.55-1.61,5.55a69.57,69.57,0,0,0-3.74,6c-.35,1,1.43,2.53,1.43,2.53l5,.62,5-.8.09,1.43-2,2.85-2.22,2.1s1.78,3.69,2.67,5.47,0,6,0,6L179.89,121l-2.58,2.46s-1.61,3.87-1.61,4.93,4.89,4.08,4.89,4.08a45.15,45.15,0,0,1,3.13,7.59c1.07,3.75-2.58,9.71-2.58,9.71l-1.07,4.55,1.07,3.29,3.2,1.43,3.3-.95Zm-30.82-75a1.17,1.17,0,0,0,.49-1.59,1.18,1.18,0,0,0-1.59-.49,14.92,14.92,0,0,1-12.56.61,1.18,1.18,0,1,0-.9,2.18,17.24,17.24,0,0,0,14.56-.71ZM155,87a1.19,1.19,0,0,0,.86-1.43,1.2,1.2,0,0,0-1.43-.86,7.17,7.17,0,0,1-7-2.21,1.18,1.18,0,0,0-1.78,1.55,9.65,9.65,0,0,0,7.18,3.21A8.83,8.83,0,0,0,155,87Zm-11.1-23.39a1.18,1.18,0,0,0-.68-2.26,10.48,10.48,0,0,1-5.61.28,5.92,5.92,0,0,1-4-3.18,1.18,1.18,0,0,0-2.17.93A8.27,8.27,0,0,0,137,64a10.85,10.85,0,0,0,2.75.35A14.47,14.47,0,0,0,143.93,63.65Zm-4-5.62a1.18,1.18,0,1,0-.56-2.29,8.32,8.32,0,0,1-5.89-.78A1.18,1.18,0,1,0,132.33,57a10.68,10.68,0,0,0,5.11,1.29A10.83,10.83,0,0,0,139.91,58Zm-23.86-4.64c-.24-.42-.51-.81-.75-1.23a1.18,1.18,0,0,1,.16-1.35l-.67.15c-.3.06-.61.12-.92.21-2.39.67-4,2.6-5.31,5.07a14.85,14.85,0,0,1,6.71-3A1.07,1.07,0,0,1,116.05,53.39Z"/><path class="cls-4" d="M191,207.5l-17,32.58-1.19-.62a2.89,2.89,0,0,0-3.64.71,4.62,4.62,0,0,0-.8,1.54,3.28,3.28,0,0,0,1.52,3.75l13,7.45-.55,1c-2.16-1.17-4.22-2.26-5.59-3a2.9,2.9,0,0,0-3.64.7,4.92,4.92,0,0,0-.8,1.54,3.27,3.27,0,0,0,1.52,3.75l.09.05-1.49,2.6a83.29,83.29,0,0,0-17.91-7.88,2.12,2.12,0,0,1-1.27-1,1.5,1.5,0,0,1-.1-1.16c1-3.18,3.55-6.39,7.49-9.55,1-.83,2.11-1.63,3.19-2.44,3.29-2.46,6.7-5,9.14-8.47,3.07-4.34,4.23-9.55,5.35-14.58.55-2.44,1.11-5,1.88-7.33.58-1.77,1.46-3.95,3.17-5.09a4.11,4.11,0,0,1,3-.54,4.27,4.27,0,0,1,2.68,1.88,15.87,15.87,0,0,0,1.5,3.7A1.12,1.12,0,0,0,191,207.5Z"/><path class="cls-3" d="M187.1,288.91a4.22,4.22,0,1,1-4.22,4.22A4.22,4.22,0,0,1,187.1,288.91Zm1.86,4.22A1.86,1.86,0,1,0,187.1,295,1.87,1.87,0,0,0,189,293.13Z"/><path class="cls-4" d="M189.55,260.8a3.5,3.5,0,0,1-1.57,1.48l-13-7.44a.89.89,0,0,1-.43-1,2.43,2.43,0,0,1,.39-.77.5.5,0,0,1,.38-.15.7.7,0,0,1,.31.07C181.34,256,187.84,259.52,189.55,260.8Z"/><path class="cls-4" d="M188.11,174.53a23.21,23.21,0,0,1-3.33,4.3,2.91,2.91,0,0,1-1.63,1h0c-.83,0-1.59-1.18-2.1-2.06L174.86,167a1.2,1.2,0,0,0-.69-.55c0-.15.07-.3.11-.45a8.69,8.69,0,0,0,5.28,1.69,11.07,11.07,0,0,0,4-.72c.41-.12.81-.27,1.21-.43A35.73,35.73,0,0,1,188.11,174.53Z"/><path class="cls-4" d="M185.61,249.37a3.5,3.5,0,0,1-1.57,1.48l-13-7.44a.89.89,0,0,1-.43-1,2.38,2.38,0,0,1,.39-.76.56.56,0,0,1,.69-.08C177.41,244.54,183.91,248.09,185.61,249.37Z"/><path class="cls-6" d="M179,179h0a.75.75,0,0,0-.18.13,25.78,25.78,0,0,0-5.51,10.28,8.57,8.57,0,0,0-.35-2.63,19.19,19.19,0,0,0-2.35-4.43c-1.27-2-2.48-3.81-2.17-5.77a9.12,9.12,0,0,1,2.27-4c.35-.43.7-.86,1-1.3a17.63,17.63,0,0,0,1.48-2.46Z"/><path class="cls-5" d="M177.13,276.34c.07,0,.19.12.16.22s-.7.93-2.86,1-3.83.08-5.72.13l-2.4.07a1.18,1.18,0,0,0,0,2.36h0l2.41-.07c1.87-.06,3.62-.11,5.68-.14.26,0,.46,0,.7-.05-.41.74-4,1.37-8.72,1.37-1.24,0-2.55,0-3.9-.14-14.87-1-31.73-2.2-45.95-9.3a98.47,98.47,0,0,1-12.78-7.95c-2.56-1.81-5.36-3.87-8.22-6.14a28.17,28.17,0,0,1,9.28-12.06,108.82,108.82,0,0,0,27.53,15.47c1.77.64,14.43,3.75,16.53,3.91,1.44.11,2.88.25,4.32.4,4.26.44,8.67.9,13,.22a3.43,3.43,0,0,1,1.08,0l0,.14c-.23,1-2.9,1.5-8,1.39l-1.06,0a1.18,1.18,0,0,0,0,2.36l1,0c.6,0,1.27,0,2,0s1.11,0,1.68-.05a1.12,1.12,0,0,0,.59.19c.71,0,10.1.78,11.93,1a1.85,1.85,0,0,1-.85.74c-2.85,0-3.36,0-4.25,0-.64,0-1.47,0-3.5,0a1.18,1.18,0,0,0,0,2.36c2,0,2.82,0,3.46,0l1.74,0h2.58a3.39,3.39,0,0,0,2.18-1.06,1.07,1.07,0,0,1,.4.22.94.94,0,0,1-.26.49,3.53,3.53,0,0,1-2.62,1.1l-3.72,0c-1.28,0-2,0-4,0a1.15,1.15,0,0,0-1.21,1.16,1.18,1.18,0,0,0,1.16,1.2l2.23,0,1.87,0,3.69-.05a6.29,6.29,0,0,0,2.62-.59A.54.54,0,0,0,177.13,276.34Z"/><path class="cls-6" d="M172.18,193.87c0-.06,0-.13.09-.2-.55,2.85-.88,5.76-1.19,8.57-.22,2-.45,4.11-.77,6.14a19.11,19.11,0,0,1-1.58,5.76c-2.17,4.3-6.93,6.68-12,8.94a1.33,1.33,0,0,0-.43.35,7.59,7.59,0,0,1-3.66-.52,3.13,3.13,0,0,1-1.54-1.74,1.64,1.64,0,0,1,.05-1.28c.6-1.16,2.15-1.14,4.63-1,.79.05,1.57.1,2.3.08A9.31,9.31,0,0,0,166,206.44a16.53,16.53,0,0,0-1.2-2.11,14.25,14.25,0,0,1-1.06-1.87c-.42-1-.56-2.3.13-3a4.35,4.35,0,0,1,2-.78c.3-.07.6-.14.9-.23A9.23,9.23,0,0,0,172.18,193.87Z"/><path class="cls-1" d="M160.61,77.83a1.17,1.17,0,0,1-.49,1.59,17.24,17.24,0,0,1-14.56.71,1.18,1.18,0,1,1,.9-2.18A14.92,14.92,0,0,0,159,77.34,1.18,1.18,0,0,1,160.61,77.83Z"/><path class="cls-1" d="M155.89,85.61A1.19,1.19,0,0,1,155,87a8.83,8.83,0,0,1-2.17.26,9.65,9.65,0,0,1-7.18-3.21,1.18,1.18,0,0,1,1.78-1.55,7.17,7.17,0,0,0,7,2.21A1.2,1.2,0,0,1,155.89,85.61Z"/><path class="cls-5" d="M145.36,92.41a11.07,11.07,0,0,1-3.85,10.69,1.24,1.24,0,0,0-.3.35,3.86,3.86,0,0,0-1.9-.52,3.15,3.15,0,0,0-.44,0l-.21-1.38a1.6,1.6,0,0,0,.93-.78,2.19,2.19,0,0,0,.17-1.29l-.34-2.57,2.91-1.4a1.18,1.18,0,0,0-.77-2.21l-.47-2c.62-.16,1.25-.31,1.88-.44a2.05,2.05,0,0,1,1.59.3A1.79,1.79,0,0,1,145.36,92.41Z"/><path class="cls-1" d="M144.72,62.18a1.18,1.18,0,0,1-.79,1.47,14.47,14.47,0,0,1-4.14.65A10.85,10.85,0,0,1,137,64a8.27,8.27,0,0,1-5.55-4.53,1.18,1.18,0,0,1,2.17-.93,5.92,5.92,0,0,0,4,3.18,10.48,10.48,0,0,0,5.61-.28A1.18,1.18,0,0,1,144.72,62.18Z"/><path class="cls-3" d="M142.88,94a1.18,1.18,0,0,1-.55,1.57l-2.91,1.4.34,2.57a2.19,2.19,0,0,1-.17,1.29,1.6,1.6,0,0,1-.93.78l-.18,0a1.27,1.27,0,0,1-.28,0,1.41,1.41,0,0,1-.95-.36,1.18,1.18,0,0,1-.09-1.66.91.91,0,0,1,.21-.18l-.4-3a1.19,1.19,0,0,1,.66-1.22l3.67-1.76a1.14,1.14,0,0,1,.26-.09A1.18,1.18,0,0,1,142.88,94Z"/><path class="cls-5" d="M141.09,91.37l.47,2a1.14,1.14,0,0,0-.26.09l-3.67,1.76A1.19,1.19,0,0,0,137,96.4l.4,3a.91.91,0,0,0-.21.18,1.18,1.18,0,0,0,.09,1.66,1.41,1.41,0,0,0,.95.36,1.27,1.27,0,0,0,.28,0l.18,0,.21,1.38a3.94,3.94,0,0,0-.73,7.68s0,0,0,.08v2.19a7.2,7.2,0,0,0-.76,14.28l-.3,4c-1.21-.77-2.77-1.47-4-1.14a2.32,2.32,0,0,0-1.63,1.56c-.6,1.66-.54,4,1,5.22.89.71,2.48,1.18,5.11-.14l-.19,3.47a4,4,0,0,0-3.05,3.35c-6.22,5.59-3.81,10.8-2.35,13.93.1.21.2.43.29.65a35.34,35.34,0,0,1-24.32-13.58,1.2,1.2,0,0,0-.75-.43c4.14-3.07,7.83-6.75,9.06-11.89.36-2.65,1.12-9,.39-10.62-1.2-2.72-4.56-3.43-5.75-3.47l-11.1-.38c-.83,0-3.13-.5-3.92-1.5a1.17,1.17,0,0,1-.21-1s.78-5.55,1.47-10.68a10.56,10.56,0,0,0,3.25.51,11.09,11.09,0,0,0,8.43-3.8,1.18,1.18,0,0,0-.14-1.66,1.19,1.19,0,0,0-1.66.14,8.69,8.69,0,0,1-9.56,2.4c.11-.79.21-1.55.29-2.24a10.63,10.63,0,0,0,.11-2.9,11.73,11.73,0,0,0-2-4.47c-.89-1.42-1.63-2.67-1.54-4l4.92-5.2A17.84,17.84,0,0,0,102.5,79c1.17-2.47,1.15-5.14,1.13-7.73a18.38,18.38,0,0,1,.59-6,13,13,0,0,1,2.49-4.08c1.9-2.27,5-5.1,8.92-5.71a1.18,1.18,0,0,0,1-1.25A76,76,0,0,0,129.14,70a7.41,7.41,0,0,0,3.3,2.07,26,26,0,0,0,2.31,8.37c.08.18.18.35.27.53l-.19.81A96.29,96.29,0,0,1,132,92.43a1.19,1.19,0,0,0,1.59,1.47A46.58,46.58,0,0,1,141.09,91.37ZM122.31,76a1.18,1.18,0,0,0,.15-1.66,14.93,14.93,0,0,0-11.87-5.22,1.18,1.18,0,0,0,.11,2.36,12.53,12.53,0,0,1,10,4.38,1.22,1.22,0,0,0,.91.42A1.15,1.15,0,0,0,122.31,76Zm-3.55,6a1.13,1.13,0,1,0-2.19-.55A2.93,2.93,0,1,1,110.9,80a1.13,1.13,0,0,0-2.19-.55,5.18,5.18,0,0,0,2.51,5.8,5.1,5.1,0,0,0,1.25.5A5.19,5.19,0,0,0,118.76,82Z"/><path class="cls-3" d="M140.78,56.6a1.19,1.19,0,0,1-.87,1.43,10.83,10.83,0,0,1-2.47.29A10.68,10.68,0,0,1,132.33,57,1.18,1.18,0,1,1,133.46,55a8.32,8.32,0,0,0,5.89.78A1.19,1.19,0,0,1,140.78,56.6Z"/><path class="cls-6" d="M138.76,225c1.32,1.47,1.05,3.93.1,5.6,0,.05-.07.09-.09.14-4.59,1.34-8.39,4.84-10.73,10a36,36,0,0,0-3.15,14.6,111.94,111.94,0,0,1-19.23-12c-1.56-20.61-5-65.68-5-65.68a1.21,1.21,0,0,0-.71-1,1.18,1.18,0,0,0-1.21.17c-4.33,3.52-7,8.42-9.1,12.76a51.51,51.51,0,0,0-4.82,14.57c-2.38,16.56,7.69,31.38,18.19,40a30.51,30.51,0,0,0-9.28,12,98.93,98.93,0,0,1-15.38-15.38c-5.38-6.89-11.92-17.88-12.54-31.15a55.86,55.86,0,0,1,2.82-19.27,77.39,77.39,0,0,1,30.81-41c.78-.52,1.57-1,2.38-1.56,1.33-.86,2.7-1.75,4-2.69a1.15,1.15,0,0,0,.22.92,37.63,37.63,0,0,0,26.41,14.49,5.21,5.21,0,0,1-1.66.44,5.59,5.59,0,0,0-3.24,1.27c-1.73,1.69-1,4.14-.44,6.11s.77,3.05.11,3.51a3.12,3.12,0,0,1-1,.35l-.61.16a7.48,7.48,0,0,0-5.06,6.44,9.4,9.4,0,0,0,3,7.51,20,20,0,0,0,2.16,1.73,17.77,17.77,0,0,1,1.92,1.55c.92.88,1.77,2.26,1.41,3.5s-1.55,1.85-3,2.64a14.83,14.83,0,0,0-2.54,1.67,6.76,6.76,0,0,0-2.11,5.78,5.26,5.26,0,0,0,2.71,4.14,8.94,8.94,0,0,0,2.6.75l.55.11a7.26,7.26,0,0,1,4.27,2.16,3.33,3.33,0,0,1,.47,3.81,6.41,6.41,0,0,1-.48.58,5.72,5.72,0,0,0-1,1.31,3.68,3.68,0,0,0-.16,2.88,6.56,6.56,0,0,0,3.34,3.54,19.57,19.57,0,0,0,1.83.76A8.06,8.06,0,0,1,138.76,225Z"/><path class="cls-3" d="M122.46,74.34a1.18,1.18,0,0,1-.15,1.66,1.15,1.15,0,0,1-.75.28,1.22,1.22,0,0,1-.91-.42,12.53,12.53,0,0,0-10-4.38,1.18,1.18,0,0,1-.11-2.36A14.93,14.93,0,0,1,122.46,74.34Z"/><path class="cls-3" d="M117.94,80.62a1.13,1.13,0,0,1,.82,1.37,5.19,5.19,0,0,1-6.29,3.76,5.1,5.1,0,0,1-1.25-.5,5.18,5.18,0,0,1-2.51-5.8,1.13,1.13,0,0,1,2.19.55,2.93,2.93,0,1,0,5.67,1.44A1.13,1.13,0,0,1,117.94,80.62Z"/><path class="cls-3" d="M115.3,52.16c.24.42.51.81.75,1.23a1.07,1.07,0,0,0-.78-.17,14.85,14.85,0,0,0-6.71,3c1.27-2.47,2.92-4.4,5.31-5.07.31-.09.62-.15.92-.21l.67-.15A1.18,1.18,0,0,0,115.3,52.16Z"/><path class="cls-7" d="M317.87,55.72a.46.46,0,0,0,.07-.16.74.74,0,0,0,0-.21.67.67,0,0,0,0-.2.85.85,0,0,0-.06-.17.65.65,0,0,0-.09-.23,0,0,0,0,0,0,0s-.09-.08-.13-.13a.81.81,0,0,0-.12-.14c-9.32-7.17-20.87-5.06-29-.49.15-.53.25-.87.25-.88a1.16,1.16,0,0,0-.68-1.41l-8.44-8.31a1,1,0,0,0-.29-.19l-.06,0a1.6,1.6,0,0,0-.21-.05,1.16,1.16,0,0,0-1.05.27l-9.5,9a1.16,1.16,0,0,0-.37.82,1.07,1.07,0,0,0,.52,1.31l13.42,6.72a31.74,31.74,0,0,0,3.34,1.52,1,1,0,0,0,.38.07,1.07,1.07,0,0,0,.66-.24,1.15,1.15,0,0,0,.72-1.12,7.83,7.83,0,0,1,0-1.07,17.52,17.52,0,0,0,2,2.84,33.06,33.06,0,0,0,8.58,7.13,15.77,15.77,0,0,0,7.76,2.43,9.61,9.61,0,0,0,2.42-.31h0l.07,0a.6.6,0,0,0,.16-.08,1.63,1.63,0,0,0,.19-.09l.14-.15.14-.15c0-.06.05-.13.08-.2a1.06,1.06,0,0,0,.06-.19.74.74,0,0,0,0-.21,1.09,1.09,0,0,0,0-.18,17.63,17.63,0,0,0-9.06-12.32,39,39,0,0,0,3.91.46q.87.06,1.86.06a21.83,21.83,0,0,0,11.78-3.12h0l.05,0a.93.93,0,0,0,.14-.14,1.27,1.27,0,0,0,.13-.11,0,0,0,0,0,0,0A.76.76,0,0,0,317.87,55.72ZM279,45.71l7.41,7.3c-.18.62-.46,1.66-.74,2.86l-8.43-8.5ZM271,53.23l4.6-4.36,9.44,9.51.07,0c-.09.59-.17,1.17-.21,1.72-.62-.28-1.23-.58-1.83-.88Zm35.52,17.31c-2.19.27-4.75-.42-7.62-2.08a30.7,30.7,0,0,1-8-6.66,11.53,11.53,0,0,1-2.52-4.32C293,58.05,303.93,60.44,306.56,70.54Zm-2.65-13.38a59,59,0,0,1-12.08-2.45c6.87-3.18,15.63-4.31,23.05.51A21.65,21.65,0,0,1,303.91,57.16Z"/><path class="cls-8" d="M139.23,132.84l.44-5.79a7.2,7.2,0,0,0,.74-14.06v-2.43s0-.06,0-.08a4,4,0,1,0-2.33,0,.19.19,0,0,0,0,.08v2.19A7.2,7.2,0,0,0,137.3,127l-.31,4c-1.21-.78-2.77-1.48-4-1.15a2.37,2.37,0,0,0-1.64,1.56c-.59,1.67-.54,4,1,5.23.89.71,2.48,1.18,5.12-.14l-.2,3.47a4,4,0,1,0,2.36.16l.14-2.51a6,6,0,0,0,2.13,1.65,1.54,1.54,0,0,0,.55.1c.56,0,1.35-.28,2.11-1.49s1.66-4,.21-5.44S141,131.93,139.23,132.84Zm-2.14-26.12a2.14,2.14,0,1,1,2.14,2.14A2.14,2.14,0,0,1,137.09,106.72Zm-3.45,13.21a4.87,4.87,0,1,1,4.87,4.88A4.88,4.88,0,0,1,133.64,119.93Zm.16,14.95c-.5-.4-.6-1.56-.22-2.67l.12,0a8.06,8.06,0,0,1,3.4,1.88h0C135.3,135.17,134.22,135.21,133.8,134.88Zm4.37,10.76a1.68,1.68,0,1,1,1.67-1.67A1.67,1.67,0,0,1,138.17,145.64Zm4.2-8.68a10.9,10.9,0,0,1-1.9-2.1c2-1,2.57-.7,2.6-.68s.11.21.12.43A4.15,4.15,0,0,1,142.37,137Z"/><path class="cls-8" d="M148,208.09h-.14a1.17,1.17,0,0,1-1-1.29,10,10,0,0,1,6.37-8.07l.8-.26a4.72,4.72,0,0,0,1.72-.78c1-.89.74-2.74.58-3.5a26.34,26.34,0,0,0-1.09-3.41A26.6,26.6,0,0,1,154,187c-.57-2.64-.27-6.14,2.27-8a10.18,10.18,0,0,1,2.24-1.16,6.8,6.8,0,0,0,1.88-1c1.37-1.19,1.32-3.5,1-5.22a51.12,51.12,0,0,0-1.24-5.21c-1.07-3.87-2.17-7.88-1.14-11.93a1.17,1.17,0,0,1,2.26.58c-.87,3.45.1,7,1.13,10.73a52.05,52.05,0,0,1,1.29,5.45c.54,3.32-.09,5.87-1.81,7.36a8.8,8.8,0,0,1-2.53,1.4,8.21,8.21,0,0,0-1.73.86c-1.66,1.24-1.78,3.83-1.38,5.67a23.19,23.19,0,0,0,1.09,3.41,28,28,0,0,1,1.18,3.73c.53,2.45.05,4.55-1.31,5.75a6.65,6.65,0,0,1-2.58,1.26l-.7.23a7.59,7.59,0,0,0-4.84,6.13A1.16,1.16,0,0,1,148,208.09Z"/><path class="cls-8" d="M169.24,94.08a1.16,1.16,0,0,0-1.59.45,11.49,11.49,0,0,1-6.62,5c-.45.15-.9.27-1.36.39.07-.08.15-.16.22-.25a10.82,10.82,0,0,0,2.69-8,1.17,1.17,0,1,0-2.33.2,8.34,8.34,0,0,1-7.36,9l-.78,0a1.17,1.17,0,0,0,.08,2.33h0a6.36,6.36,0,0,0,.87-.06h.13c-1.6,2.7-3.54,6.07-4.17,8.46a12.76,12.76,0,0,0,1,9.88,17.81,17.81,0,0,0,2.3,2.89,19.58,19.58,0,0,1,1.79,2.17c1,1.41,1.39,3.42.39,4.53a6.35,6.35,0,0,1-2.89,1.38c-1.76.54-3.77,1.16-4.42,3.27-.56,1.79.35,3.36,1.16,4.74.6,1.05,1.18,2,1,2.87s-.94,1.27-1.81,1.9a16.26,16.26,0,0,0-1.28,1,7.5,7.5,0,0,0-2.38,5.57,12.35,12.35,0,0,0,3.76,8.72c.55.54,1.15,1,1.74,1.54a15.42,15.42,0,0,1,2.78,2.75,7.34,7.34,0,0,1-1.31,9.53A16.27,16.27,0,0,1,148,176c-1.8.92-3.65,1.87-4.81,3.73-2.47,4,.07,8.86,3,11.86l.18.19a5.2,5.2,0,0,1,1.57,2.19c.23,1.1-.63,2.31-1.52,3.07-.49.41-1,.78-1.54,1.14a16,16,0,0,0-2.38,1.89,8.64,8.64,0,0,0,.66,12.21,16.34,16.34,0,0,0,1.34,1,5.51,5.51,0,0,1,2,1.85,1.17,1.17,0,0,0,1.06.66,1.14,1.14,0,0,0,.51-.11,1.19,1.19,0,0,0,.55-1.58,7.45,7.45,0,0,0-2.81-2.77,14.23,14.23,0,0,1-1.16-.83,6.3,6.3,0,0,1-.47-8.76,13.23,13.23,0,0,1,2-1.59c.59-.41,1.18-.83,1.73-1.29,1.82-1.56,2.67-3.56,2.29-5.35a7.05,7.05,0,0,0-2.19-3.35l-.18-.18c-2.52-2.58-4.33-6.36-2.69-9,.81-1.31,2.3-2.07,3.88-2.88a18.76,18.76,0,0,0,3.28-2,9.66,9.66,0,0,0,1.75-12.72,17.46,17.46,0,0,0-3.18-3.19c-.55-.46-1.11-.93-1.62-1.43a10,10,0,0,1-3-7,5.22,5.22,0,0,1,1.61-3.87,11.48,11.48,0,0,1,1.08-.84,6,6,0,0,0,2.7-3.24c.44-1.75-.44-3.27-1.22-4.62-.64-1.1-1.19-2.05-.94-2.87s1.26-1.22,2.86-1.71a8.16,8.16,0,0,0,4-2.06c1.89-2.1,1.23-5.32-.19-7.42a20.86,20.86,0,0,0-2-2.43,15.94,15.94,0,0,1-2-2.52,10.61,10.61,0,0,1-.74-8.07c.61-2.3,2.79-6,4.38-8.62l.41-.69a27.9,27.9,0,0,0,5.65-1.14,13.83,13.83,0,0,0,7.93-6A1.18,1.18,0,0,0,169.24,94.08Z"/></svg>