<svg id="Capa_1" data-name="Capa 1" xmlns="http://www.w3.org/2000/svg" viewBox="0 0 350 350"><defs><style>.cls-1{fill:#fff;}.cls-2{fill:#374972;}.cls-3{fill:#2d375a;}.cls-4{fill:#f4cdb0;}.cls-5{fill:#7d56c3;}.cls-6{fill:#449bac;}.cls-7{fill:#c5d0ef;}.cls-8{fill:#008d36;}</style></defs><rect class="cls-1" width="350" height="350"/><path class="cls-2" d="M161.21,67.78l2.58-4.29L176.73,56s-5.37-10.59-19.44-11.38-27.51,3.41-36,11.59S109.51,79,109.51,79L111,96.84s-4.5,10.6-4.87,11.19-2.4,12.14,2.25,19.46l2.56,3.12s4.56,3,4.56,8.38-.42,13.93,6.88,18.21c0,0,1,5.79.77,6.16s.73,4.75.73,4.75l2,3s7.08,2.75,7.22,6.25-3.66,7.4-3.66,7.4-2.23,5.11,3.66,8.1,7.93,6,7.93,6v2.75s3.35.38,4.6-4.85a11.89,11.89,0,0,0,7.87-.52,19.75,19.75,0,0,1-.37-4.5,14.33,14.33,0,0,0,2.5,2.5c1.12.75,6.25.75,6.25.75l-5.5-3-4.24-7.23V173.43L150.42,165l-2-4.13-3.63-3.66-4.18-1.84-1.44-3,1.9-7.25s1.4-6.87,0-9.75-4-7.62-4-7.62l-3.9-3.63s-1-6.55,0-10.15,3.36-9.75,3.36-9.75a32.16,32.16,0,0,0-1.33-6.85c-1-2.75-2-7.12-2-7.12s-.67-14.11,7.93-18.74,13.35-5.64,13.35-5.64Z"/><path class="cls-3" d="M289,153.26c1.81,12.43-3.91,26.25-14.59,35.21a48.09,48.09,0,0,1-30.59,10.95,45.12,45.12,0,0,1-10.1-1.12c-1.37-.36-11.53-3.15-16.83-5.86a139.85,139.85,0,0,1-2.52,29.08l13.12,41.18a1.35,1.35,0,0,1-.16,1.13c.06-.21.11-.41.16-.62l-2.86-.69-12.81-40.19-.1-.32a1.38,1.38,0,0,1,0-.67,137.75,137.75,0,0,0-3.34-66.3,1.28,1.28,0,0,1,0-.27A47.66,47.66,0,0,0,194.14,151c.12,18.11-5.2,26.81-9.72,30.94-4,3.65-9.11,5.49-15.25,5.49-1.14,0-2.32-.07-3.53-.19a27.33,27.33,0,0,1-12.09-4.41,22.21,22.21,0,0,0,.66,2.88c1.31,4.22,5.11,8.42,9.54,7.91a1.34,1.34,0,0,1,.31,2.66,9.2,9.2,0,0,1-1,.06c-5.41,0-9.83-4.9-11.36-9.84a39.78,39.78,0,0,1-1.3-10.63c0-1.59-.09-3.24-.23-4.83-.31-3.4-1.49-9.48-6-12.06-.44-.25-.91-.47-1.37-.7a12.19,12.19,0,0,1-2.84-1.68,13.41,13.41,0,0,1-.09,4.15,8.31,8.31,0,0,0,.08,4.05c.54,1.34,1.9,2.25,3.35,3.22a13.17,13.17,0,0,1,3.74,3.26,8.43,8.43,0,0,1,1.46,4.56,25.83,25.83,0,0,1-.38,4.94,27,27,0,0,0-.37,4.36,10.91,10.91,0,0,0,7.18,9.67,1.33,1.33,0,0,1-.42,2.6,1.25,1.25,0,0,1-.43-.07,13.2,13.2,0,0,1-6.36-4.68,13.35,13.35,0,0,1-2.64-7.44,28.65,28.65,0,0,1,.4-4.81c.4-2.87.78-5.58-.63-7.59a11,11,0,0,0-3-2.58c-1.72-1.15-3.49-2.34-4.34-4.45a10.57,10.57,0,0,1-.25-5.39,8.48,8.48,0,0,0-.08-4c-.55-1.41-2-2.35-3.54-3.34a15.89,15.89,0,0,1-3.5-2.76c-2.17-2.49-2.49-5.67-2.8-8.75a18,18,0,0,0-1.3-6.11,17.11,17.11,0,0,0-2.1-3.07,15.3,15.3,0,0,1-2.84-4.62c-.87-2.58-.43-5.19,0-7.71.09-.58.19-1.15.27-1.73a57.15,57.15,0,0,0,0-11.25l-.14-2.13c-.17-2.88-.28-6-.18-9.35a49.67,49.67,0,0,1,4.31-19.71C129.21,67.63,138,59.4,148.68,59.4H149A37.24,37.24,0,0,1,162.69,63a30,30,0,0,1,6.7-4.52c-6.07-4.34-13.86-6.57-20.4-5.73a38.23,38.23,0,0,0-20.42,9.93,31.14,31.14,0,0,0-6.36,7.76c-3.76,6.74-4,14.51-4.17,22.73,0,.78,0,1.56-.07,2.35a80.47,80.47,0,0,1-1,11.61c-.24,1.36-.54,2.74-.84,4.13-1.16,5.33-2.35,10.84,0,15.32a21.61,21.61,0,0,0,1.64,2.52,21.35,21.35,0,0,1,2,3.15,22.41,22.41,0,0,1,1.76,7.73c.31,2.91.6,5.65,2.12,7.79a16.8,16.8,0,0,0,3.29,3.15l.67.54a12.59,12.59,0,0,1,3.94,4.63,14.77,14.77,0,0,1,.79,6.3c0,2.09-.09,4.06.83,5.59a10.62,10.62,0,0,0,3.52,3.09c1.81,1.2,3.67,2.43,4.63,4.58,1.15,2.56.48,5.18-.16,7.73-.55,2.17-1.07,4.22-.35,5.93.59,1.42,2,2.44,3.45,3.52q.7.51,1.38,1.05c2.23,1.79,4.34,4.95,2.94,7.94a1.33,1.33,0,0,1-1.21.77,1.46,1.46,0,0,1-.57-.12,1.34,1.34,0,0,1-.64-1.78c.69-1.48-.65-3.49-2.2-4.73-.41-.33-.85-.65-1.29-1-1.61-1.19-3.45-2.53-4.33-4.64-1.06-2.53-.41-5.12.23-7.62.55-2.2,1.08-4.27.31-6-.64-1.44-2.11-2.41-3.67-3.44-.4-.26-.81-.53-1.21-.81a10.65,10.65,0,0,1-3.13-3.14c-1.31-2.19-1.26-4.65-1.21-7a12.21,12.21,0,0,0-.57-5.18c-.71-1.65-2.22-2.86-3.82-4.15a18.9,18.9,0,0,1-3.8-3.68c-1.92-2.71-2.26-5.94-2.6-9.06-.1-.93-.19-1.83-.33-2.71a13.91,13.91,0,0,0-1.17-4.12,18.68,18.68,0,0,0-1.77-2.77,24.52,24.52,0,0,1-1.83-2.83c-2.83-5.34-1.53-11.34-.27-17.13.29-1.36.58-2.71.82-4a94.05,94.05,0,0,0,1-13.57c.21-8.18.42-16.64,4.5-24a33.61,33.61,0,0,1,6.9-8.43,40.9,40.9,0,0,1,21.88-10.61c7.62-1,16.74,1.79,23.48,7.1,1-.43,2-.84,3-1.26-4.84-7-14.66-10.39-22.65-10.57-4.85-.14-10.12,1.12-16.52,3.87-6.73,2.9-12,6.22-16,10.16-9.43,9.28-8.91,19.86-8.26,33.27.06,1.34.13,2.7.19,4.08s-.67,2.92-1.66,5.2c-2.46,5.63-6.18,14.16-1.76,23.81a13.54,13.54,0,0,0,3.45,4,16.68,16.68,0,0,1,4,4.66,11.11,11.11,0,0,1,1,3.27,29.68,29.68,0,0,1,.19,5.81c-.1,3.33-.2,6.48,1.7,8.62a13,13,0,0,0,1.91,1.63,10.31,10.31,0,0,1,3.16,3.21c1,1.9.86,4,.72,5.9a9.63,9.63,0,0,0,.26,4.17c.68,1.7,2.5,2.85,4.42,4.08.78.49,1.58,1,2.32,1.57a7.09,7.09,0,0,1,3.19,5.11c.17,2.4-1.19,4.38-2.39,6.14-1.07,1.56-2.08,3-1.9,4.52.25,2,2.56,3.23,3.55,3.68.58.27,1.19.51,1.79.75a16.32,16.32,0,0,1,4.48,2.35c2.2,1.8,3.46,5.26,1.66,7.72a1.32,1.32,0,0,1-1.08.54,1.37,1.37,0,0,1-.79-.25,1.35,1.35,0,0,1-.29-1.87c.84-1.14,0-3.06-1.19-4.07a13.94,13.94,0,0,0-3.77-1.93c-.65-.26-1.3-.52-1.94-.81-3-1.38-4.78-3.43-5.07-5.78s1.1-4.55,2.34-6.36c1-1.53,2-3,1.93-4.44-.14-2-2.06-3.2-4.27-4.61a29.27,29.27,0,0,1-2.85-2c-3.58,18.56-.92,40.47,7,57.52a1.28,1.28,0,0,1,.1.82l-8.33,42.17.19.08a21.53,21.53,0,0,1-3.56-1.51l.86.37,8.14-41.2a99.61,99.61,0,0,1-8.57-36.77,50.58,50.58,0,0,0-18.06,11c-3.56,3.3-8.13,8.76-9.72,16a33,33,0,0,0-.65,7.61,49.34,49.34,0,0,0,24.23,41,1.35,1.35,0,0,0-1,.57h0a1.19,1.19,0,0,0-.15.35l-.11.08-.77.87a52.12,52.12,0,0,1-24.83-42.81,34.93,34.93,0,0,1,.71-8.22C91.9,213,95.54,207,101,201.9a52.62,52.62,0,0,1,19.8-11.81,93.11,93.11,0,0,1,1.82-20.49,1.45,1.45,0,0,1,.28-.57,7.23,7.23,0,0,1-.51-1,11.45,11.45,0,0,1-.44-5.37c.12-1.65.24-3.22-.41-4.42a4.76,4.76,0,0,0-.82-1,1.34,1.34,0,0,1-.31.22c-2.5,1.12-5,2.28-7.31,3.46-31.25,15.74-46.4,36-46.31,61.78,0,11.34,7.53,40.84,38.9,57.4a1.36,1.36,0,0,0,.35,1.22,37.08,37.08,0,0,0,4.21,3.72l-.43.05c-37.06-16.48-45.65-49.92-45.7-62.38-.09-26.57,16-48.16,47.78-64.18,2.11-1.06,4.32-2.1,6.55-3.11a12.69,12.69,0,0,1-1.64-1.49c-2.59-2.94-2.47-6.77-2.36-10.47.09-2.87.17-5.58-.94-7.8a14.2,14.2,0,0,0-3.38-3.88,15.94,15.94,0,0,1-4.07-4.91c-4.92-10.75-.75-20.3,1.74-26a16.11,16.11,0,0,0,1.44-4c-.06-1.38-.13-2.73-.19-4.06-.66-13.52-1.23-25.19,9-35.31,4.24-4.17,9.73-7.68,16.78-10.71,6.77-2.9,12.35-4.19,17.63-4.08,9.12.21,20.5,4.3,25.56,13,8.56,6,13.9,17.75,12.81,28.16l7.37,6.11a2.73,2.73,0,0,1,.84,1,2.81,2.81,0,0,1,.11,1.78,29.66,29.66,0,0,1-3.23,8.77c1,5.43,3.52,20.82-.63,23.56-2.61,1.73-9.45,2.46-12.52,2.47h-.43c-2.76,0-4,0-5.52,1.72a9.81,9.81,0,0,0-1.06,5.7l.08.51c.28,1.92.56,3.83.9,5.74a11,11,0,0,0,.93,3.27,7.41,7.41,0,0,0,5.18,3.32,27.35,27.35,0,0,0,5.5.36h1.75a49.89,49.89,0,0,1,26,7.92l3.24,2.46c4.78,3.93,10,7.88,15.69,10.38,6.19,2.7,12.52,3.38,17.83,1.91,6-1.67,10.88-6.42,12.06-11.82a19.87,19.87,0,0,0-1.15-10.84,35.21,35.21,0,0,0-5.06-9.41c-4.35-5.77-10.78-10.66-20.23-15.4a30.14,30.14,0,0,0-3.55-1.37c-2.77-1-5.63-1.94-7.38-3.87-2.09-2.31-3.58-6-2.6-9.38l-2.09-.39a9.9,9.9,0,0,1-1.86.79,10.16,10.16,0,1,1,.78-19.14l-.15.36c-.68-.21-3.71-.55-3.71-.55L215.44,91s-3.47,1.81-3.82,2.09A19.42,19.42,0,0,0,210,95.86l-1.32,4.49,3.45,5.46,3.4,1.57s4.17.29,4.68-.08,3.47-1.76,3.47-1.76l1.69.95,7.24-.41,1.08-.33.08,0,.68-.27,2,4.85,29.29,6.79.17-.64,1.37.36c10.69,8,17.44,21.65,19.54,27.88A48.16,48.16,0,0,1,289,153.26Zm-16.31,33.16c10-8.37,15.35-21.24,13.66-32.78a45.58,45.58,0,0,0-2.05-8c-2-5.9-8.32-18.71-18.31-26.37a1.27,1.27,0,0,1-.55.13,1.15,1.15,0,0,1-.31,0l-26.86-6.4a3.87,3.87,0,0,1-.81,1.92c-1.48,1.85-4.29,1.93-5.43,1.68a9,9,0,0,1-3.46-1.74,9.47,9.47,0,0,0,1.07,1.46c1.29,1.42,3.82,2.29,6.27,3.14a31.77,31.77,0,0,1,3.88,1.51c9.83,4.93,16.56,10.07,21.16,16.18a37.81,37.81,0,0,1,5.45,10.12,22.45,22.45,0,0,1,1.24,12.31c-1.4,6.44-6.88,11.87-14,13.83a24.58,24.58,0,0,1-6.54.85A32.85,32.85,0,0,1,234,171.3c-6-2.63-11.39-6.72-16.28-10.73l-3.12-2.37c-1-.67-2.08-1.29-3.17-1.87a139.78,139.78,0,0,1,5.29,33c3.39,2.27,13.7,5.36,17.57,6.4A45.23,45.23,0,0,0,272.66,186.42Zm-37.31-73.25c.55-.68.15-1.92-.27-2.84-1.6-3.46-5.88-2.14-7.22-1.62a4.68,4.68,0,0,0-.39,1.27l0,0c.72.93,3,3.46,5.09,3.91A3.43,3.43,0,0,0,235.35,113.17Zm-38.73-21q0-.09,0-.15l-.06,0-7.8-6.47a1.31,1.31,0,0,1-.47-1.08,1.34,1.34,0,0,1-.08-.63c1.11-9.42-3.64-20.1-11.32-25.71l-.59.24c-4.56,1.86-8.52,3.48-12.29,7a184.79,184.79,0,0,0-8.72,28.8c.22.46,0,.75-.39,1.2a1.41,1.41,0,0,1-1.93,0,2.2,2.2,0,0,1-.2-.23c-.22-.23-.73-.74-1.84-1.82a7.49,7.49,0,0,0-5.27-1.86,4.39,4.39,0,0,0-3.18,2.47,9.84,9.84,0,0,0-.85,4.75,13.77,13.77,0,0,0,1.57,6.42,8.06,8.06,0,0,0,4.7,3.9,1.33,1.33,0,0,1,1,1.28l.1,14a56.89,56.89,0,0,1,.92,10.72,22.13,22.13,0,0,1-1.53,9.34,10.07,10.07,0,0,1-7.49,6.11,4.26,4.26,0,0,0,.17,3.56,6.69,6.69,0,0,0,2.82,1.93c.53.25,1.06.5,1.56.79,4.12,2.36,6.73,7.38,7.33,14.14.15,1.67.2,3.36.25,5,0,1.23.07,2.44.15,3.63,4.56,3,7.9,4.65,12.73,5.16,7,.73,12.56-.83,16.7-4.61s9-11.93,8.84-29.17l-1.31-.05h-1.7a28.17,28.17,0,0,1-6-.41,10,10,0,0,1-7-4.67,12.89,12.89,0,0,1-1.22-4.08c-.33-1.93-.62-3.87-.91-5.81l-.07-.5a12.41,12.41,0,0,1,1.45-7.56l.12-.16c2.31-2.77,4.67-2.77,7.65-2.78h.42c3.71,0,9.35-.89,11.06-2,.87-.57,1.18-3.23,1.09-6.84a22.72,22.72,0,0,1-2.4.15c-7,0-10.76-3.49-12-7.16a1.32,1.32,0,0,1,1.15-1.74l12.28-1.1c-.23-1.54-.49-3.1-.78-4.62a1.3,1.3,0,0,1,.16-.92A27.43,27.43,0,0,0,196.62,92.14Zm-1.75,21.12c-.1-1.44-.25-3-.44-4.53l-10.48.93C185.55,112.05,189,113.9,194.87,113.26ZM160.91,66c.1-.26.2-.52.31-.78A34.59,34.59,0,0,0,149,62.08h-.3c-9.57,0-17.43,7.46-21,14.93-4.35,9.11-4.36,19.61-3.87,27.74l.13,2.11a57.46,57.46,0,0,1,0,11.8c-.08.59-.18,1.19-.28,1.8-.38,2.3-.74,4.47-.09,6.41a13.28,13.28,0,0,0,2.41,3.82,20.4,20.4,0,0,1,2.41,3.56,20.08,20.08,0,0,1,1.55,7c.28,2.79.54,5.42,2.15,7.26a13.62,13.62,0,0,0,2.94,2.27,18.14,18.14,0,0,1,3,2.25c-.25-2.06.56-4.22,1.26-6.06.16-.43.32-.86.47-1.28a16.47,16.47,0,0,0-4.06-16.84c-2.73-2.6-4.1-4.24-4.87-8a9.88,9.88,0,0,1,0-3.67,35.72,35.72,0,0,1,2.08-6.78,24.75,24.75,0,0,0,2.09-7.89c.07-1.52-.78-3.5-1.6-5.41a20.51,20.51,0,0,1-1.68-5.07,24.58,24.58,0,0,1,7.5-20.91,23,23,0,0,1,21.55-5.21Zm-7.07,27.79,7.38-26s-7.39-2.13-14,0S134,78.28,133.32,84s2,14.08,2,14.08l1.16,6.1s-2.56,10.73-3.28,11.4,4.12,5,4.12,5,5.85,2.28,6.87,2,3.56,1.52,3.56,1.52L147.26,111s-6.16-5-6.65-11.63S143,90.78,143,90.78l2.78-1S151.34,90.94,153.84,93.78ZM146,143.18a20.07,20.07,0,0,0,1.29-8.23,55.73,55.73,0,0,0-.76-9.54l-1.3-.37c-4.3-1.19-7.79-2.16-11.88-5.85a5.86,5.86,0,0,0,.1,1.15c.63,3,1.62,4.23,4.09,6.59a19,19,0,0,1,4.74,19.65c-.08.25-.18.51-.28.76A8.17,8.17,0,0,0,146,143.18Z"/><path class="cls-4" d="M286.32,153.64c1.69,11.54-3.68,24.41-13.66,32.78a45.23,45.23,0,0,1-38.33,9.29c-3.87-1-14.18-4.13-17.57-6.4a139.78,139.78,0,0,0-5.29-33c1.09.58,2.15,1.2,3.17,1.87l3.12,2.37c4.89,4,10.25,8.1,16.28,10.73a32.85,32.85,0,0,0,13.08,2.89,24.58,24.58,0,0,0,6.54-.85c7.07-2,12.55-7.39,14-13.83a22.45,22.45,0,0,0-1.24-12.31,37.81,37.81,0,0,0-5.45-10.12c-4.6-6.11-11.33-11.25-21.16-16.18a31.77,31.77,0,0,0-3.88-1.51c-2.45-.85-5-1.72-6.27-3.14a9.47,9.47,0,0,1-1.07-1.46,9,9,0,0,0,3.46,1.74c1.14.25,3.95.17,5.43-1.68a3.87,3.87,0,0,0,.81-1.92l26.86,6.4a1.15,1.15,0,0,0,.31,0,1.27,1.27,0,0,0,.55-.13c10,7.66,16.32,20.47,18.31,26.37A45.58,45.58,0,0,1,286.32,153.64Z"/><path class="cls-3" d="M269.63,109.17a1.28,1.28,0,0,1,.06,1l-2.43,6.65-1.37-.36,1.78-6.88-18.33-4.54s-3.5,1.56-4,2.37-3.16-1-3.16-1l-3.82,1.73-4.28-3.52.35.87-.68.27,0,0h-.05l-1.08.33-5.39-5.6-1,.3.49-4.29s-2.95-3.48-3.09-3.7-1.62-2.21-1.77-2.43c0,0-.06,0-.13-.07l.15-.36a10.45,10.45,0,0,1,1,.44,10.09,10.09,0,0,1,4.67,5.2l1,.18A6,6,0,0,1,230.71,93a4.24,4.24,0,0,1,4.8.06,4.62,4.62,0,0,1,3.28-1.18,4.71,4.71,0,0,1,3.39,2.31c1.44,0,2.95.85,4.5,2.53l0,.08a5.19,5.19,0,0,1,1.93-.49c3.7-.13,5.09,3.73,6.55,7.82l.07.19,13.56,4.2A1.32,1.32,0,0,1,269.63,109.17ZM251,101.08l.11-.09c-.66-1.31-1.35-2-2.27-2h-.06c-1.67.06-3.95,2.52-4.52,4.86-.27,1.08-.1,1.8.49,2.14,1.71,1,2.87-.76,3-1A16.51,16.51,0,0,1,251,101.08Zm-6.45-2.77c-1-1-1.91-1.57-2.52-1.46C241,97,240.13,99,239.73,100a13,13,0,0,0-.85,5.47,1.68,1.68,0,0,0,1,.83c.43.08,1-.3,1.65-1a5.79,5.79,0,0,1,.15-2.12A10.74,10.74,0,0,1,244.52,98.31ZM239.6,95.2a1.86,1.86,0,0,0-1.06-.69,3.05,3.05,0,0,0-2,1.24,6,6,0,0,0-1.1,3.17,18,18,0,0,0,0,4.46,3.6,3.6,0,0,0,.78,1.11,14.58,14.58,0,0,1,1-5.47A10.35,10.35,0,0,1,239.6,95.2Zm-5.82-.1a1.61,1.61,0,0,0-1.62.11,4.22,4.22,0,0,0-1.5,2.41,9.06,9.06,0,0,0-.17,4.17,2.26,2.26,0,0,0,.94,1.45,1.89,1.89,0,0,0,1.31,0,20.83,20.83,0,0,1,0-4.67A10.11,10.11,0,0,1,233.78,95.1Z"/><path class="cls-3" d="M267.67,109.63l-1.78,6.88-.17.64-29.29-6.79-2-4.85-.35-.87,4.28,3.52,3.82-1.73s2.7,1.85,3.16,1,4-2.37,4-2.37Zm-3.1,6.83,2.13-5.83-16.19-5-.54.81a5.16,5.16,0,0,1-4.24,2.48,4.61,4.61,0,0,1-2.33-.64,3.68,3.68,0,0,1-.67-.48,4.37,4.37,0,0,1-2.79,1.16,3.27,3.27,0,0,1-.54,0,3.9,3.9,0,0,1-2.45-1.58c-.11,0-.21,0-.32,0a2.56,2.56,0,0,1-.39,0,6.6,6.6,0,0,1,1.26,1.86,8.75,8.75,0,0,1,.36.89Z"/><path class="cls-5" d="M266.7,110.63l-2.13,5.83-26.71-6.37a8.75,8.75,0,0,0-.36-.89,6.6,6.6,0,0,0-1.26-1.86,2.56,2.56,0,0,0,.39,0c.11,0,.21,0,.32,0a3.9,3.9,0,0,0,2.45,1.58,3.27,3.27,0,0,0,.54,0,4.37,4.37,0,0,0,2.79-1.16,3.68,3.68,0,0,0,.67.48,4.61,4.61,0,0,0,2.33.64,5.16,5.16,0,0,0,4.24-2.48l.54-.81Z"/><path class="cls-4" d="M251.08,101l-.11.09a16.51,16.51,0,0,0-3.26,3.92c-.12.19-1.28,1.92-3,1-.59-.34-.76-1.06-.49-2.14.57-2.34,2.85-4.8,4.52-4.86h.06C249.73,99,250.42,99.68,251.08,101Z"/><path class="cls-4" d="M242,96.85c.61-.11,1.51.41,2.52,1.46a10.74,10.74,0,0,0-2.89,4.87,5.79,5.79,0,0,0-.15,2.12c-.64.67-1.22,1-1.65,1a1.68,1.68,0,0,1-1-.83,13,13,0,0,1,.85-5.47C240.13,99,241,97,242,96.85Z"/><path class="cls-4" d="M238.54,94.51a1.86,1.86,0,0,1,1.06.69A10.35,10.35,0,0,0,237.23,99a14.58,14.58,0,0,0-1,5.47,3.6,3.6,0,0,1-.78-1.11,18,18,0,0,1,0-4.46,6,6,0,0,1,1.1-3.17A3.05,3.05,0,0,1,238.54,94.51Z"/><path class="cls-4" d="M235.08,110.33c.42.92.82,2.16.27,2.84a3.43,3.43,0,0,1-2.77.75c-2.05-.45-4.37-3-5.09-3.91l0,0a4.68,4.68,0,0,1,.39-1.27C229.2,108.19,233.48,106.87,235.08,110.33Z"/><path class="cls-4" d="M232.16,95.21a1.61,1.61,0,0,1,1.62-.11,10.11,10.11,0,0,0-1,3.49,20.83,20.83,0,0,0,0,4.67,1.89,1.89,0,0,1-1.31,0,2.26,2.26,0,0,1-.94-1.45,9.06,9.06,0,0,1,.17-4.17A4.22,4.22,0,0,1,232.16,95.21Z"/><path class="cls-3" d="M227.25,100.48l5.39,5.6-7.24.41-1.69-.95s-3,1.39-3.47,1.76-4.68.08-4.68.08l-3.4-1.57-3.45-5.46L210,95.86a19.42,19.42,0,0,1,1.59-2.74c.35-.28,3.82-2.09,3.82-2.09L218,89.74s3,.34,3.71.55c.07,0,.12,0,.13.07.15.22,1.62,2.22,1.77,2.43s3.09,3.7,3.09,3.7l-.49,4.29Zm2.7,5a5,5,0,0,1-2.09-3.17s0-.08,0-.13a10.18,10.18,0,0,1-.78,1.95,9.76,9.76,0,0,1-1.37,2l1.06.2A12.56,12.56,0,0,1,230,105.45Zm-5.25-2.59a7.49,7.49,0,1,0-4.41,3.66A7.47,7.47,0,0,0,224.7,102.86Z"/><path class="cls-5" d="M227.86,102.28a5,5,0,0,0,2.09,3.17,12.56,12.56,0,0,0-3.2.82l-1.06-.2a9.76,9.76,0,0,0,1.37-2,10.18,10.18,0,0,0,.78-1.95S227.85,102.24,227.86,102.28Z"/><path class="cls-3" d="M227.46,263.21c-.05.21-.1.41-.16.62h0l0,.05a.64.64,0,0,1-.13.15,1.27,1.27,0,0,1-.94.4,1.34,1.34,0,0,1-1.28-.93l-.31-1Z"/><path class="cls-3" d="M227.26,263.89l0-.05c-6.45,24.4-45.48,27.61-65.58,27.61-3.85,0-7-.12-9.11-.22l-2.34-3.16c3.6.25,67.16,4.33,74.27-25.56h.06l.31,1a1.34,1.34,0,0,0,1.28.93,1.27,1.27,0,0,0,.94-.4A.64.64,0,0,0,227.26,263.89Z"/><path class="cls-3" d="M227.13,264a.64.64,0,0,0,.13-.15A.64.64,0,0,1,227.13,264Z"/><path class="cls-5" d="M225.23,97.15a7.49,7.49,0,1,1-3.66-4.41A7.47,7.47,0,0,1,225.23,97.15Z"/><polygon class="cls-6" points="211.79 222.33 224.6 262.52 224.59 262.52 211.79 222.33"/><path class="cls-6" d="M211.79,222.33l12.8,40.19h-.05c-7.11,29.89-70.67,25.81-74.27,25.56l-2-2.72a10.06,10.06,0,0,0,2.68.44c.23,0,.45,0,.67,0a3.58,3.58,0,0,0,2.51-1.42,4.88,4.88,0,0,0,.67-3.5,1.34,1.34,0,0,0-.81-1l-2.85-1.16a10.9,10.9,0,0,1-4.23-2.9c-6.15-7.16-14.41-4.66-18.47-2l-.56-.23a1.34,1.34,0,0,0-.82-.81l-.08,0,0,0h0a1.38,1.38,0,0,0-.42-.13,11.91,11.91,0,0,1-2.38-.51l-.07,0-.19-.08,8.33-42.17a1.28,1.28,0,0,0-.1-.82c-8-17.05-10.62-39-7-57.52a29.27,29.27,0,0,0,2.85,2c2.21,1.41,4.13,2.63,4.27,4.61.1,1.46-.88,2.91-1.93,4.44-1.24,1.81-2.65,3.87-2.34,6.36s2.1,4.4,5.07,5.78c.64.29,1.29.55,1.94.81a13.94,13.94,0,0,1,3.77,1.93c1.24,1,2,2.93,1.19,4.07a1.35,1.35,0,0,0,.29,1.87,1.37,1.37,0,0,0,.79.25A1.32,1.32,0,0,0,142,203c1.8-2.46.54-5.92-1.66-7.72l2.34-.3c.44.33.88.65,1.29,1,1.55,1.24,2.89,3.25,2.2,4.73a1.34,1.34,0,0,0,.64,1.78,1.46,1.46,0,0,0,.57.12,1.33,1.33,0,0,0,1.21-.77c1.4-3-.71-6.15-2.94-7.94l2-1.16a13.2,13.2,0,0,0,6.36,4.68,1.25,1.25,0,0,0,.43.07,1.33,1.33,0,0,0,.42-2.6,10.91,10.91,0,0,1-7.18-9.67,27,27,0,0,1,.37-4.36,25.83,25.83,0,0,0,.38-4.94l1.9,0a39.78,39.78,0,0,0,1.3,10.63c1.53,4.94,6,9.84,11.36,9.84a9.2,9.2,0,0,0,1-.06,1.34,1.34,0,0,0-.31-2.66c-4.43.51-8.23-3.69-9.54-7.91a22.21,22.21,0,0,1-.66-2.88,27.33,27.33,0,0,0,12.09,4.41c1.21.12,2.39.19,3.53.19,6.14,0,11.26-1.84,15.25-5.49,4.52-4.13,9.84-12.83,9.72-30.94a47.66,47.66,0,0,1,14.13,3.76,1.28,1.28,0,0,0,0,.27,137.75,137.75,0,0,1,3.34,66.3,1.38,1.38,0,0,0,0,.67Z"/><path class="cls-4" d="M196.65,92s0,.09,0,.15a27.43,27.43,0,0,1-3.17,8.39,1.3,1.3,0,0,0-.16.92c.29,1.52.55,3.08.78,4.62l-12.28,1.1a1.32,1.32,0,0,0-1.15,1.74c1.2,3.67,5,7.16,12,7.16a22.72,22.72,0,0,0,2.4-.15c.09,3.61-.22,6.27-1.09,6.84-1.71,1.13-7.35,2-11.06,2h-.42c-3,0-5.34,0-7.65,2.78l-.12.16a12.41,12.41,0,0,0-1.45,7.56l.07.5c.29,1.94.58,3.88.91,5.81a12.89,12.89,0,0,0,1.22,4.08,10,10,0,0,0,7,4.67,28.17,28.17,0,0,0,6,.41h1.7l1.31.05c.17,17.24-4.7,25.38-8.84,29.17s-9.75,5.34-16.7,4.61c-4.83-.51-8.17-2.16-12.73-5.16-.08-1.19-.12-2.4-.15-3.63,0-1.63-.1-3.32-.25-5-.6-6.76-3.21-11.78-7.33-14.14-.5-.29-1-.54-1.56-.79a6.69,6.69,0,0,1-2.82-1.93,4.26,4.26,0,0,1-.17-3.56,10.07,10.07,0,0,0,7.49-6.11,22.13,22.13,0,0,0,1.53-9.34,56.89,56.89,0,0,0-.92-10.72l-.1-14a1.33,1.33,0,0,0-1-1.28,8.06,8.06,0,0,1-4.7-3.9,13.77,13.77,0,0,1-1.57-6.42,9.84,9.84,0,0,1,.85-4.75,4.39,4.39,0,0,1,3.18-2.47A7.49,7.49,0,0,1,151,93.31c1.11,1.08,1.62,1.59,1.84,1.82a2.2,2.2,0,0,0,.2.23,1.41,1.41,0,0,0,1.93,0c.43-.45.61-.74.39-1.2A184.79,184.79,0,0,1,164,65.33c3.77-3.56,7.73-5.18,12.29-7l.59-.24c7.68,5.61,12.43,16.29,11.32,25.71a1.34,1.34,0,0,0,.08.63,1.31,1.31,0,0,0,.47,1.08l7.8,6.47Zm-13.59-2.45a1.07,1.07,0,0,0,.88-1.25,5,5,0,0,0-4.47-4.12,4.7,4.7,0,0,0-1.29.06A5,5,0,0,0,174.12,90a1.07,1.07,0,0,0,1.25.88,1.09,1.09,0,0,0,.89-1.25,2.81,2.81,0,0,1,4.39-2.78,2.74,2.74,0,0,1,1.15,1.82A1.09,1.09,0,0,0,183.06,89.54Zm-1.22-15.12a1.33,1.33,0,0,0-.88-1.67,9.31,9.31,0,0,0-8,1.32,16.86,16.86,0,0,0-4.34,5.39,1.35,1.35,0,0,0,.47,1.84,1.38,1.38,0,0,0,.68.18,1.33,1.33,0,0,0,1.15-.65,14.72,14.72,0,0,1,3.61-4.59,6.59,6.59,0,0,1,5.68-.94A1.33,1.33,0,0,0,181.84,74.42Zm-30.66,32.15a1.33,1.33,0,0,0-.58-1.8,2.51,2.51,0,0,1-.09-4.41,1.34,1.34,0,0,0,.67-1,1.36,1.36,0,0,0-.33-1.11l-4.31-4.81a1.33,1.33,0,1,0-2,1.78l3.38,3.78a5.17,5.17,0,0,0,1.46,8.1,1.3,1.3,0,0,0,.6.15A1.33,1.33,0,0,0,151.18,106.57Z"/><path class="cls-3" d="M183.94,88.29a1.07,1.07,0,0,1-.88,1.25,1.09,1.09,0,0,1-1.26-.88,2.74,2.74,0,0,0-1.15-1.82,2.81,2.81,0,0,0-4.39,2.78,1.09,1.09,0,0,1-.89,1.25,1.07,1.07,0,0,1-1.25-.88,5,5,0,0,1,4.06-5.76,4.7,4.7,0,0,1,1.29-.06A5,5,0,0,1,183.94,88.29Z"/><path class="cls-3" d="M181,72.75a1.33,1.33,0,0,1-.79,2.55,6.59,6.59,0,0,0-5.68.94,14.72,14.72,0,0,0-3.61,4.59,1.33,1.33,0,0,1-1.15.65,1.38,1.38,0,0,1-.68-.18,1.35,1.35,0,0,1-.47-1.84,16.86,16.86,0,0,1,4.34-5.39A9.31,9.31,0,0,1,181,72.75Z"/><path class="cls-3" d="M161.22,67.78l-7.38,26c-2.5-2.84-8-4-8-4l-2.78,1s-2.91,1.92-2.43,8.58S147.26,111,147.26,111l.51,13.12s-2.55-1.83-3.56-1.52-6.87-2-6.87-2-4.84-4.33-4.12-5,3.28-11.4,3.28-11.4l-1.16-6.1s-2.67-8.33-2-14.08,7.37-14.11,13.94-16.25S161.22,67.78,161.22,67.78ZM153.14,91.7A193,193,0,0,1,160,68.49,20.29,20.29,0,0,0,141,73.11a21.9,21.9,0,0,0-6.66,18.61,18.33,18.33,0,0,0,1.49,4.36l.17.39.33.79a21.85,21.85,0,0,1,.87,2.37c0,.14.08.27.11.4a9.92,9.92,0,0,1,.25,1.18l.06.46c0,.09,0,.17,0,.25a6.09,6.09,0,0,1,0,.74,27.25,27.25,0,0,1-2.26,8.73,44.23,44.23,0,0,0-1.58,4.62l.06,0c4.18,4.25,7.3,5.11,12,6.42l.42.12-.08-11.35a11,11,0,0,1-5.35-4.84c-.15-.27-.29-.54-.42-.82s-.26-.57-.37-.86-.21-.57-.31-.87c0,0,0-.08,0-.13-.09-.27-.16-.55-.23-.84s-.13-.54-.18-.81-.14-.73-.19-1.11c0,0,0,0,0-.07-.08-.69-.14-1.4-.16-2.15a12.41,12.41,0,0,1,1.14-6,7,7,0,0,1,5.3-3.91,10.13,10.13,0,0,1,7.41,2.61Z"/><path class="cls-7" d="M160,68.49a193,193,0,0,0-6.82,23.21l-.3-.3a10.13,10.13,0,0,0-7.41-2.61,7,7,0,0,0-5.3,3.91,12.41,12.41,0,0,0-1.14,6,21.08,21.08,0,0,0,.16,2.15s0,0,0,.07l-1.56.25a9.92,9.92,0,0,0-.25-1.18c0-.13-.07-.27-.11-.4a21.85,21.85,0,0,0-.87-2.37l-.33-.79-.17-.39a18.33,18.33,0,0,1-1.49-4.36A21.9,21.9,0,0,1,141,73.11,20.29,20.29,0,0,1,160,68.49ZM151.6,78.64a1.31,1.31,0,0,0,0-1.85l-.15-.16a1.31,1.31,0,1,0-1.85,1.85l.15.16A1.31,1.31,0,0,0,151.6,78.64Zm-1.23,6.17a1.31,1.31,0,0,0,0-1.85l-.16-.16a1.31,1.31,0,0,0-1.85,1.85l.16.16A1.31,1.31,0,0,0,150.37,84.81Zm-4.94-7.4a1.32,1.32,0,0,0,0-1.86l-.15-.15a1.31,1.31,0,0,0-1.85,1.85l.15.16A1.31,1.31,0,0,0,145.43,77.41Zm-1.23,6.16a1.31,1.31,0,0,0,0-1.85l-.16-.15a1.31,1.31,0,0,0-1.85,1.85l.16.15A1.31,1.31,0,0,0,144.2,83.57Z"/><path class="cls-3" d="M154.79,280.83a4.88,4.88,0,0,1-.67,3.5,3.58,3.58,0,0,1-2.51,1.42c-.22,0-.44,0-.67,0a10.06,10.06,0,0,1-2.68-.44l2,2.72h-.15l-.24,3-.47.35-6.15-8.31h0l-3.15-4.25a1.34,1.34,0,0,1,2.15-1.59l3,4c1.65.88,4.56,2.07,6.06,1.87a.84.84,0,0,0,.68-.33,1.48,1.48,0,0,0,.23-.76l-2.05-.84a13.39,13.39,0,0,1-5.25-3.64c-6.53-7.59-15.14-1.46-15.51-1.19a1.34,1.34,0,0,1-1.31.14l-.65-.27.49-2a1.34,1.34,0,0,0,0-.72l.56.23c4.06-2.61,12.32-5.11,18.47,2a10.9,10.9,0,0,0,4.23,2.9l2.85,1.16A1.34,1.34,0,0,1,154.79,280.83Z"/><path class="cls-3" d="M154,293.12c.71,1.15,1.42,3.37-.11,5a7.78,7.78,0,0,1-1.21,1,1.4,1.4,0,0,1,.09.47,4.49,4.49,0,0,1-2.71,3.72,3.64,3.64,0,0,1-1.64.41,3.45,3.45,0,0,1-2.14-.78,4.29,4.29,0,0,1-3,1.24,5.39,5.39,0,0,1-1.72-.29,1.34,1.34,0,0,1-.62-.43l-.85-1.05a4.18,4.18,0,0,1-1.8.35,9.52,9.52,0,0,1-1.74-.18c-.75-.14-3-.56-12.38-10.4a15.83,15.83,0,0,0-1.26-1.2,1.35,1.35,0,0,0,1.09-.59,1.43,1.43,0,0,0,.22-.52,1.27,1.27,0,0,0,0-.55l.15-.63a21,21,0,0,1,1.75,1.65c6.45,6.79,9.92,9.42,10.93,9.61a6.12,6.12,0,0,0,1.18.13l-3.52-4.37a1.34,1.34,0,1,1,2.08-1.68l6,7.42a1.69,1.69,0,0,0,1.82-.56l-5.76-7.41a1.34,1.34,0,1,1,2.11-1.64l6.59,8.48a.91.91,0,0,1,.11.16.91.91,0,0,0,1.29.43,2.24,2.24,0,0,0,1.11-1,1.28,1.28,0,0,1-.45-.36l-7-8.74a1.34,1.34,0,1,1,2.08-1.68l6.4,7.95a5.05,5.05,0,0,0,1-.8c.48-.51-.16-1.65-.17-1.66l-2.38-3.21.47-.35c.29,0,1.24.1,2.73.18Z"/><path class="cls-3" d="M150.27,288.07l2.34,3.16c-1.49-.08-2.44-.16-2.73-.18l.24-3Z"/><path class="cls-4" d="M150.13,281.16l2.05.84a1.48,1.48,0,0,1-.23.76.84.84,0,0,1-.68.33c-1.5.2-4.41-1-6.06-1.87l-3-4a1.34,1.34,0,0,0-2.15,1.59l3.15,4.25h0l6.15,8.31,2.38,3.21s.65,1.15.17,1.66a5.05,5.05,0,0,1-1,.8l-6.4-7.95a1.34,1.34,0,1,0-2.08,1.68l7,8.74a1.28,1.28,0,0,0,.45.36,2.24,2.24,0,0,1-1.11,1,.91.91,0,0,1-1.29-.43.91.91,0,0,0-.11-.16l-6.59-8.48a1.34,1.34,0,1,0-2.11,1.64l5.76,7.41a1.69,1.69,0,0,1-1.82.56l-6-7.42a1.34,1.34,0,1,0-2.08,1.68l3.52,4.37A6.12,6.12,0,0,1,137,300c-1-.19-4.48-2.82-10.93-9.61a21,21,0,0,0-1.75-1.65l3.07-12.52.65.27a1.34,1.34,0,0,0,1.31-.14c.37-.27,9-6.4,15.51,1.19A13.39,13.39,0,0,0,150.13,281.16Z"/><path class="cls-3" d="M151.6,76.79a1.31,1.31,0,1,1-1.85,1.85l-.15-.16a1.31,1.31,0,1,1,1.85-1.85Z"/><path class="cls-3" d="M150.6,104.77a1.34,1.34,0,0,1-.61,2.53,1.3,1.3,0,0,1-.6-.15,5.17,5.17,0,0,1-1.46-8.1l-3.38-3.78a1.33,1.33,0,1,1,2-1.78l4.31,4.81a1.36,1.36,0,0,1,.33,1.11,1.34,1.34,0,0,1-.67,1,2.51,2.51,0,0,0,.09,4.41Z"/><path class="cls-3" d="M150.37,83a1.31,1.31,0,0,1-1.85,1.85l-.16-.16a1.31,1.31,0,0,1,1.85-1.85Z"/><path class="cls-7" d="M146.25,111.24l.08,11.35-.42-.12c-4.71-1.31-7.83-2.17-12-6.42l-.06,0a44.23,44.23,0,0,1,1.58-4.62,27.25,27.25,0,0,0,2.26-8.73,6.09,6.09,0,0,0,0-.74,2.09,2.09,0,0,0,0-.25l-.06-.46,1.56-.25c.05.38.11.75.19,1.11s.11.55.18.81.14.57.23.84c0,0,0,.09,0,.13.1.3.2.59.31.87s.24.58.37.86.27.55.42.82A11,11,0,0,0,146.25,111.24Z"/><path class="cls-3" d="M145.43,75.55a1.31,1.31,0,0,1-1.85,1.86l-.15-.16a1.31,1.31,0,0,1,1.85-1.85Z"/><path class="cls-3" d="M144.2,81.72a1.31,1.31,0,0,1-1.85,1.85l-.16-.15A1.31,1.31,0,0,1,144,81.57Z"/><path class="cls-3" d="M140.48,105.58c.13.28.27.55.42.82C140.75,106.13,140.61,105.86,140.48,105.58Z"/><path class="cls-3" d="M140.11,104.72c.11.29.24.58.37.86C140.35,105.3,140.23,105,140.11,104.72Z"/><path class="cls-3" d="M139.8,103.85c.1.3.2.59.31.87C140,104.44,139.9,104.15,139.8,103.85Z"/><path class="cls-3" d="M139.53,102.88c.07.29.14.57.23.84C139.67,103.45,139.6,103.17,139.53,102.88Z"/><path class="cls-3" d="M139.35,102.07c.05.27.11.55.18.81Q139.43,102.49,139.35,102.07Z"/><path class="cls-7" d="M139,98.74c0,.75.08,1.46.16,2.15A21.08,21.08,0,0,1,139,98.74Z"/><path class="cls-3" d="M137.67,101.92c0-.08,0-.16,0-.25A2.09,2.09,0,0,1,137.67,101.92Z"/><path class="cls-3" d="M137.35,100c0-.13-.07-.26-.11-.4C137.28,99.76,137.32,99.9,137.35,100Z"/><path class="cls-7" d="M136,96.47l.33.79Z"/><path class="cls-8" d="M127.87,273.5a1.34,1.34,0,0,1,0,.72l-.49,2c-.81-.34-1.63-.66-2.45-1l0-.17c-.41-.08-.82-.18-1.22-.3l-2-.79h0c-.82-.34-1.65-.69-2.46-1.07-.48-.22-1-.46-1.44-.7s-.64-.37-.89-.53c0,0,0,0,0,0-.79-.41-1.57-.86-2.33-1.32l.77-.87.11-.08a1.19,1.19,0,0,1,.15-.35h0a1.35,1.35,0,0,1,1-.57c1.12.66,2.28,1.27,3.46,1.82l.3.15h0a21.53,21.53,0,0,0,3.56,1.51l.07,0,1.48.6Z"/><path class="cls-8" d="M127.41,276.2l-3.07,12.52a20.78,20.78,0,0,0-2.29-1.69L125,275.21C125.78,275.54,126.6,275.86,127.41,276.2Z"/><path class="cls-1" d="M127.05,272.69a1.34,1.34,0,0,1,.82.81l-2.27-.91-1.48-.6a11.91,11.91,0,0,0,2.38.51,1.38,1.38,0,0,1,.42.13h0l0,0Z"/><path class="cls-3" d="M125,275l0,.17-.34-.13-.84-.34C124.18,274.86,124.59,275,125,275Z"/><path class="cls-4" d="M125,275.21,122.05,287c-.31-.2-.63-.4-1-.58a1.23,1.23,0,0,0-.26-.12l-1.43-.47c0-.47,0-.93,0-1.36l-.09-6.46a.75.75,0,0,0,0-.16c.79-1,1.56-2,2.29-3.09l.43-.63a17.62,17.62,0,0,0,1.78.58l.84.34Z"/><path class="cls-8" d="M124.34,288.72l-.15.63a1.27,1.27,0,0,1,0,.55,1.43,1.43,0,0,1-.22.52,1.35,1.35,0,0,1-1.09.59,18.86,18.86,0,0,0-3-2.17,98.07,98.07,0,0,1-10-3.79l.43-.05a37.08,37.08,0,0,1-4.21-3.72,1.36,1.36,0,0,1-.35-1.22q2.77,1.47,5.8,2.79c.82.36,1.65.71,2.5,1l-.21.22c1,.67,2,1.25,3,1.73,0-.29,0-.58,0-.88.86.31,1.73.61,2.62.9,0,.38,0,.77-.07,1.17,1,.42,1.85.71,2.49.91l.22-.91A20.78,20.78,0,0,1,124.34,288.72Z"/><path class="cls-8" d="M121.83,274l2,.79a17.62,17.62,0,0,1-1.78-.58l-.43.63c-.73,1-1.5,2.08-2.29,3.09a.75.75,0,0,1,0,.16l.09,6.46c0,.43,0,.89,0,1.36-.89-.29-1.76-.59-2.62-.9v-.43l-.05-3.57c-.87,1-1.78,2-2.71,2.93-.85-.33-1.68-.68-2.5-1l.12-.28a69.1,69.1,0,0,0,7.9-9.51c-.61-.31-1.16-.61-1.64-.89.48.24,1,.48,1.44.7.81.38,1.64.73,2.46,1.07Z"/><path class="cls-8" d="M122.89,291l-.31,0a23.09,23.09,0,0,1-3.52-1.08,16.94,16.94,0,0,1,2.28,7.54c.24,4.5-3.62,12.15-3.78,12.48l-.1.15a1.31,1.31,0,0,1-2.13,0c-.47-.63-4.56-6.27-5.34-9.26a15.7,15.7,0,0,1,.43-8.51l-.14.24c-.16.26-.33.52-.5.77a19,19,0,0,1-17.56,7.82,1.31,1.31,0,0,1-.89-.52,1.35,1.35,0,0,1-.23-1c0-.22,1.06-5.46,8.64-11.05a21.36,21.36,0,0,1,10.12-3.53,98.07,98.07,0,0,0,10,3.79A18.86,18.86,0,0,1,122.89,291Zm-6.73,15.71c1.18-2.68,2.69-6.73,2.56-9.13a14,14,0,0,0-3.87-9c-1.25,2.25-3.48,7.11-2.32,11.56C112.94,301.73,114.75,304.64,116.16,306.72Zm-8.11-15.53a24.19,24.19,0,0,0,1.72-3.5,18.7,18.7,0,0,0-8.48,3c-4.38,3.23-6.29,6.28-7.09,8A16.22,16.22,0,0,0,108.05,291.19Z"/><path class="cls-4" d="M122.94,169a1.45,1.45,0,0,0-.28.57,93.11,93.11,0,0,0-1.82,20.49A52.62,52.62,0,0,0,101,201.9C95.54,207,91.9,213,90.53,219.33a34.93,34.93,0,0,0-.71,8.22,52.12,52.12,0,0,0,24.83,42.81c-2.56,2.92-5.23,5.79-7.94,8.55a.83.83,0,0,0-.08.12,1.32,1.32,0,0,0-.51.3,1.34,1.34,0,0,0-.39.73C74.36,263.5,66.87,234,66.83,222.66c-.09-25.83,15.06-46,46.31-61.78,2.35-1.18,4.81-2.34,7.31-3.46a1.34,1.34,0,0,0,.31-.22,4.76,4.76,0,0,1,.82,1c.65,1.2.53,2.77.41,4.42a11.45,11.45,0,0,0,.44,5.37A7.23,7.23,0,0,0,122.94,169Z"/><path class="cls-3" d="M122.05,287l-.22.91c-.64-.2-1.49-.49-2.49-.91,0-.4.06-.79.07-1.17l1.43.47a1.23,1.23,0,0,1,.26.12C121.42,286.63,121.74,286.83,122.05,287Z"/><path class="cls-4" d="M117.91,272.17c.48.28,1,.58,1.64.89a69.1,69.1,0,0,1-7.9,9.51A33.31,33.31,0,0,1,109,280.3c2.73-2.8,5.41-5.68,8-8.62Z"/><path class="cls-3" d="M117.91,272.17l-.93-.49s0,0,0,0C117.27,271.8,117.57,272,117.91,272.17Z"/><path class="cls-8" d="M117.6,268.73a27.51,27.51,0,0,0,2.58,1.57c-1.18-.55-2.34-1.16-3.46-1.82A1.37,1.37,0,0,1,117.6,268.73Z"/><path class="cls-3" d="M116.79,285c0,.3,0,.59,0,.88-.93-.48-1.93-1.06-3-1.73l.21-.22C114.93,284.26,115.85,284.61,116.79,285Z"/><path class="cls-4" d="M116.79,284.53V285c-.94-.35-1.86-.7-2.76-1.07.93-.95,1.84-1.93,2.71-2.93Z"/><path class="cls-8" d="M114.65,270.36c.76.46,1.54.91,2.33,1.32-2.56,2.94-5.24,5.82-8,8.62a33.31,33.31,0,0,0,2.64,2.27l-.12.28q-3-1.32-5.8-2.79a1.34,1.34,0,0,1,.39-.73,1.32,1.32,0,0,1,.51-.3.83.83,0,0,1,.08-.12C109.42,276.15,112.09,273.28,114.65,270.36Z"/></svg>